<svg width="35" height="20" viewBox="0 0 35 20" fill="none" xmlns="http://www.w3.org/2000/svg">
<path opacity="0.5" d="M34.5285 5.2999L29.6038 0.477917C29.2688 0.150575 28.8198 -0.00965102 28.3747 0.000449292C27.9709 0.00963139 27.569 0.159759 27.2572 0.449913L22.2011 5.14885C21.5446 5.75992 21.5307 6.76307 22.1708 7.38929C22.8104 8.01367 23.8614 8.02974 24.5169 7.41821L26.5911 5.4918C26.6315 5.4335 26.7307 5.34627 26.8467 5.25123C26.4097 11.2269 21.7424 16.1182 15.4413 17.0351C10.5474 17.7462 5.6477 15.8474 2.65475 12.0786C2.32653 11.6663 1.78993 11.4588 1.25332 11.5368C1.01269 11.5713 0.781207 11.6645 0.585335 11.8063C0.153164 12.119 -0.0648462 12.6313 0.0169678 13.1432C0.0540248 13.3733 0.152201 13.5936 0.299948 13.7805C3.94837 18.3738 9.92031 20.6882 15.887 19.82C23.6559 18.6897 29.4002 12.6047 29.8189 5.20578C29.8738 5.25858 29.9195 5.30908 29.9407 5.34719L32.1521 7.51187C32.7921 8.13625 33.8432 8.15048 34.4977 7.54125C35.1556 6.93018 35.1686 5.9275 34.5285 5.2999Z" fill="#FCFCFC"/>
</svg>
