<svg width="35" height="20" viewBox="0 0 35 20" fill="none" xmlns="http://www.w3.org/2000/svg">
<path opacity="0.5" d="M12.8364 12.6394C12.1969 12.0165 11.1448 12.0018 10.4884 12.6106L8.41443 14.5293C8.37061 14.592 8.25938 14.6875 8.13177 14.7914C8.52423 8.79381 13.2096 3.87199 19.5491 2.9545C24.4454 2.24511 29.3479 4.13727 32.3436 7.89232C32.672 8.30259 33.2089 8.50978 33.7463 8.43157C33.9871 8.39681 34.2182 8.30396 34.4142 8.16309C34.8461 7.85116 35.0643 7.34164 34.9834 6.83167C34.9463 6.60161 34.8481 6.38253 34.6997 6.19637C31.0497 1.62033 25.0738 -0.685299 19.1041 0.179141C11.3114 1.30794 5.55409 7.39561 5.15875 14.7905C5.11637 14.747 5.08026 14.7063 5.06244 14.6743L2.84977 12.5178C2.2098 11.8957 1.15764 11.8816 0.501779 12.4885C-0.155522 13.0968 -0.168523 14.0957 0.471442 14.7205L5.4 19.5238C5.73515 19.8509 6.18394 20.01 6.62937 19.9995C7.03338 19.9899 7.4345 19.8417 7.7475 19.5517L12.8056 14.8705C13.4629 14.2631 13.4764 13.2637 12.8364 12.6394ZM6.68667 16.9035C6.70641 16.9031 6.72568 16.9017 6.74494 16.8999C6.72664 16.9214 6.70786 16.9214 6.68667 16.9035Z" fill="#FCFCFC"/>
</svg>
