<svg width="12" height="11" viewBox="0 0 12 11" fill="none" xmlns="http://www.w3.org/2000/svg">
<path d="M5.21447 6.21954C5.77535 6.73716 6.39771 7.19556 7.06992 7.58618L7.95621 6.30021C7.99408 6.24523 8.0529 6.20513 8.12123 6.1877C8.18957 6.17027 8.26253 6.17677 8.32593 6.20592L11.8425 7.8177C11.9064 7.84713 11.956 7.89747 11.9814 7.95876C12.0068 8.02005 12.0062 8.08785 11.9797 8.14875L10.8077 10.8354C10.7834 10.8911 10.7389 10.9374 10.6819 10.9667C10.6248 10.996 10.5584 11.0064 10.4939 10.9962C7.78821 10.5703 5.47676 9.48029 3.56703 7.73022C1.65787 5.97964 0.468714 3.86028 0.00413838 1.38055C-0.00695527 1.32145 0.00441267 1.26065 0.0363426 1.2083C0.0682725 1.15596 0.11883 1.11525 0.179569 1.09297L3.11045 0.0186292C3.17689 -0.0056563 3.25085 -0.0062163 3.31772 0.01706C3.38458 0.0403364 3.43949 0.085756 3.4716 0.144345L5.2299 3.3679C5.26171 3.42601 5.26879 3.4929 5.24978 3.55554C5.23077 3.61818 5.18702 3.6721 5.12704 3.70681L3.72417 4.51924C4.15012 5.1354 4.65 5.70538 5.21447 6.21954Z" fill="white"/>
</svg>
