<svg width="179" height="107" viewBox="0 0 179 107" fill="none" xmlns="http://www.w3.org/2000/svg">
<path fill-rule="evenodd" clip-rule="evenodd" d="M84.415 106.192C110.077 105.532 127.553 103.539 142.173 100.982V82.0869L109.684 79.3101H84.415V106.192Z" fill="#6AC762"/>
<path fill-rule="evenodd" clip-rule="evenodd" d="M82.1933 79.3101H29.9893V104.761C42.5291 106.031 58.2197 106.768 81.638 106.245C81.8235 106.241 82.0086 106.237 82.1933 106.232V79.3101Z" fill="#6AC762"/>
<path fill-rule="evenodd" clip-rule="evenodd" d="M84.415 27.1055H109.129L142.173 24.3287V5.43341C127.553 2.87567 110.077 0.882812 84.415 0.223267V27.1055Z" fill="#6AC762"/>
<path fill-rule="evenodd" clip-rule="evenodd" d="M82.1933 0.182503C82.0086 0.178226 81.8235 0.174017 81.638 0.169876C58.2197 -0.352945 42.5291 0.384103 29.9893 1.65428V27.1055H82.1933V0.182503Z" fill="#6AC762"/>
<path opacity="0.2" fill-rule="evenodd" clip-rule="evenodd" d="M108.295 29.3273H64.4219V77.0884H108.295V29.3273Z" fill="#EBEBEB"/>
<path opacity="0.2" fill-rule="evenodd" clip-rule="evenodd" d="M62.2003 29.3273H29.9893V77.0884H62.2003V29.3273Z" fill="#EBEBEB"/>
<path opacity="0.2" fill-rule="evenodd" clip-rule="evenodd" d="M142.173 31.4012C138.885 31.8074 135.452 32.1366 131.899 32.3817C128.566 32.3817 128.566 34.0473 128.566 38.2125V68.2026C128.566 72.3678 128.566 74.0333 131.899 74.0333C135.452 74.2785 138.885 74.6077 142.173 75.0139V79.8652L110.517 77.0884V29.3272L142.173 26.5504V31.4012Z" fill="#EBEBEB"/>
<path opacity="0.2" fill-rule="evenodd" clip-rule="evenodd" d="M144.394 5.43323V31.1871C161.175 28.9466 173.365 24.6681 178.507 19.3363C179.239 18.5764 179.142 17.3865 178.31 16.7379C173.73 13.1638 163.679 8.80716 144.394 5.43323ZM144.394 75.2272C161.175 77.4676 173.365 81.7461 178.507 87.0779C179.239 87.8378 179.142 89.0277 178.31 89.6763C173.73 93.2504 163.679 97.607 144.394 100.981V75.2272Z" fill="#EBEBEB"/>
<path opacity="0.2" fill-rule="evenodd" clip-rule="evenodd" d="M27.7679 1.65405V104.76C7.00112 102.656 1.35524e-06 99.0891 0 97.3578L8.1837e-06 80.4197C8.1837e-06 77.7761 8.53203 75.5514 13.8806 74.5549C14.6831 74.4054 15.2725 73.7114 15.2725 72.8951V33.5185C15.2725 32.7022 14.6831 32.0082 13.8806 31.8587C8.53203 30.8623 8.1837e-06 28.6375 8.1837e-06 25.9939L0 9.05579C1.35524e-06 7.32448 7.00112 3.7578 27.7679 1.65405Z" fill="#EBEBEB"/>
</svg>
