<svg width="179" height="107" viewBox="0 0 179 107" fill="none" xmlns="http://www.w3.org/2000/svg">
<path fill-rule="evenodd" clip-rule="evenodd" d="M108.295 29.5205H64.4219V77.2816H108.295V29.5205Z" fill="#EBEBEB"/>
<path fill-rule="evenodd" clip-rule="evenodd" d="M62.2004 29.5205H29.9894V77.2816H62.2004V29.5205Z" fill="#EBEBEB"/>
<path fill-rule="evenodd" clip-rule="evenodd" d="M142.172 31.5949C138.885 32.0011 135.452 32.3303 131.898 32.5754C128.566 32.5754 128.566 34.241 128.566 38.4062V68.3963C128.566 72.5615 128.566 74.227 131.898 74.227C135.452 74.4722 138.885 74.8014 142.172 75.2076V80.0589L110.517 77.2821V29.521L142.172 26.7441V31.5949Z" fill="#EBEBEB"/>
<path fill-rule="evenodd" clip-rule="evenodd" d="M144.394 5.62695V31.3808C161.175 29.1404 173.365 24.8618 178.507 19.53C179.239 18.7702 179.142 17.5803 178.31 16.9316C173.73 13.3575 163.679 9.00089 144.394 5.62695ZM144.394 75.4209C161.175 77.6613 173.365 81.9399 178.507 87.2717C179.239 88.0315 179.142 89.2214 178.31 89.87C173.73 93.4441 163.679 97.8008 144.394 101.175V75.4209Z" fill="#EBEBEB"/>
<path fill-rule="evenodd" clip-rule="evenodd" d="M27.7679 1.84766V104.953C7.00112 102.849 1.35524e-06 99.2827 0 97.5514L8.1837e-06 80.6133C8.1837e-06 77.9697 8.53203 75.745 13.8806 74.7485C14.6831 74.599 15.2725 73.905 15.2725 73.0887V33.7121C15.2725 32.8958 14.6831 32.2019 13.8806 32.0523C8.53203 31.0559 8.1837e-06 28.8311 8.1837e-06 26.1875L0 9.2494C1.35524e-06 7.51809 7.00112 3.9514 27.7679 1.84766Z" fill="#EBEBEB"/>
</svg>
