<svg width="96" height="57" viewBox="0 0 96 57" fill="none" xmlns="http://www.w3.org/2000/svg">
<path fill-rule="evenodd" clip-rule="evenodd" d="M45.0986 56.8678C58.8082 56.5154 68.145 55.4508 75.9554 54.0843V43.9898L58.5985 42.5063H45.0986V56.8678Z" fill="#E7E7E7"/>
<path fill-rule="evenodd" clip-rule="evenodd" d="M43.9112 42.5063H16.0215V56.1032C22.7208 56.7818 31.1035 57.1756 43.6146 56.8963C43.7137 56.8941 43.8126 56.8918 43.9112 56.8895V42.5063Z" fill="#E7E7E7"/>
<path fill-rule="evenodd" clip-rule="evenodd" d="M45.0986 14.6161H58.3018L75.9554 13.1326V3.03789C68.145 1.67143 58.8082 0.606753 45.0986 0.254395V14.6161Z" fill="#E7E7E7"/>
<path fill-rule="evenodd" clip-rule="evenodd" d="M43.9112 0.232755C43.8126 0.23047 43.7137 0.228222 43.6146 0.22601C31.1035 -0.0533052 22.7208 0.340459 16.0215 1.01904V14.6162H43.9112V0.232755Z" fill="#E7E7E7"/>
<path fill-rule="evenodd" clip-rule="evenodd" d="M57.8567 15.8032H34.4175V41.3194H57.8567V15.8032Z" fill="#E7E7E7"/>
<path fill-rule="evenodd" clip-rule="evenodd" d="M33.2301 15.8032H16.0215V41.3194H33.2301V15.8032Z" fill="#E7E7E7"/>
<path fill-rule="evenodd" clip-rule="evenodd" d="M75.9548 16.9113C74.1985 17.1283 72.3643 17.3042 70.4659 17.4352C68.6857 17.4352 68.6857 18.325 68.6857 20.5502V36.5723C68.6857 38.7975 68.6857 39.6873 70.4659 39.6873C72.3643 39.8183 74.1985 39.9942 75.9548 40.2112V42.803L59.043 41.3195V15.8033L75.9548 14.3198V16.9113Z" fill="#E7E7E7"/>
<path fill-rule="evenodd" clip-rule="evenodd" d="M77.1421 3.03784V16.7967C86.107 15.5998 92.6198 13.314 95.3667 10.4655C95.7579 10.0595 95.7058 9.42384 95.2615 9.0773C92.8147 7.16788 87.4448 4.84035 77.1421 3.03784ZM77.1421 40.3249C86.107 41.5219 92.6198 43.8077 95.3667 46.6562C95.7579 47.0621 95.7058 47.6978 95.2615 48.0443C92.8147 49.9538 87.4448 52.2813 77.1421 54.0838V40.3249Z" fill="#E7E7E7"/>
<path fill-rule="evenodd" clip-rule="evenodd" d="M14.8349 1.01904V56.1027C3.74032 54.9788 7.24028e-07 53.0733 0 52.1483L4.37211e-06 43.0992C4.37211e-06 41.6869 4.5582 40.4983 7.41564 39.966C7.84437 39.8861 8.15924 39.5154 8.15924 39.0793V18.0425C8.15924 17.6064 7.84437 17.2356 7.41564 17.1558C4.5582 16.6234 4.37211e-06 15.4348 4.37211e-06 14.0225L0 4.97339C7.24028e-07 4.04844 3.74032 2.14296 14.8349 1.01904Z" fill="#E7E7E7"/>
</svg>
