<svg width="179" height="107" viewBox="0 0 179 107" fill="none" xmlns="http://www.w3.org/2000/svg">
<path opacity="0.2" fill-rule="evenodd" clip-rule="evenodd" d="M84.415 106.385C110.077 105.726 127.553 103.733 142.173 101.175V82.2802L109.684 79.5034H84.415V106.385Z" fill="#CCCCCC"/>
<path fill-rule="evenodd" clip-rule="evenodd" d="M82.1933 79.5034H29.9893V104.954C42.5291 106.224 58.2197 106.961 81.638 106.438C81.8235 106.434 82.0086 106.43 82.1933 106.426V79.5034Z" fill="#6AC762"/>
<path opacity="0.2" fill-rule="evenodd" clip-rule="evenodd" d="M84.415 27.2989H109.129L142.173 24.5221V5.62677C127.553 3.06903 110.077 1.07617 84.415 0.416626V27.2989Z" fill="#CCCCCC"/>
<path opacity="0.2" fill-rule="evenodd" clip-rule="evenodd" d="M82.1933 0.375862C82.0086 0.371585 81.8235 0.367376 81.638 0.363236C58.2197 -0.159585 42.5291 0.577462 29.9893 1.84764V27.2988H82.1933V0.375862Z" fill="#CCCCCC"/>
<path opacity="0.2" fill-rule="evenodd" clip-rule="evenodd" d="M108.295 29.5206H64.4219V77.2818H108.295V29.5206Z" fill="#EBEBEB"/>
<path opacity="0.2" fill-rule="evenodd" clip-rule="evenodd" d="M62.2003 29.5206H29.9893V77.2818H62.2003V29.5206Z" fill="#EBEBEB"/>
<path opacity="0.2" fill-rule="evenodd" clip-rule="evenodd" d="M142.173 31.5945C138.885 32.0007 135.452 32.3299 131.899 32.5751C128.566 32.5751 128.566 34.2406 128.566 38.4058V68.3959C128.566 72.5611 128.566 74.2267 131.899 74.2267C135.452 74.4718 138.885 74.801 142.173 75.2072V80.0585L110.517 77.2817V29.5206L142.173 26.7438V31.5945Z" fill="#EBEBEB"/>
<path opacity="0.2" fill-rule="evenodd" clip-rule="evenodd" d="M144.394 5.62659V31.3804C161.175 29.14 173.365 24.8614 178.507 19.5296C179.239 18.7698 179.142 17.5799 178.31 16.9312C173.73 13.3572 163.679 9.00052 144.394 5.62659ZM144.394 75.4205C161.175 77.6609 173.365 81.9395 178.507 87.2713C179.239 88.0311 179.142 89.221 178.31 89.8697C173.73 93.4437 163.679 97.8004 144.394 101.174V75.4205Z" fill="#EBEBEB"/>
<path opacity="0.2" fill-rule="evenodd" clip-rule="evenodd" d="M27.7679 1.84741V104.953C7.00112 102.849 1.35524e-06 99.2825 0 97.5512L8.1837e-06 80.6131C8.1837e-06 77.9695 8.53203 75.7447 13.8806 74.7482C14.6831 74.5987 15.2725 73.9048 15.2725 73.0885V33.7118C15.2725 32.8955 14.6831 32.2016 13.8806 32.0521C8.53203 31.0556 8.1837e-06 28.8309 8.1837e-06 26.1872L0 9.24915C1.35524e-06 7.51784 7.00112 3.95116 27.7679 1.84741Z" fill="#EBEBEB"/>
</svg>
