<svg width="68" height="35" viewBox="0 0 68 35" fill="none" xmlns="http://www.w3.org/2000/svg">
<path d="M20.4124 0.115784C20.2294 0.150691 20.0647 0.249103 19.9472 0.39365C19.8298 0.538198 19.7672 0.719588 19.7705 0.905804V8.01599H13.4503C13.4256 8.01483 13.4009 8.01483 13.3762 8.01599C13.1798 8.0345 12.9974 8.12583 12.8649 8.27203C12.7324 8.41823 12.6594 8.60871 12.6603 8.80601V19.2244L0.711233 20.6563C0.538265 20.6737 0.375847 20.7476 0.249145 20.8666C0.122443 20.9856 0.0385309 21.1431 0.0104085 21.3146C-0.0177139 21.4862 0.011524 21.6622 0.0935924 21.8155C0.175661 21.9687 0.305978 22.0906 0.464352 22.1623C2.83768 23.349 5.31026 24.5584 7.15484 26.2605C8.96521 27.9311 10.1962 30.0275 10.2902 33.1485C9.7909 33.2566 9.25944 33.2966 8.71019 33.2966C7.12503 33.2966 5.70013 32.8043 4.71071 32.0622C3.72129 31.3202 3.18005 30.3709 3.18005 29.3465C3.18453 29.2319 3.16399 29.1176 3.11985 29.0117C3.0757 28.9058 3.00902 28.8108 2.92444 28.7332C2.83986 28.6557 2.7394 28.5975 2.63006 28.5627C2.52071 28.528 2.40511 28.5174 2.29127 28.5318C2.09497 28.5564 1.91504 28.6538 1.78705 28.8046C1.65905 28.9555 1.59231 29.1488 1.60001 29.3465C1.60001 30.9401 2.47453 32.3479 3.77256 33.3213C5.07059 34.2949 6.80481 34.8767 8.71019 34.8767C10.6156 34.8767 12.3498 34.2949 13.6478 33.3213C14.2151 32.8959 14.6637 32.3631 15.0303 31.7907C15.397 32.3631 15.8456 32.8959 16.4129 33.3213C17.7109 34.2949 19.4451 34.8767 21.3505 34.8767C23.2559 34.8767 24.9901 34.2949 26.2881 33.3213C26.8554 32.8959 27.304 32.3631 27.6707 31.7907C28.0374 32.3631 28.486 32.8959 29.0532 33.3213C30.3512 34.2949 32.0855 34.8767 33.9908 34.8767C35.8962 34.8767 37.6304 34.2949 38.9285 33.3213C39.4957 32.8959 39.9443 32.3631 40.311 31.7907C40.6777 32.3631 41.1263 32.8959 41.6935 33.3213C42.9916 34.2949 44.7258 34.8767 46.6312 34.8767C48.5365 34.8767 50.2708 34.2949 51.5688 33.3213C52.136 32.8959 52.5846 32.3631 52.9513 31.7907C53.318 32.3631 53.7666 32.8959 54.3339 33.3213C55.6319 34.2949 57.3661 34.8767 59.2715 34.8767C61.1769 34.8767 62.9111 34.2949 64.2091 33.3213C65.5071 32.3479 66.3817 30.9401 66.3817 29.3465C66.3831 29.2418 66.3638 29.1379 66.3248 29.0408C66.2857 28.9436 66.2278 28.8552 66.1543 28.7806C66.0808 28.7061 65.9932 28.6469 65.8966 28.6065C65.8 28.5661 65.6963 28.5453 65.5916 28.5453C65.487 28.5453 65.3833 28.5661 65.2867 28.6065C65.1901 28.6469 65.1025 28.7061 65.029 28.7806C64.9555 28.8552 64.8976 28.9436 64.8585 29.0408C64.8195 29.1379 64.8001 29.2418 64.8016 29.3465C64.8016 30.3709 64.2604 31.3202 63.271 32.0622C62.2815 32.8043 60.8566 33.2966 59.2715 33.2966C58.4669 33.2966 57.7109 33.1729 57.0249 32.951C57.8077 29.8881 58.9346 26.0554 60.58 22.582C62.3192 18.9101 64.6163 15.7126 67.5173 14.2621C67.6962 14.1865 67.841 14.0478 67.924 13.8723C68.0071 13.6968 68.0227 13.4969 67.9677 13.3106C67.9128 13.1244 67.7912 12.9649 67.6261 12.8627C67.4611 12.7604 67.2642 12.7224 67.0729 12.7561L47.7668 15.0521L42.5082 8.31224C42.4342 8.21974 42.3402 8.14508 42.2334 8.09379C42.1266 8.04251 42.0095 8.01592 41.891 8.01599H35.4227L30.7073 0.486106C30.6365 0.37315 30.5382 0.279957 30.4217 0.215207C30.3051 0.150456 30.1741 0.116254 30.0407 0.115784H20.5605C20.5112 0.111145 20.4616 0.111145 20.4124 0.115784ZM21.3505 1.69582H29.5963L33.5464 8.01599H21.3505V1.69582ZM14.2403 9.59603H41.496L45.9152 15.2743L14.2403 19.0516V9.59603ZM64.1844 14.7065C62.1031 16.581 60.4538 19.1341 59.148 21.8907C57.4822 25.4075 56.3595 29.1954 55.5683 32.2597C55.4691 32.1953 55.3639 32.1311 55.272 32.0622C54.2826 31.3202 53.7413 30.3709 53.7413 29.3465C53.7384 29.1389 53.6539 28.9408 53.506 28.7951C53.3582 28.6493 53.1589 28.5676 52.9513 28.5676C52.7437 28.5676 52.5444 28.6493 52.3966 28.7951C52.2488 28.9408 52.1642 29.1389 52.1613 29.3465C52.1613 30.3709 51.6201 31.3202 50.6306 32.0622C49.6412 32.8043 48.2163 33.2966 46.6312 33.2966C45.046 33.2966 43.6211 32.8043 42.6317 32.0622C41.6423 31.3202 41.101 30.3709 41.101 29.3465C41.0981 29.1389 41.0136 28.9408 40.8657 28.7951C40.7179 28.6493 40.5186 28.5676 40.311 28.5676C40.1034 28.5676 39.9041 28.6493 39.7563 28.7951C39.6084 28.9408 39.5239 29.1389 39.521 29.3465C39.521 30.3709 38.9797 31.3202 37.9903 32.0622C37.0009 32.8043 35.576 33.2966 33.9908 33.2966C32.4057 33.2966 30.9808 32.8043 29.9914 32.0622C29.0019 31.3202 28.4607 30.3709 28.4607 29.3465C28.4578 29.1389 28.3732 28.9408 28.2254 28.7951C28.0776 28.6493 27.8783 28.5676 27.6707 28.5676C27.4631 28.5676 27.2638 28.6493 27.116 28.7951C26.9681 28.9408 26.8836 29.1389 26.8807 29.3465C26.8807 30.3709 26.3394 31.3202 25.35 32.0622C24.3606 32.8043 22.9357 33.2966 21.3505 33.2966C19.7654 33.2966 18.3405 32.8043 17.351 32.0622C16.3616 31.3202 15.8204 30.3709 15.8204 29.3465C15.8174 29.1389 15.7329 28.9408 15.5851 28.7951C15.4372 28.6493 15.238 28.5676 15.0303 28.5676C14.8227 28.5676 14.6235 28.6493 14.4756 28.7951C14.3278 28.9408 14.2433 29.1389 14.2403 29.3465C14.2403 30.3709 13.6991 31.3202 12.7097 32.0622C12.4434 32.2619 12.1449 32.4466 11.8209 32.6054C11.5955 29.3232 10.162 26.8955 8.21643 25.1002C6.79135 23.7852 5.12685 22.8268 3.45162 21.9401L64.1844 14.7065Z" fill="#00A0D2"/>
</svg>
