<svg width="45" height="45" viewBox="0 0 45 45" fill="none" xmlns="http://www.w3.org/2000/svg">
<path d="M40.9798 4.01786H32.9445V0.803571C32.9445 0.359152 32.5854 0 32.141 0C31.6966 0 31.3375 0.359152 31.3375 0.803571V8.03571C31.3375 8.48013 31.6966 8.83928 32.141 8.83928C32.5854 8.83928 32.9445 8.48013 32.9445 8.03571V5.625H40.9798C42.3104 5.625 43.3904 6.70762 43.3904 8.03571V15.2679H1.60705V8.03571C1.60705 6.70504 2.68961 5.625 4.01763 5.625H10.4458V4.01786H4.01763C1.80341 4.01786 0 5.82137 0 8.03571V40.9821C0 43.1965 1.80341 45 4.01763 45H40.9824C43.1966 45 45 43.1965 45 40.9821V8.03571C44.9974 5.81879 43.1966 4.01786 40.9798 4.01786ZM43.3904 40.9821C43.3904 42.3128 42.3078 43.3929 40.9798 43.3929H4.01763C2.68703 43.3929 1.60705 42.3102 1.60705 40.9821V16.875H43.3929V40.9821H43.3904Z" fill="#00A0D2"/>
<path d="M12.8564 8.83928C13.3008 8.83928 13.6599 8.48013 13.6599 8.03571V5.625H29.7304V4.01786H13.6599V0.803571C13.6599 0.359152 13.3008 0 12.8564 0C12.412 0 12.0529 0.359152 12.0529 0.803571V8.03571C12.0529 8.48013 12.412 8.83928 12.8564 8.83928Z" fill="#00A0D2"/>
</svg>
