<svg width="93" height="72" viewBox="0 0 93 72" fill="none" xmlns="http://www.w3.org/2000/svg">
<path d="M5.39104 44.6592L9.85687 50.5091L6.84179 44.8184L14.2091 55.9486L24.1015 48.36L21.0957 51.7263L26.9027 48.027L20.8439 53.289L25.2597 50.6788L23.6229 52.6891L29.3176 49.8774L16.2327 59.0297L21.4342 66.9313L20.0322 65.9724L23.2498 70.8669L18.9509 65.8141L21.1886 69.3872L18.1025 66.452L20.8658 71.4243L13.5083 60.8675L2.09389 68.7292L4.90313 65.682L0 68.8131L2.53057 66.1267L0.247502 66.7683L11.5354 58.0339L4.9451 48.434L8.3947 51.6855L6.41191 47.582L7.92531 49.0204L5.39104 44.6592Z" fill="#00A0D2"/>
<path d="M69.0734 0.358398L73.5393 6.20833L70.5242 0.517639L77.8915 11.6478L87.7839 4.0592L84.7781 7.42547L90.5851 3.72621L84.5263 8.98825L88.9421 6.37807L87.3053 8.38832L93 5.57662L79.9151 14.7289L85.1166 22.6305L83.7146 21.6716L86.9322 26.5661L82.6333 21.5133L84.871 25.0864L81.7849 22.1512L84.5482 27.1235L77.1907 16.5667L65.7763 24.4284L68.5855 21.3813L63.6824 24.5124L66.213 21.826L63.9299 22.4675L75.2178 13.7331L68.6275 4.13327L72.0771 7.38474L70.0943 3.2812L71.6077 4.71962L69.0734 0.358398Z" fill="#00A0D2"/>
<path d="M29.5338 58.5034C32.4565 58.3496 44.3008 54.4129 44.3008 33.1227C44.3008 15.5868 59.5292 13.2797 63.6824 14.2026" stroke="#00A0D2" stroke-width="1.5" stroke-dasharray="5 5"/>
</svg>
