<svg width="61" height="49" viewBox="0 0 61 49" fill="none" xmlns="http://www.w3.org/2000/svg">
<path d="M4.72598 23.0906C4.42556 23.4101 3.3034 22.5945 3.26602 21.9773C3.48487 21.9841 3.70033 21.8176 3.91919 21.8237C4.05581 21.284 3.69422 21.3839 3.57187 21.0822C3.62081 21.2032 3.11037 20.2652 3.12056 20.2767C2.71003 19.7738 2.01404 19.3293 1.80605 18.672C1.67351 18.2513 1.87198 17.7646 1.76391 17.3357C1.6674 16.9524 1.31192 16.6948 1.19026 16.2877C0.999946 15.6501 0.764774 14.6102 1.5233 14.3791C1.64225 14.6673 1.97189 14.8338 2.12143 15.0574C2.92345 14.0576 3.78462 15.1281 4.72598 14.7944C5.26837 14.6027 6.1472 13.518 6.21857 12.9117C7.57726 13.1251 7.98711 11.4701 9.45863 11.6767C9.84944 11.7311 10.8438 11.9275 11.1857 12.1239C11.8137 12.4855 12.0156 13.5356 12.8659 12.8981C12.6776 13.919 15.586 13.469 15.9496 12.561C16.1991 11.937 15.953 10.874 16.2813 10.284C16.4057 10.0611 16.3098 9.87824 16.5906 9.69201C16.9923 9.42557 17.4402 9.94349 17.6651 9.82998C18.1559 9.58326 18.0247 8.88658 18.3367 8.72278C19.0232 8.36254 18.8641 9.09864 19.2515 9.02184C20.1603 8.84376 19.9462 8.36254 20.1324 7.56935C20.2683 6.99026 20.5117 6.16036 20.8372 5.66283C21.0887 5.27949 21.3008 5.06471 21.6053 4.84789C21.9492 4.6032 22.4556 4.72487 22.635 4.19064C23.3276 4.20967 24.2214 3.40764 24.7604 3.10518C25.1933 2.86321 25.6548 2.28548 26.1619 2.15702C26.6261 2.03943 26.8953 2.27256 27.2453 2.22499C27.5879 2.17877 28.1017 1.78999 28.4001 1.8063C28.8392 1.83009 29.1912 2.36296 29.648 2.36364C30.4419 2.36568 30.6797 1.82465 30.9142 1.13205C31.6694 0.935624 33.2394 1.74649 33.8627 2.1074C35.1888 2.87477 36.1628 3.24723 36.8051 4.83158C37.4569 4.89547 37.8545 5.71381 38.3459 6.10531C38.7388 6.41796 39.5918 6.88219 40.0533 7.01473C40.0567 6.68032 40.2769 6.35271 40.3177 6.02307C40.8132 6.29018 41.2115 6.60352 41.6573 6.9121C41.8191 7.02424 42.2589 7.14931 42.3363 7.21591C42.6905 7.52109 42.7258 8.03425 43.1472 8.3707C44.0294 9.07485 46.0216 9.45412 46.9922 8.91173C47.4571 9.34741 47.9886 9.22235 48.5867 9.26856C49.4078 9.33245 49.7524 9.51869 50.4905 9.72259C51.3191 9.95097 51.3055 10.0971 52.1061 9.64307C52.5493 9.39227 53.1066 8.91785 53.1148 8.38089C53.4635 8.44818 53.8597 8.57189 54.2179 8.7221C54.4599 9.29439 55.4257 9.56015 55.8172 9.97408C56.6315 10.8366 56.2848 11.1261 56.4724 12.4529C56.6709 13.8564 56.5914 16.0586 58.2845 15.9893C58.523 16.6989 59.529 16.5317 60 16.9945C59.5969 17.507 58.8527 17.4527 58.2172 17.6409C58.1621 17.5369 58.1105 17.4302 58.0609 17.3235C57.5871 17.5546 57.0271 17.908 56.7355 18.3125C57.356 18.532 57.2038 19.2151 57.1657 19.786C56.2604 19.786 55.3951 19.2198 54.4273 19.2375C52.8871 19.2661 53.2521 18.8847 52.2203 18.184C51.5046 17.6973 50.5075 17.9277 49.7001 17.7334C49.2032 17.6131 48.5765 17.1291 48.1429 17.1081C47.4986 17.0768 47.0744 17.5342 46.4294 17.4051C46.4151 17.2059 46.2928 17.089 46.2853 16.8756C45.7844 16.8484 45.3433 17.0863 44.8464 17.0679C44.8573 16.8844 44.7322 16.6642 44.7295 16.5283C44.1423 16.7852 43.5238 17.0149 42.9202 17.2698C42.7788 16.5412 41.4317 16.9544 40.8424 16.5337C40.2096 16.9245 39.1996 17.3255 38.5172 17.5295C40.0818 15.4897 36.6046 14.8488 35.6557 16.0844C35.3104 15.6726 34.6342 15.3327 34.068 15.4122C33.6201 15.4748 33.5215 15.9166 33.0226 16.0348C32.3124 16.202 31.9827 15.8357 31.2269 16.0974C30.6308 16.304 30.2903 17.2161 29.7683 16.5317C29.3347 16.741 29.3924 17.2732 29.2857 17.7551C28.9398 17.923 28.572 17.9944 28.1928 17.9502C28.1996 16.8369 26.8857 16.4671 26.2231 15.8452C25.5325 15.1988 25.5474 14.7611 24.3451 14.9766C24.2737 15.7657 23.7368 16.1191 23.6369 16.862C23.5471 17.5308 23.5621 18.2526 23.3201 18.9072C23.4363 18.9711 23.5138 18.9799 23.6369 19.0309C23.3826 19.2701 23.2576 19.4822 22.8722 19.5984C22.9035 20.1157 22.8355 20.7009 22.635 21.142C23.1713 21.4893 23.4071 21.2677 23.7891 21.284C23.8992 21.2888 23.9896 20.7682 24.3274 20.862C24.549 20.9231 24.6924 21.598 24.8664 21.7455C25.2049 22.033 25.4931 21.8665 25.8873 22.2968C26.1965 22.6339 26.1626 23.1437 26.3631 23.5433C26.7743 24.3644 27.0264 25.2785 27.3792 25.9161C28.0521 27.13 28.6624 27.1742 27.6184 28.5037C28.1724 28.8177 27.9746 29.409 28.2859 29.7794C28.5109 30.0472 28.8031 29.9208 29.0594 30.1397C29.7547 30.7344 30.034 31.5779 30.6614 32.1604C30.7001 32.1964 31.4661 32.4329 31.5735 32.4934C31.7999 32.6198 32.3436 33.0582 32.5108 33.2832C32.8513 33.7427 32.8602 34.1913 33.2829 34.6256C33.684 35.0375 34.2291 35.2121 34.6348 35.6335C34.923 35.9319 35.146 36.3696 35.3968 36.7034C35.8773 37.3423 35.9031 37.2016 36.4258 37.4959C37.0165 37.8276 37.5133 38.181 38.1386 38.6323C38.7503 39.0728 39.3199 39.2264 39.8188 39.8625C40.2089 40.3601 40.247 41.0513 40.9579 41.12C41.0626 41.9736 42.5538 44.7699 43.5645 44.2853C43.6678 44.8134 43.9628 45.1253 43.9336 45.6079C45.834 46.5085 43.0446 47.6511 42.6762 47.8883C41.6947 47.3955 40.0771 46.7573 39.9996 45.4156C40.5495 45.9573 42.0631 46.6125 42.8903 46.516C42.7476 46.1829 42.7095 45.9206 42.6585 45.5359C42.5063 45.6494 42.0434 45.771 41.8748 45.9634C41.8307 45.665 41.7491 45.3986 41.7008 45.0356C41.7654 44.9391 41.8531 44.9636 41.8973 44.8406C40.6052 43.7803 39.4864 42.5201 38.2297 41.2185C37.0538 39.9998 34.3718 38.9293 32.7045 39.4792C32.6889 39.3066 32.572 39.136 32.5734 38.9579C32.0337 39.0612 31.3934 39.2318 30.8837 39.4078C30.6675 39.4819 29.9124 39.887 29.7873 39.8863C28.8534 39.8809 28.4266 38.9885 27.8108 38.1803C27.3806 37.6169 26.7403 36.1936 26.2502 35.9109C26.0803 35.8123 25.2871 35.9822 24.9901 35.9034C24.6822 35.8211 23.4037 35.1258 23.1862 34.873C22.6194 34.2144 22.8736 33.5462 22.0593 33.1969C21.8676 33.1146 21.3878 33.3784 21.0676 33.2648C20.8406 33.1846 20.6095 32.6402 20.3655 32.4859C19.6981 32.0638 19.085 32.4764 19.0014 31.2516C18.9083 29.8963 19.8748 30.037 20.91 29.9826C21.0676 29.2676 22.0647 29.3553 22.5208 29.8467C22.4787 29.1874 21.5849 28.6076 21.0547 28.1869C20.5925 27.8206 19.7463 27.5677 19.3358 27.079C19.013 26.6957 18.8675 26.0819 18.5515 25.5885C18.2633 25.1378 17.9934 24.9564 17.6481 24.588C17.4986 24.4283 17.1955 24.5207 17.0677 24.3501C16.9087 24.136 17.0799 23.822 16.9617 23.6561C16.5178 23.0335 15.6621 22.2716 15.2543 21.5029C14.9151 20.8626 14.7554 19.8961 14.4394 19.2436C14.09 18.5218 13.5177 18.097 13.1092 17.5159C13.0243 17.3949 12.7198 16.5874 12.63 16.4019C12.5954 16.3305 12.2759 15.4986 12.1794 15.4082C11.5704 14.8386 10.54 15.0173 9.84265 14.5443C9.81274 14.668 9.82226 14.7924 9.80934 14.9161C9.03042 14.9949 9.07732 15.8758 8.25966 15.8527C7.99866 16.7254 7.54327 17.2331 7.35704 18.1092C7.29927 18.3797 7.48142 18.5775 7.33393 18.986C7.22586 19.2851 6.79222 19.7745 6.55025 20.03C6.27838 20.3175 5.7591 20.5038 5.545 20.845C5.38323 21.1039 5.44033 21.6524 5.29148 21.9583L4.72598 23.0906Z" stroke="#00A0D2" stroke-width="1.5" stroke-miterlimit="10" stroke-linecap="round" stroke-linejoin="round"/>
<path d="M10.3905 16.8601C10.1071 16.9512 9.32202 17.2462 9.38795 17.9768C9.49466 18.0061 9.58777 17.9775 9.69381 18.0101C9.72371 18.6137 9.4967 19.6924 9.73595 20.2361C9.96636 20.7608 11.0273 21.6519 11.4039 20.7397C11.688 21.0266 11.8436 21.4181 11.8824 21.8272C12.6511 22.2826 12.9162 22.0366 13.1085 21.2842C13.3424 20.372 12.8047 19.9663 12.2882 19.3865C12.0775 19.1493 12.0945 18.7884 11.847 18.5824C11.5453 18.333 11.2992 18.872 10.9804 18.5675C10.7466 18.3445 10.6073 17.3379 10.504 17.0864" stroke="#00A0D2" stroke-width="1.5" stroke-miterlimit="10" stroke-linecap="round" stroke-linejoin="round"/>
<path d="M9.14396 22.184C9.0624 23.0968 9.75228 23.0989 9.94803 23.6508C10.0751 24.0076 9.77199 24.5629 9.95482 24.9089C10.311 25.5859 12.1495 26.8093 12.5403 25.6878C11.2632 25.2379 10.4952 22.755 9.0658 22.3907C9.11677 22.3105 9.18134 22.2411 9.25815 22.1833" stroke="#00A0D2" stroke-miterlimit="10" stroke-linecap="round" stroke-linejoin="round"/>
<path d="M14.9213 24.3367C14.888 24.6935 14.7296 25.2434 14.7126 25.679C15.3223 25.5934 15.881 25.8632 16.3962 26.025C16.628 25.5404 15.6703 23.6162 14.9437 24.5773C14.9016 24.3863 14.8948 24.1933 14.9213 23.9968" stroke="#00A0D2" stroke-miterlimit="10" stroke-linecap="round" stroke-linejoin="round"/>
<path d="M32.0609 41.4763C32.256 41.8576 32.4334 42.1757 32.8174 42.3476C33.5569 42.6786 33.7397 42.0581 34.1734 42.0316C34.6274 42.003 36.0337 42.6222 36.3402 41.6965C36.697 40.6144 35.0413 40.855 34.4058 40.8815C33.8165 40.9053 32.2111 40.7932 32.3668 41.1024L32.0609 41.4763Z" stroke="#00A0D2" stroke-miterlimit="10" stroke-linecap="round" stroke-linejoin="round"/>
<path d="M32.8201 43.8209C33.3733 44.7127 36.1736 44.5509 36.6616 43.4981C36.0187 43.4634 35.2866 43.4091 34.6375 43.4818C34.2685 43.5226 33.9619 43.5953 33.6058 43.6762C33.357 43.7333 32.9431 44.1132 33.1592 43.8209" stroke="#00A0D2" stroke-miterlimit="10" stroke-linecap="round" stroke-linejoin="round"/>
</svg>
