<svg width="28" height="57" viewBox="0 0 28 57" fill="none" xmlns="http://www.w3.org/2000/svg">
<path d="M13.9274 57C21.2774 57 27.2581 51.1249 27.2581 43.9047C27.2581 39.2084 24.7146 34.9011 20.592 32.5615L20.5342 6.84677C20.5342 3.00689 17.6321 0 13.9274 0C10.105 0 6.99534 3.05526 6.99534 6.81049L6.99389 32.7194C3.03764 35.0903 0.596802 39.3385 0.596802 43.9054C0.596802 51.1256 6.57744 57 13.9274 57ZM8.07333 33.7452C8.29963 33.6185 8.43989 33.3824 8.43989 33.1263L8.44133 6.81049C8.44133 3.83917 10.9024 1.42271 13.9274 1.42271C16.8216 1.42271 19.0882 3.80574 19.0882 6.8482L19.0954 9.98028H17.0913C16.6915 9.98028 16.3683 10.2983 16.3683 10.6916C16.3683 11.085 16.6915 11.403 17.0913 11.403H19.0991L19.1056 14.4326H17.0913C16.6915 14.4326 16.3683 14.7506 16.3683 15.144C16.3683 15.5374 16.6915 15.8553 17.0913 15.8553H19.1092L19.1157 18.885H17.0913C16.6915 18.885 16.3683 19.203 16.3683 19.5964C16.3683 19.9897 16.6915 20.3077 17.0913 20.3077H19.1186L19.1251 23.3374H17.0906C16.6907 23.3374 16.3676 23.6553 16.3676 24.0487C16.3676 24.4421 16.6907 24.7601 17.0906 24.7601H19.128L19.1345 27.7897H17.0898C16.69 27.7897 16.3668 28.1077 16.3668 28.5011C16.3668 28.8944 16.69 29.2124 17.0898 29.2124H19.1374L19.146 32.9826C19.1468 33.2444 19.2935 33.4848 19.5278 33.6086C23.4031 35.6466 25.8106 39.5925 25.8106 43.9061C25.8106 50.3424 20.4793 55.5787 13.926 55.5787C7.37274 55.5787 2.0428 50.341 2.0428 43.9047C2.0428 39.7106 4.35422 35.8173 8.07333 33.7452Z" fill="#00A0D2"/>
<path d="M13.837 51.0118C17.9487 51.0118 21.2926 47.726 21.2926 43.687C21.2926 39.8876 18.3326 36.757 14.56 36.3985V10.6916C14.56 10.2982 14.2368 9.98022 13.837 9.98022C13.4372 9.98022 13.114 10.2982 13.114 10.6916V36.3985C9.3407 36.757 6.38147 39.8884 6.38147 43.687C6.38075 47.726 9.72534 51.0118 13.837 51.0118ZM13.837 37.7856C17.1513 37.7856 19.8466 40.4332 19.8466 43.6877C19.8466 46.9421 17.1505 49.5898 13.837 49.5898C10.5235 49.5898 7.82747 46.9421 7.82747 43.6877C7.82747 40.4332 10.5228 37.7856 13.837 37.7856Z" fill="#00A0D2"/>
</svg>
