<svg width="58" height="38" viewBox="0 0 58 38" fill="none" xmlns="http://www.w3.org/2000/svg">
<path d="M5.26679 9.38752C8.7414 9.38752 11.7893 7.31495 13.1304 4.32801C14.5324 7.31495 17.5194 9.38752 20.994 9.38752C24.4686 9.38752 27.5165 7.31495 28.8576 4.32801C30.2596 7.31495 33.2465 9.38752 36.7211 9.38752C40.1958 9.38752 43.2437 7.31495 44.5847 4.32801C45.9868 7.31495 48.9737 9.38752 52.4483 9.38752C54.2161 9.38752 55.9229 8.8389 57.3859 7.86357C57.7517 7.61974 57.8126 7.13208 57.5688 6.76633C57.325 6.40058 56.8373 6.33963 56.4716 6.58346C55.2524 7.37592 53.9113 7.86357 52.4483 7.86357C48.547 7.86357 45.3772 4.69376 45.3772 0.792447C45.3772 0.365741 45.0115 0 44.5847 0C44.158 0 43.7923 0.365741 43.7923 0.792447C43.7923 4.69376 40.6225 7.86357 36.7211 7.86357C32.8198 7.86357 29.65 4.69376 29.65 0.792447C29.65 0.365741 29.2843 0 28.8576 0C28.4309 0 28.0651 0.365741 28.0651 0.792447C28.0651 4.69376 24.8953 7.86357 20.994 7.86357C17.0927 7.86357 13.9228 4.69376 13.9228 0.792447C13.9228 0.365741 13.5571 0 13.1304 0C12.7037 0 12.3379 0.365741 12.3379 0.792447C12.3379 4.69376 9.16811 7.86357 5.26679 7.86357C3.8038 7.86357 2.40174 7.43688 1.24354 6.58346C0.877791 6.33963 0.390134 6.40058 0.146302 6.76633C-0.0975303 7.13208 -0.0365797 7.61974 0.329169 7.86357C1.79216 8.8389 3.43805 9.38752 5.26679 9.38752Z" fill="#00A0D2"/>
<path d="M56.6544 20.8476C55.4353 21.6401 54.0942 22.1278 52.6312 22.1278C48.7299 22.1278 45.56 18.9579 45.56 15.0566C45.56 14.6299 45.1943 14.2642 44.7676 14.2642C44.3409 14.2642 43.9751 14.6299 43.9751 15.0566C43.9751 18.9579 40.8053 22.1278 36.904 22.1278C33.0027 22.1278 29.8329 18.9579 29.8329 15.0566C29.8329 14.6299 29.4671 14.2642 29.0404 14.2642C28.6137 14.2642 28.248 14.6299 28.248 15.0566C28.248 18.9579 25.0781 22.1278 21.1768 22.1278C17.2755 22.1278 14.1057 18.9579 14.1057 15.0566C14.1057 14.6299 13.74 14.2642 13.3132 14.2642C12.8865 14.2642 12.5208 14.6299 12.5208 15.0566C12.5208 18.9579 9.35096 22.1278 5.44964 22.1278C3.98665 22.1278 2.58463 21.701 1.42643 20.8476C1.06068 20.6038 0.572982 20.6648 0.32915 21.0305C0.085318 21.3963 0.146306 21.8839 0.512054 22.1278C1.97505 23.1031 3.68186 23.6517 5.44964 23.6517C8.92425 23.6517 11.9722 21.5791 13.3132 18.5922C14.7153 21.5791 17.7022 23.6517 21.1768 23.6517C24.6514 23.6517 27.6993 21.5791 29.0404 18.5922C30.4425 21.5791 33.4294 23.6517 36.904 23.6517C40.3786 23.6517 43.4265 21.5791 44.7676 18.5922C46.1696 21.5791 49.1566 23.6517 52.6312 23.6517C54.399 23.6517 56.1058 23.1031 57.5688 22.1278C57.9345 21.8839 57.9955 21.3963 57.7517 21.0305C57.5078 20.7257 56.9592 20.6038 56.6544 20.8476Z" fill="#00A0D2"/>
<path d="M56.6544 35.1728C55.4353 35.9653 54.0942 36.4529 52.6312 36.4529C48.7299 36.4529 45.56 33.2831 45.56 29.3818C45.56 28.9551 45.1943 28.5894 44.7676 28.5894C44.3409 28.5894 43.9751 28.9551 43.9751 29.3818C43.9751 33.2831 40.8053 36.4529 36.904 36.4529C33.0027 36.4529 29.8329 33.2831 29.8329 29.3818C29.8329 28.9551 29.4671 28.5894 29.0404 28.5894C28.6137 28.5894 28.248 28.9551 28.248 29.3818C28.248 33.2831 25.0781 36.4529 21.1768 36.4529C17.2755 36.4529 14.1057 33.2831 14.1057 29.3818C14.1057 28.9551 13.74 28.5894 13.3132 28.5894C12.8865 28.5894 12.5208 28.9551 12.5208 29.3818C12.5208 33.2831 9.35096 36.4529 5.44964 36.4529C3.98665 36.4529 2.58463 36.0262 1.42643 35.1728C1.06068 34.929 0.572982 34.99 0.32915 35.3557C0.085318 35.7215 0.146306 36.2091 0.512054 36.4529C1.97505 37.4283 3.68186 37.9769 5.44964 37.9769C8.92425 37.9769 11.9722 35.9043 13.3132 32.9174C14.7153 35.9043 17.7022 37.9769 21.1768 37.9769C24.6514 37.9769 27.6993 35.9043 29.0404 32.9174C30.4425 35.9043 33.4294 37.9769 36.904 37.9769C40.3786 37.9769 43.4265 35.9043 44.7676 32.9174C46.1696 35.9043 49.1566 37.9769 52.6312 37.9769C54.399 37.9769 56.1058 37.4283 57.5688 36.4529C57.9345 36.2091 57.9955 35.7215 57.7517 35.3557C57.5078 35.0509 56.9592 34.929 56.6544 35.1728Z" fill="#00A0D2"/>
</svg>
