<svg width="18" height="18" viewBox="0 0 18 18" fill="none" xmlns="http://www.w3.org/2000/svg">
<circle r="9" transform="matrix(-1 0 0 1 9 9)" fill="#00A0D2"/>
<path d="M6.9716 8.52827L6.81453 8.63229C6.78351 8.65278 6.75683 8.67917 6.73602 8.70997C6.7152 8.74076 6.70066 8.77536 6.69322 8.81178C6.68578 8.8482 6.6856 8.88573 6.69267 8.92222C6.69974 8.95871 6.71393 8.99345 6.73443 9.02446L6.75315 9.05359C6.81349 9.14513 6.93728 9.15761 7.02049 9.17946C7.09105 9.18323 7.1609 9.19545 7.22854 9.21586C7.34884 9.25739 7.45128 9.3389 7.51877 9.4468C7.62279 9.62572 7.55518 9.84625 7.53021 9.95027C7.3076 10.8636 7.07979 11.7759 6.86134 12.6913C6.6793 13.4538 7.111 13.9999 7.90157 13.9999C8.77849 13.9999 9.56595 13.7107 10.2858 13.2218C10.3357 13.1873 10.3799 13.1451 10.4169 13.097C10.5583 12.9108 10.5042 12.7683 10.2764 12.7163C10.2099 12.7007 10.1412 12.6892 10.0757 12.6715C9.64189 12.554 9.52954 12.3595 9.63565 11.9267C9.86138 11.0061 10.0923 10.0865 10.3128 9.16489C10.4606 8.55427 10.1787 8.05288 9.61484 7.91661C9.46122 7.88216 9.30417 7.8654 9.14674 7.86668C8.95209 7.87465 8.75818 7.8955 8.56629 7.92909C8.4425 7.95198 8.33015 7.97798 8.22613 8.00607C8.02605 8.05998 7.82943 8.12598 7.63735 8.20371C7.52085 8.25052 7.37313 8.31398 7.20566 8.39616L6.9716 8.52827ZM9.6887 3.59755C9.49353 3.59308 9.29944 3.62789 9.11799 3.69993C8.93654 3.77196 8.77143 3.87974 8.63246 4.01686C8.4935 4.15398 8.38352 4.31764 8.30907 4.49812C8.23462 4.67859 8.19722 4.87219 8.19908 5.0674C8.1955 5.46054 8.34823 5.83901 8.62369 6.11953C8.89914 6.40006 9.27476 6.55968 9.66789 6.56326C10.061 6.56685 10.4395 6.41411 10.72 6.13866C11.0006 5.8632 11.1602 5.48759 11.1638 5.09445C11.1668 4.89887 11.1309 4.70465 11.0581 4.5231C10.9853 4.34154 10.8771 4.17629 10.7398 4.03697C10.6025 3.89765 10.4389 3.78704 10.2584 3.7116C10.078 3.63616 9.8843 3.59739 9.6887 3.59755Z" fill="white"/>
</svg>
