<svg width="36" height="36" viewBox="0 0 36 36" fill="none" xmlns="http://www.w3.org/2000/svg">
<path fill-rule="evenodd" clip-rule="evenodd" d="M0 18C0 8.05888 8.05888 0 18 0C27.9411 0 36 8.05888 36 18C36 27.9411 27.9411 36 18 36C8.05888 36 0 27.9411 0 18Z" fill="url(#paint0_linear)"/>
<mask id="mask0" mask-type="alpha" maskUnits="userSpaceOnUse" x="0" y="0" width="36" height="36">
<path fill-rule="evenodd" clip-rule="evenodd" d="M0 18C0 8.05888 8.05888 0 18 0C27.9411 0 36 8.05888 36 18C36 27.9411 27.9411 36 18 36C8.05888 36 0 27.9411 0 18Z" fill="white"/>
</mask>
<g mask="url(#mask0)">
<path fill-rule="evenodd" clip-rule="evenodd" d="M18.0008 8.40039C15.3936 8.40039 15.0664 8.41179 14.0424 8.45839C13.0203 8.50519 12.3227 8.66699 11.7123 8.9044C11.0809 9.1496 10.5453 9.4776 10.0117 10.0114C9.47771 10.545 9.14971 11.0806 8.90371 11.7118C8.66571 12.3224 8.5037 13.0202 8.4577 14.0418C8.4119 15.0659 8.3999 15.3933 8.3999 18.0005C8.3999 20.6077 8.4115 20.9339 8.4579 21.9579C8.5049 22.9799 8.66671 23.6776 8.90391 24.288C9.14931 24.9194 9.47731 25.455 10.0111 25.9886C10.5445 26.5226 11.0801 26.8514 11.7111 27.0966C12.3219 27.334 13.0198 27.4958 14.0416 27.5426C15.0656 27.5892 15.3926 27.6006 17.9996 27.6006C20.607 27.6006 20.9332 27.5892 21.9572 27.5426C22.9793 27.4958 23.6777 27.334 24.2885 27.0966C24.9197 26.8514 25.4545 26.5226 25.9879 25.9886C26.5219 25.455 26.8499 24.9194 27.0959 24.2882C27.3319 23.6776 27.4939 22.9797 27.5419 21.9581C27.5879 20.9341 27.5999 20.6077 27.5999 18.0005C27.5999 15.3933 27.5879 15.0661 27.5419 14.042C27.4939 13.02 27.3319 12.3224 27.0959 11.712C26.8499 11.0806 26.5219 10.545 25.9879 10.0114C25.4539 9.4774 24.9199 9.1494 24.2879 8.9044C23.6759 8.66699 22.9779 8.50519 21.9558 8.45839C20.9318 8.41179 20.6058 8.40039 17.9978 8.40039H18.0008ZM17.1396 10.1297C17.3952 10.1293 17.6804 10.1297 18.0008 10.1297C20.564 10.1297 20.8678 10.1389 21.8801 10.1849C22.8161 10.2277 23.3241 10.3841 23.6625 10.5155C24.1105 10.6895 24.4299 10.8975 24.7657 11.2335C25.1017 11.5695 25.3097 11.8895 25.4841 12.3375C25.6155 12.6755 25.7721 13.1835 25.8147 14.1195C25.8607 15.1315 25.8707 15.4355 25.8707 17.9976C25.8707 20.5596 25.8607 20.8636 25.8147 21.8756C25.7719 22.8116 25.6155 23.3196 25.4841 23.6576C25.3101 24.1056 25.1017 24.4246 24.7657 24.7604C24.4297 25.0964 24.1107 25.3045 23.6625 25.4785C23.3245 25.6105 22.8161 25.7665 21.8801 25.8093C20.868 25.8553 20.564 25.8653 18.0008 25.8653C15.4374 25.8653 15.1336 25.8553 14.1216 25.8093C13.1856 25.7661 12.6776 25.6097 12.339 25.4783C11.891 25.3043 11.5709 25.0962 11.2349 24.7602C10.8989 24.4242 10.6909 24.105 10.5165 23.6568C10.3851 23.3188 10.2285 22.8108 10.1859 21.8748C10.1399 20.8628 10.1307 20.5588 10.1307 17.9952C10.1307 15.4315 10.1399 15.1291 10.1859 14.1171C10.2287 13.1811 10.3851 12.6731 10.5165 12.3347C10.6905 11.8867 10.8989 11.5667 11.2349 11.2307C11.5709 10.8947 11.891 10.6867 12.339 10.5123C12.6774 10.3803 13.1856 10.2243 14.1216 10.1813C15.0072 10.1413 15.3504 10.1293 17.1396 10.1273V10.1297ZM23.1253 11.7242C22.4893 11.7242 21.9733 12.2397 21.9733 12.8759C21.9733 13.5119 22.4893 14.0279 23.1253 14.0279C23.7613 14.0279 24.2773 13.5119 24.2773 12.8759C24.2773 12.2399 23.7613 11.7238 23.1253 11.7238V11.7242ZM18.0008 13.0697C15.2782 13.0697 13.0708 15.2771 13.0708 17.9998C13.0708 20.7224 15.2782 22.9288 18.0008 22.9288C20.7234 22.9288 22.9301 20.7224 22.9301 17.9998C22.9301 15.2771 20.7232 13.0697 18.0006 13.0697H18.0008ZM18.0008 14.8C19.768 14.8 21.2008 16.2326 21.2008 18.0001C21.2008 19.7673 19.768 21.2001 18.0008 21.2001C16.2334 21.2001 14.8008 19.7673 14.8008 18.0001C14.8008 16.2326 16.2334 14.8 18.0008 14.8Z" fill="white"/>
</g>
<defs>
<linearGradient id="paint0_linear" x1="29.7692" y1="2.07692" x2="10.3846" y2="31.8462" gradientUnits="userSpaceOnUse">
<stop stop-color="#536DE8"/>
<stop offset="0.366894" stop-color="#A84CA7"/>
<stop offset="0.751381" stop-color="#FC3436"/>
<stop offset="1" stop-color="#FFA10D"/>
</linearGradient>
</defs>
</svg>
