<svg width="66" height="43" viewBox="0 0 66 43" fill="none" xmlns="http://www.w3.org/2000/svg">
<path d="M1.84741 3.97851C6.63443 3.97851 8.64157 5.61757 10.7677 7.35175C12.6495 8.88926 14.5948 10.4775 18.095 10.4775C21.784 10.4775 23.7991 8.67511 25.5761 7.08521C27.4405 5.41764 29.0494 3.97851 32.7178 3.97851C36.3861 3.97851 37.995 5.41764 39.8594 7.08521C41.6364 8.67511 43.6516 10.4775 47.3406 10.4775C50.8408 10.4775 52.786 8.88926 54.6678 7.35175C56.794 5.61757 58.8011 3.97851 63.5881 3.97851C64.019 3.97851 64.4323 3.80734 64.737 3.50263C65.0417 3.19793 65.2129 2.78467 65.2129 2.35376C65.2129 1.92285 65.0417 1.50958 64.737 1.20488C64.4323 0.900183 64.019 0.729004 63.5881 0.729004C57.6428 0.729004 54.8534 3.00586 52.6129 4.83533C50.9122 6.22368 49.6825 7.22802 47.3406 7.22802C44.8923 7.22802 43.628 6.09671 42.0252 4.664C40.0656 2.91064 37.627 0.729004 32.7178 0.729004C27.8086 0.729004 25.3699 2.91064 23.4104 4.664C21.8075 6.09671 20.5432 7.22802 18.095 7.22802C15.753 7.22802 14.5233 6.22368 12.8226 4.83533C10.5821 3.00586 7.79272 0.729004 1.84741 0.729004C1.4165 0.729004 1.00324 0.900183 0.698536 1.20488C0.393836 1.50958 0.222656 1.92285 0.222656 2.35376C0.222656 2.78467 0.393836 3.19793 0.698536 3.50263C1.00324 3.80734 1.4165 3.97851 1.84741 3.97851Z" fill="#0B3E6A"/>
<path d="M63.5876 16.9771C57.6423 16.9771 54.8529 19.2539 52.6124 21.0834C50.9117 22.4717 49.682 23.4761 47.3401 23.4761C44.8918 23.4761 43.6275 22.3448 42.0247 20.912C40.0651 19.1587 37.6265 16.9771 32.7173 16.9771C27.8081 16.9771 25.3694 19.1587 23.4099 20.912C21.807 22.3448 20.5427 23.4761 18.0945 23.4761C15.7526 23.4761 14.5229 22.4717 12.8221 21.0834C10.5816 19.2539 7.79223 16.9771 1.84692 16.9771C1.41601 16.9771 1.00275 17.1482 0.698048 17.4529C0.393347 17.7576 0.222168 18.1709 0.222168 18.6018C0.222168 19.0327 0.393347 19.446 0.698048 19.7507C1.00275 20.0554 1.41601 20.2266 1.84692 20.2266C6.63394 20.2266 8.64108 21.8656 10.7672 23.5998C12.649 25.1373 14.5943 26.7256 18.0945 26.7256C21.7835 26.7256 23.7986 24.9232 25.5757 23.3333C27.44 21.6657 29.0489 20.2266 32.7173 20.2266C36.3856 20.2266 37.9946 21.6657 39.8589 23.3333C41.636 24.9232 43.6511 26.7256 47.3401 26.7256C50.8403 26.7256 52.7855 25.1373 54.6673 23.5998C56.7935 21.8656 58.8006 20.2266 63.5876 20.2266C64.0185 20.2266 64.4318 20.0554 64.7365 19.7507C65.0412 19.446 65.2124 19.0327 65.2124 18.6018C65.2124 18.1709 65.0412 17.7576 64.7365 17.4529C64.4318 17.1482 64.0185 16.9771 63.5876 16.9771Z" fill="#0B3E6A"/>
<path d="M63.5876 33.2231C57.6423 33.2231 54.8529 35.5 52.6124 37.3295C50.9117 38.7178 49.682 39.7222 47.3401 39.7222C44.8918 39.7222 43.6275 38.5909 42.0247 37.1581C40.0651 35.4048 37.6265 33.2231 32.7173 33.2231C27.8081 33.2231 25.3694 35.4048 23.4099 37.1581C21.807 38.5909 20.5427 39.7222 18.0945 39.7222C15.7526 39.7222 14.5229 38.7178 12.8221 37.3295C10.5816 35.5 7.79223 33.2231 1.84692 33.2231C1.41601 33.2231 1.00275 33.3943 0.698048 33.699C0.393347 34.0037 0.222168 34.417 0.222168 34.8479C0.222168 35.2788 0.393347 35.6921 0.698048 35.9968C1.00275 36.3015 1.41601 36.4727 1.84692 36.4727C6.63394 36.4727 8.64108 38.1117 10.7672 39.8459C12.649 41.3834 14.5943 42.9717 18.0945 42.9717C21.7835 42.9717 23.7986 41.1693 25.5757 39.5794C27.44 37.9118 29.0489 36.4727 32.7173 36.4727C36.3856 36.4727 37.9946 37.9118 39.8589 39.5794C41.636 41.1693 43.6511 42.9717 47.3401 42.9717C50.8403 42.9717 52.7855 41.3834 54.6673 39.8459C56.7935 38.1117 58.8006 36.4727 63.5876 36.4727C64.0185 36.4727 64.4318 36.3015 64.7365 35.9968C65.0412 35.6921 65.2124 35.2788 65.2124 34.8479C65.2124 34.417 65.0412 34.0037 64.7365 33.699C64.4318 33.3943 64.0185 33.2231 63.5876 33.2231Z" fill="#0B3E6A"/>
</svg>
