<svg width="59" height="56" viewBox="0 0 59 56" fill="none" xmlns="http://www.w3.org/2000/svg">
<g opacity="0.8">
<path fill-rule="evenodd" clip-rule="evenodd" d="M42 22C42 33.0457 33.0457 42 22 42C10.9543 42 2 33.0457 2 22C2 10.9543 10.9543 2 22 2C33.0457 2 42 10.9543 42 22ZM38.1895 36.8965C34.169 41.2637 28.404 44 22 44C9.84974 44 0 34.1503 0 22C0 9.84974 9.84974 0 22 0C34.1503 0 44 9.84974 44 22C44 27.0245 42.3156 31.6555 39.4808 35.3594L58.621 54.4996L57.2068 55.9138L38.1895 36.8965Z" fill="white"/>
<path fill-rule="evenodd" clip-rule="evenodd" d="M23 15H21V21H15V23H21V29H23V23H29V21H23V15Z" fill="white"/>
</g>
</svg>
