<svg width="683" height="771" viewBox="0 0 683 771" fill="none" xmlns="http://www.w3.org/2000/svg">
<path opacity="0.5" d="M144 481C152.667 518.5 187.9 594 259.5 596C349 598.5 359 641 391 653C423 665 474 650.5 485.5 661.5" stroke="black" stroke-width="2" stroke-dasharray="5 5"/>
<path opacity="0.5" d="M559.532 645.762C555.907 642.548 538.861 640.223 527 647.398" stroke="black" stroke-width="2" stroke-dasharray="5 5"/>
<path opacity="0.5" d="M591.5 640C596.333 630.333 595.5 607.2 553.5 592C501 573 410.5 594.5 371 534.5C331.5 474.5 251 429.5 235.5 366.5C209.948 262.643 302 296.5 350.5 319" stroke="black" stroke-width="2" stroke-dasharray="5 5"/>
<path opacity="0.5" d="M352.5 314.5C332.167 305.167 267.736 275 271.5 240.5C274.5 213 282 210 276.5 191.5C271 173 266.027 147.338 238 115C218.5 92.5 210.333 91.6667 207 88" stroke="black" stroke-width="2" stroke-dasharray="5 5"/>
<path opacity="0.5" d="M186 62.5C177.5 62.6667 159.4 64.9 155 72.5C149.5 82 145.5 92.5 147.5 102.5C149.1 110.5 145.5 111.167 143.5 110.5" stroke="black" stroke-width="2" stroke-dasharray="5 5"/>
<path opacity="0.5" d="M120.5 132C104.833 139.333 74.6001 160.5 79.0001 186.5C84.5001 219 129 249 136 294C141.6 330 130.667 384.667 124.5 407.5" stroke="black" stroke-width="2" stroke-dasharray="5 5"/>
<path d="M105.44 63.16C104.04 63.16 102.773 62.8533 101.64 62.24C100.52 61.6133 99.64 60.76 99 59.68C98.36 58.5867 98.04 57.36 98.04 56C98.04 54.64 98.36 53.42 99 52.34C99.64 51.2467 100.527 50.3933 101.66 49.78C102.793 49.1533 104.06 48.84 105.46 48.84C106.553 48.84 107.553 49.0267 108.46 49.4C109.367 49.76 110.14 50.3 110.78 51.02L109.48 52.28C108.427 51.1733 107.113 50.62 105.54 50.62C104.5 50.62 103.56 50.8533 102.72 51.32C101.88 51.7867 101.22 52.4333 100.74 53.26C100.273 54.0733 100.04 54.9867 100.04 56C100.04 57.0133 100.273 57.9333 100.74 58.76C101.22 59.5733 101.88 60.2133 102.72 60.68C103.56 61.1467 104.5 61.38 105.54 61.38C107.1 61.38 108.413 60.82 109.48 59.7L110.78 60.96C110.14 61.68 109.36 62.2267 108.44 62.6C107.533 62.9733 106.533 63.16 105.44 63.16ZM120.423 54.08H116.543V63H114.623V54.08H110.743V52.4H120.423V54.08ZM125.766 52.3C127.232 52.3 128.352 52.66 129.126 53.38C129.912 54.1 130.306 55.1733 130.306 56.6V63H128.486V61.6C128.166 62.0933 127.706 62.4733 127.106 62.74C126.519 62.9933 125.819 63.12 125.006 63.12C123.819 63.12 122.866 62.8333 122.146 62.26C121.439 61.6867 121.086 60.9333 121.086 60C121.086 59.0667 121.426 58.32 122.106 57.76C122.786 57.1867 123.866 56.9 125.346 56.9H128.386V56.52C128.386 55.6933 128.146 55.06 127.666 54.62C127.186 54.18 126.479 53.96 125.546 53.96C124.919 53.96 124.306 54.0667 123.706 54.28C123.106 54.48 122.599 54.7533 122.186 55.1L121.386 53.66C121.932 53.22 122.586 52.8867 123.346 52.66C124.106 52.42 124.912 52.3 125.766 52.3ZM125.326 61.64C126.059 61.64 126.692 61.48 127.226 61.16C127.759 60.8267 128.146 60.36 128.386 59.76V58.28H125.426C123.799 58.28 122.986 58.8267 122.986 59.92C122.986 60.4533 123.192 60.8733 123.606 61.18C124.019 61.4867 124.592 61.64 125.326 61.64ZM138.983 52.3C140.01 52.3 140.93 52.5267 141.743 52.98C142.556 53.4333 143.19 54.0667 143.643 54.88C144.11 55.6933 144.343 56.6333 144.343 57.7C144.343 58.7667 144.11 59.7133 143.643 60.54C143.19 61.3533 142.556 61.9867 141.743 62.44C140.93 62.8933 140.01 63.12 138.983 63.12C138.223 63.12 137.523 62.9733 136.883 62.68C136.256 62.3867 135.723 61.96 135.283 61.4V66.88H133.363V52.4H135.203V54.08C135.63 53.4933 136.17 53.0533 136.823 52.76C137.476 52.4533 138.196 52.3 138.983 52.3ZM138.823 61.44C139.503 61.44 140.11 61.2867 140.643 60.98C141.19 60.66 141.616 60.22 141.923 59.66C142.243 59.0867 142.403 58.4333 142.403 57.7C142.403 56.9667 142.243 56.32 141.923 55.76C141.616 55.1867 141.19 54.7467 140.643 54.44C140.11 54.1333 139.503 53.98 138.823 53.98C138.156 53.98 137.55 54.14 137.003 54.46C136.47 54.7667 136.043 55.2 135.723 55.76C135.416 56.32 135.263 56.9667 135.263 57.7C135.263 58.4333 135.416 59.0867 135.723 59.66C136.03 60.22 136.456 60.66 137.003 60.98C137.55 61.2867 138.156 61.44 138.823 61.44ZM154.242 54.08H150.362V63H148.442V54.08H144.562V52.4H154.242V54.08Z" fill="black"/>
<path d="M41.52 125.26V130.06H39.66V127H28.14L28.12 130.06H26.26L26.28 125.26H26.96C27.84 125.207 28.46 124.513 28.82 123.18C29.18 121.833 29.4 119.94 29.48 117.5L29.62 113H39.46V125.26H41.52ZM31.24 117.68C31.1733 119.653 31.0133 121.287 30.76 122.58C30.52 123.873 30.1267 124.767 29.58 125.26H37.48V114.74H31.34L31.24 117.68ZM52.8798 121.76C52.8798 121.907 52.8665 122.1 52.8398 122.34H44.2398C44.3598 123.273 44.7665 124.027 45.4598 124.6C46.1665 125.16 47.0398 125.44 48.0798 125.44C49.3465 125.44 50.3665 125.013 51.1398 124.16L52.1998 125.4C51.7198 125.96 51.1198 126.387 50.3998 126.68C49.6932 126.973 48.8998 127.12 48.0198 127.12C46.8998 127.12 45.9065 126.893 45.0398 126.44C44.1732 125.973 43.4998 125.327 43.0198 124.5C42.5532 123.673 42.3198 122.74 42.3198 121.7C42.3198 120.673 42.5465 119.747 42.9998 118.92C43.4665 118.093 44.0998 117.453 44.8998 117C45.7132 116.533 46.6265 116.3 47.6398 116.3C48.6532 116.3 49.5532 116.533 50.3398 117C51.1398 117.453 51.7598 118.093 52.1998 118.92C52.6532 119.747 52.8798 120.693 52.8798 121.76ZM47.6398 117.92C46.7198 117.92 45.9465 118.2 45.3198 118.76C44.7065 119.32 44.3465 120.053 44.2398 120.96H51.0398C50.9332 120.067 50.5665 119.34 49.9398 118.78C49.3265 118.207 48.5598 117.92 47.6398 117.92ZM55.4584 116.4H57.3784V120.9H63.4184V116.4H65.3384V127H63.4184V122.56H57.3784V127H55.4584V116.4ZM73.5717 120C74.9184 120.013 75.9451 120.32 76.6517 120.92C77.3584 121.52 77.7117 122.367 77.7117 123.46C77.7117 124.607 77.3251 125.493 76.5517 126.12C75.7917 126.733 74.6984 127.033 73.2717 127.02L68.6717 127V116.4H70.5917V119.98L73.5717 120ZM73.1117 125.56C73.9784 125.573 74.6317 125.4 75.0717 125.04C75.5251 124.68 75.7517 124.147 75.7517 123.44C75.7517 122.747 75.5317 122.24 75.0917 121.92C74.6651 121.6 74.0051 121.433 73.1117 121.42L70.5917 121.38V125.54L73.1117 125.56ZM93.6867 125.26V127H83.6267V125.64L89.3267 120.14C90.0201 119.473 90.4867 118.9 90.7267 118.42C90.9667 117.927 91.0867 117.433 91.0867 116.94C91.0867 116.207 90.8267 115.64 90.3067 115.24C89.8001 114.827 89.0667 114.62 88.1067 114.62C86.5601 114.62 85.3667 115.127 84.5267 116.14L83.1667 114.96C83.7134 114.293 84.4267 113.773 85.3067 113.4C86.2001 113.027 87.1934 112.84 88.2867 112.84C89.7534 112.84 90.9201 113.193 91.7867 113.9C92.6534 114.593 93.0867 115.54 93.0867 116.74C93.0867 117.487 92.9267 118.193 92.6067 118.86C92.2867 119.527 91.6801 120.287 90.7867 121.14L86.5067 125.26H93.6867Z" fill="#1F1F1F"/>
<path d="M105.614 15L105.598 6.84L101.55 13.64H100.814L96.7662 6.888V15H95.2302V3.8H96.5422L101.214 11.672L105.822 3.8H107.134L107.15 15H105.614ZM113.084 6.44C114.258 6.44 115.154 6.728 115.772 7.304C116.402 7.88 116.716 8.73867 116.716 9.88V15H115.26V13.88C115.004 14.2747 114.636 14.5787 114.156 14.792C113.687 14.9947 113.127 15.096 112.476 15.096C111.527 15.096 110.764 14.8667 110.188 14.408C109.623 13.9493 109.34 13.3467 109.34 12.6C109.34 11.8533 109.612 11.256 110.156 10.808C110.7 10.3493 111.564 10.12 112.748 10.12H115.18V9.816C115.18 9.15467 114.988 8.648 114.604 8.296C114.22 7.944 113.655 7.768 112.908 7.768C112.407 7.768 111.916 7.85333 111.436 8.024C110.956 8.184 110.551 8.40267 110.22 8.68L109.58 7.528C110.018 7.176 110.54 6.90933 111.148 6.728C111.756 6.536 112.402 6.44 113.084 6.44ZM112.732 13.912C113.319 13.912 113.826 13.784 114.252 13.528C114.679 13.2613 114.988 12.888 115.18 12.408V11.224H112.812C111.511 11.224 110.86 11.6613 110.86 12.536C110.86 12.9627 111.026 13.2987 111.356 13.544C111.687 13.7893 112.146 13.912 112.732 13.912ZM123.658 6.44C124.48 6.44 125.216 6.62133 125.866 6.984C126.517 7.34667 127.024 7.85333 127.386 8.504C127.76 9.15467 127.946 9.90667 127.946 10.76C127.946 11.6133 127.76 12.3707 127.386 13.032C127.024 13.6827 126.517 14.1893 125.866 14.552C125.216 14.9147 124.48 15.096 123.658 15.096C123.05 15.096 122.49 14.9787 121.978 14.744C121.477 14.5093 121.05 14.168 120.698 13.72V18.104H119.162V6.52H120.634V7.864C120.976 7.39467 121.408 7.04267 121.93 6.808C122.453 6.56267 123.029 6.44 123.658 6.44ZM123.53 13.752C124.074 13.752 124.56 13.6293 124.986 13.384C125.424 13.128 125.765 12.776 126.01 12.328C126.266 11.8693 126.394 11.3467 126.394 10.76C126.394 10.1733 126.266 9.656 126.01 9.208C125.765 8.74933 125.424 8.39733 124.986 8.152C124.56 7.90667 124.074 7.784 123.53 7.784C122.997 7.784 122.512 7.912 122.074 8.168C121.648 8.41333 121.306 8.76 121.05 9.208C120.805 9.656 120.682 10.1733 120.682 10.76C120.682 11.3467 120.805 11.8693 121.05 12.328C121.296 12.776 121.637 13.128 122.074 13.384C122.512 13.6293 122.997 13.752 123.53 13.752ZM129.858 6.52H131.394V12.696L136.594 6.52H137.986V15H136.45V8.824L131.266 15H129.858V6.52ZM140.647 6.52H142.183V10.12H147.015V6.52H148.551V15H147.015V11.448H142.183V15H140.647V6.52ZM154.242 6.44C155.415 6.44 156.311 6.728 156.93 7.304C157.559 7.88 157.874 8.73867 157.874 9.88V15H156.418V13.88C156.162 14.2747 155.794 14.5787 155.314 14.792C154.845 14.9947 154.285 15.096 153.634 15.096C152.685 15.096 151.922 14.8667 151.346 14.408C150.781 13.9493 150.498 13.3467 150.498 12.6C150.498 11.8533 150.77 11.256 151.314 10.808C151.858 10.3493 152.722 10.12 153.906 10.12H156.338V9.816C156.338 9.15467 156.146 8.648 155.762 8.296C155.378 7.944 154.813 7.768 154.066 7.768C153.565 7.768 153.074 7.85333 152.594 8.024C152.114 8.184 151.709 8.40267 151.378 8.68L150.738 7.528C151.175 7.176 151.698 6.90933 152.306 6.728C152.914 6.536 153.559 6.44 154.242 6.44ZM153.89 13.912C154.477 13.912 154.983 13.784 155.41 13.528C155.837 13.2613 156.146 12.888 156.338 12.408V11.224H153.97C152.669 11.224 152.018 11.6613 152.018 12.536C152.018 12.9627 152.183 13.2987 152.514 13.544C152.845 13.7893 153.303 13.912 153.89 13.912ZM164.553 3.8H173.001V5.16H166.137V8.36H169.625C170.958 8.36 171.971 8.63733 172.665 9.192C173.358 9.74667 173.705 10.5467 173.705 11.592C173.705 12.6907 173.326 13.5333 172.569 14.12C171.822 14.7067 170.75 15 169.353 15H164.553V3.8ZM169.289 13.736C170.206 13.736 170.905 13.56 171.385 13.208C171.865 12.856 172.105 12.3387 172.105 11.656C172.105 10.3013 171.166 9.624 169.289 9.624H166.137V13.736H169.289ZM178.704 6.44C179.877 6.44 180.773 6.728 181.392 7.304C182.021 7.88 182.336 8.73867 182.336 9.88V15H180.88V13.88C180.624 14.2747 180.256 14.5787 179.776 14.792C179.307 14.9947 178.747 15.096 178.096 15.096C177.147 15.096 176.384 14.8667 175.808 14.408C175.243 13.9493 174.96 13.3467 174.96 12.6C174.96 11.8533 175.232 11.256 175.776 10.808C176.32 10.3493 177.184 10.12 178.368 10.12H180.8V9.816C180.8 9.15467 180.608 8.648 180.224 8.296C179.84 7.944 179.275 7.768 178.528 7.768C178.027 7.768 177.536 7.85333 177.056 8.024C176.576 8.184 176.171 8.40267 175.84 8.68L175.2 7.528C175.637 7.176 176.16 6.90933 176.768 6.728C177.376 6.536 178.021 6.44 178.704 6.44ZM178.352 13.912C178.939 13.912 179.445 13.784 179.872 13.528C180.299 13.2613 180.608 12.888 180.8 12.408V11.224H178.432C177.131 11.224 176.48 11.6613 176.48 12.536C176.48 12.9627 176.645 13.2987 176.976 13.544C177.307 13.7893 177.765 13.912 178.352 13.912ZM188.414 15.096C187.571 15.096 186.814 14.9093 186.142 14.536C185.47 14.1627 184.942 13.6507 184.558 13C184.184 12.3387 183.998 11.592 183.998 10.76C183.998 9.928 184.184 9.18667 184.558 8.536C184.942 7.87467 185.47 7.36267 186.142 7C186.814 6.62667 187.571 6.44 188.414 6.44C189.256 6.44 190.008 6.62667 190.67 7C191.342 7.36267 191.864 7.87467 192.238 8.536C192.622 9.18667 192.814 9.928 192.814 10.76C192.814 11.592 192.622 12.3387 192.238 13C191.864 13.6507 191.342 14.1627 190.67 14.536C190.008 14.9093 189.256 15.096 188.414 15.096ZM188.414 13.752C188.958 13.752 189.443 13.6293 189.87 13.384C190.307 13.128 190.648 12.776 190.894 12.328C191.139 11.8693 191.262 11.3467 191.262 10.76C191.262 10.1733 191.139 9.656 190.894 9.208C190.648 8.74933 190.307 8.39733 189.87 8.152C189.443 7.90667 188.958 7.784 188.414 7.784C187.87 7.784 187.379 7.90667 186.942 8.152C186.515 8.39733 186.174 8.74933 185.918 9.208C185.672 9.656 185.55 10.1733 185.55 10.76C185.55 11.3467 185.672 11.8693 185.918 12.328C186.174 12.776 186.515 13.128 186.942 13.384C187.379 13.6293 187.87 13.752 188.414 13.752ZM200.719 7.864H197.615V15H196.079V7.864H192.975V6.52H200.719V7.864ZM201.97 6.52H203.506V12.696L208.706 6.52H210.098V15H208.562V8.824L203.378 15H201.97V6.52ZM216.055 11.416H214.295V15H212.759V6.52H214.295V10.104H216.087L218.839 6.52H220.487L217.271 10.6L220.711 15H218.903L216.055 11.416Z" fill="#9A9A9A"/>
<path d="M45.3713 202.096C44.5286 202.096 43.7713 201.909 43.0993 201.536C42.4273 201.163 41.8993 200.651 41.5153 200C41.1419 199.339 40.9553 198.592 40.9553 197.76C40.9553 196.928 41.1419 196.187 41.5153 195.536C41.8993 194.875 42.4273 194.363 43.0993 194C43.7713 193.627 44.5286 193.44 45.3713 193.44C46.2139 193.44 46.9659 193.627 47.6273 194C48.2993 194.363 48.8219 194.875 49.1953 195.536C49.5793 196.187 49.7713 196.928 49.7713 197.76C49.7713 198.592 49.5793 199.339 49.1953 200C48.8219 200.651 48.2993 201.163 47.6273 201.536C46.9659 201.909 46.2139 202.096 45.3713 202.096ZM45.3713 200.752C45.9153 200.752 46.4006 200.629 46.8273 200.384C47.2646 200.128 47.6059 199.776 47.8513 199.328C48.0966 198.869 48.2193 198.347 48.2193 197.76C48.2193 197.173 48.0966 196.656 47.8513 196.208C47.6059 195.749 47.2646 195.397 46.8273 195.152C46.4006 194.907 45.9153 194.784 45.3713 194.784C44.8273 194.784 44.3366 194.907 43.8993 195.152C43.4726 195.397 43.1313 195.749 42.8753 196.208C42.6299 196.656 42.5073 197.173 42.5073 197.76C42.5073 198.347 42.6299 198.869 42.8753 199.328C43.1313 199.776 43.4726 200.128 43.8993 200.384C44.3366 200.629 44.8273 200.752 45.3713 200.752ZM51.8178 202.096C51.5191 202.096 51.2631 201.995 51.0498 201.792C50.8364 201.579 50.7298 201.312 50.7298 200.992C50.7298 200.683 50.8364 200.427 51.0498 200.224C51.2631 200.011 51.5191 199.904 51.8178 199.904C52.1164 199.904 52.3671 200.005 52.5698 200.208C52.7724 200.411 52.8738 200.672 52.8738 200.992C52.8738 201.312 52.7671 201.579 52.5538 201.792C52.3511 201.995 52.1058 202.096 51.8178 202.096ZM69.6916 200.608V204.448H68.2036V202H58.9876L58.9716 204.448H57.4836L57.4996 200.608H58.0436C58.7476 200.565 59.2436 200.011 59.5316 198.944C59.8196 197.867 59.9956 196.352 60.0596 194.4L60.1716 190.8H68.0436V200.608H69.6916ZM61.4676 194.544C61.4143 196.123 61.2863 197.429 61.0836 198.464C60.8916 199.499 60.577 200.213 60.1396 200.608H66.4596V192.192H61.5476L61.4676 194.544ZM75.799 193.44C76.6203 193.44 77.3563 193.621 78.007 193.984C78.6577 194.347 79.1643 194.853 79.527 195.504C79.9003 196.155 80.087 196.907 80.087 197.76C80.087 198.613 79.9003 199.371 79.527 200.032C79.1643 200.683 78.6577 201.189 78.007 201.552C77.3563 201.915 76.6203 202.096 75.799 202.096C75.191 202.096 74.631 201.979 74.119 201.744C73.6177 201.509 73.191 201.168 72.839 200.72V205.104H71.303V193.52H72.775V194.864C73.1163 194.395 73.5483 194.043 74.071 193.808C74.5937 193.563 75.1697 193.44 75.799 193.44ZM75.671 200.752C76.215 200.752 76.7003 200.629 77.127 200.384C77.5643 200.128 77.9057 199.776 78.151 199.328C78.407 198.869 78.535 198.347 78.535 197.76C78.535 197.173 78.407 196.656 78.151 196.208C77.9057 195.749 77.5643 195.397 77.127 195.152C76.7003 194.907 76.215 194.784 75.671 194.784C75.1377 194.784 74.6523 194.912 74.215 195.168C73.7883 195.413 73.447 195.76 73.191 196.208C72.9457 196.656 72.823 197.173 72.823 197.76C72.823 198.347 72.9457 198.869 73.191 199.328C73.4363 199.776 73.7777 200.128 74.215 200.384C74.6523 200.629 75.1377 200.752 75.671 200.752ZM87.7746 197.6C88.8733 197.877 89.4226 198.565 89.4226 199.664C89.4226 200.411 89.14 200.987 88.5746 201.392C88.02 201.797 87.188 202 86.0786 202H81.9986V193.52H85.9346C86.9373 193.52 87.7213 193.712 88.2866 194.096C88.852 194.469 89.1346 195.003 89.1346 195.696C89.1346 196.144 89.012 196.533 88.7666 196.864C88.532 197.184 88.2013 197.429 87.7746 197.6ZM83.5026 197.168H85.8066C86.3933 197.168 86.836 197.061 87.1346 196.848C87.444 196.635 87.5986 196.325 87.5986 195.92C87.5986 195.109 87.0013 194.704 85.8066 194.704H83.5026V197.168ZM85.9666 200.816C86.6066 200.816 87.0866 200.715 87.4066 200.512C87.7266 200.309 87.8866 199.995 87.8866 199.568C87.8866 199.131 87.7373 198.805 87.4386 198.592C87.1506 198.379 86.692 198.272 86.0626 198.272H83.5026V200.816H85.9666ZM99.1708 197.808C99.1708 197.925 99.1601 198.08 99.1388 198.272H92.2588C92.3548 199.019 92.6801 199.621 93.2348 200.08C93.8001 200.528 94.4988 200.752 95.3308 200.752C96.3441 200.752 97.1601 200.411 97.7788 199.728L98.6268 200.72C98.2428 201.168 97.7628 201.509 97.1868 201.744C96.6214 201.979 95.9868 202.096 95.2828 202.096C94.3868 202.096 93.5921 201.915 92.8988 201.552C92.2054 201.179 91.6668 200.661 91.2828 200C90.9094 199.339 90.7228 198.592 90.7228 197.76C90.7228 196.939 90.9041 196.197 91.2668 195.536C91.6401 194.875 92.1468 194.363 92.7868 194C93.4374 193.627 94.1681 193.44 94.9788 193.44C95.7894 193.44 96.5094 193.627 97.1388 194C97.7788 194.363 98.2748 194.875 98.6268 195.536C98.9894 196.197 99.1708 196.955 99.1708 197.808ZM94.9788 194.736C94.2428 194.736 93.6241 194.96 93.1228 195.408C92.6321 195.856 92.3441 196.443 92.2588 197.168H97.6988C97.6134 196.453 97.3201 195.872 96.8188 195.424C96.3281 194.965 95.7148 194.736 94.9788 194.736ZM101.234 193.52H102.77V197.12H107.602V193.52H109.138V202H107.602V198.448H102.77V202H101.234V193.52ZM111.804 193.52H113.34V199.696L118.54 193.52H119.932V202H118.396V195.824L113.212 202H111.804V193.52ZM125.89 198.416H124.13V202H122.594V193.52H124.13V197.104H125.922L128.674 193.52H130.322L127.106 197.6L130.546 202H128.738L125.89 198.416ZM130.885 196.944H135.189V198.272H130.885V196.944ZM144.498 196.192C145.255 196.373 145.826 196.699 146.21 197.168C146.605 197.627 146.802 198.219 146.802 198.944C146.802 199.915 146.445 200.667 145.73 201.2C145.026 201.733 143.997 202 142.642 202H137.522V190.8H142.338C143.565 190.8 144.519 191.051 145.202 191.552C145.895 192.043 146.242 192.752 146.242 193.68C146.242 194.288 146.087 194.805 145.778 195.232C145.479 195.659 145.053 195.979 144.498 196.192ZM139.106 195.728H142.226C143.005 195.728 143.597 195.573 144.002 195.264C144.418 194.955 144.626 194.501 144.626 193.904C144.626 193.307 144.418 192.853 144.002 192.544C143.586 192.224 142.994 192.064 142.226 192.064H139.106V195.728ZM142.61 200.736C144.327 200.736 145.186 200.096 145.186 198.816C145.186 198.176 144.967 197.707 144.53 197.408C144.103 197.099 143.463 196.944 142.61 196.944H139.106V200.736H142.61ZM156.563 197.808C156.563 197.925 156.553 198.08 156.531 198.272H149.651C149.747 199.019 150.073 199.621 150.627 200.08C151.193 200.528 151.891 200.752 152.723 200.752C153.737 200.752 154.553 200.411 155.171 199.728L156.019 200.72C155.635 201.168 155.155 201.509 154.579 201.744C154.014 201.979 153.379 202.096 152.675 202.096C151.779 202.096 150.985 201.915 150.291 201.552C149.598 201.179 149.059 200.661 148.675 200C148.302 199.339 148.115 198.592 148.115 197.76C148.115 196.939 148.297 196.197 148.659 195.536C149.033 194.875 149.539 194.363 150.179 194C150.83 193.627 151.561 193.44 152.371 193.44C153.182 193.44 153.902 193.627 154.531 194C155.171 194.363 155.667 194.875 156.019 195.536C156.382 196.197 156.563 196.955 156.563 197.808ZM152.371 194.736C151.635 194.736 151.017 194.96 150.515 195.408C150.025 195.856 149.737 196.443 149.651 197.168H155.091C155.006 196.453 154.713 195.872 154.211 195.424C153.721 194.965 153.107 194.736 152.371 194.736ZM165.766 193.52V202H164.23V194.864H160.582L160.486 196.752C160.432 197.893 160.331 198.848 160.182 199.616C160.032 200.373 159.787 200.981 159.446 201.44C159.104 201.899 158.63 202.128 158.022 202.128C157.744 202.128 157.43 202.08 157.078 201.984L157.174 200.688C157.312 200.72 157.44 200.736 157.558 200.736C157.984 200.736 158.304 200.549 158.518 200.176C158.731 199.803 158.87 199.36 158.934 198.848C158.998 198.336 159.056 197.605 159.11 196.656L159.254 193.52H165.766ZM168.416 193.52H169.952V199.696L175.152 193.52H176.544V202H175.008V195.824L169.824 202H168.416V193.52ZM182.501 198.416H180.741V202H179.205V193.52H180.741V197.104H182.533L185.285 193.52H186.933L183.717 197.6L187.157 202H185.349L182.501 198.416ZM188.447 193.52H189.983V199.696L195.183 193.52H196.575V202H195.039V195.824L189.855 202H188.447V193.52Z" fill="#9A9A9A"/>
<path d="M238.62 55.98C238.62 57.8333 237.973 59.2867 236.68 60.34C235.387 61.3933 233.56 61.96 231.2 62.04V63.52H229.34V62.04C226.98 61.9467 225.147 61.3733 223.84 60.32C222.547 59.2667 221.9 57.82 221.9 55.98C221.9 54.1267 222.547 52.6733 223.84 51.62C225.147 50.5667 226.98 49.9933 229.34 49.9V48.48H231.2V49.9C233.547 49.9933 235.367 50.5733 236.66 51.64C237.967 52.6933 238.62 54.14 238.62 55.98ZM231.2 60.48C232.987 60.3733 234.347 59.94 235.28 59.18C236.227 58.4067 236.7 57.3333 236.7 55.96C236.7 54.6133 236.22 53.56 235.26 52.8C234.313 52.0267 232.96 51.5867 231.2 51.48V60.48ZM223.84 55.98C223.84 57.34 224.313 58.4067 225.26 59.18C226.22 59.94 227.58 60.3733 229.34 60.48V51.48C227.553 51.5867 226.187 52.02 225.24 52.78C224.307 53.54 223.84 54.6067 223.84 55.98ZM240.976 52.4H242.896V60.12L249.396 52.4H251.136V63H249.216V55.28L242.736 63H240.976V52.4ZM254.462 52.4H256.382V56.9H262.422V52.4H264.342V63H262.422V58.56H256.382V63H254.462V52.4ZM267.676 52.4H269.596V60.12L276.096 52.4H277.836V63H275.916V55.28L269.436 63H267.676V52.4ZM296.262 52.4V63H281.162V52.4H283.082V61.32H287.762V52.4H289.682V61.32H294.342V52.4H296.262Z" fill="black"/>
<rect opacity="0.4" x="158" y="31" width="1" height="34" fill="#7D7D7D"/>
<rect opacity="0.4" x="119" y="145" width="1" height="34" fill="#7D7D7D"/>
<path d="M416.52 328.26V333.06H414.66V330H403.14L403.12 333.06H401.26L401.28 328.26H401.96C402.84 328.207 403.46 327.513 403.82 326.18C404.18 324.833 404.4 322.94 404.48 320.5L404.62 316H414.46V328.26H416.52ZM406.24 320.68C406.173 322.653 406.013 324.287 405.76 325.58C405.52 326.873 405.127 327.767 404.58 328.26H412.48V317.74H406.34L406.24 320.68ZM427.88 324.76C427.88 324.907 427.867 325.1 427.84 325.34H419.24C419.36 326.273 419.767 327.027 420.46 327.6C421.167 328.16 422.04 328.44 423.08 328.44C424.347 328.44 425.367 328.013 426.14 327.16L427.2 328.4C426.72 328.96 426.12 329.387 425.4 329.68C424.693 329.973 423.9 330.12 423.02 330.12C421.9 330.12 420.907 329.893 420.04 329.44C419.173 328.973 418.5 328.327 418.02 327.5C417.553 326.673 417.32 325.74 417.32 324.7C417.32 323.673 417.547 322.747 418 321.92C418.467 321.093 419.1 320.453 419.9 320C420.713 319.533 421.627 319.3 422.64 319.3C423.653 319.3 424.553 319.533 425.34 320C426.14 320.453 426.76 321.093 427.2 321.92C427.653 322.747 427.88 323.693 427.88 324.76ZM422.64 320.92C421.72 320.92 420.947 321.2 420.32 321.76C419.707 322.32 419.347 323.053 419.24 323.96H426.04C425.933 323.067 425.567 322.34 424.94 321.78C424.327 321.207 423.56 320.92 422.64 320.92ZM430.458 319.4H432.378V323.9H438.418V319.4H440.338V330H438.418V325.56H432.378V330H430.458V319.4ZM448.572 323C449.918 323.013 450.945 323.32 451.652 323.92C452.358 324.52 452.712 325.367 452.712 326.46C452.712 327.607 452.325 328.493 451.552 329.12C450.792 329.733 449.698 330.033 448.272 330.02L443.672 330V319.4H445.592V322.98L448.572 323ZM448.112 328.56C448.978 328.573 449.632 328.4 450.072 328.04C450.525 327.68 450.752 327.147 450.752 326.44C450.752 325.747 450.532 325.24 450.092 324.92C449.665 324.6 449.005 324.433 448.112 324.42L445.592 324.38V328.54L448.112 328.56ZM464.887 321.5C465.807 321.5 466.627 321.673 467.347 322.02C468.08 322.367 468.653 322.867 469.067 323.52C469.48 324.16 469.687 324.9 469.687 325.74C469.687 326.62 469.467 327.393 469.027 328.06C468.6 328.727 468.007 329.247 467.247 329.62C466.5 329.98 465.66 330.16 464.727 330.16C462.847 330.16 461.393 329.553 460.367 328.34C459.353 327.127 458.847 325.407 458.847 323.18C458.847 321.62 459.12 320.293 459.667 319.2C460.227 318.093 461 317.26 461.987 316.7C462.987 316.127 464.147 315.84 465.467 315.84C466.147 315.84 466.787 315.913 467.387 316.06C467.987 316.193 468.507 316.393 468.947 316.66L468.187 318.22C467.52 317.78 466.627 317.56 465.507 317.56C464.053 317.56 462.913 318.013 462.087 318.92C461.26 319.813 460.847 321.12 460.847 322.84C460.847 323.053 460.853 323.22 460.867 323.34C461.267 322.74 461.813 322.287 462.507 321.98C463.213 321.66 464.007 321.5 464.887 321.5ZM464.647 328.54C465.567 328.54 466.313 328.293 466.887 327.8C467.46 327.307 467.747 326.647 467.747 325.82C467.747 324.993 467.453 324.34 466.867 323.86C466.293 323.367 465.52 323.12 464.547 323.12C463.92 323.12 463.36 323.24 462.867 323.48C462.387 323.72 462.007 324.047 461.727 324.46C461.46 324.873 461.327 325.333 461.327 325.84C461.327 326.333 461.453 326.787 461.707 327.2C461.973 327.6 462.353 327.927 462.847 328.18C463.353 328.42 463.953 328.54 464.647 328.54Z" fill="black"/>
<path d="M345.349 260.096C344.507 260.096 343.749 259.909 343.077 259.536C342.405 259.163 341.877 258.651 341.493 258C341.12 257.339 340.933 256.592 340.933 255.76C340.933 254.928 341.12 254.187 341.493 253.536C341.877 252.875 342.405 252.363 343.077 252C343.749 251.627 344.507 251.44 345.349 251.44C346.192 251.44 346.944 251.627 347.605 252C348.277 252.363 348.8 252.875 349.173 253.536C349.557 254.187 349.749 254.928 349.749 255.76C349.749 256.592 349.557 257.339 349.173 258C348.8 258.651 348.277 259.163 347.605 259.536C346.944 259.909 346.192 260.096 345.349 260.096ZM345.349 258.752C345.893 258.752 346.379 258.629 346.805 258.384C347.243 258.128 347.584 257.776 347.829 257.328C348.075 256.869 348.197 256.347 348.197 255.76C348.197 255.173 348.075 254.656 347.829 254.208C347.584 253.749 347.243 253.397 346.805 253.152C346.379 252.907 345.893 252.784 345.349 252.784C344.805 252.784 344.315 252.907 343.877 253.152C343.451 253.397 343.109 253.749 342.853 254.208C342.608 254.656 342.485 255.173 342.485 255.76C342.485 256.347 342.608 256.869 342.853 257.328C343.109 257.776 343.451 258.128 343.877 258.384C344.315 258.629 344.805 258.752 345.349 258.752ZM351.796 260.096C351.497 260.096 351.241 259.995 351.028 259.792C350.815 259.579 350.708 259.312 350.708 258.992C350.708 258.683 350.815 258.427 351.028 258.224C351.241 258.011 351.497 257.904 351.796 257.904C352.095 257.904 352.345 258.005 352.548 258.208C352.751 258.411 352.852 258.672 352.852 258.992C352.852 259.312 352.745 259.579 352.532 259.792C352.329 259.995 352.084 260.096 351.796 260.096ZM359.638 248.8L362.566 252.896L365.494 248.8H367.366L363.574 254.176L367.67 260H365.782L362.566 255.536L359.366 260H357.526L361.606 254.24L357.798 248.8H359.638ZM374.729 255.6C375.828 255.877 376.377 256.565 376.377 257.664C376.377 258.411 376.094 258.987 375.529 259.392C374.974 259.797 374.142 260 373.033 260H368.953V251.52H372.889C373.892 251.52 374.676 251.712 375.241 252.096C375.806 252.469 376.089 253.003 376.089 253.696C376.089 254.144 375.966 254.533 375.721 254.864C375.486 255.184 375.156 255.429 374.729 255.6ZM370.457 255.168H372.761C373.348 255.168 373.79 255.061 374.089 254.848C374.398 254.635 374.553 254.325 374.553 253.92C374.553 253.109 373.956 252.704 372.761 252.704H370.457V255.168ZM372.921 258.816C373.561 258.816 374.041 258.715 374.361 258.512C374.681 258.309 374.841 257.995 374.841 257.568C374.841 257.131 374.692 256.805 374.393 256.592C374.105 256.379 373.646 256.272 373.017 256.272H370.457V258.816H372.921ZM381.485 251.44C382.658 251.44 383.554 251.728 384.173 252.304C384.802 252.88 385.117 253.739 385.117 254.88V260H383.661V258.88C383.405 259.275 383.037 259.579 382.557 259.792C382.088 259.995 381.528 260.096 380.877 260.096C379.928 260.096 379.165 259.867 378.589 259.408C378.024 258.949 377.741 258.347 377.741 257.6C377.741 256.853 378.013 256.256 378.557 255.808C379.101 255.349 379.965 255.12 381.149 255.12H383.581V254.816C383.581 254.155 383.389 253.648 383.005 253.296C382.621 252.944 382.056 252.768 381.309 252.768C380.808 252.768 380.317 252.853 379.837 253.024C379.357 253.184 378.952 253.403 378.621 253.68L377.981 252.528C378.418 252.176 378.941 251.909 379.549 251.728C380.157 251.536 380.802 251.44 381.485 251.44ZM381.133 258.912C381.72 258.912 382.226 258.784 382.653 258.528C383.08 258.261 383.389 257.888 383.581 257.408V256.224H381.213C379.912 256.224 379.261 256.661 379.261 257.536C379.261 257.963 379.426 258.299 379.757 258.544C380.088 258.789 380.546 258.912 381.133 258.912ZM392.059 251.44C392.88 251.44 393.616 251.621 394.267 251.984C394.918 252.347 395.424 252.853 395.787 253.504C396.16 254.155 396.347 254.907 396.347 255.76C396.347 256.613 396.16 257.371 395.787 258.032C395.424 258.683 394.918 259.189 394.267 259.552C393.616 259.915 392.88 260.096 392.059 260.096C391.451 260.096 390.891 259.979 390.379 259.744C389.878 259.509 389.451 259.168 389.099 258.72V263.104H387.563V251.52H389.035V252.864C389.376 252.395 389.808 252.043 390.331 251.808C390.854 251.563 391.43 251.44 392.059 251.44ZM391.931 258.752C392.475 258.752 392.96 258.629 393.387 258.384C393.824 258.128 394.166 257.776 394.411 257.328C394.667 256.869 394.795 256.347 394.795 255.76C394.795 255.173 394.667 254.656 394.411 254.208C394.166 253.749 393.824 253.397 393.387 253.152C392.96 252.907 392.475 252.784 391.931 252.784C391.398 252.784 390.912 252.912 390.475 253.168C390.048 253.413 389.707 253.76 389.451 254.208C389.206 254.656 389.083 255.173 389.083 255.76C389.083 256.347 389.206 256.869 389.451 257.328C389.696 257.776 390.038 258.128 390.475 258.384C390.912 258.629 391.398 258.752 391.931 258.752Z" fill="#9A9A9A"/>
<rect opacity="0.4" x="369" y="267" width="1" height="34" fill="#7D7D7D"/>
<path d="M15.84 455.8V460.98H13.44V458H2.7V460.98H0.28L0.3 455.8H0.9C1.78 455.76 2.39333 455.113 2.74 453.86C3.1 452.593 3.32 450.787 3.4 448.44L3.56 444H13.82V455.8H15.84ZM5.68 448.68C5.61333 450.493 5.46667 452.007 5.24 453.22C5.01333 454.42 4.65333 455.28 4.16 455.8H11.26V446.2H5.78L5.68 448.68ZM27.4128 452.72C27.4128 452.893 27.3995 453.14 27.3728 453.46H18.9928C19.1395 454.247 19.5195 454.873 20.1328 455.34C20.7595 455.793 21.5328 456.02 22.4528 456.02C23.6261 456.02 24.5928 455.633 25.3528 454.86L26.6928 456.4C26.2128 456.973 25.6061 457.407 24.8728 457.7C24.1395 457.993 23.3128 458.14 22.3928 458.14C21.2195 458.14 20.1861 457.907 19.2928 457.44C18.3995 456.973 17.7061 456.327 17.2128 455.5C16.7328 454.66 16.4928 453.713 16.4928 452.66C16.4928 451.62 16.7261 450.687 17.1928 449.86C17.6728 449.02 18.3328 448.367 19.1728 447.9C20.0128 447.433 20.9595 447.2 22.0128 447.2C23.0528 447.2 23.9795 447.433 24.7928 447.9C25.6195 448.353 26.2595 449 26.7128 449.84C27.1795 450.667 27.4128 451.627 27.4128 452.72ZM22.0128 449.2C21.2128 449.2 20.5328 449.44 19.9728 449.92C19.4261 450.387 19.0928 451.013 18.9728 451.8H25.0328C24.9261 451.027 24.5995 450.4 24.0528 449.92C23.5061 449.44 22.8261 449.2 22.0128 449.2ZM29.7472 447.32H32.2472V451.66H37.6272V447.32H40.1272V458H37.6272V453.78H32.2472V458H29.7472V447.32ZM48.4377 450.84C49.7977 450.84 50.8377 451.147 51.5577 451.76C52.291 452.373 52.6577 453.24 52.6577 454.36C52.6577 455.533 52.2577 456.44 51.4577 457.08C50.6577 457.72 49.531 458.033 48.0777 458.02L43.0777 458V447.32H45.5777V450.82L48.4377 450.84ZM47.8577 456.18C48.591 456.193 49.151 456.04 49.5377 455.72C49.9243 455.4 50.1177 454.933 50.1177 454.32C50.1177 453.72 49.931 453.28 49.5577 453C49.1843 452.72 48.6177 452.573 47.8577 452.56L45.5777 452.54V456.16L47.8577 456.18ZM64.7423 449.78C66.0357 449.94 67.0223 450.38 67.7023 451.1C68.3823 451.82 68.7223 452.72 68.7223 453.8C68.7223 454.613 68.5157 455.353 68.1023 456.02C67.689 456.687 67.0623 457.22 66.2223 457.62C65.3957 458.007 64.3823 458.2 63.1823 458.2C62.1823 458.2 61.2157 458.06 60.2823 457.78C59.3623 457.487 58.5757 457.087 57.9223 456.58L59.0423 454.56C59.549 454.987 60.1623 455.327 60.8823 455.58C61.6157 455.82 62.369 455.94 63.1423 455.94C64.0623 455.94 64.7823 455.753 65.3023 455.38C65.8357 454.993 66.1023 454.473 66.1023 453.82C66.1023 453.167 65.849 452.66 65.3423 452.3C64.849 451.927 64.089 451.74 63.0623 451.74H61.7823V449.96L64.9623 446.18H58.6023V444H68.1423V445.74L64.7423 449.78Z" fill="#00A0D2"/>
<path d="M108.486 538.096C107.644 538.096 106.886 537.909 106.214 537.536C105.542 537.163 105.014 536.651 104.63 536C104.257 535.339 104.07 534.592 104.07 533.76C104.07 532.928 104.257 532.187 104.63 531.536C105.014 530.875 105.542 530.363 106.214 530C106.886 529.627 107.644 529.44 108.486 529.44C109.329 529.44 110.081 529.627 110.742 530C111.414 530.363 111.937 530.875 112.31 531.536C112.694 532.187 112.886 532.928 112.886 533.76C112.886 534.592 112.694 535.339 112.31 536C111.937 536.651 111.414 537.163 110.742 537.536C110.081 537.909 109.329 538.096 108.486 538.096ZM108.486 536.752C109.03 536.752 109.516 536.629 109.942 536.384C110.38 536.128 110.721 535.776 110.966 535.328C111.212 534.869 111.334 534.347 111.334 533.76C111.334 533.173 111.212 532.656 110.966 532.208C110.721 531.749 110.38 531.397 109.942 531.152C109.516 530.907 109.03 530.784 108.486 530.784C107.942 530.784 107.452 530.907 107.014 531.152C106.588 531.397 106.246 531.749 105.99 532.208C105.745 532.656 105.622 533.173 105.622 533.76C105.622 534.347 105.745 534.869 105.99 535.328C106.246 535.776 106.588 536.128 107.014 536.384C107.452 536.629 107.942 536.752 108.486 536.752ZM114.933 538.096C114.634 538.096 114.378 537.995 114.165 537.792C113.951 537.579 113.845 537.312 113.845 536.992C113.845 536.683 113.951 536.427 114.165 536.224C114.378 536.011 114.634 535.904 114.933 535.904C115.231 535.904 115.482 536.005 115.685 536.208C115.887 536.411 115.989 536.672 115.989 536.992C115.989 537.312 115.882 537.579 115.669 537.792C115.466 537.995 115.221 538.096 114.933 538.096ZM129.111 532.192C129.868 532.373 130.439 532.699 130.823 533.168C131.217 533.627 131.415 534.219 131.415 534.944C131.415 535.915 131.057 536.667 130.343 537.2C129.639 537.733 128.609 538 127.255 538H122.135V526.8H126.951C128.177 526.8 129.132 527.051 129.815 527.552C130.508 528.043 130.855 528.752 130.855 529.68C130.855 530.288 130.7 530.805 130.391 531.232C130.092 531.659 129.665 531.979 129.111 532.192ZM123.719 531.728H126.839C127.617 531.728 128.209 531.573 128.615 531.264C129.031 530.955 129.239 530.501 129.239 529.904C129.239 529.307 129.031 528.853 128.615 528.544C128.199 528.224 127.607 528.064 126.839 528.064H123.719V531.728ZM127.223 536.736C128.94 536.736 129.799 536.096 129.799 534.816C129.799 534.176 129.58 533.707 129.143 533.408C128.716 533.099 128.076 532.944 127.223 532.944H123.719V536.736H127.223ZM133.512 529.52H135.048V535.696L140.248 529.52H141.64V538H140.104V531.824L134.92 538H133.512V529.52ZM147.997 538.096C147.133 538.096 146.36 537.909 145.677 537.536C145.005 537.163 144.477 536.651 144.093 536C143.709 535.339 143.517 534.592 143.517 533.76C143.517 532.928 143.709 532.187 144.093 531.536C144.477 530.875 145.005 530.363 145.677 530C146.36 529.627 147.133 529.44 147.997 529.44C148.765 529.44 149.448 529.595 150.045 529.904C150.653 530.213 151.122 530.661 151.453 531.248L150.285 532C150.018 531.595 149.688 531.291 149.293 531.088C148.898 530.885 148.461 530.784 147.981 530.784C147.426 530.784 146.925 530.907 146.477 531.152C146.04 531.397 145.693 531.749 145.437 532.208C145.192 532.656 145.069 533.173 145.069 533.76C145.069 534.357 145.192 534.885 145.437 535.344C145.693 535.792 146.04 536.139 146.477 536.384C146.925 536.629 147.426 536.752 147.981 536.752C148.461 536.752 148.898 536.651 149.293 536.448C149.688 536.245 150.018 535.941 150.285 535.536L151.453 536.272C151.122 536.859 150.653 537.312 150.045 537.632C149.448 537.941 148.765 538.096 147.997 538.096Z" fill="#9A9A9A"/>
<rect opacity="0.4" x="127" y="480" width="1" height="34" fill="#7D7D7D"/>
<path d="M156.863 111.864H152.159V119H150.623V110.52H156.863V111.864ZM157.686 119.096C157.388 119.096 157.132 118.995 156.918 118.792C156.705 118.579 156.598 118.312 156.598 117.992C156.598 117.683 156.705 117.427 156.918 117.224C157.132 117.011 157.388 116.904 157.686 116.904C157.985 116.904 158.236 117.005 158.438 117.208C158.641 117.411 158.742 117.672 158.742 117.992C158.742 118.312 158.636 118.579 158.422 118.792C158.22 118.995 157.974 119.096 157.686 119.096ZM172.584 109.192H168.744V119H167.176V109.192H163.352V107.8H172.584V109.192ZM178.246 110.44C179.067 110.44 179.803 110.621 180.454 110.984C181.104 111.347 181.611 111.853 181.974 112.504C182.347 113.155 182.534 113.907 182.534 114.76C182.534 115.613 182.347 116.371 181.974 117.032C181.611 117.683 181.104 118.189 180.454 118.552C179.803 118.915 179.067 119.096 178.246 119.096C177.638 119.096 177.078 118.979 176.566 118.744C176.064 118.509 175.638 118.168 175.286 117.72V122.104H173.75V110.52H175.222V111.864C175.563 111.395 175.995 111.043 176.518 110.808C177.04 110.563 177.616 110.44 178.246 110.44ZM178.118 117.752C178.662 117.752 179.147 117.629 179.574 117.384C180.011 117.128 180.352 116.776 180.598 116.328C180.854 115.869 180.982 115.347 180.982 114.76C180.982 114.173 180.854 113.656 180.598 113.208C180.352 112.749 180.011 112.397 179.574 112.152C179.147 111.907 178.662 111.784 178.118 111.784C177.584 111.784 177.099 111.912 176.662 112.168C176.235 112.413 175.894 112.76 175.638 113.208C175.392 113.656 175.27 114.173 175.27 114.76C175.27 115.347 175.392 115.869 175.638 116.328C175.883 116.776 176.224 117.128 176.662 117.384C177.099 117.629 177.584 117.752 178.118 117.752ZM188.077 119.096C187.235 119.096 186.477 118.909 185.805 118.536C185.133 118.163 184.605 117.651 184.221 117C183.848 116.339 183.661 115.592 183.661 114.76C183.661 113.928 183.848 113.187 184.221 112.536C184.605 111.875 185.133 111.363 185.805 111C186.477 110.627 187.235 110.44 188.077 110.44C188.92 110.44 189.672 110.627 190.333 111C191.005 111.363 191.528 111.875 191.901 112.536C192.285 113.187 192.477 113.928 192.477 114.76C192.477 115.592 192.285 116.339 191.901 117C191.528 117.651 191.005 118.163 190.333 118.536C189.672 118.909 188.92 119.096 188.077 119.096ZM188.077 117.752C188.621 117.752 189.107 117.629 189.533 117.384C189.971 117.128 190.312 116.776 190.557 116.328C190.803 115.869 190.925 115.347 190.925 114.76C190.925 114.173 190.803 113.656 190.557 113.208C190.312 112.749 189.971 112.397 189.533 112.152C189.107 111.907 188.621 111.784 188.077 111.784C187.533 111.784 187.043 111.907 186.605 112.152C186.179 112.397 185.837 112.749 185.581 113.208C185.336 113.656 185.213 114.173 185.213 114.76C185.213 115.347 185.336 115.869 185.581 116.328C185.837 116.776 186.179 117.128 186.605 117.384C187.043 117.629 187.533 117.752 188.077 117.752ZM200.615 111.864H195.911V119H194.375V110.52H200.615V111.864ZM201.868 110.52H203.404V116.696L208.604 110.52H209.996V119H208.46V112.824L203.276 119H201.868V110.52ZM217.153 110.44C217.974 110.44 218.71 110.621 219.361 110.984C220.012 111.347 220.518 111.853 220.881 112.504C221.254 113.155 221.441 113.907 221.441 114.76C221.441 115.613 221.254 116.371 220.881 117.032C220.518 117.683 220.012 118.189 219.361 118.552C218.71 118.915 217.974 119.096 217.153 119.096C216.545 119.096 215.985 118.979 215.473 118.744C214.972 118.509 214.545 118.168 214.193 117.72V122.104H212.657V110.52H214.129V111.864C214.47 111.395 214.902 111.043 215.425 110.808C215.948 110.563 216.524 110.44 217.153 110.44ZM217.025 117.752C217.569 117.752 218.054 117.629 218.481 117.384C218.918 117.128 219.26 116.776 219.505 116.328C219.761 115.869 219.889 115.347 219.889 114.76C219.889 114.173 219.761 113.656 219.505 113.208C219.26 112.749 218.918 112.397 218.481 112.152C218.054 111.907 217.569 111.784 217.025 111.784C216.492 111.784 216.006 111.912 215.569 112.168C215.142 112.413 214.801 112.76 214.545 113.208C214.3 113.656 214.177 114.173 214.177 114.76C214.177 115.347 214.3 115.869 214.545 116.328C214.79 116.776 215.132 117.128 215.569 117.384C216.006 117.629 216.492 117.752 217.025 117.752Z" fill="#9A9A9A"/>
<rect opacity="0.4" x="185" y="61" width="1" height="34" fill="#7D7D7D"/>
<path d="M430.52 681.26V686.06H428.66V683H417.14L417.12 686.06H415.26L415.28 681.26H415.96C416.84 681.207 417.46 680.513 417.82 679.18C418.18 677.833 418.4 675.94 418.48 673.5L418.62 669H428.46V681.26H430.52ZM420.24 673.68C420.173 675.653 420.013 677.287 419.76 678.58C419.52 679.873 419.127 680.767 418.58 681.26H426.48V670.74H420.34L420.24 673.68ZM441.88 677.76C441.88 677.907 441.867 678.1 441.84 678.34H433.24C433.36 679.273 433.767 680.027 434.46 680.6C435.167 681.16 436.04 681.44 437.08 681.44C438.347 681.44 439.367 681.013 440.14 680.16L441.2 681.4C440.72 681.96 440.12 682.387 439.4 682.68C438.693 682.973 437.9 683.12 437.02 683.12C435.9 683.12 434.907 682.893 434.04 682.44C433.173 681.973 432.5 681.327 432.02 680.5C431.553 679.673 431.32 678.74 431.32 677.7C431.32 676.673 431.547 675.747 432 674.92C432.467 674.093 433.1 673.453 433.9 673C434.713 672.533 435.627 672.3 436.64 672.3C437.653 672.3 438.553 672.533 439.34 673C440.14 673.453 440.76 674.093 441.2 674.92C441.653 675.747 441.88 676.693 441.88 677.76ZM436.64 673.92C435.72 673.92 434.947 674.2 434.32 674.76C433.707 675.32 433.347 676.053 433.24 676.96H440.04C439.933 676.067 439.567 675.34 438.94 674.78C438.327 674.207 437.56 673.92 436.64 673.92ZM444.458 672.4H446.378V676.9H452.418V672.4H454.338V683H452.418V678.56H446.378V683H444.458V672.4ZM462.572 676C463.918 676.013 464.945 676.32 465.652 676.92C466.358 677.52 466.712 678.367 466.712 679.46C466.712 680.607 466.325 681.493 465.552 682.12C464.792 682.733 463.698 683.033 462.272 683.02L457.672 683V672.4H459.592V675.98L462.572 676ZM462.112 681.56C462.978 681.573 463.632 681.4 464.072 681.04C464.525 680.68 464.752 680.147 464.752 679.44C464.752 678.747 464.532 678.24 464.092 677.92C463.665 677.6 463.005 677.433 462.112 677.42L459.592 677.38V681.54L462.112 681.56ZM485.027 679.56H482.367V683H480.427V679.56H472.647V678.16L479.807 669H481.967L475.107 677.84H480.487V674.8H482.367V677.84H485.027V679.56Z" fill="black"/>
<path d="M630.52 662.26V667.06H628.66V664H617.14L617.12 667.06H615.26L615.28 662.26H615.96C616.84 662.207 617.46 661.513 617.82 660.18C618.18 658.833 618.4 656.94 618.48 654.5L618.62 650H628.46V662.26H630.52ZM620.24 654.68C620.173 656.653 620.013 658.287 619.76 659.58C619.52 660.873 619.127 661.767 618.58 662.26H626.48V651.74H620.34L620.24 654.68ZM641.88 658.76C641.88 658.907 641.867 659.1 641.84 659.34H633.24C633.36 660.273 633.767 661.027 634.46 661.6C635.167 662.16 636.04 662.44 637.08 662.44C638.347 662.44 639.367 662.013 640.14 661.16L641.2 662.4C640.72 662.96 640.12 663.387 639.4 663.68C638.693 663.973 637.9 664.12 637.02 664.12C635.9 664.12 634.907 663.893 634.04 663.44C633.173 662.973 632.5 662.327 632.02 661.5C631.553 660.673 631.32 659.74 631.32 658.7C631.32 657.673 631.547 656.747 632 655.92C632.467 655.093 633.1 654.453 633.9 654C634.713 653.533 635.627 653.3 636.64 653.3C637.653 653.3 638.553 653.533 639.34 654C640.14 654.453 640.76 655.093 641.2 655.92C641.653 656.747 641.88 657.693 641.88 658.76ZM636.64 654.92C635.72 654.92 634.947 655.2 634.32 655.76C633.707 656.32 633.347 657.053 633.24 657.96H640.04C639.933 657.067 639.567 656.34 638.94 655.78C638.327 655.207 637.56 654.92 636.64 654.92ZM644.458 653.4H646.378V657.9H652.418V653.4H654.338V664H652.418V659.56H646.378V664H644.458V653.4ZM662.572 657C663.918 657.013 664.945 657.32 665.652 657.92C666.358 658.52 666.712 659.367 666.712 660.46C666.712 661.607 666.325 662.493 665.552 663.12C664.792 663.733 663.698 664.033 662.272 664.02L657.672 664V653.4H659.592V656.98L662.572 657ZM662.112 662.56C662.978 662.573 663.632 662.4 664.072 662.04C664.525 661.68 664.752 661.147 664.752 660.44C664.752 659.747 664.532 659.24 664.092 658.92C663.665 658.6 663.005 658.433 662.112 658.42L659.592 658.38V662.54L662.112 662.56ZM676.847 655.58C678.847 655.58 680.313 655.96 681.247 656.72C682.193 657.467 682.667 658.493 682.667 659.8C682.667 660.627 682.467 661.373 682.067 662.04C681.68 662.693 681.087 663.213 680.287 663.6C679.5 663.973 678.527 664.16 677.367 664.16C676.38 664.16 675.427 664.013 674.507 663.72C673.587 663.413 672.827 662.993 672.227 662.46L673.147 660.88C673.627 661.333 674.24 661.7 674.987 661.98C675.733 662.247 676.52 662.38 677.347 662.38C678.4 662.38 679.213 662.16 679.787 661.72C680.373 661.267 680.667 660.653 680.667 659.88C680.667 659.04 680.347 658.407 679.707 657.98C679.067 657.54 677.973 657.32 676.427 657.32H673.247L673.987 650H681.887V651.74H675.667L675.287 655.58H676.847Z" fill="black"/>
<path d="M504.259 762.096C503.416 762.096 502.659 761.909 501.987 761.536C501.315 761.163 500.787 760.651 500.403 760C500.03 759.339 499.843 758.592 499.843 757.76C499.843 756.928 500.03 756.187 500.403 755.536C500.787 754.875 501.315 754.363 501.987 754C502.659 753.627 503.416 753.44 504.259 753.44C505.102 753.44 505.854 753.627 506.515 754C507.187 754.363 507.71 754.875 508.083 755.536C508.467 756.187 508.659 756.928 508.659 757.76C508.659 758.592 508.467 759.339 508.083 760C507.71 760.651 507.187 761.163 506.515 761.536C505.854 761.909 505.102 762.096 504.259 762.096ZM504.259 760.752C504.803 760.752 505.288 760.629 505.715 760.384C506.152 760.128 506.494 759.776 506.739 759.328C506.984 758.869 507.107 758.347 507.107 757.76C507.107 757.173 506.984 756.656 506.739 756.208C506.494 755.749 506.152 755.397 505.715 755.152C505.288 754.907 504.803 754.784 504.259 754.784C503.715 754.784 503.224 754.907 502.787 755.152C502.36 755.397 502.019 755.749 501.763 756.208C501.518 756.656 501.395 757.173 501.395 757.76C501.395 758.347 501.518 758.869 501.763 759.328C502.019 759.776 502.36 760.128 502.787 760.384C503.224 760.629 503.715 760.752 504.259 760.752ZM510.706 762.096C510.407 762.096 510.151 761.995 509.938 761.792C509.724 761.579 509.618 761.312 509.618 760.992C509.618 760.683 509.724 760.427 509.938 760.224C510.151 760.011 510.407 759.904 510.706 759.904C511.004 759.904 511.255 760.005 511.458 760.208C511.66 760.411 511.762 760.672 511.762 760.992C511.762 761.312 511.655 761.579 511.442 761.792C511.239 761.995 510.994 762.096 510.706 762.096ZM527.059 750.8V762H525.491V752.192H520.531L520.419 755.472C520.366 757.019 520.238 758.272 520.035 759.232C519.843 760.192 519.534 760.917 519.107 761.408C518.681 761.888 518.105 762.128 517.379 762.128C517.049 762.128 516.713 762.085 516.371 762L516.483 760.576C516.654 760.619 516.825 760.64 516.995 760.64C517.454 760.64 517.822 760.459 518.099 760.096C518.377 759.723 518.585 759.168 518.723 758.432C518.862 757.696 518.953 756.725 518.995 755.52L519.171 750.8H527.059ZM532.996 753.44C534.169 753.44 535.065 753.728 535.684 754.304C536.313 754.88 536.628 755.739 536.628 756.88V762H535.172V760.88C534.916 761.275 534.548 761.579 534.068 761.792C533.599 761.995 533.039 762.096 532.388 762.096C531.439 762.096 530.676 761.867 530.1 761.408C529.535 760.949 529.252 760.347 529.252 759.6C529.252 758.853 529.524 758.256 530.068 757.808C530.612 757.349 531.476 757.12 532.66 757.12H535.092V756.816C535.092 756.155 534.9 755.648 534.516 755.296C534.132 754.944 533.567 754.768 532.82 754.768C532.319 754.768 531.828 754.853 531.348 755.024C530.868 755.184 530.463 755.403 530.132 755.68L529.492 754.528C529.929 754.176 530.452 753.909 531.06 753.728C531.668 753.536 532.313 753.44 532.996 753.44ZM532.644 760.912C533.231 760.912 533.737 760.784 534.164 760.528C534.591 760.261 534.9 759.888 535.092 759.408V758.224H532.724C531.423 758.224 530.772 758.661 530.772 759.536C530.772 759.963 530.937 760.299 531.268 760.544C531.599 760.789 532.057 760.912 532.644 760.912ZM542.77 762.096C541.906 762.096 541.133 761.909 540.45 761.536C539.778 761.163 539.25 760.651 538.866 760C538.482 759.339 538.29 758.592 538.29 757.76C538.29 756.928 538.482 756.187 538.866 755.536C539.25 754.875 539.778 754.363 540.45 754C541.133 753.627 541.906 753.44 542.77 753.44C543.538 753.44 544.221 753.595 544.818 753.904C545.426 754.213 545.895 754.661 546.226 755.248L545.058 756C544.791 755.595 544.461 755.291 544.066 755.088C543.671 754.885 543.234 754.784 542.754 754.784C542.199 754.784 541.698 754.907 541.25 755.152C540.813 755.397 540.466 755.749 540.21 756.208C539.965 756.656 539.842 757.173 539.842 757.76C539.842 758.357 539.965 758.885 540.21 759.344C540.466 759.792 540.813 760.139 541.25 760.384C541.698 760.629 542.199 760.752 542.754 760.752C543.234 760.752 543.671 760.651 544.066 760.448C544.461 760.245 544.791 759.941 545.058 759.536L546.226 760.272C545.895 760.859 545.426 761.312 544.818 761.632C544.221 761.941 543.538 762.096 542.77 762.096ZM554.105 754.864H551.001V762H549.465V754.864H546.361V753.52H554.105V754.864ZM558.613 762.096C557.77 762.096 557.013 761.909 556.341 761.536C555.669 761.163 555.141 760.651 554.757 760C554.383 759.339 554.197 758.592 554.197 757.76C554.197 756.928 554.383 756.187 554.757 755.536C555.141 754.875 555.669 754.363 556.341 754C557.013 753.627 557.77 753.44 558.613 753.44C559.455 753.44 560.207 753.627 560.869 754C561.541 754.363 562.063 754.875 562.437 755.536C562.821 756.187 563.013 756.928 563.013 757.76C563.013 758.592 562.821 759.339 562.437 760C562.063 760.651 561.541 761.163 560.869 761.536C560.207 761.909 559.455 762.096 558.613 762.096ZM558.613 760.752C559.157 760.752 559.642 760.629 560.069 760.384C560.506 760.128 560.847 759.776 561.093 759.328C561.338 758.869 561.461 758.347 561.461 757.76C561.461 757.173 561.338 756.656 561.093 756.208C560.847 755.749 560.506 755.397 560.069 755.152C559.642 754.907 559.157 754.784 558.613 754.784C558.069 754.784 557.578 754.907 557.141 755.152C556.714 755.397 556.373 755.749 556.117 756.208C555.871 756.656 555.749 757.173 555.749 757.76C555.749 758.347 555.871 758.869 556.117 759.328C556.373 759.776 556.714 760.128 557.141 760.384C557.578 760.629 558.069 760.752 558.613 760.752ZM570.687 757.6C571.785 757.877 572.335 758.565 572.335 759.664C572.335 760.411 572.052 760.987 571.487 761.392C570.932 761.797 570.1 762 568.991 762H564.911V753.52H568.847C569.849 753.52 570.633 753.712 571.199 754.096C571.764 754.469 572.047 755.003 572.047 755.696C572.047 756.144 571.924 756.533 571.679 756.864C571.444 757.184 571.113 757.429 570.687 757.6ZM566.415 757.168H568.719C569.305 757.168 569.748 757.061 570.047 756.848C570.356 756.635 570.511 756.325 570.511 755.92C570.511 755.109 569.913 754.704 568.719 754.704H566.415V757.168ZM568.879 760.816C569.519 760.816 569.999 760.715 570.319 760.512C570.639 760.309 570.799 759.995 570.799 759.568C570.799 759.131 570.649 758.805 570.351 758.592C570.063 758.379 569.604 758.272 568.975 758.272H566.415V760.816H568.879ZM578.051 762.096C577.208 762.096 576.451 761.909 575.779 761.536C575.107 761.163 574.579 760.651 574.195 760C573.822 759.339 573.635 758.592 573.635 757.76C573.635 756.928 573.822 756.187 574.195 755.536C574.579 754.875 575.107 754.363 575.779 754C576.451 753.627 577.208 753.44 578.051 753.44C578.894 753.44 579.646 753.627 580.307 754C580.979 754.363 581.502 754.875 581.875 755.536C582.259 756.187 582.451 756.928 582.451 757.76C582.451 758.592 582.259 759.339 581.875 760C581.502 760.651 580.979 761.163 580.307 761.536C579.646 761.909 578.894 762.096 578.051 762.096ZM578.051 760.752C578.595 760.752 579.08 760.629 579.507 760.384C579.944 760.128 580.286 759.776 580.531 759.328C580.776 758.869 580.899 758.347 580.899 757.76C580.899 757.173 580.776 756.656 580.531 756.208C580.286 755.749 579.944 755.397 579.507 755.152C579.08 754.907 578.595 754.784 578.051 754.784C577.507 754.784 577.016 754.907 576.579 755.152C576.152 755.397 575.811 755.749 575.555 756.208C575.31 756.656 575.187 757.173 575.187 757.76C575.187 758.347 575.31 758.869 575.555 759.328C575.811 759.776 576.152 760.128 576.579 760.384C577.016 760.629 577.507 760.752 578.051 760.752Z" fill="#9A9A9A"/>
<rect opacity="0.4" x="541" y="704" width="1" height="34" fill="#7D7D7D"/>
<path d="M174.479 37.271L180.941 45.7358L176.578 37.5014L187.239 53.6068L201.553 42.626L197.204 47.497L205.606 42.1442L196.839 49.7584L203.229 45.9814L200.86 48.8903L209.101 44.8217L190.167 58.0651L197.693 69.4987L195.665 68.1112L200.321 75.1935L194.1 67.8821L197.338 73.0523L192.873 68.8052L196.871 76L186.225 60.7244L169.708 72.1003L173.773 67.691L166.678 72.2217L170.34 68.3345L167.036 69.2629L183.37 56.6241L173.834 42.7332L178.825 47.4381L175.956 41.5003L178.146 43.5817L174.479 37.271Z" fill="#A5A5A5"/>
<path d="M356.479 304.271L362.941 312.736L358.578 304.501L369.239 320.607L383.553 309.626L379.204 314.497L387.606 309.144L378.839 316.758L385.229 312.981L382.86 315.89L391.101 311.822L372.167 325.065L379.693 336.499L377.665 335.111L382.321 342.194L376.1 334.882L379.338 340.052L374.873 335.805L378.871 343L368.225 327.724L351.708 339.1L355.773 334.691L348.678 339.222L352.34 335.334L349.036 336.263L365.37 323.624L355.834 309.733L360.825 314.438L357.956 308.5L360.146 310.582L356.479 304.271Z" fill="#A5A5A5"/>
<path d="M110.801 102L117.263 110.465L112.9 102.23L123.561 118.336L137.875 107.355L133.525 112.226L141.928 106.873L133.161 114.487L139.551 110.71L137.182 113.619L145.422 109.551L126.489 122.794L134.015 134.228L131.987 132.84L136.642 139.923L130.422 132.611L133.66 137.781L129.194 133.534L133.193 140.729L122.546 125.453L106.03 136.829L110.095 132.42L103 136.951L106.662 133.064L103.358 133.992L119.692 121.353L110.156 107.462L115.147 112.167L112.278 106.229L114.468 108.311L110.801 102Z" fill="#A5A5A5"/>
<path d="M118.801 420L125.263 428.465L120.9 420.23L131.561 436.336L145.875 425.355L141.525 430.226L149.928 424.873L141.161 432.487L147.551 428.71L145.182 431.619L153.422 427.551L134.489 440.794L142.015 452.228L139.987 450.84L144.642 457.923L138.422 450.611L141.66 455.781L137.194 451.534L141.193 458.729L130.546 443.453L114.03 454.829L118.095 450.42L111 454.951L114.662 451.064L111.358 451.992L127.692 439.353L118.156 425.462L123.147 430.167L120.278 424.229L122.468 426.311L118.801 420Z" fill="#00A0D2"/>
<path d="M499.801 658L506.263 666.465L501.9 658.23L512.561 674.336L526.875 663.355L522.525 668.226L530.928 662.873L522.161 670.487L528.551 666.71L526.182 669.619L534.422 665.551L515.489 678.794L523.015 690.228L520.987 688.84L525.642 695.923L519.422 688.611L522.66 693.781L518.194 689.534L522.193 696.729L511.546 681.453L495.03 692.829L499.095 688.42L492 692.951L495.662 689.064L492.358 689.992L508.692 677.353L499.156 663.462L504.147 668.167L501.278 662.229L503.468 664.311L499.801 658Z" fill="#A5A5A5"/>
<path d="M573.801 638L580.263 646.465L575.9 638.23L586.561 654.336L600.875 643.355L596.525 648.226L604.928 642.873L596.161 650.487L602.551 646.71L600.182 649.619L608.422 645.551L589.489 658.794L597.015 670.228L594.987 668.84L599.642 675.923L593.422 668.611L596.66 673.781L592.194 669.534L596.193 676.729L585.546 661.453L569.03 672.829L573.095 668.42L566 672.951L569.662 669.064L566.358 669.992L582.692 657.353L573.156 643.462L578.147 648.167L575.278 642.229L577.468 644.311L573.801 638Z" fill="#A5A5A5"/>
</svg>
