<svg width="25" height="25" viewBox="0 0 25 25" fill="none" xmlns="http://www.w3.org/2000/svg">
<path fill-rule="evenodd" clip-rule="evenodd" d="M23.7501 2.55938C24.3352 1.97289 24.334 1.02315 23.7475 0.438064C23.161 -0.147017 22.2113 -0.145874 21.6262 0.440617L12.1043 9.98542L2.55938 0.463404C1.97289 -0.121677 1.02315 -0.120535 0.438064 0.465956C-0.147017 1.05245 -0.145874 2.00219 0.440617 2.58727L9.98558 12.1093L0.463461 21.6544C-0.12162 22.2408 -0.120477 23.1906 0.466014 23.7757C1.0525 24.3608 2.00225 24.3596 2.58733 23.7731L12.1095 14.2281L21.6544 23.75C22.2408 24.3351 23.1906 24.334 23.7757 23.7475C24.3608 23.161 24.3596 22.2112 23.7731 21.6261L14.2282 12.1042L23.7501 2.55938Z" fill="#EF4949"/>
</svg>
