<svg width="26" height="24" viewBox="0 0 26 24" fill="none" xmlns="http://www.w3.org/2000/svg">
<path d="M11.4289 13.4391C12.5507 14.4743 13.7954 15.3911 15.1398 16.1724L16.9124 13.6004C16.9882 13.4905 17.1058 13.4103 17.2425 13.3754C17.3791 13.3405 17.5251 13.3535 17.6519 13.4118L24.6851 16.6354C24.8129 16.6943 24.912 16.7949 24.9628 16.9175C25.0136 17.0401 25.0123 17.1757 24.9594 17.2975L22.6153 22.6708C22.5667 22.7821 22.4779 22.8748 22.3637 22.9334C22.2495 22.9919 22.1168 23.0128 21.9879 22.9924C16.5764 22.1407 11.9535 19.9606 8.13406 16.4604C4.31574 12.9593 1.93743 8.72057 1.00828 3.76109C0.986089 3.64289 1.00883 3.52129 1.07269 3.41661C1.13655 3.31193 1.23766 3.2305 1.35914 3.18594L7.22091 1.03726C7.35378 0.988687 7.5017 0.987567 7.63543 1.03412C7.76916 1.08067 7.87899 1.17151 7.9432 1.28869L11.4598 7.7358C11.5234 7.85203 11.5376 7.98579 11.4996 8.11108C11.4615 8.23636 11.374 8.34419 11.2541 8.41361L8.44835 10.0385C9.30023 11.2708 10.3 12.4108 11.4289 13.4391Z" stroke="white" stroke-width="1.5"/>
</svg>
