<svg width="68" height="67" viewBox="0 0 68 67" fill="none" xmlns="http://www.w3.org/2000/svg">
<circle cx="33.9414" cy="33.5" r="33.5" fill="#FFE872"/>
<path d="M50.2599 42.2871C50.2599 40.3465 50.5833 38.6599 51.2302 37.2275C51.8771 35.7489 52.6395 34.5013 53.5175 33.4847C54.4416 32.4682 55.6661 31.2899 57.1909 29.9499C59.2702 28.1016 60.795 26.4844 61.7654 25.0982C62.7819 23.6658 63.2902 21.8637 63.2902 19.692C63.2902 16.9658 62.2275 14.7478 60.1019 13.0382C57.9764 11.3285 54.9961 10.4737 51.1609 10.4737C48.065 10.4737 45.385 10.9589 43.1209 11.9292C40.8568 12.8534 38.893 14.2858 37.2295 16.2265L34.665 14.2165C38.5002 9.64198 44.0681 7.35474 51.3688 7.35474C56.0819 7.35474 59.8478 8.4406 62.6664 10.6123C65.485 12.7378 66.8944 15.6027 66.8944 19.2068C66.8944 21.1475 66.5709 22.8572 65.924 24.3358C65.3233 25.7682 64.5609 27.0158 63.6368 28.0785C62.7588 29.0951 61.5575 30.2734 60.0326 31.6134C58.6002 32.9072 57.4912 33.993 56.7057 34.8709C55.9202 35.7489 55.2502 36.8116 54.6957 38.0592C54.1412 39.2606 53.864 40.6699 53.864 42.2871H50.2599ZM52.0619 56.4958C51.2764 56.4958 50.6064 56.2185 50.0519 55.664C49.4975 55.1096 49.2202 54.4396 49.2202 53.654C49.2202 52.8685 49.4975 52.1985 50.0519 51.644C50.6064 51.0896 51.2764 50.8123 52.0619 50.8123C52.8937 50.8123 53.5868 51.0896 54.1412 51.644C54.6957 52.1985 54.973 52.8685 54.973 53.654C54.973 54.4396 54.6957 55.1096 54.1412 55.664C53.5868 56.2185 52.8937 56.4958 52.0619 56.4958Z" fill="#00A0D2"/>
</svg>
