<svg width="34" height="32" viewBox="0 0 34 32" fill="none" xmlns="http://www.w3.org/2000/svg">
<path d="M33.2789 28.034L27.3898 24.5297L27.5358 13.871C27.5358 13.871 27.5358 13.871 27.5358 13.8223C27.5358 13.7736 27.5358 13.725 27.5358 13.6763V13.6276C27.5358 13.579 27.4871 13.4816 27.4385 13.4329C27.3898 13.3843 27.3411 13.3356 27.3411 13.2869C27.3411 13.2869 27.2924 13.2869 27.2924 13.2383C27.2438 13.1896 27.1951 13.1896 27.1464 13.1409C27.1464 13.1409 27.1464 13.1409 27.0978 13.1409L17.9478 7.68988V0.876064C17.9478 0.389362 17.5584 0 17.1204 0C16.6337 0 16.293 0.389359 16.2443 0.827391V7.64121L6.94835 12.8489C6.94835 12.8489 6.94834 12.8489 6.89967 12.8489C6.851 12.8976 6.80233 12.8976 6.75366 12.9462C6.75366 12.9462 6.705 12.9462 6.705 12.9949C6.65633 13.0436 6.60765 13.0923 6.55898 13.1409C6.51031 13.1896 6.51031 13.2869 6.46164 13.3356V13.3843C6.46164 13.433 6.46164 13.4816 6.46164 13.5303C6.46164 13.5303 6.46164 13.5303 6.46164 13.579L6.31563 24.2864L0.426546 27.596C0.0371851 27.8393 -0.108824 28.326 0.0858567 28.764C0.231867 29.0561 0.523888 29.2021 0.815908 29.2021C0.961919 29.2021 1.10793 29.1534 1.25394 29.1047L7.1917 25.7952L16.293 31.1975C16.293 31.1975 16.293 31.1975 16.3417 31.1975C16.3903 31.2462 16.439 31.2462 16.4877 31.2462H16.5364C16.585 31.2462 16.6824 31.2949 16.731 31.2949C16.7797 31.2949 16.8771 31.2949 16.9257 31.2462H16.9744C17.0231 31.2462 17.0717 31.1975 17.1204 31.1975C17.1204 31.1975 17.1204 31.1975 17.1691 31.1975L26.4651 25.9898L32.3541 29.4941C32.5002 29.5914 32.6462 29.5914 32.7922 29.5914C33.0842 29.5914 33.3762 29.4454 33.5222 29.1534C33.8142 28.8127 33.6682 28.2773 33.2789 28.034ZM8.06775 24.2864L8.1651 15.0877L16.0497 19.7601L15.9523 28.9587L8.06775 24.2864ZM17.0717 9.14998L24.9563 13.8223L16.9744 18.3L9.08983 13.6276L17.0717 9.14998ZM17.8018 19.8574L25.7837 15.3798L25.6863 24.5784L17.7044 29.0561L17.8018 19.8574Z" fill="#423700"/>
</svg>
