<svg width="63" height="81" viewBox="0 0 63 81" fill="none" xmlns="http://www.w3.org/2000/svg">
<path d="M0.361267 79.7906L38.182 54.5652L7.9428 34.7715L0.361267 79.7906ZM10.966 64.136L7.30084 64.8666L5.82074 68.3183L4.30874 65.598L5.4212 59.0691L5.74817 59.6241L8.60231 57.9214L8.15971 61.6547L10.966 64.136ZM3.8805 68.1146L6.00495 71.9385L8.43404 66.2765L14.4477 65.0775L9.84396 61.0075L10.5697 54.8851L5.63413 57.8284L7.95715 44.1964L29.6076 58.3698L2.44984 76.5113L3.8805 68.1146ZM35.2784 54.5796L31.0526 57.4034L8.24903 42.4745L9.10551 37.4461L35.2784 54.5796Z" fill="#00A0D2"/>
<path d="M20.8012 57.875L21.2741 53.8867L17.8386 55.935L14.2125 54.2484L15.0889 58.1677L12.3759 61.115L16.3521 61.4903L18.3003 64.9957L19.8817 61.3074L23.7997 60.5263L20.8012 57.875ZM18.7509 59.8984L18.1169 61.3764L17.3362 59.9729L15.7412 59.8222L16.8298 58.6401L16.4789 57.0706L17.9311 57.7466L19.3083 56.9254L19.1185 58.523L20.3203 59.5864L18.7509 59.8984Z" fill="#00A0D2"/>
<path d="M15.2987 32.3802C21.4543 22.8719 22.8379 13.1712 18.4487 10.2969L17.5778 11.641C21.097 13.9459 19.4407 23.0419 13.9621 31.5052L15.2987 32.3802Z" fill="#00A0D2"/>
<path d="M16.683 36.9471L18.0196 37.8221C28.5302 21.5844 31.6986 5.54957 25.2327 1.31592L24.3627 2.66004C29.8883 6.27777 26.3715 21.9789 16.683 36.9471Z" fill="#00A0D2"/>
<path d="M34.0373 27.7725L26.762 32.4067L27.6155 33.7618L34.8908 29.1275L34.0373 27.7725Z" fill="#00A0D2"/>
<path d="M34.4433 40.5392L33.1069 39.6636L32.6106 40.4296L33.947 41.3052L34.4433 40.5392Z" fill="#00A0D2"/>
<path d="M41.9969 26.4687L33.1471 35.3184L34.2717 36.4557L43.1215 27.606L41.9969 26.4687Z" fill="#00A0D2"/>
<path d="M48.4398 37.2883C45.0075 39.5379 41.533 43.2246 38.6541 47.67L39.9907 48.5457C42.7507 44.2832 46.0602 40.7625 49.3115 38.6325C52.3267 36.6564 54.9775 36.1263 56.5892 37.1801L57.46 35.836C55.2662 34.3996 52.0627 34.9137 48.4398 37.2883Z" fill="#00A0D2"/>
<path d="M48.9374 29.234C43.352 33.288 37.5528 39.7287 32.6069 47.37L33.9434 48.2458C38.7841 40.7657 44.4405 34.4758 49.8705 30.5348C55.0165 26.8008 59.4425 25.6227 62.0119 27.3061L62.8828 25.9619C59.6817 23.8664 54.7302 25.0292 48.9374 29.234Z" fill="#00A0D2"/>
<path d="M28.0047 36.8533C27.4305 36.4772 26.7662 36.2783 26.0828 36.2783C24.885 36.2783 23.7797 36.8806 23.1258 37.8903C22.6122 38.6843 22.4368 39.6322 22.6313 40.5593C22.8267 41.4864 23.3682 42.2811 24.1577 42.7968C24.7319 43.1729 25.3962 43.3718 26.0796 43.3718C27.2782 43.3718 28.3843 42.7687 29.0358 41.7599C29.5502 40.9675 29.7264 40.0204 29.5326 39.0941C29.3373 38.1662 28.795 37.3706 28.0047 36.8533ZM27.6985 40.8841C27.1386 41.751 25.8978 42.0229 25.0269 41.4519C24.5947 41.1696 24.2981 40.7341 24.192 40.2273C24.0851 39.7196 24.1816 39.1999 24.4623 38.7653C24.8204 38.2127 25.4265 37.8823 26.0828 37.8823C26.456 37.8823 26.8189 37.9914 27.1339 38.1975C27.5661 38.4814 27.8635 38.9168 27.9704 39.4245C28.0773 39.9313 27.9808 40.4494 27.6985 40.8841Z" fill="#00A0D2"/>
<path d="M31.1013 15.7258L36.0998 14.8565L39.6453 18.5047L40.367 13.4554L44.9134 11.1914L40.3623 8.94024L39.6262 3.89258L36.0902 7.55041L31.0893 6.6947L33.4562 11.2066L31.1013 15.7258ZM36.65 9.27306L38.5177 7.34029L38.9069 10.0069L41.3104 11.1954L38.9085 12.392L38.5273 15.0586L36.654 13.1322L34.0136 13.5909L35.2577 11.2034L34.0088 8.82155L36.65 9.27306Z" fill="#00A0D2"/>
<path d="M45.4716 20.0551L46.7133 24.5951L49.8441 21.0929L54.3594 19.8426L50.8769 16.6948L49.6352 12.1548L46.5043 15.6562L41.9899 16.9073L45.4716 20.0551ZM47.3776 17.0773L48.8696 15.4084L49.4614 17.573L51.1233 19.0743L48.9693 19.6709L47.4773 21.3407L46.8855 19.1761L45.2244 17.6748L47.3776 17.0773Z" fill="#00A0D2"/>
<path d="M38.6014 21.8493L31.8267 22.4863L31.9751 24.0834L38.7499 23.4464L38.6014 21.8493Z" fill="#00A0D2"/>
</svg>
