<svg width="47" height="54" viewBox="0 0 47 54" fill="none" xmlns="http://www.w3.org/2000/svg">
<path d="M20.791 10.6167C20.791 11.811 20.791 13.0052 20.791 14.1996C20.791 17.1375 20.791 20.0754 20.791 23.0133C20.791 26.7275 20.791 30.4418 20.791 34.156C20.791 37.6791 20.791 41.2024 20.791 44.7255C20.791 47.0903 20.791 49.455 20.791 51.8198C20.791 52.2803 20.791 52.7407 20.791 53.2012C21.0571 52.935 21.3231 52.669 21.5893 52.4029C19.3771 52.4029 17.1649 52.4029 14.9527 52.4029C11.4906 52.4029 8.02849 52.4029 4.56635 52.4029C3.85461 52.4029 3.1428 52.4029 2.43106 52.4029C2.40283 52.4029 2.37552 52.4017 2.34661 52.401C2.10666 52.3953 2.48375 52.4357 2.254 52.3859C2.23969 52.3827 2.00813 52.3044 2.16089 52.369C2.09252 52.3401 2.0286 52.3019 1.96502 52.2641C1.76892 52.1471 2.06384 52.3604 1.8926 52.2107C1.83717 52.1622 1.78865 52.1066 1.74041 52.0514C1.83923 52.1645 1.67934 51.9363 1.66274 51.9052C1.55429 51.7025 1.70346 52.039 1.63344 51.818C1.6279 51.8007 1.58434 51.5616 1.60441 51.7299C1.59848 51.6804 1.597 51.6207 1.597 51.5709C1.597 51.5587 1.597 51.5465 1.597 51.5343C1.597 51.3548 1.597 51.1752 1.597 50.9956C1.597 48.6444 1.597 46.2931 1.597 43.9419C1.597 40.2734 1.597 36.605 1.597 32.9365C1.597 29.6784 1.597 26.4203 1.597 23.1621C1.597 22.0053 1.597 20.8485 1.597 19.6918C1.33088 19.9579 1.06481 20.224 0.798692 20.4901C2.56175 20.4901 4.36798 20.6267 6.04305 19.9665C8.56752 18.9716 10.4725 16.6865 10.8877 13.9878C11.0606 12.8642 10.9915 11.6968 10.9915 10.5637C10.9915 8.76573 10.9915 6.96772 10.9915 5.16977C10.9915 3.71263 10.9915 2.2555 10.9915 0.798305C10.7254 1.06443 10.4593 1.33049 10.1932 1.59661C12.1286 1.59661 14.064 1.59661 15.9994 1.59661C15.7428 1.25978 15.4862 0.922955 15.2296 0.58607C14.8602 2.94877 15.2252 5.37254 16.4227 7.45799C17.5004 9.3347 19.2751 10.818 21.3771 11.3865C22.3725 11.6557 22.7944 10.1154 21.8015 9.84692C21.2548 9.69907 21.0181 9.60367 20.5711 9.37005C20.37 9.26496 20.1759 9.14681 19.986 9.02284C19.7664 8.87955 19.6529 8.79139 19.535 8.6956C19.1949 8.41938 18.8838 8.10873 18.5952 7.77954C18.5263 7.70102 18.4602 7.62011 18.3944 7.53897C18.3361 7.46507 18.3293 7.45685 18.3741 7.51428C18.3261 7.45144 18.2799 7.38723 18.2337 7.32308C18.0938 7.12881 17.9651 6.92672 17.8421 6.72144C17.7312 6.53647 17.6299 6.34596 17.5331 6.15339C17.4842 6.05611 17.4384 5.95735 17.3931 5.85836C17.3706 5.80853 17.3485 5.75852 17.3269 5.70822C17.3845 5.84029 17.2811 5.5903 17.2825 5.59361C17.0977 5.12375 16.9586 4.63673 16.8525 4.14349C16.6498 3.20183 16.6081 2.04098 16.7693 1.01054C16.848 0.506582 16.5628 0 15.9995 0C14.0641 0 12.1287 0 10.1933 0C9.75814 0 9.39502 0.363115 9.39502 0.798305C9.39502 3.57692 9.39502 6.35548 9.39502 9.13409C9.39502 10.3131 9.39502 11.4921 9.39502 12.671C9.39502 12.9625 9.38157 13.2527 9.35026 13.5427C9.32261 13.7985 9.37535 13.3873 9.3364 13.6405C9.32454 13.7174 9.31017 13.7938 9.29575 13.8702C9.26718 14.0218 9.23091 14.1719 9.19225 14.3213C9.15388 14.4695 9.10809 14.6155 9.05996 14.7607C9.03601 14.833 9.00967 14.9044 8.98338 14.9757C8.97375 15.0019 8.85987 15.2775 8.92111 15.1359C8.80154 15.4123 8.65956 15.6784 8.50514 15.9366C8.42828 16.0651 8.34525 16.1898 8.26034 16.3131C8.21792 16.3746 8.17356 16.4347 8.12919 16.4949C8.07326 16.5691 8.06921 16.5744 8.11722 16.5106C8.0862 16.5495 8.05478 16.588 8.02296 16.6262C7.83325 16.8565 7.62529 17.0712 7.40781 17.2751C7.1154 17.5494 7.04755 17.5982 6.75309 17.8012C6.09294 18.2562 5.61345 18.4679 4.89697 18.6706C4.72385 18.7196 4.54811 18.7589 4.3718 18.7942C4.29556 18.8095 4.21881 18.8222 4.14217 18.8349C4.04597 18.849 4.0393 18.8505 4.12221 18.8394C4.07021 18.8459 4.0182 18.8518 3.96609 18.8572C3.7092 18.8849 3.45078 18.8935 3.19258 18.8935C2.39473 18.8935 1.59683 18.8935 0.798977 18.8935C0.363787 18.8935 0.000671387 19.2566 0.000671387 19.6918C0.000671387 21.2155 0.000671387 22.7393 0.000671387 24.263C0.000671387 27.6826 0.000671387 31.1021 0.000671387 34.5217C0.000671387 38.1098 0.000671387 41.6978 0.000671387 45.2858C0.000671387 47.3148 0.000671387 49.3438 0.000671387 51.3728C0.000671387 51.8168 0.0768522 52.2285 0.252366 52.644C0.625859 53.5281 1.60783 53.9994 2.52241 53.9994C3.41463 53.9994 4.30685 53.9994 5.19907 53.9994C8.73642 53.9994 12.2738 53.9994 15.8111 53.9994C17.7373 53.9994 19.6634 53.9994 21.5895 53.9994C22.0247 53.9994 22.3878 53.6363 22.3878 53.2011C22.3878 52.0068 22.3878 50.8125 22.3878 49.6183C22.3878 46.6804 22.3878 43.7424 22.3878 40.8045C22.3878 37.0903 22.3878 33.3761 22.3878 29.6619C22.3878 26.1387 22.3878 22.6155 22.3878 19.0924C22.3878 16.7276 22.3878 14.3628 22.3878 11.9981C22.3878 11.5376 22.3878 11.0772 22.3878 10.6167C22.3878 10.1815 22.0247 9.81841 21.5895 9.81841C21.1543 9.81841 20.791 10.1816 20.791 10.6167Z" fill="#00A0D2"/>
<path d="M44.9002 19.692C44.9002 21.2157 44.9002 22.7394 44.9002 24.2632C44.9002 27.6828 44.9002 31.1023 44.9002 34.5219C44.9002 38.11 44.9002 41.698 44.9002 45.286C44.9002 47.315 44.9002 49.344 44.9002 51.373C44.9002 51.431 44.9002 51.4889 44.9002 51.5469C44.9002 51.5555 44.9002 51.5642 44.9002 51.5727C44.9002 51.5992 44.899 51.624 44.8983 51.6522C44.8926 51.8923 44.933 51.5152 44.8832 51.745C44.8801 51.7592 44.8018 51.991 44.8663 51.8384C44.8279 51.9295 44.775 52.0137 44.7208 52.096C44.8079 51.9638 44.6715 52.1454 44.6574 52.1601C44.645 52.1731 44.4631 52.3183 44.5934 52.2237C44.5335 52.2672 44.4681 52.3022 44.403 52.3371C44.2005 52.4457 44.5369 52.2964 44.3161 52.3666C44.2986 52.3721 44.0598 52.4157 44.2283 52.3956C44.1865 52.4006 44.1134 52.4031 44.0715 52.4031C44.0668 52.4031 44.0621 52.4031 44.0574 52.4031C43.9839 52.4031 43.9104 52.4031 43.8369 52.4031C42.8192 52.4031 41.8016 52.4031 40.7839 52.4031C37.2099 52.4031 33.6359 52.4031 30.0619 52.4031C28.3435 52.4031 26.6251 52.4031 24.9067 52.4031C25.1728 52.6692 25.4389 52.9352 25.705 53.2014C25.705 52.0071 25.705 50.8128 25.705 49.6185C25.705 46.6806 25.705 43.7427 25.705 40.8048C25.705 37.0905 25.705 33.3764 25.705 29.6621C25.705 26.1389 25.705 22.6158 25.705 19.0926C25.705 16.7278 25.705 14.363 25.705 11.9983C25.705 11.5378 25.705 11.0774 25.705 10.6169C25.5096 10.8735 25.3142 11.1301 25.1189 11.3867C27.21 10.8213 28.9303 9.36855 30.0334 7.52754C31.2782 5.4499 31.6381 2.95747 31.267 0.586274C31.0104 0.923102 30.7538 1.25993 30.4972 1.59682C32.4324 1.59682 34.3676 1.59682 36.3028 1.59682C36.0367 1.33069 35.7706 1.06463 35.5045 0.798509C35.5045 3.57713 35.5045 6.35569 35.5045 9.13431C35.5045 10.3133 35.5045 11.4923 35.5045 12.6713C35.5045 15.0069 36.5274 17.2711 38.3551 18.7448C39.7448 19.8654 41.4575 20.4802 43.2449 20.4904C44.0627 20.495 44.8807 20.4904 45.6985 20.4904C46.1337 20.4904 46.4968 20.1273 46.4968 19.6921C46.4968 19.2569 46.1337 18.8938 45.6985 18.8938C44.9912 18.8938 44.2839 18.8938 43.5766 18.8938C43.2004 18.8938 42.8267 18.8894 42.4519 18.849C42.1961 18.8214 42.6072 18.8741 42.354 18.8351C42.2771 18.8233 42.2007 18.8089 42.1244 18.7945C41.9728 18.7659 41.8226 18.7297 41.6733 18.691C41.5251 18.6526 41.3791 18.6068 41.2339 18.5587C41.1616 18.5348 41.0902 18.5084 41.0188 18.4821C40.9927 18.4725 40.7171 18.3586 40.8587 18.4199C40.5823 18.3003 40.3162 18.1583 40.0579 18.0039C39.9294 17.927 39.8047 17.844 39.6815 17.7591C39.6199 17.7167 39.5598 17.6723 39.4997 17.6279C39.4254 17.572 39.4202 17.568 39.484 17.616C39.445 17.5849 39.4066 17.5535 39.3684 17.5217C39.1381 17.332 38.9234 17.124 38.7194 16.9066C38.4452 16.6142 38.3964 16.5463 38.1934 16.2519C38.023 16.0048 37.8729 15.7442 37.736 15.4773C37.7015 15.4102 37.6694 15.342 37.6372 15.2739C37.6324 15.2638 37.5325 15.0363 37.5961 15.1878C37.5275 15.0243 37.4679 14.8571 37.412 14.6888C37.3152 14.3966 37.2429 14.0967 37.1858 13.7944C37.1714 13.7178 37.1596 13.6409 37.1477 13.5639C37.1736 13.7321 37.1386 13.4765 37.1373 13.4649C37.1174 13.2808 37.108 13.0957 37.1028 12.9107C37.0753 11.9418 37.101 10.9688 37.101 9.99967C37.101 8.17326 37.101 6.34679 37.101 4.52038C37.101 3.27987 37.101 2.0393 37.101 0.798794C37.101 0.363603 36.7379 0.000488281 36.3027 0.000488281C34.3675 0.000488281 32.4323 0.000488281 30.4971 0.000488281C29.9338 0.000488281 29.6485 0.507013 29.7273 1.01103C30.0357 2.98188 29.6558 4.98009 28.6953 6.65266C28.4738 7.03847 28.2074 7.4135 28.0028 7.66092C27.7066 8.01919 27.375 8.34712 27.0204 8.64723C26.9999 8.66462 26.7689 8.84709 26.8829 8.76019C26.782 8.83705 26.6781 8.9097 26.5734 8.9812C26.3859 9.10927 26.1904 9.22537 25.9916 9.33485C25.5133 9.59812 25.2642 9.69335 24.6943 9.84742C24.3517 9.94008 24.1083 10.2633 24.1083 10.6172C24.1083 11.8115 24.1083 13.0057 24.1083 14.2001C24.1083 17.138 24.1083 20.0759 24.1083 23.0138C24.1083 26.7281 24.1083 30.4423 24.1083 34.1565C24.1083 37.6797 24.1083 41.2029 24.1083 44.726C24.1083 47.0908 24.1083 49.4555 24.1083 51.8204C24.1083 52.2808 24.1083 52.7412 24.1083 53.2017C24.1083 53.6369 24.4714 54 24.9066 54C27.1189 54 29.3312 54 31.5436 54C35.006 54 38.4682 54 41.9306 54C42.6424 54 43.3542 54 44.066 54C45.3899 54 46.4967 52.8947 46.4967 51.5703C46.4967 51.4405 46.4967 51.3105 46.4967 51.1806C46.4967 48.9633 46.4967 46.746 46.4967 44.5287C46.4967 40.8906 46.4967 37.2525 46.4967 33.6144C46.4967 30.2829 46.4967 26.9515 46.4967 23.62C46.4967 22.3108 46.4967 21.0016 46.4967 19.6924C46.4967 19.2572 46.1336 18.8941 45.6984 18.8941C45.2632 18.8941 44.9002 19.2568 44.9002 19.692Z" fill="#00A0D2"/>
<path d="M0.798306 27.1103C2.9003 27.1103 5.0023 27.1103 7.10424 27.1103C10.7002 27.1103 14.2961 27.1103 17.8919 27.1103C19.1244 27.1103 20.357 27.1103 21.5895 27.1103C21.3234 26.8442 21.0573 26.5781 20.7912 26.312C20.7912 27.9637 20.7912 29.6155 20.7912 31.2672C21.0573 31.0011 21.3234 30.735 21.5895 30.4689C19.4875 30.4689 17.3855 30.4689 15.2836 30.4689C11.6877 30.4689 8.09174 30.4689 4.49589 30.4689C3.26336 30.4689 2.03083 30.4689 0.798306 30.4689C1.06443 30.735 1.33049 31.0011 1.59661 31.2672C1.59661 29.6155 1.59661 27.9637 1.59661 26.312C1.59661 25.8768 1.2335 25.5137 0.798306 25.5137C0.363115 25.5137 0 25.8768 0 26.312C0 27.9637 0 29.6155 0 31.2672C0 31.7024 0.363115 32.0655 0.798306 32.0655C2.9003 32.0655 5.0023 32.0655 7.10424 32.0655C10.7002 32.0655 14.2961 32.0655 17.8919 32.0655C19.1244 32.0655 20.357 32.0655 21.5895 32.0655C22.0247 32.0655 22.3878 31.7024 22.3878 31.2672C22.3878 29.6155 22.3878 27.9637 22.3878 26.312C22.3878 25.8768 22.0247 25.5137 21.5895 25.5137C19.4875 25.5137 17.3855 25.5137 15.2836 25.5137C11.6877 25.5137 8.09174 25.5137 4.49589 25.5137C3.26336 25.5137 2.03083 25.5137 0.798306 25.5137C0.363115 25.5137 0 25.8768 0 26.312C0 26.7472 0.363172 27.1103 0.798306 27.1103Z" fill="#00A0D2"/>
<path d="M44.8999 26.312C44.8999 27.9637 44.8999 29.6155 44.8999 31.2672C45.166 31.0011 45.4321 30.735 45.6982 30.4689C43.5963 30.4689 41.4942 30.4689 39.3923 30.4689C35.7963 30.4689 32.2004 30.4689 28.6045 30.4689C27.372 30.4689 26.1395 30.4689 24.9069 30.4689C25.173 30.735 25.4391 31.0011 25.7052 31.2672C25.7052 29.6155 25.7052 27.9637 25.7052 26.312C25.4391 26.5781 25.173 26.8442 24.9069 27.1103C27.0088 27.1103 29.1109 27.1103 31.2128 27.1103C34.8088 27.1103 38.4046 27.1103 42.0006 27.1103C43.2331 27.1103 44.4656 27.1103 45.6982 27.1103C46.1334 27.1103 46.4965 26.7472 46.4965 26.312C46.4965 25.8768 46.1334 25.5137 45.6982 25.5137C43.5963 25.5137 41.4942 25.5137 39.3923 25.5137C35.7963 25.5137 32.2004 25.5137 28.6045 25.5137C27.372 25.5137 26.1395 25.5137 24.9069 25.5137C24.4717 25.5137 24.1086 25.8768 24.1086 26.312C24.1086 27.9637 24.1086 29.6155 24.1086 31.2672C24.1086 31.7024 24.4717 32.0655 24.9069 32.0655C27.0088 32.0655 29.1109 32.0655 31.2128 32.0655C34.8088 32.0655 38.4046 32.0655 42.0006 32.0655C43.2331 32.0655 44.4656 32.0655 45.6982 32.0655C46.1334 32.0655 46.4965 31.7024 46.4965 31.2672C46.4965 29.6155 46.4965 27.9637 46.4965 26.312C46.4965 25.8768 46.1334 25.5137 45.6982 25.5137C45.263 25.5137 44.8999 25.8768 44.8999 26.312Z" fill="#00A0D2"/>
<path d="M24.1086 10.6166C24.1086 11.8108 24.1086 13.0051 24.1086 14.1994C24.1086 17.1373 24.1086 20.0753 24.1086 23.0132C24.1086 26.7274 24.1086 30.4416 24.1086 34.1559C24.1086 37.679 24.1086 41.2022 24.1086 44.7254C24.1086 47.0902 24.1086 49.4549 24.1086 51.8197C24.1086 52.2801 24.1086 52.7405 24.1086 53.201C24.3747 52.9349 24.6408 52.6689 24.9069 52.4027C23.8011 52.4027 22.6953 52.4027 21.5894 52.4027C21.8556 52.6689 22.1216 52.9349 22.3877 53.201C22.3877 52.0068 22.3877 50.8125 22.3877 49.6182C22.3877 46.6803 22.3877 43.7424 22.3877 40.8044C22.3877 37.0902 22.3877 33.376 22.3877 29.6618C22.3877 26.1386 22.3877 22.6154 22.3877 19.0923C22.3877 16.7275 22.3877 14.3627 22.3877 11.998C22.3877 11.5375 22.3877 11.0771 22.3877 10.6166C22.0509 10.8732 21.7141 11.1298 21.3772 11.3864C22.6084 11.7022 23.8879 11.7022 25.1191 11.3864C25.5405 11.2783 25.7905 10.8182 25.6767 10.4044C25.5598 9.97962 25.1158 9.73876 24.6946 9.84681C23.7383 10.0921 22.7579 10.0921 21.8016 9.84681C21.2999 9.71812 20.7911 10.0907 20.7911 10.6166C20.7911 11.8109 20.7911 13.0051 20.7911 14.1995C20.7911 17.1374 20.7911 20.0753 20.7911 23.0132C20.7911 26.7274 20.7911 30.4417 20.7911 34.1559C20.7911 37.6791 20.7911 41.2023 20.7911 44.7254C20.7911 47.0902 20.7911 49.4549 20.7911 51.8197C20.7911 52.2802 20.7911 52.7406 20.7911 53.2011C20.7911 53.6363 21.1542 53.9994 21.5894 53.9994C22.6952 53.9994 23.801 53.9994 24.9069 53.9994C25.342 53.9994 25.7052 53.6363 25.7052 53.2011C25.7052 52.0068 25.7052 50.8125 25.7052 49.6182C25.7052 46.6804 25.7052 43.7424 25.7052 40.8045C25.7052 37.0903 25.7052 33.3761 25.7052 29.6618C25.7052 26.1386 25.7052 22.6155 25.7052 19.0923C25.7052 16.7276 25.7052 14.3628 25.7052 11.998C25.7052 11.5376 25.7052 11.0771 25.7052 10.6167C25.7052 10.1815 25.342 9.81836 24.9069 9.81836C24.4717 9.81836 24.1086 10.1814 24.1086 10.6166Z" fill="#00A0D2"/>
<path d="M29.8227 2.35381C29.8166 3.70032 29.5108 5.06565 28.9273 6.22604C28.6278 6.82135 28.258 7.36494 27.9016 7.77955C27.6994 8.01476 27.4803 8.2351 27.252 8.44477C26.9557 8.71676 26.8711 8.77754 26.5736 8.98071C26.3238 9.15138 26.0608 9.30209 25.7912 9.43917C25.7241 9.47338 25.6557 9.50532 25.5875 9.53725C25.5768 9.54227 25.3491 9.64011 25.5018 9.57682C25.2992 9.66081 25.0916 9.73118 24.8819 9.79482C24.1225 10.0253 23.2913 10.1016 22.5137 9.99337C22.1133 9.9376 21.7199 9.83496 21.3372 9.70598C21 9.59233 20.8762 9.53371 20.5046 9.33436C19.8858 9.00238 19.5535 8.74327 19.0758 8.28664C18.1874 7.4377 17.5268 6.33296 17.1405 5.20284C17.0312 4.88324 16.944 4.55645 16.87 4.22703C16.7895 3.86888 16.7517 3.61342 16.7221 3.32905C16.6423 2.56313 16.6544 1.74521 16.7694 1.01048C16.5128 1.20584 16.2562 1.4012 15.9996 1.59655C16.0459 1.59655 16.0921 1.59655 16.1384 1.59655C15.8818 1.4012 15.6252 1.20584 15.3686 1.01048C15.8941 3.78665 17.9354 6.04939 20.583 6.97742C23.3121 7.93396 26.4097 7.18743 28.5073 5.24094C29.7018 4.13249 30.5304 2.60881 30.833 1.01048C30.5764 1.20584 30.3198 1.4012 30.0632 1.59655C30.2078 1.59655 30.3524 1.59655 30.4969 1.59655C30.2403 1.4012 29.9837 1.20584 29.7271 1.01048C29.7935 1.43421 29.8203 1.90134 29.8227 2.35381C29.825 2.78894 30.1841 3.15211 30.621 3.15211C31.0544 3.15211 31.4216 2.789 31.4193 2.35381C31.4161 1.75975 31.3586 1.17283 31.2667 0.586071C31.2127 0.240632 30.8213 0 30.4969 0C30.3524 0 30.2078 0 30.0632 0C29.7302 0 29.3588 0.241088 29.2934 0.586071C29.1668 1.25482 28.9762 1.81466 28.7229 2.31879C28.4112 2.93908 28.1198 3.33743 27.7031 3.78705C26.8539 4.70316 25.8345 5.29146 24.6439 5.6024C24.4903 5.64254 24.3347 5.67481 24.1788 5.70441C24.1002 5.71935 24.0212 5.73161 23.9422 5.74387C24.104 5.71878 23.8421 5.75482 23.8349 5.75561C23.4613 5.79627 23.0846 5.80055 22.7095 5.78259C22.5365 5.77426 22.364 5.75636 22.1922 5.73537C22.3528 5.75499 22.0914 5.71661 22.085 5.71553C22.0059 5.70219 21.9273 5.6861 21.8487 5.67002C21.512 5.60126 21.182 5.50215 20.8592 5.38492C20.6248 5.29978 20.4342 5.21145 20.1256 5.04581C19.8297 4.88694 19.5482 4.70231 19.2779 4.50319C19.0745 4.35333 19.3923 4.59653 19.1958 4.43807C19.1357 4.3896 19.0772 4.33925 19.0187 4.28884C18.9018 4.18814 18.7899 4.0818 18.6798 3.97374C18.5697 3.86563 18.4649 3.75227 18.362 3.63731C18.3106 3.57978 18.261 3.52059 18.2114 3.46145C18.1786 3.42182 18.1461 3.38185 18.1142 3.34148C18.1599 3.40147 18.1545 3.394 18.0981 3.31907C17.7874 2.90441 17.5299 2.45171 17.3172 1.9798C17.2792 1.89273 17.2755 1.88423 17.306 1.95425C17.2761 1.88161 17.2487 1.80799 17.2213 1.73443C17.1754 1.61121 17.1351 1.48599 17.0962 1.36037C17.0175 1.10645 16.9577 0.847117 16.9084 0.586071C16.8431 0.241088 16.4715 0 16.1386 0C16.0923 0 16.046 0 15.9997 0C15.6753 0 15.284 0.240632 15.2299 0.586071C14.7538 3.62813 15.5252 6.78269 17.622 9.0829C18.5606 10.1124 19.7724 10.8819 21.0974 11.3062C22.824 11.8591 24.6838 11.6708 26.3249 10.9471C29.6123 9.49728 31.4038 5.81429 31.4194 2.35386C31.4214 1.91867 31.0548 1.55556 30.6211 1.55556C30.1844 1.5555 29.8246 1.91861 29.8227 2.35381Z" fill="#00A0D2"/>
<path d="M21.5896 44.7832C19.4876 44.7832 17.3856 44.7832 15.2836 44.7832C11.6877 44.7832 8.0918 44.7832 4.49595 44.7832C3.26342 44.7832 2.03089 44.7832 0.798367 44.7832C0.363176 44.7832 6.10352e-05 45.1463 6.10352e-05 45.5815C6.10352e-05 46.0167 0.363176 46.3798 0.798367 46.3798C2.90036 46.3798 5.00236 46.3798 7.1043 46.3798C10.7002 46.3798 14.2961 46.3798 17.892 46.3798C19.1245 46.3798 20.357 46.3798 21.5896 46.3798C22.0248 46.3798 22.3879 46.0167 22.3879 45.5815C22.3879 45.1463 22.0247 44.7832 21.5896 44.7832Z" fill="#00A0D2"/>
<path d="M45.6982 44.7832C43.5963 44.7832 41.4942 44.7832 39.3923 44.7832C35.7963 44.7832 32.2004 44.7832 28.6045 44.7832C27.372 44.7832 26.1395 44.7832 24.9069 44.7832C24.4717 44.7832 24.1086 45.1463 24.1086 45.5815C24.1086 46.0167 24.4717 46.3798 24.9069 46.3798C27.0088 46.3798 29.1109 46.3798 31.2128 46.3798C34.8088 46.3798 38.4046 46.3798 42.0006 46.3798C43.2331 46.3798 44.4656 46.3798 45.6982 46.3798C46.1334 46.3798 46.4965 46.0167 46.4965 45.5815C46.4965 45.1463 46.1334 44.7832 45.6982 44.7832Z" fill="#00A0D2"/>
<path d="M18.045 39.4584C20.8857 39.4584 23.7264 39.4584 26.5672 39.4584C27.2286 39.4584 27.89 39.4584 28.5514 39.4584C28.9866 39.4584 29.3497 39.0953 29.3497 38.6601C29.3497 38.2249 28.9866 37.8618 28.5514 37.8618C25.7106 37.8618 22.8699 37.8618 20.0291 37.8618C19.3677 37.8618 18.7063 37.8618 18.045 37.8618C17.6098 37.8618 17.2466 38.2249 17.2466 38.6601C17.2466 39.0953 17.6098 39.4584 18.045 39.4584Z" fill="#00A0D2"/>
</svg>
