<svg width="64" height="65" viewBox="0 0 64 65" fill="none" xmlns="http://www.w3.org/2000/svg">
<path d="M61.1154 29.114C60.4493 29.114 59.8056 29.3473 59.2924 29.7659L54.4542 28.8753C54.4475 28.8267 54.4365 28.779 54.4295 28.7305C54.376 28.3618 54.3133 27.9962 54.2422 27.6334C54.2212 27.5262 54.2006 27.419 54.1781 27.3121C54.1003 26.9438 54.0136 26.5788 53.9181 26.2172C53.8707 26.037 53.8171 25.8589 53.7652 25.6801C53.6987 25.4513 53.6299 25.2236 53.5564 24.9978C53.491 24.7963 53.4235 24.5958 53.3524 24.3963C53.2833 24.2027 53.2094 24.0115 53.1351 23.8204C52.8162 22.9969 52.4486 22.1934 52.0347 21.4114C51.9831 21.3141 51.9327 21.2161 51.8797 21.1196C51.7347 20.8551 51.5838 20.594 51.4281 20.335C51.387 20.2668 51.3448 20.1996 51.303 20.1319C50.9246 19.5175 50.5261 18.914 50.0881 18.3349L52.8807 14.2838C53.538 14.2162 54.1574 13.9268 54.6294 13.4562C55.1744 12.9112 55.4746 12.1863 55.4746 11.4154C55.4746 10.6446 55.1744 9.9197 54.63 9.37469C54.0844 8.82901 53.3595 8.5281 52.5886 8.5281C51.8171 8.5281 51.0922 8.82901 50.5459 9.37469C50.0746 9.846 49.7851 10.4654 49.7182 11.122L45.6678 13.9146C45.0969 13.4828 44.5021 13.0894 43.8965 12.7155C43.8138 12.6643 43.7315 12.6127 43.6481 12.5625C43.4022 12.415 43.1545 12.2718 42.9036 12.1339C42.7815 12.0666 42.6575 12.0027 42.5341 11.9377C42.2974 11.8133 42.0615 11.6876 41.8207 11.5718C41.485 11.4098 41.1447 11.2561 40.8001 11.1104C40.625 11.0366 40.447 10.9704 40.2701 10.901C40.0363 10.8091 39.8018 10.719 39.5643 10.6346C39.3957 10.575 39.2263 10.518 39.0562 10.4624C38.7879 10.3743 38.5172 10.2921 38.2447 10.2138C38.1035 10.1734 37.9632 10.1309 37.8212 10.0933C36.98 9.86954 36.1198 9.6939 35.2434 9.56775C35.2043 9.56213 35.1659 9.55321 35.1267 9.5478L34.2362 4.70898C34.6547 4.19711 34.888 3.55405 34.888 2.88733C34.888 1.29558 33.5924 0 32.0007 0C30.4082 0 29.1127 1.29558 29.1127 2.88733C29.1127 3.55405 29.346 4.19779 29.7645 4.70966L28.874 9.54645C28.825 9.55321 28.7769 9.56432 28.7279 9.57142C28.352 9.62603 27.9791 9.68976 27.6093 9.76266C27.5199 9.78024 27.4304 9.79706 27.3413 9.8157C26.9599 9.8957 26.5824 9.98597 26.2083 10.0849C26.0366 10.1302 25.8668 10.1813 25.6963 10.2307C25.4572 10.3 25.2194 10.3719 24.9836 10.4489C24.7901 10.5118 24.5975 10.5766 24.4058 10.6448C24.2002 10.7182 23.9971 10.7965 23.7943 10.8756C22.9865 11.1895 22.1981 11.5505 21.4304 11.9559C21.3236 12.0124 21.2161 12.0677 21.1104 12.1259C20.8519 12.2677 20.5968 12.4152 20.3436 12.5672C20.2671 12.6133 20.1915 12.6608 20.1156 12.7077C19.5065 13.0835 18.9084 13.4789 18.3342 13.9133L14.2832 11.122C14.2176 10.4647 13.9275 9.84532 13.4562 9.37334C12.9105 8.82766 12.1856 8.52675 11.4141 8.52675C11.4134 8.52675 11.4134 8.52675 11.4127 8.52675C10.6412 8.52743 9.917 8.82833 9.37334 9.37334C8.82766 9.91835 8.52743 10.6432 8.52743 11.4148C8.52743 12.1856 8.82833 12.9105 9.37334 13.4548C9.84465 13.9261 10.4647 14.2162 11.122 14.2825L13.914 18.3335C13.4874 18.8976 13.0986 19.485 12.7286 20.0827C12.6699 20.1772 12.6109 20.2714 12.5536 20.3669C12.4114 20.6043 12.2731 20.8434 12.1399 21.0855C12.0653 21.2207 11.9944 21.358 11.9225 21.4949C11.8046 21.72 11.685 21.944 11.5748 22.1727C11.4104 22.5131 11.2545 22.8584 11.1068 23.208C11.0368 23.3743 10.9741 23.5433 10.908 23.7112C10.8122 23.9541 10.7187 24.1979 10.6311 24.4448C10.5735 24.6081 10.5183 24.772 10.4644 24.9366C10.3741 25.2113 10.2899 25.4884 10.2099 25.7675C10.171 25.9035 10.1301 26.0387 10.0938 26.1755C9.86928 27.0188 9.69309 27.8812 9.56673 28.7599C9.5612 28.7984 9.55245 28.8362 9.54712 28.8747L4.70831 29.7652C4.19643 29.3473 3.5527 29.114 2.88598 29.114C1.2949 29.114 0 30.4096 0 32.0014C0 33.5931 1.2949 34.888 2.88665 34.888C3.5527 34.888 4.19576 34.6547 4.70831 34.2368L9.54645 35.1267C9.55249 35.1706 9.56246 35.2136 9.5688 35.2575C9.62729 35.6622 9.69487 36.064 9.77453 36.4615C9.78222 36.5 9.78814 36.5389 9.796 36.5773C9.88099 36.9901 9.9798 37.3977 10.087 37.802C10.1301 37.9654 10.1789 38.1269 10.2256 38.2891C10.297 38.5359 10.3713 38.7813 10.4508 39.0245C10.5127 39.2148 10.5764 39.4042 10.6434 39.5927C10.7172 39.7998 10.7961 40.0043 10.8758 40.2086C11.1919 41.0221 11.5557 41.8159 11.9646 42.5887C12.0167 42.6868 12.0674 42.7855 12.1208 42.8827C12.2663 43.1483 12.4178 43.4103 12.5741 43.6701C12.6134 43.7353 12.6537 43.7996 12.6936 43.8643C13.0733 44.4813 13.4735 45.0872 13.9133 45.6685L11.1213 49.7189C10.4647 49.7858 9.84532 50.0752 9.37267 50.5465C8.24681 51.6731 8.24749 53.5049 9.37199 54.63C9.917 55.175 10.6419 55.4753 11.4134 55.4753C12.1849 55.4753 12.9098 55.175 13.4562 54.6287C13.9275 54.1554 14.2169 53.536 14.2825 52.8807L18.3335 50.0887C18.9201 50.5325 19.5315 50.936 20.1543 51.3185C20.2092 51.3523 20.2638 51.3866 20.319 51.4199C20.5872 51.5815 20.8578 51.7379 21.132 51.8879C21.2134 51.9326 21.2961 51.975 21.3781 52.0186C22.1782 52.4438 23.0011 52.8202 23.8446 53.1456C24.0238 53.215 24.2029 53.2843 24.3843 53.3493C24.591 53.423 24.7987 53.4929 25.0076 53.5606C25.2248 53.6312 25.444 53.6974 25.664 53.7615C25.8497 53.8155 26.0346 53.8711 26.2217 53.9203C26.5699 54.0122 26.9215 54.0951 27.2759 54.1706C27.4004 54.197 27.5252 54.2217 27.6503 54.246C28.0064 54.3155 28.3651 54.3772 28.727 54.4298C28.7763 54.4369 28.8247 54.4481 28.874 54.4549L29.7638 59.2924C29.3453 59.8049 29.112 60.4487 29.112 61.1154C29.112 62.7064 30.4076 64.0014 32 64.0014C33.5918 64.0014 34.8873 62.7064 34.8873 61.1154C34.8873 60.4493 34.654 59.8063 34.2355 59.2937L35.126 54.4549C35.1753 54.4481 35.2237 54.4369 35.273 54.4298C35.6346 54.3773 35.9931 54.3157 36.349 54.2462C36.4749 54.2217 36.6007 54.1967 36.7261 54.1701C37.0797 54.0947 37.4304 54.0121 37.7777 53.9205C37.9657 53.871 38.1516 53.8152 38.3381 53.7609C38.5569 53.6971 38.7747 53.6314 38.9907 53.5612C39.2009 53.4931 39.41 53.4227 39.618 53.3485C39.7966 53.2846 39.9728 53.2163 40.1492 53.1481C41.0003 52.82 41.8304 52.4402 42.6373 52.0108C42.7119 51.9709 42.7873 51.9324 42.8614 51.8917C43.141 51.7388 43.4169 51.5795 43.6903 51.4146C43.7375 51.3861 43.7841 51.3567 43.8311 51.3279C44.4593 50.9427 45.0758 50.5361 45.6671 50.0887L49.7182 52.8814C49.7845 53.5373 50.0739 54.1567 50.5459 54.6307C51.6717 55.7539 53.5042 55.7559 54.6287 54.63C55.7532 53.5049 55.7532 51.6731 54.6273 50.5452C54.1547 50.0752 53.536 49.7858 52.8807 49.7196L50.0874 45.6685C50.5341 45.078 50.9403 44.4625 51.325 43.8352C51.355 43.7864 51.3854 43.738 51.415 43.689C51.5789 43.4172 51.7374 43.1428 51.8894 42.8648C51.9317 42.7877 51.9719 42.7093 52.0133 42.6316C52.4388 41.8317 52.8155 41.0089 53.1413 40.1653C53.2126 39.9814 53.2838 39.7975 53.3503 39.6112C53.4222 39.4095 53.4904 39.2068 53.5565 39.003C53.6302 38.7767 53.6991 38.5484 53.7658 38.3191C53.817 38.1426 53.8699 37.9669 53.9167 37.789C54.0177 37.4071 54.1101 37.0217 54.1913 36.6322C54.2058 36.5624 54.2186 36.4925 54.2324 36.4226C54.3088 36.0379 54.3745 35.6496 54.4311 35.2582C54.4375 35.2141 54.4475 35.1709 54.4536 35.1267L59.2924 34.2368C59.8056 34.6547 60.4487 34.888 61.1147 34.888C62.7058 34.888 64 33.5931 64 32.0014C64 30.4096 62.7058 29.114 61.1154 29.114ZM52.959 35.6791C52.9356 35.8134 52.913 35.9481 52.8869 36.0816C52.8094 36.481 52.7225 36.8781 52.6223 37.2714C52.5921 37.3892 52.5568 37.5049 52.5247 37.622C52.4419 37.9249 52.353 38.2259 52.2569 38.5245C52.1986 38.705 52.1374 38.884 52.0745 39.0623C51.9959 39.2858 51.9116 39.5071 51.8256 39.7279C51.7203 39.9972 51.6108 40.2644 51.4949 40.5283C51.3888 40.7707 51.281 41.0125 51.1658 41.2509C51.0539 41.4819 50.9349 41.7088 50.815 41.935C50.7481 42.0616 50.6798 42.1873 50.6103 42.3126C50.1622 43.118 49.6647 43.892 49.1195 44.6292C49.0827 44.679 49.0465 44.7292 49.0092 44.7788C47.8061 46.3763 46.3835 47.7993 44.7866 49.0032C44.7294 49.0463 44.6714 49.0882 44.6138 49.1307C43.8797 49.6726 43.1094 50.1677 42.3078 50.6134C42.1858 50.681 42.0634 50.7475 41.9402 50.8127C41.7103 50.9347 41.4796 51.0556 41.2448 51.1693C41.0502 51.2632 40.8524 51.3499 40.6552 51.4378C40.3426 51.5776 40.0261 51.7098 39.7057 51.8347C39.4965 51.916 39.2868 51.996 39.0751 52.0707C38.8881 52.1368 38.7002 52.201 38.5108 52.262C38.2311 52.3517 37.9492 52.4346 37.6657 52.5128C37.5121 52.5552 37.3592 52.5992 37.2042 52.6383C36.8372 52.7306 36.4673 52.8125 36.095 52.8851C35.9494 52.9136 35.8024 52.9382 35.6557 52.9637C35.3406 53.0183 35.024 53.0661 34.7059 53.1064C33.819 53.2196 32.9172 53.2844 32 53.2844C31.0815 53.2844 30.1784 53.2194 29.2902 53.1059C28.9738 53.0658 28.6589 53.0183 28.3455 52.964C28.1981 52.9384 28.0504 52.9136 27.9041 52.8849C27.5307 52.8121 27.1597 52.73 26.7917 52.6374C26.6402 52.5991 26.4907 52.556 26.3405 52.5145C26.0534 52.4355 25.7679 52.3514 25.4847 52.2605C25.2993 52.2007 25.1153 52.1378 24.9321 52.0731C24.7129 51.9959 24.4959 51.9132 24.2794 51.8288C24.0168 51.7262 23.7561 51.6201 23.4987 51.5075C23.2464 51.3974 22.9951 51.285 22.747 51.1651C22.5213 51.0557 22.2997 50.9393 22.0786 50.8222C21.9434 50.7509 21.809 50.678 21.6753 50.6036C21.4402 50.4726 21.2056 50.3407 20.976 50.2011C20.9614 50.1922 20.9472 50.1824 20.9326 50.1735C20.409 49.8534 19.9016 49.5096 19.4089 49.1469C19.3398 49.0961 19.2704 49.0459 19.2018 48.9941C17.6142 47.7954 16.1992 46.3801 15.0011 44.7919C14.9545 44.7301 14.9092 44.6674 14.8633 44.605C14.4936 44.1038 14.1435 43.5872 13.818 43.0538C13.8123 43.0445 13.8061 43.0354 13.8004 43.0261C13.6617 42.798 13.5307 42.565 13.4005 42.3315C13.3235 42.1929 13.2479 42.0537 13.174 41.9136C13.0602 41.6982 12.947 41.4825 12.8403 41.2629C12.6832 40.9381 12.5323 40.6106 12.392 40.2785C12.3198 40.1081 12.2553 39.9336 12.1874 39.7608C12.0945 39.5234 12.0038 39.2851 11.9194 39.0444C11.8605 38.8771 11.8031 38.7092 11.7484 38.5401C11.6455 38.2212 11.55 37.8999 11.4622 37.5762C11.4386 37.4893 11.411 37.4041 11.3885 37.3169C11.2827 36.9058 11.1925 36.4903 11.1114 36.0725C11.0868 35.9459 11.0654 35.8181 11.0431 35.6908C10.9841 35.3538 10.9329 35.015 10.8902 34.6745C10.7797 33.7978 10.7163 32.9068 10.7163 32.0007C10.7163 31.104 10.7785 30.222 10.8867 29.3542C10.9316 28.9934 10.9858 28.6346 11.0489 28.2779C11.0682 28.169 11.0864 28.0599 11.1073 27.9517C11.1909 27.519 11.2845 27.0889 11.3944 26.6635C11.4059 26.6191 11.4201 26.5759 11.4319 26.5317C11.5306 26.1598 11.6416 25.7919 11.7602 25.4265C11.8067 25.2837 11.8553 25.1417 11.9047 25.0002C12.0026 24.7191 12.1079 24.4409 12.2175 24.1643C12.2722 24.0267 12.3233 23.8872 12.3808 23.7511C12.5288 23.3994 12.6885 23.0526 12.8554 22.7092C12.9477 22.5197 13.0458 22.3335 13.1436 22.1472C13.2365 21.9696 13.3322 21.7934 13.4302 21.6184C13.5457 21.4126 13.6611 21.2067 13.7832 21.0052C13.8531 20.8895 13.9287 20.777 14.0008 20.6626C14.2585 20.2551 14.5284 19.8563 14.8123 19.468C14.8847 19.3688 14.9568 19.2695 15.031 19.1714C16.2169 17.6067 17.6134 16.2106 19.1786 15.0255C19.2689 14.9572 19.3603 14.8909 19.4515 14.8242C19.8792 14.5109 20.319 14.2135 20.77 13.9322C20.8447 13.8857 20.9176 13.8361 20.9929 13.7906C21.2073 13.6605 21.4263 13.5374 21.6456 13.4148C21.8001 13.3286 21.9555 13.2442 22.112 13.162C22.3167 13.0541 22.5214 12.9464 22.73 12.845C23.0595 12.6854 23.3919 12.5322 23.729 12.3899C23.8953 12.3195 24.0655 12.2567 24.2339 12.1905C24.4737 12.0964 24.7145 12.0049 24.9576 11.9196C25.1256 11.8605 25.2942 11.8029 25.4641 11.7479C25.7746 11.6477 26.0875 11.5549 26.4026 11.4691C26.505 11.4412 26.606 11.4096 26.709 11.3831C27.108 11.2809 27.5111 11.1931 27.9164 11.1142C28.0538 11.0874 28.1924 11.0642 28.3306 11.04C28.6513 10.9842 28.9736 10.9356 29.2976 10.8945C30.1834 10.7816 31.084 10.7169 32 10.7169C32.8968 10.7169 33.7789 10.7792 34.6469 10.8874C35.0068 10.9322 35.3647 10.9863 35.7206 11.0492C35.831 11.0688 35.9417 11.0872 36.0515 11.1085C36.4824 11.1917 36.9108 11.2849 37.3345 11.3943C37.3861 11.4077 37.4365 11.4243 37.488 11.438C37.8508 11.5346 38.21 11.6427 38.5666 11.7583C38.7161 11.8069 38.8645 11.8577 39.0125 11.9095C39.2818 12.0034 39.5483 12.1045 39.8135 12.2092C39.9621 12.2681 40.1125 12.3233 40.2594 12.3853C40.6038 12.5304 40.9433 12.6868 41.2798 12.85C41.4826 12.9487 41.6819 13.0535 41.8812 13.1584C42.0411 13.2424 42.1999 13.3286 42.3577 13.4167C42.5773 13.5396 42.7968 13.6628 43.0115 13.7931C43.0696 13.8282 43.1259 13.8667 43.1837 13.9025C43.661 14.1985 44.1256 14.5127 44.5769 14.8444C44.6532 14.9005 44.7299 14.956 44.8056 15.0131C46.3845 16.2063 47.7923 17.6139 48.9857 19.1927C49.0444 19.2704 49.1015 19.3493 49.1591 19.4277C49.503 19.8959 49.8292 20.3777 50.1347 20.8738C50.1572 20.9105 50.1817 20.9461 50.204 20.9829C50.3404 21.2075 50.4694 21.4369 50.5977 21.6668C50.6759 21.8073 50.7525 21.9486 50.8275 22.0908C50.9416 22.3066 51.0552 22.5228 51.162 22.743C51.3013 23.0308 51.4333 23.3217 51.5593 23.6153C51.652 23.8307 51.7379 24.0496 51.8236 24.2686C51.9106 24.4913 51.9956 24.7147 52.075 24.9404C52.1382 25.1195 52.1997 25.2994 52.2582 25.4807C52.3522 25.7729 52.4391 26.0675 52.5203 26.3639C52.5574 26.4987 52.5967 26.6326 52.6312 26.7685C52.7267 27.1462 52.8106 27.5273 52.8853 27.9105C52.9132 28.053 52.9372 28.1968 52.9623 28.3403C53.0175 28.6585 53.0657 28.9782 53.1064 29.2995C53.2191 30.1849 53.2837 31.0851 53.2837 32.0007C53.2837 32.9077 53.2201 33.7996 53.1095 34.6771C53.0674 35.0128 53.0169 35.3468 52.959 35.6791ZM50.5797 12.2106C50.6162 12.2005 50.652 12.1876 50.6872 12.1721C50.9468 12.0531 51.1078 11.7873 51.0909 11.502C51.0658 11.0665 51.22 10.6588 51.525 10.3538C52.0943 9.78649 53.0816 9.78514 53.6502 10.3538C54.2358 10.9394 54.2358 11.8915 53.6509 12.4764C53.3493 12.7766 52.9375 12.9301 52.4994 12.9118C52.2066 12.8949 51.955 13.0748 51.8401 13.3412C51.836 13.3514 51.832 13.3608 51.8286 13.3703L49.1705 17.226C48.4328 16.3699 47.6329 15.5699 46.7769 14.8321L50.5797 12.2106ZM31.004 4.0071C30.6821 3.72107 30.4975 3.31265 30.4975 2.88733C30.4975 2.059 31.1717 1.38484 32.0007 1.38484C32.829 1.38484 33.5032 2.059 33.5032 2.88733C33.5032 3.31265 33.3186 3.72107 32.9974 4.0071C32.7824 4.19779 32.7283 4.50207 32.8304 4.77052C32.8358 4.78337 32.8412 4.79621 32.8466 4.80906L33.6916 9.40183C33.1324 9.36032 32.5696 9.33209 32 9.33209C31.4306 9.33209 30.868 9.36032 30.309 9.40178L31.1433 4.87059C31.1615 4.83881 31.1771 4.80568 31.1906 4.77052C31.2927 4.50207 31.2183 4.19779 31.004 4.0071ZM12.2079 13.4183C12.1991 13.3845 12.187 13.3514 12.1721 13.3182C12.0551 13.0572 11.79 12.8997 11.5013 12.9105C11.0773 12.9294 10.6534 12.7766 10.3525 12.475C10.0685 12.1924 9.91226 11.8157 9.91226 11.4148C9.91226 11.0138 10.0685 10.6365 10.3531 10.3518C10.6358 10.0685 11.0124 9.91159 11.4134 9.91159C11.4134 9.91159 11.4134 9.91159 11.4141 9.91159C11.8151 9.91159 12.1924 10.0685 12.4764 10.3525C12.7773 10.654 12.9355 11.0719 12.9105 11.4993C12.8929 11.788 13.0707 12.0429 13.3351 12.1599C13.346 12.1647 13.3568 12.1687 13.3676 12.1728L17.2248 14.8307C16.3688 15.5683 15.5689 16.3681 14.8312 17.2241L12.2079 13.4183ZM4.87195 32.8588C4.84017 32.8405 4.80636 32.8243 4.77119 32.8108C4.5041 32.71 4.19981 32.7824 4.00778 32.9967C3.7204 33.3186 3.31198 33.5032 2.88665 33.5032C2.05832 33.5032 1.38484 32.8297 1.38484 32.0014C1.38484 31.173 2.05832 30.4989 2.88598 30.4989C3.31198 30.4989 3.7204 30.6835 4.00642 31.0046C4.19711 31.219 4.50207 31.2724 4.76984 31.171C4.78269 31.1663 4.79486 31.1608 4.80703 31.1554L9.40115 30.3093C9.35965 30.8684 9.33142 31.4312 9.33142 32.0007C9.33142 32.5701 9.35965 33.1327 9.40111 33.6917L4.87195 32.8588ZM13.4217 51.7921C13.3879 51.8009 13.3534 51.813 13.3203 51.8279C13.0559 51.9449 12.8922 52.214 12.9098 52.5027C12.9362 52.9355 12.7813 53.3439 12.4757 53.6509C11.9091 54.2176 10.9184 54.2176 10.3518 53.6509C9.76621 53.0653 9.76621 52.1119 10.3511 51.5263C10.6534 51.2254 11.0625 51.0713 11.5006 51.0909C11.7813 51.1051 12.0375 50.932 12.1559 50.6723C12.1619 50.6595 12.1674 50.6466 12.1721 50.6338L14.831 46.7771C15.5688 47.6332 16.3688 48.4331 17.225 49.1709L13.4217 51.7921ZM32.9953 59.9943C33.3226 60.2857 33.5025 60.684 33.5025 61.1154C33.5025 61.943 32.8283 62.6165 32 62.6165C31.171 62.6165 30.4968 61.943 30.4968 61.1154C30.4968 60.684 30.6767 60.2857 31.0033 59.9949C31.2176 59.8036 31.2717 59.5 31.1696 59.2315C31.1649 59.2187 31.1595 59.2065 31.1541 59.1943L30.3083 54.5995C30.8675 54.641 31.4304 54.6693 32 54.6693C32.5694 54.6693 33.1321 54.641 33.6911 54.5996L32.8574 59.1301C32.8391 59.1619 32.8229 59.1957 32.8094 59.2308C32.7073 59.4993 32.781 59.8029 32.9953 59.9943ZM51.7907 50.5783C51.8009 50.6155 51.8137 50.6527 51.8299 50.6885C51.9496 50.9482 52.2039 51.1078 52.5014 51.0922C52.9254 51.0733 53.3473 51.2254 53.6489 51.5257C54.2345 52.1119 54.2345 53.0653 53.6496 53.6509C53.064 54.2365 52.1099 54.2351 51.5257 53.6523C51.2193 53.3446 51.0652 52.9362 51.0915 52.5027C51.1091 52.2167 50.934 51.9645 50.6737 51.8455C50.6595 51.8394 50.6446 51.8333 50.6304 51.8279L46.7753 49.1707C47.6315 48.4328 48.4316 47.6327 49.1694 46.7766L51.7907 50.5783ZM61.1147 33.5032C60.6833 33.5032 60.2843 33.3233 59.9929 32.9967C59.8009 32.783 59.4986 32.7276 59.2295 32.8317C59.2166 32.8364 59.2038 32.8419 59.1916 32.8473L54.5989 33.6918C54.6404 33.1327 54.6686 32.5701 54.6686 32.0007C54.6686 31.4315 54.6404 30.869 54.5989 30.3102L59.1308 31.1439C59.1625 31.1622 59.1957 31.1778 59.2302 31.1913C59.4979 31.292 59.8009 31.2197 59.9936 31.0053C60.285 30.6787 60.684 30.4989 61.1154 30.4989C61.9424 30.4989 62.6152 31.173 62.6152 32.0014C62.6152 32.8297 61.9424 33.5032 61.1147 33.5032Z" fill="#00A0D2"/>
<path d="M32.0007 27.8354C29.7036 27.8354 27.8347 29.7044 27.8347 32.0021C27.8347 34.2991 29.7036 36.1681 32.0007 36.1681C34.2984 36.1681 36.1673 34.2991 36.1673 32.0021C36.1673 29.7044 34.2984 27.8354 32.0007 27.8354ZM32.0007 34.7833C30.4671 34.7833 29.2195 33.5357 29.2195 32.0021C29.2195 30.4685 30.4671 29.2203 32.0007 29.2203C33.5343 29.2203 34.7825 30.4685 34.7825 32.0021C34.7825 33.5357 33.5343 34.7833 32.0007 34.7833Z" fill="#00A0D2"/>
<path d="M32 14.7759C22.5023 14.7759 14.7755 22.5027 14.7755 32.0005C14.7755 41.4982 22.5023 49.225 32 49.225C41.4978 49.225 49.2246 41.4982 49.2246 32.0005C49.2246 22.5027 41.4978 14.7759 32 14.7759ZM34.7454 47.473L35.2951 44.487C35.3107 44.4045 35.3107 44.3193 35.2951 44.2361L34.3133 38.9111C34.6351 38.8043 34.9482 38.6744 35.2512 38.523L38.3244 42.9825C38.3724 43.0521 38.4319 43.1123 38.5016 43.1596L41.0001 44.8805C39.1264 46.193 36.9937 47.0768 34.7454 47.473ZM32 37.8664C28.7658 37.8664 26.1341 35.2347 26.1341 32.0005C26.1341 28.7662 28.7658 26.1345 32 26.1345C35.2342 26.1345 37.866 28.7662 37.866 32.0005C37.866 35.2347 35.2342 37.8664 32 37.8664ZM29.2554 47.4737C27.007 47.0768 24.8743 46.193 23.0013 44.8812L25.4998 43.1596C25.5695 43.1123 25.629 43.0521 25.677 42.9825L28.7503 38.523C29.0539 38.6744 29.3669 38.8036 29.6875 38.9111L28.7077 44.2375C28.6921 44.32 28.6921 44.4045 28.7077 44.4877L29.2554 47.4737ZM16.5281 34.7444L19.5128 35.2942C19.5967 35.3091 19.6812 35.3091 19.7637 35.2942L25.0907 34.3137C25.1976 34.6349 25.3267 34.948 25.4782 35.2509L21.0194 38.3249C20.9497 38.3729 20.8896 38.4324 20.8422 38.502L19.1206 41.0005C17.8088 39.1261 16.9251 36.9928 16.5281 34.7444ZM19.6386 33.9093L16.2164 33.2786C16.1825 32.8565 16.1603 32.4311 16.1603 32.0005C16.1603 31.57 16.1825 31.1449 16.2163 30.723L19.6386 30.0936L24.8194 31.0464C24.778 31.3594 24.7492 31.6763 24.7492 32.0005C24.7492 32.3249 24.7781 32.6421 24.8196 32.9554L19.6386 33.9093ZM25.0907 29.6886L19.7637 28.7088C19.7225 28.7013 19.6805 28.6973 19.6386 28.6973C19.5967 28.6973 19.5548 28.7013 19.5135 28.7088L16.5281 29.2578C16.9251 27.0082 17.8088 24.8748 19.1206 23.0017L20.8422 25.5009C20.8896 25.5706 20.9497 25.6301 21.0194 25.6781L25.4782 28.7514C25.3274 29.0543 25.1976 29.3674 25.0907 29.6886ZM29.2554 16.5292L28.8361 18.8154C28.7354 19.3618 28.7354 19.9163 28.8361 20.462L29.6881 25.0912C29.3663 25.1987 29.0532 25.3285 28.7503 25.4793L25.677 21.0205C25.629 20.9508 25.5695 20.8913 25.4998 20.8433L23.0006 19.1211C24.873 17.8093 27.0057 16.9255 29.2554 16.5292ZM35.166 18.8148L34.7454 16.5286C36.995 16.9248 39.1277 17.8086 41.0001 19.1211L38.5016 20.8427C38.4319 20.89 38.3724 20.9502 38.3244 21.0198L35.2512 25.4786C34.9475 25.3271 34.6345 25.198 34.3133 25.0905L35.1653 20.4626C35.266 19.9163 35.266 19.3625 35.166 18.8148ZM42.9814 25.6774C43.051 25.6294 43.1112 25.5699 43.1585 25.5002L44.8801 23.001C46.1919 24.8754 47.0757 27.0088 47.4726 29.2572L44.4865 28.7081C44.4041 28.6932 44.3189 28.6932 44.2364 28.7081L38.91 29.6872C38.8032 29.3667 38.674 29.0536 38.5219 28.75L42.9814 25.6774ZM38.9107 34.313L44.237 35.2935C44.3195 35.3084 44.4047 35.3084 44.4872 35.2935L47.4733 34.7438C47.0764 36.9921 46.1926 39.1248 44.8808 40.9999L43.1592 38.5013C43.1119 38.4317 43.0517 38.3722 42.982 38.3242L38.5226 35.2509C38.6747 34.9466 38.8039 34.6335 38.9107 34.313ZM44.3621 33.9087L39.1806 32.9546C39.222 32.6416 39.2508 32.3246 39.2508 32.0005C39.2508 31.6761 39.2219 31.3589 39.1805 31.0457L44.3615 30.0929L47.7837 30.7222C47.8176 31.1443 47.8398 31.5698 47.8398 32.0005C47.8398 32.4311 47.8176 32.8563 47.7837 33.2784L44.3621 33.9087ZM44.0611 21.7492L42.0908 24.6097L37.75 27.6006C37.3609 27.0933 36.9077 26.64 36.4005 26.2509L39.3921 21.9104L42.2518 19.9398C42.9024 20.4936 43.5073 21.0986 44.0611 21.7492ZM33.2802 16.217L33.8041 19.0643C33.8738 19.4456 33.8738 19.8311 33.8034 20.2118L32.9548 24.82C32.6416 24.7785 32.3244 24.7497 32 24.7497C31.6758 24.7497 31.3589 24.7785 31.0459 24.8199L30.198 20.2111C30.1277 19.8317 30.1277 19.4463 30.198 19.0663L30.7208 16.2169C31.1433 16.1829 31.569 16.1607 32 16.1607C32.4314 16.1607 32.8574 16.1829 33.2802 16.217ZM21.7485 19.9396L24.6093 21.911L27.6002 26.2504C27.0926 26.6398 26.639 27.0934 26.2498 27.601L21.9099 24.6104L19.9391 21.749C20.4929 21.0985 21.098 20.4934 21.7485 19.9396ZM19.9396 42.2525L21.9099 39.3926L26.2502 36.4005C26.6395 36.908 27.093 37.3615 27.6006 37.7507L24.6093 42.0919L21.7495 44.0622C21.0987 43.5083 20.4936 42.9032 19.9396 42.2525ZM30.7204 47.784L30.0925 44.3626L31.046 39.181C31.359 39.2225 31.6759 39.2512 32 39.2512C32.3245 39.2512 32.6416 39.2224 32.9549 39.1809L33.9103 44.3619L33.2804 47.784C32.8576 47.818 32.4314 47.8402 32 47.8402C31.5689 47.8402 31.143 47.818 30.7204 47.784ZM42.2516 44.0613L39.3921 42.0919L36.4004 37.7501C36.9077 37.3608 37.361 36.9075 37.7502 36.4001L42.0915 39.3919L44.0614 42.2513C43.5075 42.9021 42.9024 43.5073 42.2516 44.0613Z" fill="#00A0D2"/>
</svg>
