<svg width="68" height="48" viewBox="0 0 68 48" fill="none" xmlns="http://www.w3.org/2000/svg">
<path d="M61.8 43H57V41H61.8C62.7 41 63.4 40.5 63.8 39.7C64.9 37.3 66 34.4 66 31C66 29.6 61.6 26.2 57.5 23.9L57.4 23.8L50.2 15.6C48.5 13 45.1 9 43 9H4.9C3.3 9 2 10.3 2 11.9V37.6C2 39.5 3.5 41 5.4 41H7V43H5.4C2.4 43 0 40.6 0 37.6V11.9C0 9.2 2.2 7 4.9 7H43C46.8 7 51.1 13.4 51.8 14.4L58.6 22.2C61 23.6 68 27.8 68 31C68 34.8 66.8 37.9 65.7 40.5C65 42 63.5 43 61.8 43Z" fill="#00A0D2"/>
<path d="M61 26H45C44.1 26 43 25.3 43 24.2V18.8C43 17.7 44.1 17 45 17H53V19H45V24H61V26Z" fill="#00A0D2"/>
<path d="M20 26H6C5.1 26 4 25.3 4 24.2V18.8C4 17.7 5.1 17 6 17H20V26ZM6 24H18V19H6V24Z" fill="#00A0D2"/>
<path d="M39 26H18V17H39C39.9 17 41 17.7 41 18.8V24.2C41 25.3 39.9 26 39 26ZM20 24H39V19H20V24Z" fill="#00A0D2"/>
<path d="M12 48C8.7 48 6 45.3 6 42C6 38.7 8.7 36 12 36C15.3 36 18 38.7 18 42C18 45.3 15.3 48 12 48ZM12 38C9.8 38 8 39.8 8 42C8 44.2 9.8 46 12 46C14.2 46 16 44.2 16 42C16 39.8 14.2 38 12 38Z" fill="#00A0D2"/>
<path d="M12 43.5999C11.1 43.5999 10.4 42.8999 10.4 41.9999C10.4 41.0999 11.1 40.3999 12 40.3999C12.9 40.3999 13.6 41.0999 13.6 41.9999C13.6 42.8999 12.9 43.5999 12 43.5999ZM12 41.5999C11.8 41.5999 11.6 41.7999 11.6 41.9999C11.6 42.1999 11.8 42.3999 12 42.3999C12.2 42.3999 12.4 42.1999 12.4 41.9999C12.4 41.7999 12.2 41.5999 12 41.5999Z" fill="#00A0D2"/>
<path d="M53 48C49.7 48 47 45.3 47 42C47 38.7 49.7 36 53 36C56.3 36 59 38.7 59 42C59 45.3 56.3 48 53 48ZM53 38C50.8 38 49 39.8 49 42C49 44.2 50.8 46 53 46C55.2 46 57 44.2 57 42C57 39.8 55.2 38 53 38Z" fill="#00A0D2"/>
<path d="M53 43.5999C52.1 43.5999 51.4 42.8999 51.4 41.9999C51.4 41.0999 52.1 40.3999 53 40.3999C53.9 40.3999 54.6 41.0999 54.6 41.9999C54.6 42.8999 53.9 43.5999 53 43.5999ZM53 41.5999C52.8 41.5999 52.6 41.7999 52.6 41.9999C52.6 42.1999 52.8 42.3999 53 42.3999C53.2 42.3999 53.4 42.1999 53.4 41.9999C53.4 41.7999 53.2 41.5999 53 41.5999Z" fill="#00A0D2"/>
<path d="M48 41H16V43H48V41Z" fill="#00A0D2"/>
<path d="M65 36H63V38H65V36Z" fill="#00A0D2"/>
<path d="M67 30H63V32H67V30Z" fill="#00A0D2"/>
<path d="M10 18H8V24H10V18Z" fill="#00A0D2"/>
<path d="M31 18H29V24H31V18Z" fill="#00A0D2"/>
<path d="M38.2 8.6L34.6 3.6C33.9 2.6 32.7 2 31.5 2H19.4C18.2 2 17 2.6 16.3 3.6L12.8 8.6L11.2 7.4L14.8 2.4C15.9 0.9 17.7 0 19.5 0H31.6C33.5 0 35.3 0.9 36.3 2.4L39.9 7.4L38.2 8.6Z" fill="#00A0D2"/>
</svg>
