<svg width="54" height="73" viewBox="0 0 54 73" fill="none" xmlns="http://www.w3.org/2000/svg">
<path d="M6.47898 17.1905C6.47898 15.0894 8.18805 13.3803 10.2891 13.3803C10.7789 13.3803 11.1761 12.9832 11.1761 12.4933C11.1761 12.0035 10.7789 11.6063 10.2891 11.6063C8.18805 11.6063 6.47898 9.89376 6.47898 7.78839C6.47898 7.29854 6.08181 6.90137 5.59196 6.90137C5.1021 6.90137 4.70494 7.29854 4.70494 7.78839C4.70494 9.89376 2.9924 11.6063 0.88702 11.6063C0.397167 11.6063 0 12.0035 0 12.4933C0 12.9832 0.397167 13.3803 0.88702 13.3803C2.9924 13.3803 4.70494 15.0894 4.70494 17.1905C4.70494 17.6803 5.1021 18.0775 5.59196 18.0775C6.08181 18.0775 6.47898 17.6803 6.47898 17.1905ZM5.59152 14.1742C5.15711 13.5012 4.5815 12.9264 3.90714 12.4929C4.5815 12.0585 5.15711 11.4829 5.59152 10.8085C6.02507 11.4829 6.59982 12.0585 7.27288 12.4929C6.59982 12.9264 6.02507 13.5012 5.59152 14.1742Z" fill="#00A0D2"/>
<path d="M40.8458 6.74314C42.9512 6.74314 44.6637 8.45221 44.6637 10.5533C44.6637 11.0431 45.0609 11.4403 45.5508 11.4403C46.0406 11.4403 46.4378 11.0431 46.4378 10.5533C46.4378 8.45221 48.1468 6.74314 50.2475 6.74314C50.7373 6.74314 51.1345 6.34597 51.1345 5.85612C51.1345 5.36626 50.7373 4.9691 50.2475 4.9691C48.1468 4.9691 46.4378 3.25656 46.4378 1.15118C46.4378 0.661328 46.0406 0.26416 45.5508 0.26416C45.0609 0.26416 44.6637 0.661328 44.6637 1.15118C44.6637 3.25656 42.9512 4.9691 40.8458 4.9691C40.356 4.9691 39.9588 5.36626 39.9588 5.85612C39.9588 6.34597 40.356 6.74314 40.8458 6.74314ZM45.5499 4.17173C45.9839 4.84566 46.5582 5.42127 47.2317 5.85568C46.5582 6.28923 45.9839 6.86355 45.5499 7.53704C45.1155 6.86355 44.5403 6.28923 43.8659 5.85568C44.5403 5.42127 45.1155 4.84566 45.5499 4.17173Z" fill="#00A0D2"/>
<path d="M53.113 54.9758C51.5178 54.9758 50.2202 53.6751 50.2202 52.0765C50.2202 51.5866 49.823 51.1895 49.3332 51.1895C48.8433 51.1895 48.4461 51.5866 48.4461 52.0765C48.4461 53.6751 47.1455 54.9758 45.5469 54.9758C45.057 54.9758 44.6599 55.3729 44.6599 55.8628C44.6599 56.3526 45.057 56.7498 45.5469 56.7498C47.1455 56.7498 48.4461 58.0474 48.4461 59.6426C48.4461 60.1324 48.8433 60.5296 49.3332 60.5296C49.823 60.5296 50.2202 60.1324 50.2202 59.6426C50.2202 58.0474 51.5178 56.7498 53.113 56.7498C53.6028 56.7498 54 56.3526 54 55.8628C54 55.3729 53.6028 54.9758 53.113 54.9758ZM49.3327 56.9092C49.0408 56.5072 48.6865 56.1534 48.2842 55.8623C48.6865 55.5704 49.0408 55.2161 49.3327 54.8138C49.6238 55.2161 49.9776 55.5704 50.3796 55.8623C49.9776 56.1534 49.6238 56.5072 49.3327 56.9092Z" fill="#00A0D2"/>
<path d="M21.1373 61.3124L20.2624 68.1734C20.2304 68.4264 20.3083 68.6806 20.4768 68.8716C20.6453 69.063 20.8879 69.1726 21.1425 69.1726H38.7469C39.0016 69.1726 39.2442 69.063 39.4126 68.8716C39.5811 68.6806 39.6591 68.4264 39.627 68.1734L38.7521 61.3124C38.6954 60.8694 38.3186 60.5376 37.8721 60.5376H22.0174C21.5709 60.5376 21.1941 60.8694 21.1373 61.3124ZM22.7983 62.3116H37.0912L37.7395 67.3986H22.15L22.7983 62.3116Z" fill="#00A0D2"/>
<path d="M30.6607 48.0927C30.4234 48.1113 30.1847 48.1204 29.9448 48.1204C29.4549 48.1204 29.0577 48.5176 29.0577 49.0074C29.0577 49.4973 29.4549 49.8944 29.9448 49.8944C30.2315 49.8944 30.516 49.8836 30.7993 49.8615C31.2874 49.8234 31.6525 49.3964 31.6144 48.9078C31.5759 48.4197 31.1601 48.0537 30.6607 48.0927Z" fill="#00A0D2"/>
<path d="M26.8394 47.5752C23.2722 46.2763 20.8758 42.8508 20.8758 39.0511C20.8758 38.5612 20.4786 38.1641 19.9888 38.1641C19.4989 38.1641 19.1017 38.5612 19.1017 39.0511C19.1017 43.5936 21.9672 47.6891 26.2321 49.2419C26.3326 49.2787 26.4348 49.296 26.5357 49.296C26.8978 49.296 27.2383 49.0721 27.3691 48.7122C27.5367 48.2518 27.2998 47.7428 26.8394 47.5752Z" fill="#00A0D2"/>
<path d="M46.7937 24.0212C47.4619 23.2018 47.8662 22.1667 47.8662 21.0424C47.8662 18.4294 45.7405 16.3037 43.1275 16.3037H16.762C14.149 16.3037 12.0233 18.4294 12.0233 21.0424C12.0233 22.1667 12.4277 23.2017 13.0959 24.0213C9.09886 24.1658 5.88953 27.4536 5.88953 31.4848V33.812C5.88953 41.1818 11.3205 47.3952 18.5774 48.4308C20.1224 50.3009 22.0877 51.754 24.3104 52.6739V56.7099H17.63C17.1813 56.7099 16.8032 57.0452 16.7495 57.4908L14.9992 72.0067C14.9689 72.2584 15.0478 72.5113 15.2162 72.7014C15.3843 72.8911 15.626 72.9999 15.8798 72.9999H44.0098C44.2636 72.9999 44.5053 72.8911 44.6733 72.7014C44.8418 72.5113 44.9206 72.2588 44.8903 72.0067L43.1405 57.4908C43.0868 57.0452 42.7087 56.7099 42.26 56.7099H35.5796V52.6738C37.8021 51.754 39.7672 50.301 41.3127 48.4307C48.5691 47.395 54 41.1818 54 33.812V31.4848C54 27.4535 50.7905 24.1656 46.7937 24.0212ZM7.66357 33.812V31.4848C7.66357 28.34 10.2224 25.7816 13.3673 25.7816H15.1976V39.0514C15.1976 39.4294 15.2159 39.8042 15.2437 40.177C15.2523 40.2909 15.2653 40.4035 15.2764 40.5168C15.3023 40.7821 15.3347 41.0458 15.3747 41.3079C15.3931 41.4285 15.4117 41.549 15.4331 41.669C15.4835 41.9517 15.5431 42.2318 15.6098 42.5099C15.6297 42.5925 15.6456 42.6761 15.6668 42.7583C15.7586 43.1137 15.864 43.465 15.9823 43.812C16.0107 43.8951 16.0443 43.9763 16.0741 44.059C16.1704 44.3253 16.2734 44.589 16.3853 44.8496C16.4328 44.9601 16.4825 45.0695 16.5327 45.1789C16.6444 45.4223 16.7635 45.6624 16.8889 45.9001C16.9392 45.9954 16.9873 46.0915 17.0398 46.1858C17.0652 46.2315 17.0869 46.2788 17.1129 46.3243C11.6041 44.7637 7.66357 39.7037 7.66357 33.812ZM41.4734 58.484L43.0093 71.2258H16.8803L18.4165 58.484H25.1974H34.6926H41.4734ZM26.0844 56.7099V53.2879C26.0911 53.2897 26.0979 53.2909 26.1046 53.2927C26.1412 53.3025 26.1786 53.3091 26.2153 53.3186C26.5489 53.4057 26.8859 53.4796 27.2256 53.5427C27.3561 53.5671 27.4875 53.5869 27.6188 53.6077C27.8736 53.6479 28.1289 53.6814 28.3857 53.7083C28.5267 53.7231 28.6674 53.739 28.809 53.7499C29.1331 53.7745 29.4577 53.7885 29.7828 53.792C29.837 53.7926 29.8905 53.799 29.9448 53.799C29.9993 53.799 30.0529 53.7925 30.1074 53.7919C30.4322 53.7884 30.7564 53.7745 31.0802 53.7499C31.2221 53.7391 31.363 53.7231 31.5043 53.7082C31.7609 53.6813 32.0163 53.6479 32.2709 53.6077C32.4021 53.5869 32.5331 53.5671 32.6636 53.5427C33.0058 53.4792 33.3453 53.405 33.6813 53.3171C33.7152 53.3083 33.7498 53.3022 33.7837 53.293C33.791 53.2911 33.7984 53.2898 33.8056 53.2879V56.7099H26.0844ZM40.7879 46.1746C40.5884 46.4769 40.3753 46.7725 40.149 47.061C38.6452 48.9719 36.6533 50.4181 34.3885 51.2432C34.0333 51.3729 33.6724 51.4864 33.3072 51.5836C32.2118 51.8755 31.0782 52.0215 29.9447 52.0215C29.189 52.0215 28.4334 51.9566 27.6891 51.8269C26.9447 51.6972 26.2118 51.5026 25.5014 51.2432C25.5011 51.243 25.5007 51.243 25.5007 51.243C23.2364 50.4178 21.2447 48.9717 19.7419 47.0623C17.9297 44.7529 16.9717 41.9827 16.9717 39.0514V25.7816H29.9617C30.4515 25.7816 30.8487 25.3844 30.8487 24.8946C30.8487 24.4047 30.4515 24.0075 29.9617 24.0075H16.3884C16.3389 23.9891 16.2937 23.9625 16.2401 23.953C14.8247 23.7005 13.7974 22.4765 13.7974 21.0424C13.7974 19.4079 15.1275 18.0778 16.762 18.0778H43.1275C44.7621 18.0778 46.0922 19.4079 46.0922 21.0424C46.0922 22.4765 45.0648 23.7005 43.6499 23.953C43.2267 24.0283 42.9183 24.3965 42.9183 24.8261V24.8946V39.0514C42.9183 39.7842 42.8584 40.507 42.7403 41.215C42.445 42.9847 41.7858 44.6623 40.7879 46.1746ZM52.226 33.812C52.226 39.7032 48.2855 44.7633 42.7771 46.3243C42.8027 46.2794 42.8242 46.2327 42.8493 46.1876C42.9026 46.0917 42.9516 45.9942 43.0026 45.8973C43.1277 45.6603 43.2465 45.4208 43.3579 45.1781C43.4079 45.0692 43.4573 44.9603 43.5045 44.8504C43.6173 44.5877 43.7212 44.3219 43.8181 44.0534C43.8471 43.9733 43.8796 43.8945 43.9072 43.8139C44.026 43.4657 44.1316 43.1132 44.2237 42.7566C44.2443 42.6768 44.2598 42.5957 44.279 42.5155C44.3464 42.2348 44.4065 41.9523 44.4572 41.6671C44.4784 41.5483 44.4968 41.4291 44.5151 41.3096C44.5551 41.0472 44.5875 40.7831 44.6135 40.5174C44.6247 40.4037 44.6378 40.2906 44.6463 40.1763C44.6741 39.8038 44.6924 39.4292 44.6924 39.0514V25.7816H46.5227C49.6676 25.7816 52.226 28.34 52.226 31.4848V33.812Z" fill="#00A0D2"/>
<path d="M35.8672 24.0078H34.6926C34.2027 24.0078 33.8055 24.405 33.8055 24.8948C33.8055 25.3847 34.2027 25.7819 34.6926 25.7819H35.8672C36.357 25.7819 36.7542 25.3847 36.7542 24.8948C36.7542 24.405 36.357 24.0078 35.8672 24.0078Z" fill="#00A0D2"/>
</svg>
