<svg width="143" height="54" viewBox="0 0 143 54" fill="none" xmlns="http://www.w3.org/2000/svg">
<path fill-rule="evenodd" clip-rule="evenodd" d="M76.9014 26.388L78.3731 29.8195H78.5228L77.051 26.3383L76.9014 26.388Z" fill="#0B3E6A"/>
<path fill-rule="evenodd" clip-rule="evenodd" d="M71.2141 26.562L71.3638 28.2777C71.5633 28.2777 71.7629 28.3026 71.9625 28.3274L71.8128 26.5371L71.2141 26.562Z" fill="#0B3E6A"/>
<path fill-rule="evenodd" clip-rule="evenodd" d="M69.4428 25.8658C69.4428 25.7663 69.4678 25.642 69.4678 25.5426C69.4927 25.5674 69.5177 25.5923 69.5426 25.5923C69.4927 25.6917 69.4678 25.7663 69.4428 25.8658ZM68.7444 26.3383C68.919 20.6191 70.3408 13.6567 72.536 8.70844C72.7355 8.28572 73.4839 6.74404 73.6834 6.34619V6.39592C73.6585 6.42079 73.6585 6.44565 73.6336 6.49539C73.7583 7.61435 73.8581 8.78304 73.9828 9.95173C74.1075 11.1453 74.2821 12.3637 74.5066 13.607C74.5565 13.8308 74.6064 14.0546 74.6563 14.3032C74.6812 14.2784 74.6812 14.2535 74.7062 14.2286C74.6064 13.7562 74.5316 13.3086 74.4567 12.8362C74.2821 11.6923 74.1574 10.5734 74.0327 9.45441V9.35495C74.806 15.5217 75.9285 22.2105 78.0238 28.7751C75.255 27.5815 72.1868 26.7361 68.7444 26.3383ZM73.409 6.94297C73.4589 6.86837 73.4839 6.79377 73.5338 6.71918C73.6834 7.863 73.7832 9.03169 73.9329 10.2252C74.0826 11.4437 74.2821 12.687 74.5316 13.9551C74.5565 14.0794 74.5814 14.2286 74.6064 14.353C74.5814 14.3778 74.5814 14.4027 74.5565 14.4276C74.5316 14.3778 74.5316 14.3032 74.5066 14.2535C74.2322 12.9605 74.0077 11.7172 73.8581 10.4739C73.7084 9.28035 73.5837 8.08679 73.409 6.94297ZM73.1845 7.41542C73.2344 7.34082 73.2594 7.26622 73.2843 7.16676C73.4589 8.31059 73.6086 9.50414 73.7832 10.7226C73.9578 11.9659 74.2073 13.234 74.4817 14.527C74.4567 14.5519 74.4318 14.5768 74.4318 14.6016C74.1574 13.3335 73.883 12.0902 73.7084 10.8718C73.5338 9.6782 73.3841 8.53438 73.1845 7.41542ZM72.985 7.91273C73.0099 7.83814 73.0598 7.73867 73.0848 7.66408C73.2843 8.75817 73.434 9.90199 73.6336 11.0458C73.8331 12.2394 74.0826 13.4578 74.3819 14.7011C74.3569 14.726 74.332 14.7508 74.332 14.8005C74.0327 13.5821 73.7583 12.3886 73.5587 11.2447C73.3592 10.0761 73.1596 8.98196 72.985 7.91273ZM72.7605 8.41005C72.7854 8.33545 72.8353 8.23599 72.8603 8.16139C73.0598 9.20575 73.2594 10.275 73.4589 11.3939C73.6834 12.5378 73.9578 13.6816 74.2572 14.8751C74.2322 14.9 74.2073 14.9497 74.1823 14.9746C73.883 13.8059 73.6086 12.687 73.3592 11.568C73.1596 10.4739 72.96 9.42954 72.7605 8.41005ZM72.536 8.9571C72.5609 8.85763 72.6108 8.78304 72.6358 8.68357C72.8603 9.6782 73.0598 10.6977 73.2843 11.7421C73.5088 12.8113 73.8082 13.9302 74.1075 15.0741C74.0826 15.0989 74.0576 15.1487 74.0327 15.1735C73.7084 14.0546 73.434 12.9853 73.1845 11.941C72.985 10.9215 72.7605 9.90199 72.536 8.9571ZM72.3364 9.47928C72.3614 9.37981 72.4113 9.30522 72.4362 9.20575C72.6607 10.1507 72.8852 11.1204 73.1347 12.115C73.3841 13.1345 73.6834 14.2038 74.0077 15.273C73.9828 15.2979 73.9578 15.3476 73.9329 15.3973C73.6086 14.353 73.3093 13.3086 73.0598 12.314C72.7854 11.3442 72.5609 10.3993 72.3364 9.47928ZM72.1119 10.0512C72.1369 9.95173 72.1868 9.85226 72.2117 9.77767C72.4611 10.6728 72.6856 11.5929 72.9351 12.5129C73.2095 13.4827 73.5088 14.4773 73.8331 15.4968C73.8082 15.5465 73.7832 15.5714 73.7583 15.6211C73.434 14.6265 73.1097 13.6567 72.8603 12.7118C72.6108 11.8167 72.3614 10.9215 72.1119 10.0512ZM71.9124 10.6231C71.9373 10.5236 71.9872 10.4242 72.0121 10.3247C72.2616 11.1701 72.511 12.0404 72.7605 12.9108C73.0349 13.8308 73.3342 14.7757 73.6834 15.7454C73.6585 15.7952 73.6336 15.82 73.6086 15.8698C73.2843 14.9249 72.96 14.0048 72.6856 13.1345C72.4113 12.2891 72.1618 11.4437 71.9124 10.6231ZM71.7378 11.2199C71.7627 11.1204 71.8126 11.021 71.8375 10.9215C72.087 11.7172 72.3614 12.5129 72.6108 13.3583C72.8852 14.2038 73.2095 15.0989 73.5338 16.019C73.5088 16.0687 73.4839 16.0936 73.4589 16.1433C73.1347 15.273 72.8104 14.4027 72.511 13.5821C72.2366 12.7864 71.9872 11.9907 71.7378 11.2199ZM71.5382 11.8415C71.5631 11.7421 71.613 11.6426 71.638 11.5431C71.8874 12.2891 72.1618 13.0351 72.4362 13.8308C72.7355 14.6265 73.0349 15.4719 73.3841 16.3174C73.3592 16.3671 73.3342 16.4168 73.3093 16.4666C72.985 15.646 72.6607 14.8254 72.3614 14.0546C72.062 13.2837 71.7876 12.5378 71.5382 11.8415ZM71.3636 12.4383C71.3885 12.3388 71.4135 12.2394 71.4634 12.1399C71.7378 12.8362 71.9872 13.5573 72.2865 14.2784C72.5859 15.0243 72.9102 15.7952 73.2344 16.5909C73.2095 16.6406 73.1845 16.6903 73.1596 16.7401C72.8353 15.9692 72.511 15.2233 72.2117 14.5022C71.8874 13.8059 71.613 13.1097 71.3636 12.4383ZM71.189 13.0848C71.2139 12.9853 71.2389 12.8859 71.2638 12.7616C71.5382 13.4081 71.8126 14.0794 72.087 14.7508C72.3863 15.4471 72.7106 16.1682 73.0349 16.9141C73.0099 16.9639 72.985 17.0136 72.96 17.0633C72.6358 16.3422 72.3115 15.6708 72.0121 14.9995C71.7128 14.353 71.4384 13.7065 71.189 13.0848ZM71.0144 13.7313C71.0393 13.6319 71.0642 13.5075 71.0892 13.4081C71.3636 14.0048 71.638 14.6265 71.9124 15.2481C72.2117 15.8946 72.536 16.5412 72.8603 17.2374C72.8353 17.2871 72.8104 17.3617 72.7605 17.4115C72.4362 16.7649 72.1369 16.1184 71.8375 15.5217C71.5631 14.9 71.2887 14.3032 71.0144 13.7313ZM70.8647 14.3778C70.8896 14.2535 70.9146 14.154 70.9395 14.0546C71.2139 14.6016 71.4883 15.1735 71.7627 15.7454C72.062 16.3422 72.3614 16.939 72.6856 17.5606C72.6607 17.6104 72.6358 17.685 72.5859 17.7347C72.2616 17.1379 71.9623 16.566 71.6629 15.9941C71.4135 15.4471 71.1391 14.9 70.8647 14.3778ZM70.715 15.0243C70.74 14.9249 70.7649 14.8005 70.7899 14.7011C71.0642 15.2233 71.3137 15.7454 71.613 16.2676C71.9124 16.8147 72.2117 17.3617 72.511 17.9336C72.4861 18.0082 72.4611 18.058 72.4113 18.1326C72.1119 17.5855 71.8126 17.0633 71.5132 16.5412C71.2638 16.019 70.9894 15.5217 70.715 15.0243ZM70.5903 15.6957C70.6152 15.5714 70.6402 15.4719 70.6651 15.3476C70.9146 15.82 71.189 16.2925 71.4634 16.7898C71.7378 17.2871 72.0371 17.7844 72.3364 18.3066C72.3115 18.3812 72.2865 18.4309 72.2366 18.5055C71.9373 18.0082 71.6629 17.5358 71.3885 17.0633C71.1141 16.5909 70.8397 16.1433 70.5903 15.6957ZM70.4656 16.3422C70.4905 16.2428 70.5155 16.1184 70.5155 16.019C70.7649 16.4417 71.0393 16.8893 71.2887 17.3369C71.5631 17.7844 71.8375 18.232 72.1119 18.7045C72.087 18.7791 72.0371 18.8288 72.0121 18.9034C71.7378 18.4558 71.4634 18.0331 71.189 17.6104C70.9645 17.1877 70.715 16.7649 70.4656 16.3422ZM70.3408 17.0136C70.3658 16.8893 70.3658 16.7898 70.3907 16.6655C70.6402 17.0633 70.8896 17.4612 71.1391 17.859C71.3885 18.2569 71.6629 18.6796 71.9373 19.1023C71.9124 19.1769 71.8625 19.2515 71.8375 19.3261C71.5881 18.9283 71.3137 18.5304 71.0642 18.1574C70.8397 17.7844 70.5903 17.3866 70.3408 17.0136ZM70.2411 17.685C70.266 17.5855 70.266 17.4612 70.291 17.3617C70.5155 17.7098 70.7649 18.0828 71.0144 18.4309C71.2638 18.8039 71.5132 19.1769 71.7627 19.5499C71.7378 19.6245 71.6879 19.6991 71.6629 19.7737C71.4135 19.4256 71.164 19.0775 70.9395 18.7293C70.715 18.3564 70.4656 18.0331 70.2411 17.685ZM70.1413 18.3812C70.1662 18.2569 70.1662 18.1574 70.1912 18.0331C70.4157 18.3564 70.6402 18.6796 70.8647 19.0029C71.0892 19.3261 71.3386 19.6494 71.5631 19.9975C71.5382 20.0721 71.4883 20.1467 71.4634 20.2213C71.2389 19.898 71.0144 19.5996 70.7899 19.3012C70.5903 18.978 70.3658 18.6796 70.1413 18.3812ZM70.0415 19.0526C70.0665 18.9283 70.0665 18.8288 70.0914 18.7045C70.291 18.978 70.5155 19.2764 70.715 19.5499C70.9395 19.8483 71.1391 20.1218 71.3636 20.4202C71.3386 20.4948 71.2887 20.5694 71.2638 20.644C71.0642 20.3705 70.8397 20.097 70.6402 19.8234C70.4656 19.5748 70.2411 19.3261 70.0415 19.0526ZM69.9667 19.7488C69.9916 19.6245 69.9916 19.525 70.0166 19.4007C70.2161 19.6494 70.3907 19.898 70.5903 20.1467C70.7899 20.3953 70.9894 20.644 71.189 20.9175C71.164 20.9921 71.1141 21.0667 71.0892 21.1662C70.715 20.6689 70.3408 20.1964 69.9667 19.7488ZM69.8918 20.4202C69.9168 20.2959 69.9168 20.1964 69.9417 20.0721C70.291 20.4948 70.6402 20.9424 71.0144 21.39C70.9894 21.4646 70.9395 21.564 70.9146 21.6386C70.5653 21.2159 70.2161 20.8181 69.8918 20.4202ZM69.817 21.1165C69.817 20.9921 69.842 20.8927 69.8669 20.7683C70.1912 21.1413 70.4905 21.5143 70.8148 21.8873C70.7899 21.9619 70.74 22.0613 70.715 22.1359C70.4157 21.7878 70.1163 21.4397 69.817 21.1165ZM69.7422 21.7878C69.7422 21.6635 69.7671 21.564 69.7671 21.4397C70.0415 21.763 70.3159 22.0613 70.6152 22.3846C70.5903 22.4841 70.5404 22.5587 70.5155 22.6333C70.266 22.3597 69.9916 22.0613 69.7422 21.7878ZM69.6673 22.4841C69.6673 22.3597 69.6923 22.2603 69.6923 22.1359C69.9417 22.3846 70.1662 22.6333 70.4157 22.9068C70.3907 23.0062 70.3658 23.0808 70.3159 23.1803C70.1163 22.9317 69.8918 22.7079 69.6673 22.4841ZM69.6175 23.1554C69.6175 23.0311 69.6424 22.9317 69.6424 22.8073C69.842 23.0062 70.0415 23.2052 70.2411 23.4041C70.2161 23.5036 70.1912 23.5782 70.1413 23.6776C69.9667 23.5036 69.7921 23.3295 69.6175 23.1554ZM69.5676 23.8268C69.5676 23.7025 69.5925 23.603 69.5925 23.4787C69.7422 23.6279 69.8918 23.7771 70.0665 23.9263C70.0415 24.0257 70.0166 24.1003 69.9667 24.1998C69.817 24.1003 69.6923 23.976 69.5676 23.8268ZM69.5177 24.5231C69.5177 24.3987 69.5426 24.2993 69.5426 24.1998C69.6673 24.2993 69.7671 24.3987 69.8918 24.5231C69.8669 24.6225 69.842 24.6971 69.7921 24.7966C69.6923 24.6723 69.5925 24.5977 69.5177 24.5231ZM69.4678 25.1944C69.4678 25.095 69.4927 24.9706 69.4927 24.8463C69.5676 24.9209 69.6174 24.9706 69.6923 25.0204C69.6673 25.1198 69.6424 25.1944 69.6175 25.2939C69.5676 25.269 69.5177 25.2442 69.4678 25.1944Z" fill="#0B3E6A"/>
<path fill-rule="evenodd" clip-rule="evenodd" d="M65.0775 26.7609L68.6945 26.8604C68.5449 26.8355 68.3952 26.7609 68.2455 26.7361C68.47 21.5142 69.2433 16.7649 70.6901 12.3139L70.6652 10.5484L70.3159 5.3515C70.291 5.37637 70.2411 5.4261 70.2162 5.45096L70.6402 10.9214L70.5903 11.0209L70.1164 5.57529C70.0914 5.62503 70.0415 5.64989 70.0166 5.69962L70.5404 11.0955L70.4905 11.195L69.9168 5.82395C69.8669 5.87368 69.842 5.92341 69.7921 5.97315L70.4157 11.3193L70.3409 11.4436L69.6674 6.14721C69.6175 6.19694 69.5925 6.24667 69.5426 6.2964L70.291 11.5679L70.2162 11.6923L69.4179 6.47046C69.368 6.52019 69.3431 6.59479 69.2932 6.64452L70.1413 11.8166L70.0914 11.9409L69.1934 6.81858C65.5265 12.0653 65.0027 19.2266 65.0775 26.7609ZM70.6652 9.47922V8.13647L70.5155 5.12771C70.4905 5.15258 70.4656 5.20231 70.4157 5.22717L70.6652 9.47922ZM70.6402 6.19694V4.97852C70.6153 5.00338 70.6153 5.00338 70.5903 5.02825L70.6402 6.19694ZM68.919 7.29103C68.9689 7.21643 68.9939 7.11697 69.0437 7.04237L69.9917 12.0653L69.9168 12.2145L68.919 7.29103ZM68.6696 7.83808C68.7195 7.73861 68.7444 7.63915 68.7943 7.53969C69.1435 9.15596 69.4928 10.7722 69.842 12.3636L69.7671 12.5377C69.393 10.996 69.0188 9.40462 68.6696 7.83808ZM68.3952 8.43486C68.4451 8.33539 68.47 8.23593 68.5199 8.13647C68.8941 9.65328 69.2683 11.195 69.6674 12.7118L69.5676 12.8858C69.1934 11.4187 68.7943 9.9268 68.3952 8.43486ZM68.1457 9.08137C68.1956 8.95704 68.2206 8.85757 68.2705 8.75811C68.6696 10.2003 69.0936 11.6425 69.4928 13.1096L69.393 13.3085C68.9689 11.8912 68.5698 10.4738 68.1457 9.08137ZM67.8963 9.77761C67.9462 9.65328 67.9711 9.55382 68.021 9.42949C68.4451 10.7722 68.8691 12.1399 69.2932 13.4826L69.1934 13.6815C68.7694 12.3885 68.3204 11.0706 67.8963 9.77761ZM67.6468 10.4987C67.6967 10.3744 67.7217 10.2501 67.7716 10.1257C68.2206 11.369 68.6696 12.6372 69.1186 13.9053L69.0188 14.1291C68.5449 12.9107 68.0959 11.7171 67.6468 10.4987ZM67.3974 11.2696C67.4473 11.1452 67.4722 11.0209 67.5221 10.8966C67.9711 12.0404 68.4451 13.2091 68.8941 14.3778L68.7943 14.6264C68.3204 13.4826 67.8713 12.3885 67.3974 11.2696ZM67.1729 12.0901C67.2228 11.9658 67.2477 11.8166 67.2976 11.6923C67.7716 12.7366 68.2206 13.8059 68.6945 14.8502L68.5947 15.0989C68.0958 14.0794 67.6468 13.0848 67.1729 12.0901ZM66.9484 12.9107C66.9733 12.7615 67.0232 12.6123 67.0482 12.488C67.5221 13.4329 67.9961 14.3778 68.4451 15.3475L68.3453 15.6211C67.8963 14.701 67.4223 13.8059 66.9484 12.9107ZM66.7488 13.781C66.7738 13.6318 66.8237 13.5075 66.8486 13.3583C67.3226 14.2037 67.7716 15.0491 68.2455 15.8946L68.1457 16.1681C67.6718 15.3724 67.2228 14.5767 66.7488 13.781ZM66.5742 14.6513C66.5992 14.5021 66.6241 14.3529 66.6491 14.2037C67.0981 14.9497 67.5471 15.6957 68.021 16.4416L67.9212 16.74C67.4722 16.0438 67.0232 15.3475 66.5742 14.6513ZM66.3996 15.5216C66.4246 15.3724 66.4495 15.2232 66.4744 15.074C66.9234 15.7205 67.3475 16.367 67.7965 17.0135L67.6967 17.3119C67.2727 16.7152 66.8486 16.1184 66.3996 15.5216ZM66.2749 16.4168C66.2998 16.2676 66.3248 16.1184 66.3497 15.9692C66.7738 16.5162 67.1978 17.0633 67.597 17.6352L67.4972 17.9584C67.0731 17.4363 66.674 16.9389 66.2749 16.4168ZM66.1252 17.3119C66.1502 17.1627 66.1751 17.0135 66.1751 16.8643C66.5742 17.3368 66.9733 17.7844 67.3725 18.2568L67.2727 18.5801C66.8985 18.1574 66.5243 17.7346 66.1252 17.3119ZM66.0254 18.2071C66.0504 18.0579 66.0504 17.9087 66.0753 17.7595C66.4495 18.1325 66.7987 18.5304 67.1729 18.9033L67.0731 19.2266C66.7239 18.9033 66.3747 18.5552 66.0254 18.2071ZM65.9257 19.0774C65.9506 18.9282 65.9506 18.779 65.9755 18.6298C66.2998 18.9531 66.6491 19.2515 66.9733 19.5747L66.8736 19.9228C66.5742 19.6493 66.2499 19.3509 65.9257 19.0774ZM65.8508 19.9477C65.8758 19.7985 65.8758 19.6493 65.9007 19.525C66.2001 19.7736 66.4994 20.0223 66.7987 20.271C66.7738 20.3953 66.7488 20.4947 66.6989 20.6191C66.4246 20.3953 66.1252 20.1715 65.8508 19.9477ZM65.776 20.818C65.776 20.6688 65.8009 20.5445 65.8009 20.3953C66.0753 20.5942 66.3248 20.7683 66.5992 20.9672L66.5243 21.3153C66.2749 21.1413 66.0254 20.9672 65.776 20.818ZM65.7261 21.6634C65.7261 21.5142 65.751 21.3899 65.751 21.2407C65.9755 21.3899 66.2001 21.5142 66.4246 21.6634C66.3996 21.7878 66.3747 21.9121 66.3497 22.0116C66.1502 21.8872 65.9506 21.7878 65.7261 21.6634ZM65.7012 22.484C65.7012 22.3597 65.7012 22.2105 65.7261 22.0613L66.2749 22.3597C66.2499 22.484 66.225 22.6083 66.2001 22.7078L65.7012 22.484ZM65.6762 23.3046C65.6762 23.1802 65.6762 23.0311 65.6762 22.9067L66.1003 23.1057L66.0504 23.4538L65.6762 23.3046ZM65.6762 24.1003C65.6762 23.976 65.6762 23.8268 65.6762 23.7024L65.9755 23.8268L65.9007 24.1997L65.6762 24.1003ZM65.6762 24.8711C65.6762 24.7468 65.6762 24.6225 65.6762 24.4981L65.8508 24.5479L65.8009 24.896L65.6762 24.8711ZM65.7012 25.4928V25.2441H65.751L65.7012 25.4928Z" fill="#0B3E6A"/>
<path fill-rule="evenodd" clip-rule="evenodd" d="M68.3204 35.4888C68.3703 35.4888 68.4452 35.5136 68.4951 35.5136C68.4951 35.5136 68.4951 35.5136 68.4951 35.5385C68.4202 35.5136 68.3703 35.4888 68.3204 35.4888ZM75.4047 30.5902C70.8897 30.6648 66.3747 30.7891 61.9096 30.9135C64.3542 30.5156 73.035 30.4161 75.4047 30.5902ZM62.3586 30.4907C66.8238 30.068 71.1891 29.9437 75.4297 30.267C75.7041 30.2421 75.7041 30.4907 75.7041 30.7145C75.6791 31.2865 75.5544 33.4249 75.4546 34.9169C75.4047 34.9417 75.3299 34.9915 75.28 35.0163C75.2551 35.3147 75.2301 35.6131 75.2301 35.8866C75.2052 36.1353 75.2052 36.3591 75.1802 36.6077C75.1304 36.6575 75.0805 36.6823 75.0056 36.6823C75.0306 36.4337 75.0306 36.185 75.0555 35.9364C75.0805 35.6628 75.0805 35.3893 75.1054 35.0909C75.0555 35.1158 74.9807 35.1406 74.9308 35.1904C74.9058 35.439 74.9058 35.7126 74.8809 35.9612C74.856 36.2099 74.856 36.4585 74.831 36.7072L74.6564 36.6823C74.6813 36.4585 74.6813 36.2347 74.7063 36.011C74.7312 35.7623 74.7312 35.5385 74.7562 35.2898C74.7063 35.3147 74.6315 35.3396 74.5816 35.3644C74.5566 35.5882 74.5566 35.812 74.5317 36.0358C74.5067 36.2347 74.5067 36.4585 74.4818 36.6575L74.3072 36.6326C74.3072 36.4337 74.3321 36.2596 74.3321 36.0607C74.3571 35.8618 74.3571 35.638 74.382 35.439C74.3321 35.4639 74.2573 35.4888 74.2074 35.4888C74.1825 35.6877 74.1825 35.8866 74.1575 36.0607C74.1575 36.2347 74.1326 36.4088 74.1326 36.5829L73.9579 36.558C73.9579 36.3839 73.9829 36.2347 73.9829 36.0607C73.9829 35.8866 74.0078 35.6877 74.0078 35.5136C73.9579 35.5385 73.8831 35.5385 73.8332 35.5634C73.8332 35.7374 73.8083 35.9115 73.8083 36.0607C73.8083 36.2099 73.7833 36.3591 73.7833 36.5083L73.6087 36.4834C73.6087 36.3342 73.6337 36.2099 73.6337 36.0607C73.6337 35.9115 73.6586 35.7374 73.6586 35.5882C73.6087 35.6131 73.5339 35.6131 73.484 35.638C73.484 35.7872 73.4591 35.9364 73.4591 36.0856C73.4591 36.2099 73.4341 36.3342 73.4341 36.4585L73.2595 36.4337L73.2844 36.0856C73.2844 35.9364 73.3094 35.812 73.3094 35.6628C73.2595 35.6628 73.1847 35.6877 73.1348 35.6877C73.1348 35.812 73.1098 35.9364 73.1098 36.0607C73.1098 36.1601 73.0849 36.2845 73.0849 36.3839L72.9103 36.3591C72.9103 36.2596 72.9352 36.1601 72.9352 36.0607C72.9352 35.9364 72.9602 35.812 72.9602 35.7126C72.9103 35.7126 72.8354 35.7126 72.7855 35.7374C72.7855 35.8618 72.7606 35.9612 72.7606 36.0856C72.7606 36.185 72.7606 36.2596 72.7357 36.3591L72.561 36.3342C72.561 36.2596 72.561 36.1601 72.586 36.0856C72.586 35.9861 72.6109 35.8866 72.6109 35.7623C72.561 35.7623 72.4862 35.7623 72.4363 35.7623C72.4363 35.8618 72.4114 35.9612 72.4114 36.0607C72.4114 36.1353 72.4114 36.2099 72.3864 36.2845L72.2118 36.2596C72.2118 36.185 72.2118 36.1104 72.2368 36.0358C72.2368 35.9364 72.2368 35.8618 72.2617 35.7623C72.2118 35.7623 72.137 35.7623 72.0871 35.7623C72.0871 35.8369 72.0871 35.9364 72.0621 36.011C72.0621 36.0855 72.0621 36.1353 72.0372 36.2099L71.8626 36.185C71.8626 36.1353 71.8626 36.0607 71.8626 36.011C71.8626 35.9364 71.8626 35.8369 71.8875 35.7623C71.8376 35.7623 71.7628 35.7623 71.7129 35.7623C71.7129 35.8369 71.7129 35.9115 71.688 35.9861C71.688 36.0358 71.688 36.0855 71.688 36.1601L71.5134 36.1353C71.5134 36.0855 71.5134 36.0358 71.5134 35.9861C71.5134 35.9115 71.5134 35.8369 71.5383 35.7623C71.4884 35.7623 71.4136 35.7623 71.3637 35.7623C71.3637 35.8369 71.3637 35.8866 71.3387 35.9612V36.1104L71.1641 36.0856C71.1641 36.0358 71.1641 35.9861 71.1641 35.9612C71.1641 35.8866 71.1641 35.8369 71.1641 35.7623C71.1142 35.7623 71.0394 35.7623 70.9895 35.7623C70.9895 35.812 70.9895 35.8866 70.9895 35.9364C70.9895 35.9861 70.9895 36.011 70.9895 36.0607L70.8149 36.0358C70.8149 35.9861 70.8149 35.9612 70.8149 35.9115C70.8149 35.8618 70.8149 35.812 70.8149 35.7374C70.765 35.7374 70.6902 35.7374 70.6403 35.7374C70.6403 35.7872 70.6403 35.8369 70.6403 35.8866V35.9861L70.4657 35.9612C70.4657 35.9364 70.4657 35.8866 70.4657 35.8618C70.4657 35.812 70.4657 35.7623 70.4657 35.7126C70.4158 35.7126 70.341 35.7126 70.2911 35.6877C70.2911 35.7374 70.2911 35.7872 70.2911 35.812C70.2911 35.8369 70.2911 35.8866 70.2911 35.9115L70.1165 35.8866C70.1165 35.8618 70.1165 35.812 70.1165 35.7872C70.1165 35.7374 70.1165 35.7126 70.1165 35.6628C70.0666 35.6628 69.9917 35.638 69.9418 35.638C69.9418 35.6877 69.9418 35.7126 69.9418 35.7623C69.9418 35.7872 69.9418 35.8369 69.9418 35.8618L69.7672 35.8369C69.7672 35.812 69.7672 35.7872 69.7672 35.7374C69.7672 35.7126 69.7672 35.6628 69.7672 35.638C69.7173 35.638 69.6425 35.6131 69.5926 35.6131C69.5926 35.638 69.5926 35.6628 69.5926 35.7126C69.5926 35.7374 69.5926 35.7623 69.5926 35.812C67.0981 35.3396 64.7035 34.7428 62.5831 33.8725C62.0344 33.6487 61.9845 33.4746 61.8348 32.8779C61.6352 32.1319 61.6103 31.4356 61.7101 30.7643C61.8348 30.5405 62.1591 30.5156 62.3586 30.4907ZM69.3432 35.638C69.3931 35.638 69.4679 35.6628 69.5178 35.6628C69.5178 35.6877 69.5178 35.7126 69.5178 35.7374C69.5178 35.7623 69.5178 35.7872 69.5178 35.812C69.4679 35.7872 69.3931 35.7872 69.3432 35.7623C69.3432 35.7374 69.3432 35.7126 69.3432 35.6877C69.3432 35.6877 69.3432 35.6628 69.3432 35.638ZM68.9939 35.5882C69.0438 35.5882 69.1187 35.6131 69.1686 35.6131C69.1686 35.638 69.1686 35.6628 69.1686 35.6628C69.1686 35.6877 69.1686 35.7126 69.1686 35.7126C69.1187 35.6877 69.0438 35.6877 68.9939 35.6628C68.9939 35.638 68.9939 35.638 68.9939 35.6131C68.9939 35.6131 68.9939 35.6131 68.9939 35.5882ZM68.6447 35.5385C68.6946 35.5385 68.7694 35.5634 68.8193 35.5634C68.8193 35.5634 68.8193 35.5882 68.8193 35.6131V35.638C68.7694 35.6131 68.6946 35.6131 68.6447 35.5882V35.5634V35.5385ZM62.209 31.56H62.2589C62.2838 31.56 62.3088 31.5351 62.3088 31.5351V31.3113C62.3088 31.2865 62.2838 31.2616 62.2589 31.2616H62.209C62.184 31.2616 62.1591 31.2865 62.1591 31.2865V31.5102C62.1591 31.5351 62.184 31.56 62.209 31.56ZM68.3953 32.2562L68.6697 32.2811C68.7694 32.2811 68.8193 32.2065 68.8193 32.1319L68.7944 31.9578C68.7944 31.8584 68.7196 31.7838 68.6198 31.7838L68.3454 31.7589C68.2456 31.7589 68.1957 31.8335 68.1957 31.9081L68.2207 32.0822C68.2207 32.1816 68.2955 32.2562 68.3953 32.2562Z" fill="#0B3E6A"/>
<path fill-rule="evenodd" clip-rule="evenodd" d="M76.3527 34.3947C76.4026 34.3947 76.4525 34.3947 76.5024 34.3947C76.4525 34.4195 76.4026 34.4195 76.3527 34.3947ZM75.8288 34.3947L76.652 34.4444V34.4195C76.7019 34.4195 76.7518 34.4195 76.8017 34.4195V34.4444H76.9514C76.9514 34.4195 76.9514 34.4195 76.9514 34.3947C77.0012 34.3947 77.0511 34.3947 77.101 34.3947C77.101 34.4195 77.101 34.4444 77.101 34.4444H77.2507C77.2507 34.4195 77.2507 34.3947 77.2507 34.3698C77.3006 34.3698 77.3505 34.3698 77.4004 34.3698C77.4004 34.3947 77.4004 34.4195 77.4004 34.4444V34.4693H77.55V34.4444C77.55 34.4195 77.55 34.3947 77.55 34.3698C77.5999 34.3698 77.6498 34.3698 77.6997 34.3698C77.6997 34.3947 77.6997 34.4444 77.6997 34.4693V34.4941H77.8494V34.4693C77.8494 34.4444 77.8494 34.3947 77.8494 34.3698C77.8993 34.3698 77.9491 34.3698 77.999 34.3698C77.999 34.4195 77.999 34.4444 77.999 34.4941V34.519H78.1487V34.4693C78.1487 34.4195 78.1487 34.3947 78.1487 34.345C78.1986 34.345 78.2485 34.345 78.2984 34.345C78.2984 34.3947 78.2984 34.4444 78.2984 34.4693C78.2984 34.4941 78.2984 34.4941 78.2984 34.519H78.448V34.4444C78.448 34.3947 78.448 34.3449 78.448 34.2952C78.4979 34.2952 78.5478 34.2952 78.5977 34.2704C78.5977 34.3201 78.5977 34.3698 78.5977 34.4195C78.5977 34.4444 78.5977 34.4693 78.5977 34.4941H78.7474C78.7474 34.4693 78.7474 34.4444 78.7474 34.3947C78.7474 34.345 78.7474 34.2952 78.7474 34.2206C78.7973 34.2206 78.8472 34.2206 78.897 34.1958C78.897 34.2455 78.897 34.3201 78.897 34.3698C78.897 34.3947 78.897 34.4444 78.897 34.4693H79.0467V34.345C79.0467 34.2704 79.0467 34.2206 79.0467 34.146C79.0966 34.146 79.1465 34.1212 79.1964 34.1212C79.1964 34.1958 79.1964 34.2455 79.1714 34.3201C79.1714 34.3698 79.1714 34.4195 79.1714 34.4693H79.3211C79.3211 34.4195 79.3211 34.3698 79.3211 34.3201C79.3211 34.2455 79.3211 34.1709 79.3461 34.0963C79.3959 34.0963 79.4458 34.0714 79.4957 34.0714C79.4957 34.146 79.4957 34.2206 79.4708 34.2952C79.4708 34.3449 79.4708 34.4195 79.4708 34.4693H79.6204C79.6204 34.3947 79.6204 34.345 79.6204 34.2704C79.6204 34.1958 79.6204 34.0963 79.6454 34.0217C79.6953 34.0217 79.7452 33.9968 79.7951 33.9968C79.7951 34.0963 79.7951 34.1709 79.7701 34.2455C79.7701 34.3201 79.7701 34.3947 79.7452 34.4693C79.7951 34.4693 79.8449 34.4693 79.8948 34.4693C79.8948 34.3947 79.8948 34.2952 79.9198 34.2206C79.9198 34.1212 79.9198 34.0466 79.9447 33.9471C79.9946 33.9471 80.0445 33.9222 80.0944 33.9222C80.0944 34.0217 80.0694 34.1212 80.0694 34.2206C80.0694 34.3201 80.0694 34.3947 80.0445 34.4941C80.0944 34.4941 80.1443 34.4941 80.1942 34.4941C80.1942 34.3947 80.1942 34.2952 80.2191 34.1958C80.2191 34.0963 80.2441 33.9968 80.2441 33.8725C80.2939 33.8476 80.3438 33.8476 80.4187 33.8228C80.4187 33.9471 80.3937 34.0466 80.3937 34.1709C80.3937 34.2704 80.3688 34.3947 80.3688 34.4941C80.4187 34.4941 80.4686 34.4941 80.5185 34.4941C80.5185 34.3698 80.5434 34.2704 80.5434 34.146C80.5434 34.0217 80.5683 33.8974 80.5683 33.7979C80.6182 33.773 80.6681 33.773 80.743 33.7482C80.743 33.8725 80.718 33.9968 80.718 34.146C80.718 34.2704 80.6931 34.3947 80.6931 34.519C81.1421 34.5439 81.5911 34.5439 82.0401 34.5439C82.065 34.5439 82.1149 34.5439 82.1399 34.5439C82.1648 34.2952 82.1648 34.0466 82.1897 33.8228C82.2147 33.5741 82.2147 33.3255 82.2396 33.1017C82.2895 33.0768 82.3394 33.0271 82.4143 33.0022C82.3893 33.2509 82.3893 33.5244 82.3644 33.773C82.3394 34.0217 82.3394 34.2704 82.3145 34.519C82.3644 34.4941 82.4392 34.4693 82.4891 34.4444C82.514 34.1958 82.514 33.9471 82.539 33.6984C82.5639 33.4249 82.5639 33.1514 82.5889 32.8779L82.7385 32.7784C82.7635 31.7589 82.7635 30.5405 82.7635 30.0929V30.068C82.7635 30.068 82.7635 30.068 82.7635 30.0432C82.7635 29.8691 82.6637 29.7945 82.4392 29.8194C79.7951 29.7696 76.9514 29.7199 74.3322 29.7945L71.239 29.9437C71.6381 29.9686 75.1304 30.1426 75.5295 30.1675C75.8039 30.1426 75.8039 30.3913 75.8039 30.6151C75.9785 31.2367 75.9037 33.0271 75.8288 34.3947ZM82.1648 33.4498C82.2147 33.4249 82.2646 33.4001 82.3394 33.3503C82.3145 33.5741 82.3145 33.7979 82.2895 34.0217C82.2646 34.2455 82.2646 34.4693 82.2396 34.6931C82.1897 34.6931 82.1399 34.6931 82.09 34.6931C82.1149 34.4941 82.1149 34.2704 82.1399 34.0714C82.1399 33.8725 82.1399 33.6736 82.1648 33.4498ZM81.8156 33.6238C81.8655 33.599 81.9154 33.5741 81.9902 33.5492C81.9652 33.7482 81.9652 33.9471 81.9403 34.146C81.9403 34.345 81.9154 34.5439 81.9154 34.7428C81.8655 34.7428 81.8156 34.7428 81.7657 34.7428C81.7657 34.5687 81.7906 34.3698 81.7906 34.1958C81.8156 33.9968 81.8156 33.8228 81.8156 33.6238ZM81.4913 33.773C81.5412 33.7482 81.5911 33.7233 81.6659 33.6984C81.6659 33.8725 81.641 34.0466 81.641 34.1958C81.641 34.3698 81.616 34.5439 81.616 34.6931C81.5661 34.6931 81.5162 34.6931 81.4664 34.6931C81.4664 34.5439 81.4913 34.3698 81.4913 34.2206C81.4664 34.0963 81.4913 33.9222 81.4913 33.773ZM81.167 33.8974C81.2169 33.8725 81.2668 33.8476 81.3416 33.8476C81.3416 33.9968 81.3167 34.146 81.3167 34.2952C81.3167 34.4444 81.2917 34.5936 81.2917 34.7428C81.2419 34.7428 81.192 34.7428 81.1421 34.7428C81.1421 34.5936 81.167 34.4693 81.167 34.3201C81.1421 34.1709 81.167 34.0217 81.167 33.8974ZM78.6476 31.0875L79.1465 31.0627C79.1964 31.0627 79.2463 31.0129 79.2463 30.9383L79.2213 30.814C79.2213 30.7643 79.1465 30.7145 79.0966 30.7145L78.5977 30.7394C78.5478 30.7394 78.4979 30.7891 78.4979 30.8637L78.5229 30.9881C78.5478 31.0378 78.5977 31.0875 78.6476 31.0875Z" fill="#0B3E6A"/>
<path fill-rule="evenodd" clip-rule="evenodd" d="M63.8055 28.8247C63.7556 28.775 63.7556 28.7501 63.7805 28.7004C64.03 28.3772 65.8759 28.3026 66.7989 28.3026C69.5428 28.3026 72.4364 28.2777 74.6814 28.7999C74.9558 28.8496 74.6315 28.9988 74.5317 29.0485C74.4818 29.0485 74.5068 29.0983 74.4818 29.0983C72.4613 29.1231 70.3909 29.0983 68.3454 29.1231C68.2955 29.1231 68.2706 29.148 68.2207 29.148C67.0982 29.1729 66.0256 29.2226 64.9031 29.2475C64.8532 29.2475 64.8033 29.148 64.7284 29.148C64.6037 29.0983 63.9053 28.8993 63.8055 28.8247Z" fill="#0B3E6A"/>
<path fill-rule="evenodd" clip-rule="evenodd" d="M64.7283 28.9739L64.7034 30.1924C64.9778 30.1675 65.2272 30.1426 65.5016 30.1426L65.5764 28.8496L64.7283 28.9739Z" fill="#0B3E6A"/>
<path fill-rule="evenodd" clip-rule="evenodd" d="M66.5244 28.974L66.5992 30.0681H66.7988L66.7739 28.974H66.5244Z" fill="#0B3E6A"/>
<path fill-rule="evenodd" clip-rule="evenodd" d="M68.1707 28.9491L68.2205 29.9934H68.47V28.9242L68.1707 28.9491Z" fill="#0B3E6A"/>
<path fill-rule="evenodd" clip-rule="evenodd" d="M70.9646 28.9242L71.0394 29.9686H71.3388L71.3138 28.9242H70.9646Z" fill="#0B3E6A"/>
<path fill-rule="evenodd" clip-rule="evenodd" d="M72.0122 28.9491V29.9437H72.3614L72.3365 28.9491H72.0122Z" fill="#0B3E6A"/>
<path fill-rule="evenodd" clip-rule="evenodd" d="M74.407 28.9989V29.0735L74.5068 29.8443H74.6564L74.5317 28.974L74.407 28.9989Z" fill="#0B3E6A"/>
<path fill-rule="evenodd" clip-rule="evenodd" d="M65.1274 26.3382L65.6263 28.3275L65.7261 28.3026L65.2272 26.3134L65.1274 26.3382Z" fill="#0B3E6A"/>
<path d="M63.955 44.3907C64.0298 44.341 64.0797 44.2913 64.1545 44.2415C64.1795 44.2167 64.2294 44.1918 64.2543 44.1669C64.3042 44.1172 64.3541 44.1172 64.379 44.0923C64.379 44.0923 64.3541 44.0923 64.3042 44.0675C64.2793 44.0675 64.2543 44.0426 64.2044 44.0426H64.1545H64.1296H64.0548C63.6806 44.0426 63.2565 44.1421 62.9073 44.3907C62.7826 44.4902 62.6329 44.714 62.5331 45.0124C62.4333 45.3108 62.4084 45.6837 62.5331 46.0816C62.7077 46.7032 62.6828 47.1508 62.608 47.4492C62.5581 47.7476 62.4583 47.9217 62.4333 47.9217C62.4333 47.9217 62.608 47.9217 62.8075 47.8719C63.0071 47.7973 63.2316 47.673 63.4062 47.3746C63.4561 47.3 63.5309 47.1508 63.5808 46.8773C63.6307 46.6038 63.6556 46.2059 63.6058 45.6589C63.5808 45.3356 63.5808 45.087 63.6556 44.888C63.7055 44.6642 63.8303 44.5151 63.955 44.3907Z" fill="#0B3E6A"/>
<path d="M65.6763 44.2167C65.5516 44.0923 65.4518 43.9431 65.352 43.7939C65.2772 43.8437 65.1774 43.8934 65.0776 43.9929C65.0028 44.0675 64.903 44.2415 64.8032 44.5151C64.7035 44.7886 64.6037 45.1118 64.5787 45.5346C64.5538 45.8578 64.479 46.1065 64.3792 46.3303C64.3542 46.3551 64.3542 46.38 64.3293 46.4049L64.3043 46.4297L64.2794 46.4546V46.4795L64.2295 46.6038C64.2046 46.6784 64.1796 46.753 64.1547 46.8276C64.1048 46.9519 64.0549 47.0514 64.005 47.1011C63.9551 47.1508 63.9302 47.2006 63.9302 47.2006C63.9302 47.2006 64.0549 47.2503 64.2046 47.2752C64.2295 47.2752 64.2794 47.2752 64.3043 47.2752C64.3293 47.2752 64.3293 47.2752 64.3542 47.2752H64.4041C64.4291 47.2752 64.454 47.2752 64.479 47.2503C64.6785 47.2006 64.903 47.126 65.1026 47.0016C65.2024 46.9519 65.377 46.8027 65.5266 46.5292C65.6763 46.2557 65.7511 45.8329 65.6763 45.2859C65.6015 44.8134 65.6264 44.4653 65.6763 44.2167Z" fill="#0B3E6A"/>
<path d="M66.3996 46.3801C66.225 46.6784 65.9756 46.8276 65.9756 46.8525C65.9756 46.8525 66.1751 46.9022 66.4745 46.8525C66.7738 46.8028 67.1729 46.6536 67.4723 46.2806C67.5222 46.206 67.6219 46.0817 67.6968 45.8579C67.2727 45.6589 66.9484 45.3606 66.5992 45.087C66.699 45.6341 66.5743 46.0817 66.3996 46.3801Z" fill="#0B3E6A"/>
<path d="M68.944 42.1279C68.969 41.8544 69.0687 41.7052 69.1186 41.6306C69.1186 41.6306 68.969 41.6555 68.7943 41.7798C68.6696 41.8544 68.5449 41.9539 68.4202 42.1031C68.5948 42.0782 68.7694 42.0782 68.944 42.1279Z" fill="#0B3E6A"/>
<path d="M68.3205 45.7584C68.2706 45.8579 68.2207 45.9076 68.1958 45.9076C68.1958 45.9076 68.3954 45.9076 68.6698 45.8082C68.8943 45.7087 69.1686 45.5595 69.3682 45.2611C69.0689 45.5098 68.6947 45.6838 68.3205 45.7584Z" fill="#0B3E6A"/>
<path d="M70.8898 41.9787C70.1913 40.9344 70.4657 40.4371 70.5655 40.3127C70.5655 40.3127 70.4158 40.3625 70.2412 40.4868C70.0666 40.6111 69.867 40.8101 69.7423 41.0836C69.6924 41.183 69.6675 41.4068 69.7174 41.7052C69.7423 41.9787 69.8172 42.302 69.9918 42.6253C70.4657 42.5258 70.9397 42.7496 71.3388 43.0728C71.3138 42.7993 71.1891 42.4263 70.8898 41.9787Z" fill="#0B3E6A"/>
<path d="M72.2867 43.048C72.5112 42.8988 72.7607 42.6502 72.8854 42.2275C72.9103 42.1529 72.9602 41.9291 72.9103 41.6556C72.8605 41.382 72.7357 41.009 72.4364 40.5366C72.0872 40.0144 72.0373 39.5917 72.0872 39.2933C72.1371 38.9949 72.3117 38.8208 72.4115 38.7711C72.4115 38.7711 72.2368 38.8209 71.9874 38.9452C71.738 39.0944 71.4636 39.3182 71.2889 39.6663C71.264 39.716 71.2391 39.8155 71.2141 39.9398C71.2141 39.9895 71.2141 40.0641 71.2141 40.1387C71.2141 40.2133 71.2391 40.2631 71.2391 40.3377C71.2889 40.6361 71.4137 40.9842 71.6382 41.3074C71.9874 41.8296 72.0622 42.3021 72.0373 42.6502C72.0123 42.9983 71.9126 43.1972 71.8876 43.2221C71.8627 43.2221 72.0622 43.1972 72.2867 43.048Z" fill="#0B3E6A"/>
<path d="M74.4071 38.1246C74.6067 37.8759 74.8811 37.7765 74.9809 37.7516C74.9809 37.7516 74.7563 37.7019 74.457 37.7516C74.1327 37.7765 73.7336 37.9257 73.4093 38.1992C73.2846 38.2986 73.1599 38.5473 73.0851 38.8457C73.0102 39.1441 73.0352 39.5419 73.1848 39.9149C73.3096 40.2133 73.3844 40.462 73.4093 40.6858C73.4592 40.9096 73.4592 41.1085 73.4592 41.2577C73.4592 41.5561 73.3844 41.7301 73.3594 41.755C73.3594 41.755 73.5091 41.7301 73.7087 41.6555C73.8084 41.6058 73.8833 41.5561 73.9831 41.4566C74.0828 41.3571 74.1577 41.2577 74.2076 41.0836C74.2325 41.009 74.2824 40.8598 74.3073 40.5863C74.3323 40.3128 74.3323 39.9149 74.2076 39.3679C74.1327 39.0695 74.1327 38.796 74.1826 38.597C74.2325 38.423 74.3073 38.2738 74.4071 38.1246Z" fill="#0B3E6A"/>
<path d="M75.23 40.9344C75.3049 40.8846 75.4046 40.8349 75.5044 40.7354C75.5543 40.6857 75.6541 40.5863 75.7788 40.3625C75.8536 40.2381 75.9285 40.1138 76.0282 39.9397C76.128 39.7657 76.2278 39.5668 76.3276 39.2932C76.4523 38.9948 76.602 38.7959 76.7516 38.6467C76.9263 38.4975 77.1009 38.4229 77.2505 38.3732C77.4252 38.3483 77.5748 38.3483 77.6995 38.3732C77.8243 38.3981 77.924 38.4478 77.9739 38.4727C77.9739 38.4727 77.8243 38.2986 77.5249 38.0997C77.3753 38.0002 77.1757 37.9256 76.9761 37.8759C76.7516 37.8262 76.5271 37.8013 76.2777 37.8262H76.2528C76.0781 37.851 75.8037 37.9754 75.5543 38.1991C75.3049 38.4478 75.1552 38.7711 75.1053 39.1938C75.0804 39.517 75.0305 39.7657 74.9806 39.9895C74.9307 40.2133 74.8808 40.3873 74.8309 40.5117C74.7311 40.7852 74.6313 40.9095 74.6313 40.9095C74.6313 40.9095 74.7561 40.9592 74.9307 40.9592C75.0804 40.9841 75.1552 40.9592 75.23 40.9344Z" fill="#0B3E6A"/>
<path d="M79.77 40.6111C79.7201 40.4371 79.6702 40.2133 79.5455 40.0144C79.4208 39.8154 79.2711 39.6165 79.0715 39.4673C78.9219 39.3679 78.6225 39.2435 78.2733 39.2435C78.0987 39.2435 77.9241 39.2933 77.7495 39.3679C77.5749 39.4425 77.4252 39.5419 77.2755 39.6911C77.051 39.9149 76.8515 40.089 76.6769 40.2382C76.5022 40.3874 76.3775 40.4868 76.2528 40.5614C76.153 40.636 76.0532 40.7106 76.0033 40.7355C75.9535 40.7603 75.9285 40.7852 75.9036 40.7852C75.9036 40.7852 75.9535 40.8847 76.0532 40.9841C76.1031 41.0339 76.153 41.0587 76.2029 41.0587C76.2777 41.0836 76.3526 41.0587 76.4773 41.0339C76.5272 41.0339 76.6769 40.9841 76.9263 40.9095L77.4002 40.7603C77.5998 40.7106 77.8243 40.636 78.0738 40.5117C78.3731 40.3873 78.6225 40.3376 78.847 40.3625C79.0715 40.3874 79.2462 40.4619 79.3958 40.5614C79.5455 40.6609 79.6453 40.7852 79.7201 40.9095C79.7949 41.0339 79.8199 41.1333 79.8199 41.2079C79.7949 41.2079 79.8448 40.9593 79.77 40.6111Z" fill="#0B3E6A"/>
<path d="M78.8721 43.0977C78.9968 43.2718 79.0716 43.4707 79.0716 43.6448C79.0716 43.6696 79.0716 43.6945 79.0716 43.7194C79.1464 43.7194 79.2213 43.7442 79.2961 43.7442C79.3211 43.7442 79.3709 43.7691 79.3959 43.7691C79.4707 43.6696 79.5206 43.5453 79.5705 43.3961C79.6453 43.1723 79.6952 42.9237 79.6952 42.675V42.6501C79.6952 42.4761 79.5954 42.128 79.346 41.8793C79.2213 41.755 79.0966 41.6306 78.9219 41.556C78.7473 41.4814 78.5727 41.4317 78.3482 41.4068C78.0239 41.382 77.7495 41.3571 77.55 41.3322C77.3255 41.3074 77.1509 41.2825 77.0262 41.2825C76.9014 41.2825 76.8017 41.2577 76.7268 41.2577C76.6769 41.2577 76.627 41.2328 76.627 41.2328C76.627 41.2328 76.5771 41.3323 76.5771 41.4317C76.5771 41.4814 76.5771 41.5312 76.6021 41.556C76.627 41.6058 76.7019 41.6555 76.8017 41.7052C76.8515 41.7301 76.9513 41.8047 77.1758 41.929C77.2756 42.0036 77.4253 42.0782 77.5999 42.1777C77.7745 42.2771 77.974 42.4015 78.2235 42.5258C78.5478 42.7496 78.7473 42.9237 78.8721 43.0977Z" fill="#0B3E6A"/>
<path d="M74.8808 44.913C74.8808 45.5346 74.7062 45.9325 74.5316 46.1562C74.3321 46.38 74.1075 46.4298 74.0327 46.4546C74.0327 46.4546 74.2073 46.5044 74.4568 46.5292C74.7062 46.5292 75.0555 46.5044 75.4047 46.2806C75.5294 46.206 75.704 46.0071 75.8537 45.7335C75.8786 45.7087 75.8786 45.6589 75.9036 45.6341C75.5543 45.3605 75.2301 45.087 74.8808 44.913Z" fill="#0B3E6A"/>
<path d="M73.6087 43.4458C73.6087 43.4458 73.5838 43.4458 73.5838 43.4707C73.5089 43.5204 73.3593 43.6447 73.2096 43.8685C73.0599 44.1172 72.8853 44.4653 72.7856 45.0123C72.6858 45.634 72.4363 45.9821 72.2118 46.1562C71.9873 46.3302 71.7628 46.3551 71.688 46.3551C71.688 46.3551 71.8377 46.4297 72.0871 46.4794C72.3365 46.5291 72.6608 46.554 73.0101 46.4048C73.1348 46.3551 73.3343 46.2059 73.5339 45.9572C73.7085 45.7086 73.8831 45.3853 73.933 44.9875C73.9829 44.6642 74.0577 44.3907 74.1575 44.1669C73.8831 43.9928 73.7584 43.7442 73.6087 43.4458Z" fill="#0B3E6A"/>
<path d="M72.5112 43.7443C72.7357 43.5205 72.9353 43.4459 72.9353 43.4459C72.9353 43.4459 72.8106 43.3464 72.5861 43.2967C72.3616 43.247 72.0872 43.2221 71.713 43.3713C71.6382 43.3961 71.4636 43.4956 71.264 43.7194C71.0644 43.9183 70.8399 44.2664 70.6653 44.7886C70.4658 45.3854 70.1664 45.6838 69.917 45.833C69.6675 45.9822 69.443 45.9573 69.3433 45.9324C69.3433 45.9324 69.4929 46.0319 69.7174 46.1314C69.9669 46.2308 70.2912 46.2806 70.6404 46.206C70.7651 46.1811 70.9896 46.0568 71.2141 45.8579C71.4386 45.6341 71.6382 45.3357 71.7629 44.9378C71.9874 44.341 72.2867 43.9681 72.5112 43.7443Z" fill="#0B3E6A"/>
<path d="M67.3725 45.261C67.597 45.4351 67.9463 45.5843 68.3454 45.5843C68.4951 45.5843 68.7445 45.5097 68.994 45.3605C69.2434 45.1864 69.5178 44.9378 69.6924 44.5648C69.9917 43.9929 70.316 43.6696 70.5655 43.4955C70.8149 43.3215 71.0145 43.2717 71.0394 43.2717C71.0394 43.2717 70.9147 43.1474 70.7151 43.0728C70.5156 42.9734 70.2412 42.9236 69.867 43.0231C69.7922 43.048 69.6176 43.0977 69.3931 43.2717C69.1686 43.4458 68.8942 43.7193 68.5948 44.1918C68.2706 44.714 67.8964 44.9626 67.597 45.0124C67.2977 45.087 67.0483 44.9875 66.9485 44.9378C67.0233 44.9129 67.148 45.087 67.3725 45.261Z" fill="#0B3E6A"/>
<path d="M65.4518 43.421C65.5766 43.6448 65.7761 43.8686 66.0256 44.0427C66.0755 44.0675 66.1253 44.0924 66.1752 44.1172C66.2251 44.1421 66.3 44.167 66.3499 44.167C66.4995 44.1919 66.6492 44.2167 66.8238 44.1918C67.1481 44.167 67.4973 43.9929 67.7966 43.6945C68.0212 43.4707 68.2207 43.2967 68.4203 43.1723C68.6198 43.048 68.7695 42.9486 68.9192 42.8988C69.1936 42.7745 69.3682 42.7496 69.3931 42.7745C69.3931 42.7745 69.3183 42.6502 69.1686 42.5258C69.0938 42.4761 69.0189 42.4015 68.8942 42.3766C68.7944 42.3518 68.6697 42.3269 68.52 42.3518C68.4452 42.3518 68.3205 42.3766 68.071 42.4761C68.0212 42.501 67.9463 42.5258 67.8715 42.5507L67.622 42.6502C67.4474 42.7248 67.2229 42.8242 66.9735 42.9237C66.6741 43.048 66.4247 43.0977 66.2002 43.0729C65.9757 43.048 65.7761 42.9486 65.6265 42.8242C65.4768 42.6999 65.377 42.5507 65.3271 42.4015C65.2772 42.2523 65.2523 42.1528 65.2273 42.0782C65.2273 42.0782 65.2024 42.1528 65.2024 42.2523C65.2024 42.3766 65.2024 42.5507 65.2273 42.7496C65.2273 42.9734 65.3022 43.1972 65.4518 43.421Z" fill="#0B3E6A"/>
<path d="M65.5268 40.8847C65.5517 41.0339 65.6016 41.208 65.7014 41.3571C65.8012 41.5063 65.9259 41.6555 66.0755 41.755C66.2252 41.8545 66.4248 41.9291 66.6243 41.9539C66.9486 42.0037 67.1981 42.0534 67.4226 42.0783C67.6471 42.1031 67.8217 42.1031 67.9464 42.1031C68.0711 42.1031 68.1709 42.0783 68.2208 42.0783C68.2707 42.0783 68.2956 42.0534 68.2956 42.0534C68.2956 42.0534 68.3455 41.9788 68.3954 41.9291C68.4204 41.9042 68.4204 41.8793 68.3954 41.8793C68.3705 41.8545 68.3206 41.8545 68.2208 41.8047C68.1709 41.7799 68.0711 41.7301 67.8716 41.5809C67.8217 41.5561 67.7718 41.5063 67.697 41.4566C67.6471 41.4069 67.5722 41.3323 67.4974 41.2825C67.3477 41.1582 67.1731 40.9842 66.9486 40.8101C66.6992 40.6112 66.5246 40.4122 66.4248 40.2382C66.325 40.0393 66.2751 39.8652 66.2751 39.716C66.2751 39.3927 66.3998 39.169 66.4497 39.0944C66.4497 39.0944 66.2751 39.169 66.0755 39.3927C65.9758 39.4922 65.851 39.6414 65.7513 39.8155C65.6515 39.9895 65.5767 40.2133 65.5268 40.462C65.5268 40.5117 65.5268 40.5614 65.5268 40.636C65.5018 40.7355 65.5018 40.8101 65.5268 40.8847Z" fill="#0B3E6A"/>
<path d="M68.6696 41.3571C68.7195 41.2577 68.7694 41.1333 68.7944 40.9593C68.8193 40.8847 68.8193 40.7106 68.7694 40.4371C68.7195 40.1636 68.5948 39.7906 68.3454 39.2933C68.1957 39.0197 68.1208 38.7711 68.0959 38.5722C68.071 38.3484 68.0959 38.1743 68.1707 38.0251C68.2955 37.7019 68.5699 37.5527 68.6946 37.5029C68.6946 37.5029 68.4451 37.5278 68.1209 37.6521C67.7966 37.7765 67.4473 38.0251 67.2478 38.3981C67.1729 38.5224 67.0981 38.7959 67.1231 39.0943C67.148 39.3927 67.2727 39.7657 67.4972 40.089C67.6968 40.3376 67.8215 40.5863 67.9213 40.7852C68.0211 40.9841 68.071 41.1582 68.1209 41.3074C68.2206 41.5809 68.2456 41.7052 68.2456 41.7052C68.2456 41.7052 68.3703 41.6804 68.4701 41.6058C68.5699 41.5063 68.6197 41.4566 68.6696 41.3571Z" fill="#0B3E6A"/>
<path d="M69.5428 40.5366C69.6176 40.5117 69.6925 40.4868 69.7424 40.4371C69.7923 40.3874 69.8172 40.3128 69.8422 40.2133C69.8671 40.1636 69.8671 40.0393 69.9419 39.8155C69.9669 39.6911 70.0417 39.5419 70.1165 39.3679C70.1914 39.1938 70.2912 38.97 70.3909 38.7214C70.5157 38.423 70.6653 38.2241 70.815 38.0749C70.9896 37.9257 71.1642 37.8511 71.3388 37.8013C71.5134 37.7765 71.6631 37.7765 71.7629 37.8013C71.8876 37.8262 71.9625 37.8511 72.0123 37.8759C72.0123 37.8759 71.8876 37.7267 71.6132 37.5527C71.4636 37.4532 71.2889 37.3786 71.0644 37.3289C70.8399 37.2792 70.5655 37.2543 70.2912 37.2792H70.2662C70.1664 37.304 70.0417 37.3289 69.892 37.4035C69.7424 37.4781 69.6176 37.6024 69.4929 37.7267C69.3682 37.8511 69.2934 38.0251 69.2435 38.1992C69.1936 38.3733 69.1936 38.5722 69.2185 38.7711C69.2684 39.0944 69.2934 39.343 69.2934 39.5668C69.3183 39.7906 69.3183 39.9647 69.3183 40.1139C69.3183 40.3874 69.2435 40.5366 69.2435 40.5614C69.2435 40.5863 69.3931 40.5863 69.5428 40.5366Z" fill="#0B3E6A"/>
<path d="M70.0914 40.4122C70.1164 40.3873 70.1413 40.3625 70.1912 40.3376C70.5654 40.1387 70.8647 39.9398 71.1142 39.5916C71.3137 39.3181 71.5133 39.0446 71.8126 38.8954C72.1868 38.6965 72.6109 38.6219 73.01 38.597C72.985 38.597 72.9601 38.5721 72.9351 38.5721C72.8104 38.5224 72.536 38.5224 72.2367 38.597C71.9374 38.6716 71.5881 38.8457 71.3137 39.144C71.0892 39.3927 70.8897 39.5419 70.7151 39.6911C70.5404 39.8403 70.3908 39.9397 70.291 40.0143C70.0914 40.1884 70.0166 40.263 70.0166 40.263C70.0166 40.263 70.0166 40.2879 70.0415 40.3127C70.0415 40.3376 70.0665 40.3625 70.0914 40.4122Z" fill="#0B3E6A"/>
<path d="M75.255 42.6751C76.2278 41.8794 76.7766 42.128 76.9014 42.2275C76.9014 42.2275 76.8515 42.0783 76.7018 41.9291C76.5771 41.7799 76.3526 41.581 76.0532 41.4815C75.9535 41.4567 75.704 41.4318 75.4296 41.5064C75.1303 41.5561 74.806 41.6805 74.4568 41.9291C73.9329 42.3021 73.459 42.4016 73.1347 42.4016C73.1098 42.4016 73.1098 42.4016 73.0848 42.4016C73.0349 42.5508 72.985 42.7 72.8853 42.8492C73.0349 42.9983 73.2594 43.1724 73.5837 43.247C73.7334 43.2719 74.3819 43.3962 75.255 42.6751Z" fill="#0B3E6A"/>
<path d="M75.1803 44.6892C75.3549 44.7389 76.0284 44.8135 76.8516 44.0427C77.7746 43.1724 78.3233 43.3713 78.4481 43.4459C78.4481 43.4459 78.3732 43.3216 78.2236 43.1724C78.0739 43.0232 77.8494 42.8491 77.55 42.7745C77.4503 42.7496 77.2008 42.7496 76.9264 42.8242C76.652 42.8988 76.3028 43.048 75.9785 43.2967C75.4796 43.6946 75.0057 43.8189 74.6814 43.8189C74.3322 43.8189 74.1326 43.7443 74.1077 43.7194C74.1077 43.7194 74.1576 43.8935 74.3322 44.1173C74.4818 44.3659 74.7562 44.5897 75.1803 44.6892Z" fill="#0B3E6A"/>
<path d="M78.5228 45.2611C78.7223 45.0373 78.9219 44.8632 79.0965 44.7389C79.1713 44.6892 79.2711 44.6394 79.3459 44.5897C79.3958 44.5648 79.4208 44.54 79.4457 44.54C79.4707 44.5151 79.4956 44.5151 79.5206 44.4902C79.7451 44.3908 79.8698 44.3908 79.8947 44.4156C79.8947 44.4156 79.8448 44.3162 79.7451 44.2167C79.7201 44.1918 79.6952 44.167 79.6702 44.1421L79.6453 44.1172L79.5954 44.0924C79.5704 44.0675 79.5455 44.0675 79.5206 44.0427C79.3958 43.9929 79.2711 43.9432 79.1214 43.9183C79.0217 43.8935 78.7722 43.9432 78.4978 44.0427C78.2234 44.1421 77.8992 44.3162 77.5998 44.5897C77.1259 45.0373 76.6769 45.1865 76.3276 45.2113C75.9784 45.2362 75.7539 45.1616 75.7539 45.1616C75.7539 45.1616 75.8287 45.3357 76.0034 45.5346C76.178 45.7335 76.4773 45.9573 76.9263 46.007C77.0261 46.0319 77.2256 46.0319 77.525 45.9324C77.8243 45.8827 78.1735 45.6838 78.5228 45.2611Z" fill="#0B3E6A"/>
<path d="M81.0173 44.9378C81.1919 44.7637 81.3665 44.714 81.4414 44.714C81.4414 44.714 81.3167 44.6394 81.142 44.5896C81.0423 44.5648 80.9425 44.5399 80.8427 44.5399C80.7429 44.5399 80.6182 44.5648 80.4935 44.5896C80.4186 44.6145 80.244 44.7388 80.0445 44.9129C79.8449 45.1118 79.5955 45.3605 79.371 45.6837C79.1964 45.9573 78.9968 46.1313 78.7723 46.2557C78.6725 46.3054 78.5727 46.3551 78.448 46.4049C78.3482 46.4297 78.2485 46.4546 78.1487 46.4546C77.7995 46.5043 77.575 46.4546 77.575 46.4546C77.575 46.4546 77.6498 46.6286 77.8493 46.8027L77.8992 46.8276L77.9242 46.8524L77.9491 46.8773C77.9741 46.9022 78.024 46.927 78.0738 46.9519C78.1487 47.0016 78.2485 47.0514 78.3732 47.1011C78.5727 47.1757 78.8471 47.2503 79.0966 47.2254C79.2213 47.2254 79.4707 47.2006 79.7451 47.0016C80.0195 46.8276 80.269 46.5043 80.4436 45.9821C80.6182 45.4351 80.8178 45.1118 81.0173 44.9378Z" fill="#0B3E6A"/>
<path d="M83.0878 45.0621C83.3123 44.888 83.5368 44.8632 83.6366 44.8632C83.6366 44.8632 83.4869 44.7637 83.2374 44.714C82.988 44.6642 82.6637 44.6394 82.3394 44.7637C82.2147 44.8134 82.0401 44.9626 81.8405 45.1864C81.6659 45.4102 81.4913 45.7335 81.3666 46.1313C81.2169 46.753 80.8926 47.126 80.5933 47.3249C80.294 47.5238 79.9946 47.5487 79.9946 47.5487C79.9946 47.5487 80.1692 47.6979 80.4686 47.7725C80.7679 47.8471 81.167 47.8719 81.5661 47.6979C81.641 47.6481 81.8405 47.5487 82.0152 47.3249C82.1898 47.1011 82.3893 46.753 82.5141 46.2059C82.6138 45.5843 82.8633 45.261 83.0878 45.0621Z" fill="#0B3E6A"/>
<path d="M85.7318 45.0622C85.7318 45.0622 85.5571 44.9876 85.3077 44.9627C85.0582 44.9378 84.734 44.9378 84.4097 45.1119C84.3099 45.1616 84.1353 45.3357 83.9607 45.5843C83.811 45.833 83.6613 46.1563 83.6115 46.579C83.5117 47.2006 83.2622 47.6233 82.9629 47.8471C82.6885 48.0709 82.4141 48.1206 82.3892 48.1455C82.3892 48.1455 82.5887 48.2698 82.8881 48.3196C83.1874 48.3693 83.5865 48.3693 83.9607 48.1206C84.0355 48.0709 84.2101 47.9466 84.3598 47.6979C84.5095 47.4493 84.6591 47.0763 84.734 46.5292C84.7839 45.9076 84.9834 45.5346 85.2079 45.3357C85.4075 45.087 85.632 45.0622 85.7318 45.0622Z" fill="#0B3E6A"/>
<path d="M52.6801 25.7414C53.2289 25.7912 53.5532 25.9901 53.7777 26.2139C54.0022 26.4377 54.077 26.6863 54.1269 26.7858C54.1269 26.7858 54.1269 26.5869 54.102 26.2885C54.077 25.9901 54.0022 25.6171 53.8276 25.2193C53.7527 25.0701 53.6031 24.8463 53.3786 24.6225C53.1541 24.3987 52.8547 24.1998 52.5055 24.1252C51.9567 24.0008 51.6075 23.6279 51.383 23.2797C51.1834 22.9316 51.1086 22.5835 51.1086 22.5835C51.1086 22.5835 51.0338 22.8322 50.9839 23.2051C50.9589 23.5781 50.9839 24.1252 51.2084 24.6722C51.2583 24.7965 51.383 25.0452 51.6075 25.2939C51.832 25.4928 52.1812 25.7166 52.6801 25.7414Z" fill="#0B3E6A"/>
<path d="M51.533 22.6332C51.7575 22.8818 52.0817 23.1056 52.5557 23.1802C53.1045 23.2548 53.4288 23.5035 53.6283 23.7273C53.8279 23.9759 53.9027 24.1997 53.9277 24.3241C53.9277 24.3241 53.9526 24.1251 53.9277 23.8267C53.9027 23.5284 53.8778 23.1305 53.7281 22.7326C53.6782 22.5835 53.5285 22.3597 53.304 22.111C53.0795 21.8872 52.8051 21.6634 52.4559 21.5391C51.9321 21.365 51.5828 20.9672 51.4082 20.6191C51.2336 20.2461 51.1837 19.9228 51.1837 19.8979C51.1837 19.8979 51.084 20.1217 51.0341 20.5196C50.9842 20.8926 50.9842 21.4396 51.1837 21.9867C51.2087 22.111 51.3085 22.3845 51.533 22.6332Z" fill="#0B3E6A"/>
<path d="M53.4782 28.7005C54.027 28.6508 54.4012 28.8248 54.6506 29.0238C54.9001 29.2227 55.0248 29.4465 55.0747 29.5459C55.0747 29.5459 55.0498 29.347 54.9749 29.0486C54.9001 28.7502 54.7754 28.4021 54.5259 28.0291C54.4511 27.9048 54.2515 27.7059 54.0021 27.5318C53.7526 27.3578 53.4283 27.1837 53.0542 27.1588C52.5054 27.1091 52.0813 26.7858 51.8319 26.4875C51.5575 26.1642 51.4577 25.8658 51.4577 25.8409C51.4577 25.8409 51.4078 26.0896 51.4328 26.4626C51.4577 26.8356 51.5824 27.3578 51.8818 27.8799C51.9566 27.9794 52.1063 28.2281 52.3807 28.427C52.6301 28.5762 53.0043 28.7254 53.4782 28.7005Z" fill="#0B3E6A"/>
<path d="M54.5261 31.2617C55.05 31.1374 55.4491 31.2368 55.7235 31.386C55.9979 31.5352 56.1475 31.7341 56.2224 31.8336C56.2224 31.8336 56.1725 31.6347 56.0478 31.3612C55.923 31.0876 55.7484 30.7395 55.4491 30.4163C55.3493 30.2919 55.1248 30.1427 54.8504 29.9935C54.576 29.8443 54.2268 29.7449 53.8776 29.7698C53.3288 29.8195 52.8548 29.5708 52.5555 29.2724C52.2562 28.9989 52.0815 28.7005 52.0815 28.6757C52.0815 28.6757 52.0815 28.9243 52.1564 29.2973C52.2312 29.6703 52.4308 30.1676 52.8299 30.6152C52.9047 30.7147 53.1043 30.9136 53.4036 31.0876C53.6531 31.2617 54.0522 31.3612 54.5261 31.2617Z" fill="#0B3E6A"/>
<path d="M56.0727 33.8477C56.5716 33.6488 56.9707 33.6985 57.2701 33.798C57.5694 33.8974 57.744 34.0715 57.8188 34.171C57.8188 34.171 57.744 33.9969 57.5694 33.7483C57.4197 33.4996 57.1703 33.1763 56.846 32.9028C56.7213 32.8034 56.4718 32.679 56.1725 32.5796C55.8731 32.4801 55.5239 32.4304 55.1747 32.505C54.6259 32.6293 54.152 32.4552 53.8027 32.2314C53.4535 32.0077 53.2539 31.7341 53.229 31.7341C53.229 31.7341 53.2539 31.9828 53.4036 32.3558C53.5533 32.7039 53.8027 33.1763 54.2517 33.5742C54.3515 33.6737 54.576 33.8477 54.8754 33.9472C55.2246 33.972 55.6237 34.0218 56.0727 33.8477Z" fill="#0B3E6A"/>
<path d="M57.9933 36.1602C58.4672 35.8867 58.8664 35.8618 59.1657 35.9364C59.465 36.011 59.6895 36.1353 59.7644 36.2099C59.7644 36.2099 59.6646 36.0359 59.465 35.8121C59.2655 35.5883 58.9911 35.3148 58.6169 35.091C58.4922 35.0164 58.2178 34.9169 57.9185 34.8672C57.6191 34.8174 57.245 34.8174 56.9207 34.9418C56.3968 35.1407 55.8979 35.0412 55.5238 34.8672C55.1496 34.6931 54.9001 34.4693 54.9001 34.4445C54.9001 34.4445 54.975 34.6931 55.1745 35.0164C55.3741 35.3396 55.6984 35.7623 56.1973 36.0856C56.2971 36.1602 56.5465 36.2845 56.8708 36.3591C57.1701 36.4337 57.5692 36.4089 57.9933 36.1602Z" fill="#0B3E6A"/>
<path d="M60.2383 38.1744C60.6623 37.8262 61.0614 37.7516 61.3857 37.7765C61.71 37.8014 61.9345 37.9008 62.0343 37.9506C62.0343 37.9506 61.9096 37.8014 61.6851 37.6025C61.4606 37.4035 61.1363 37.1797 60.7372 37.0057C60.5875 36.9559 60.3131 36.8813 60.0138 36.8813C59.6895 36.8813 59.3403 36.9311 59.0409 37.1051C58.567 37.3787 58.0431 37.3538 57.644 37.2543C57.2449 37.13 56.9705 36.9559 56.9456 36.9311C56.9456 36.9311 57.0453 37.1549 57.2948 37.4533C57.5442 37.7516 57.9184 38.1246 58.4672 38.3484C58.5919 38.3982 58.8414 38.4976 59.1906 38.5225C59.465 38.5473 59.8641 38.4728 60.2383 38.1744Z" fill="#0B3E6A"/>
<path d="M60.0139 39.3181C59.5899 39.2684 59.3155 39.1192 59.2905 39.0943C59.2905 39.0943 59.4153 39.3181 59.7146 39.5668C59.989 39.8154 60.438 40.1387 61.0117 40.2879C61.1364 40.3128 61.4108 40.3874 61.7351 40.3376C62.0594 40.2879 62.4336 40.1636 62.7578 39.7906C63.132 39.3927 63.5062 39.2684 63.8305 39.2187C64.1298 39.1938 64.3793 39.2684 64.479 39.2933C64.479 39.2933 64.3294 39.1689 64.0799 39.0197C63.8305 38.8706 63.4812 38.6965 63.0572 38.5722C62.9075 38.5473 62.6331 38.5224 62.3088 38.5722C61.9846 38.6219 61.6603 38.7214 61.3609 38.9452C60.9369 39.3181 60.413 39.3679 60.0139 39.3181Z" fill="#0B3E6A"/>
<path d="M62.4584 41.2826C62.7827 41.5064 63.2566 41.7302 63.8553 41.8048C63.98 41.8296 64.2794 41.8296 64.5787 41.755C64.6535 41.7302 64.7533 41.7053 64.8282 41.6556C64.8282 41.3572 64.8282 41.0339 64.8531 40.7355C64.903 40.4123 65.0277 40.1388 65.1774 39.8652C65.0776 39.8901 64.9778 39.915 64.8531 39.9398C64.5538 40.0393 64.2295 40.1885 63.98 40.462C63.6059 40.8599 63.107 41.009 62.6829 41.009C62.2589 41.009 61.9595 40.9096 61.9346 40.9096C61.9595 40.8847 62.1341 41.0836 62.4584 41.2826Z" fill="#0B3E6A"/>
<path d="M80.9425 38.9949C80.9425 38.9949 80.7429 39.0446 80.4685 39.1441C80.269 39.2187 79.9946 39.343 79.7451 39.4922C80.1193 39.89 80.2191 40.5863 80.269 41.1085C80.269 41.1333 80.269 41.1831 80.269 41.2079C80.2939 41.0339 80.2939 40.8598 80.269 40.6609C80.1941 40.1138 80.3188 39.7408 80.4685 39.4673C80.6431 39.2187 80.8427 39.0695 80.9425 38.9949Z" fill="#0B3E6A"/>
<path d="M83.3621 37.5278C83.3621 37.5278 83.1625 37.6024 82.9131 37.7516C82.6636 37.9008 82.3144 38.1246 82.0151 38.423C81.9153 38.5225 81.7656 38.7711 81.6409 39.0695C81.5162 39.3679 81.4413 39.716 81.5162 40.0641C81.616 40.6112 81.4164 41.0836 81.167 41.4069C80.9175 41.7301 80.6431 41.9291 80.6182 41.9291C80.6182 41.9291 80.8676 41.9042 81.2418 41.8047C81.616 41.6804 82.0899 41.4566 82.514 41.0339C82.6137 40.9344 82.7884 40.7355 82.9131 40.4123C83.0378 40.1139 83.0877 39.716 82.938 39.2436C82.7634 38.7214 82.8382 38.3235 82.963 38.05C83.0877 37.7765 83.2623 37.6024 83.3621 37.5278Z" fill="#0B3E6A"/>
<path d="M83.4868 40.4868C83.4868 40.4868 83.7363 40.4371 84.0855 40.263C84.4347 40.089 84.8588 39.7906 85.208 39.2933C85.2828 39.1938 85.4325 38.9452 85.5073 38.6219C85.5822 38.2986 85.5822 37.9008 85.3577 37.4781C85.1082 37.0056 85.1082 36.5829 85.208 36.2845C85.2828 35.9861 85.4325 35.7872 85.5073 35.6877C85.5073 35.6877 85.3327 35.7872 85.1082 35.9613C84.8588 36.1353 84.5844 36.4089 84.3349 36.757C84.2601 36.8813 84.1354 37.13 84.0605 37.4532C83.9857 37.7516 83.9608 38.1246 84.0855 38.4478C84.2601 38.97 84.1354 39.4673 83.9358 39.8403C83.7363 40.2382 83.5118 40.462 83.4868 40.4868Z" fill="#0B3E6A"/>
<path d="M87.8271 36.4586C87.8521 36.1354 87.8022 35.7375 87.5278 35.3397C87.2035 34.8921 87.1536 34.4943 87.1786 34.1959C87.2035 33.8975 87.3283 33.6488 87.4031 33.5742C87.4031 33.5742 87.2534 33.6985 87.0289 33.9223C86.8294 34.1461 86.5799 34.4445 86.3804 34.8424C86.3055 34.9916 86.2307 35.2402 86.2307 35.5635C86.2057 35.8867 86.2307 36.2349 86.4053 36.5581C86.6547 37.0554 86.6049 37.5776 86.4552 37.9506C86.3305 38.3484 86.106 38.5971 86.106 38.622C86.106 38.622 86.3554 38.5225 86.6547 38.2987C86.979 38.0749 87.3532 37.7019 87.6276 37.1798C87.6775 37.0554 87.8022 36.8068 87.8271 36.4586Z" fill="#0B3E6A"/>
<path d="M89.299 32.9276C88.9248 32.5298 88.8001 32.1568 88.8001 31.8335C88.7751 31.5103 88.8749 31.2865 88.9248 31.187C88.9248 31.187 88.7751 31.3362 88.6255 31.5849C88.4508 31.8335 88.2513 32.1816 88.1266 32.5795C88.0767 32.7287 88.0517 33.0022 88.0767 33.3255C88.1016 33.6487 88.2014 33.9968 88.401 34.2704C88.7252 34.718 88.7502 35.2401 88.6754 35.638C88.6005 36.0358 88.4259 36.3342 88.4259 36.3591C88.4259 36.3591 88.6504 36.2348 88.9248 35.9612C89.1992 35.6877 89.5235 35.265 89.723 34.718C89.7729 34.5936 89.8477 34.3201 89.8228 33.9968C89.7729 33.6487 89.6482 33.2757 89.299 32.9276Z" fill="#0B3E6A"/>
<path d="M90.721 30.267C90.2969 29.9437 90.1223 29.5707 90.0474 29.2723C89.9976 28.9739 90.0474 28.7253 90.0724 28.601C90.0724 28.601 89.9477 28.775 89.8229 29.0237C89.6982 29.2972 89.5485 29.6453 89.4737 30.0929C89.4488 30.2421 89.4737 30.5156 89.5485 30.8389C89.6234 31.1373 89.7731 31.4854 90.0225 31.734C90.4216 32.1319 90.5214 32.6292 90.4965 33.0519C90.4715 33.4498 90.3717 33.773 90.3468 33.7979C90.3468 33.7979 90.5463 33.6487 90.7708 33.3254C90.9954 33.0271 91.2697 32.5546 91.3695 31.9578C91.3945 31.8335 91.4194 31.56 91.3446 31.2367C91.2697 30.9135 91.0951 30.5653 90.721 30.267Z" fill="#0B3E6A"/>
<path d="M91.6938 27.4075C91.2198 27.1589 90.9953 26.8107 90.8706 26.5124C90.7708 26.214 90.7708 25.9653 90.7958 25.8658C90.7958 25.8658 90.696 26.0399 90.6211 26.3383C90.5214 26.6118 90.4465 27.0097 90.4465 27.4324C90.4465 27.5816 90.4964 27.8551 90.6211 28.1535C90.7459 28.4519 90.9205 28.7503 91.2198 28.9741C91.6688 29.2973 91.8434 29.7946 91.8933 30.2174C91.9432 30.6401 91.8684 30.9633 91.8684 30.9633C91.8684 30.9633 92.043 30.7893 92.2176 30.4411C92.3922 30.093 92.5918 29.5957 92.5918 28.9989C92.5918 28.8746 92.5918 28.5762 92.4671 28.2778C92.3423 27.9794 92.1178 27.6562 91.6938 27.4075Z" fill="#0B3E6A"/>
<path d="M93.3649 25.8906C93.34 25.7663 93.2901 25.4928 93.1404 25.1944C92.9658 24.896 92.6914 24.6225 92.2424 24.4484C91.7186 24.2743 91.4691 23.9759 91.2945 23.7024C91.1449 23.4289 91.1199 23.1802 91.1199 23.0559C91.1199 23.0559 91.07 23.2548 91.0201 23.5284C90.9702 23.8267 90.9453 24.2246 91.0201 24.6473C91.0451 24.7965 91.1449 25.07 91.2945 25.3187C91.4691 25.5922 91.6936 25.8657 91.993 26.0398C92.4919 26.3133 92.7413 26.7609 92.8411 27.1588C92.9409 27.5566 92.9409 27.8799 92.9159 27.9047C92.9159 27.9047 93.0656 27.7058 93.1903 27.3328C93.34 27.0096 93.4398 26.4874 93.3649 25.8906Z" fill="#0B3E6A"/>
<path d="M93.6645 22.7078C93.6395 22.5835 93.5397 22.31 93.3402 22.0613C93.1406 21.8127 92.8163 21.564 92.3424 21.4646C91.8185 21.3651 91.4943 21.1164 91.2947 20.8678C91.0951 20.6191 91.0453 20.3705 91.0203 20.271C91.0203 20.271 90.9954 20.4699 90.9954 20.7683C90.9954 21.0667 91.0203 21.4646 91.145 21.8624C91.1949 22.0116 91.3196 22.2603 91.5192 22.484C91.7188 22.7327 91.9932 22.9565 92.3174 23.0808C92.8413 23.2549 93.1656 23.6776 93.3152 24.0506C93.4898 24.4236 93.5148 24.7717 93.5148 24.7717C93.5148 24.7717 93.6146 24.5479 93.6894 24.1749C93.7892 23.8019 93.8141 23.2798 93.6645 22.7078Z" fill="#0B3E6A"/>
<path d="M91.9681 18.4558C91.4193 18.4309 91.0701 18.232 90.8456 18.0082C90.6211 17.7844 90.5213 17.5606 90.4714 17.4612C90.4714 17.4612 90.4714 17.6601 90.5213 17.9585C90.5712 18.2569 90.646 18.6299 90.8456 19.0277C90.9204 19.1769 91.0701 19.3758 91.3196 19.5996C91.5441 19.7986 91.8683 19.9975 92.2176 20.0721C92.7664 20.1716 93.1405 20.5445 93.365 20.8927C93.5895 21.2408 93.6644 21.564 93.6644 21.5889C93.6644 21.5889 93.7392 21.3402 93.7641 20.9673C93.7891 20.5943 93.7392 20.0472 93.4648 19.525C93.4149 19.4007 93.2902 19.1521 93.0407 18.9283C92.7913 18.6796 92.4421 18.4807 91.9681 18.4558Z" fill="#0B3E6A"/>
<path d="M91.1448 15.5714C90.5961 15.6211 90.2219 15.4719 89.9724 15.2979C89.723 15.1238 89.5733 14.9 89.5234 14.8005C89.5234 14.8005 89.5484 14.9995 89.6482 15.273C89.7479 15.5465 89.8727 15.9195 90.1221 16.2676V16.2925C90.2219 16.4168 90.4214 16.6157 90.6709 16.7898C90.9453 16.9639 91.2696 17.1131 91.6188 17.1131C92.1676 17.1379 92.5916 17.4363 92.866 17.7347C93.1404 18.0331 93.2651 18.3563 93.2651 18.3812C93.2651 18.3812 93.315 18.1325 93.2651 17.7347C93.2153 17.3617 93.0905 16.8395 92.7663 16.3422C92.6914 16.2428 92.5168 15.9941 92.2424 15.82C91.993 15.646 91.6188 15.5216 91.1448 15.5714Z" fill="#0B3E6A"/>
<path d="M89.8977 12.8112C89.3739 12.9604 88.9747 12.861 88.7004 12.7118C88.426 12.5626 88.2513 12.3885 88.1765 12.2891C88.1765 12.2891 88.2264 12.488 88.3761 12.7366C88.5008 13.0102 88.7004 13.3334 88.9997 13.6567C89.0995 13.7561 89.324 13.9302 89.6233 14.0545C89.9226 14.1789 90.2719 14.2783 90.6211 14.2286C91.1699 14.1789 91.6438 14.4027 91.9681 14.6762C92.2924 14.9497 92.467 15.2232 92.467 15.2481C92.467 15.2481 92.467 14.9994 92.3672 14.6264C92.2674 14.2535 92.0679 13.7561 91.6688 13.3334C91.5939 13.234 91.3694 13.035 91.0701 12.8858C90.7708 12.7864 90.3717 12.6869 89.8977 12.8112Z" fill="#0B3E6A"/>
<path d="M88.2513 10.2998C87.7524 10.5236 87.3533 10.4987 87.054 10.3993C86.7546 10.2998 86.5551 10.1257 86.4802 10.0511C86.4802 10.0511 86.5551 10.2252 86.7297 10.4739C86.9043 10.7225 87.1537 11.0209 87.478 11.2944C87.6027 11.3939 87.8522 11.5182 88.1515 11.5928C88.4509 11.6674 88.825 11.7172 89.1743 11.6177C89.723 11.4685 90.197 11.6426 90.5712 11.8415C90.9204 12.0653 91.1449 12.3139 91.1449 12.3139C91.1449 12.3139 91.12 12.0653 90.9453 11.7172C90.7957 11.369 90.5213 10.9214 90.0473 10.5485C89.9476 10.4739 89.7231 10.2998 89.3988 10.2003C89.0994 10.1257 88.7003 10.1009 88.2513 10.2998Z" fill="#0B3E6A"/>
<path d="M86.2557 8.03701C85.8067 8.3354 85.3827 8.36027 85.0833 8.31054C84.784 8.26081 84.5595 8.13648 84.4597 8.06188C84.4597 8.06188 84.5844 8.23594 84.784 8.43487C84.9836 8.65866 85.2829 8.90732 85.6571 9.13111C85.7818 9.20571 86.0562 9.2803 86.3805 9.33003C86.6798 9.3549 87.054 9.3549 87.3782 9.20571C87.9021 8.98191 88.401 9.05651 88.7752 9.23057C89.1493 9.37977 89.3988 9.60356 89.4237 9.62842C89.4237 9.62842 89.3489 9.37977 89.1493 9.05651C88.9498 8.73326 88.6005 8.3354 88.0767 8.03701C87.9769 7.96242 87.7025 7.83809 87.3782 7.78836C87.054 7.76349 86.6549 7.78836 86.2557 8.03701Z" fill="#0B3E6A"/>
<path d="M82.8134 6.56989C82.4891 6.56989 82.2646 6.47042 82.1648 6.42069C82.1648 6.42069 82.3145 6.56989 82.539 6.74395C82.7635 6.91801 83.1127 7.1418 83.5118 7.29099C83.6615 7.34072 83.9359 7.39046 84.2352 7.39046C84.5595 7.39046 84.9087 7.31586 85.2081 7.11693C85.682 6.81854 86.2058 6.81854 86.605 6.91801C87.0041 7.01747 87.2785 7.19153 87.3034 7.2164C87.3034 7.2164 87.1787 6.9926 86.9292 6.69421C86.6798 6.39583 86.2807 6.04771 85.7319 5.84878C85.6072 5.79905 85.3328 5.69958 85.0085 5.69958C84.6842 5.69958 84.2851 5.79905 83.9109 6.1223C83.5118 6.47042 83.1127 6.56989 82.8134 6.56989Z" fill="#0B3E6A"/>
<path d="M80.2939 5.17752C79.9945 5.22725 79.7451 5.15265 79.6204 5.12779C79.6204 5.12779 79.77 5.25212 80.0444 5.40131C80.2939 5.5505 80.668 5.72456 81.0921 5.79916C81.2418 5.82403 81.5162 5.82403 81.8404 5.7743C82.1398 5.72456 82.489 5.60024 82.7634 5.37644C83.1875 5.00346 83.7113 4.92886 84.1104 4.97859C84.5345 5.00346 84.8338 5.15265 84.8338 5.15265C84.8338 5.15265 84.6842 4.95373 84.3848 4.70507C84.0855 4.45641 83.6365 4.18289 83.0627 4.03369C82.938 4.00883 82.6636 3.9591 82.3393 4.00883C82.0151 4.05856 81.6409 4.20775 81.3166 4.58074C80.9674 4.97859 80.5932 5.12779 80.2939 5.17752Z" fill="#0B3E6A"/>
<path d="M78.5479 3.43684C78.2486 3.90929 77.8994 4.10821 77.6 4.18281C77.3007 4.28227 77.0512 4.25741 76.9265 4.23254C76.9265 4.23254 77.1011 4.332 77.3755 4.43147C77.6499 4.53093 78.0241 4.65526 78.4731 4.68013C78.6228 4.68013 78.8971 4.65526 79.1965 4.5558C79.4958 4.45633 79.8201 4.28227 80.0446 4.00875C80.3938 3.58603 80.8927 3.43684 81.3168 3.41197C81.7408 3.38711 82.0402 3.48657 82.0651 3.48657C82.0651 3.48657 81.8905 3.31251 81.5662 3.11358C81.242 2.91466 80.7431 2.69087 80.1444 2.64113C80.0197 2.61627 79.7203 2.61627 79.421 2.71573C79.1466 2.81519 78.7974 3.01412 78.5479 3.43684Z" fill="#0B3E6A"/>
<path d="M75.6043 2.71574C75.3798 3.21305 75.0804 3.46171 74.806 3.61091C74.5316 3.73523 74.2572 3.7601 74.1575 3.7601C74.1575 3.7601 74.3321 3.8347 74.6314 3.88443C74.9308 3.93416 75.3049 4.00876 75.7539 3.95903C75.9036 3.93416 76.178 3.85956 76.4524 3.71037C76.7268 3.56117 77.0261 3.33738 77.2007 3.03899C77.5001 2.56654 77.974 2.34275 78.3731 2.26815C78.7723 2.16869 79.1215 2.21842 79.1215 2.21842C79.1215 2.21842 78.9219 2.06923 78.5727 1.92003C78.2235 1.77084 77.6996 1.62164 77.101 1.67138C76.9762 1.67138 76.6769 1.72111 76.4025 1.8703C76.1032 2.0195 75.8038 2.29302 75.6043 2.71574Z" fill="#0B3E6A"/>
<path d="M71.9376 3.46178C71.6881 3.63584 71.4137 3.68557 71.314 3.71044C71.314 3.71044 71.5135 3.76017 71.8129 3.76017C72.1122 3.78504 72.5113 3.76017 72.9354 3.66071C73.085 3.61097 73.3345 3.51151 73.5839 3.31259C73.8334 3.11366 74.0828 2.865 74.2325 2.54175C74.457 2.01957 74.8811 1.74604 75.2552 1.59685C75.6544 1.44765 75.9786 1.44765 76.0036 1.44765C76.0036 1.44765 75.7791 1.32333 75.4049 1.22386C75.0307 1.1244 74.5069 1.07467 73.9082 1.199C73.8084 1.24873 73.5341 1.32333 73.2597 1.49739C72.9853 1.69631 72.7109 1.9947 72.6111 2.46715C72.4614 2.98933 72.187 3.28772 71.9376 3.46178Z" fill="#0B3E6A"/>
<path d="M69.5926 2.66602C69.5428 3.21307 69.3182 3.53632 69.0937 3.76011C68.8692 3.98391 68.6198 4.0585 68.52 4.08337C68.52 4.08337 68.7196 4.10823 69.0189 4.0585C69.3183 4.03364 69.7174 3.95904 70.0915 3.80984C70.2412 3.76011 70.4657 3.58605 70.6902 3.36226C70.9147 3.13847 71.1392 2.84008 71.214 2.49196C71.3637 1.94491 71.7379 1.59679 72.0871 1.39787C72.4363 1.19894 72.7856 1.12434 72.7856 1.12434C72.7856 1.12434 72.5361 1.02488 72.1619 1.00001C71.7878 0.975149 71.239 0.975149 70.6902 1.19894C70.5655 1.24867 70.316 1.373 70.0666 1.59679C69.8421 1.84545 69.6425 2.19357 69.5926 2.66602Z" fill="#0B3E6A"/>
<path d="M65.7761 4.85423C65.7761 4.85423 65.9757 4.82937 66.275 4.75477C66.5744 4.68017 66.9485 4.55584 67.2978 4.33205C67.4225 4.25745 67.622 4.05853 67.8216 3.80987C67.9962 3.56121 68.1708 3.23796 68.2207 2.88984C68.2706 2.34279 68.5949 1.92007 68.9192 1.67142C69.2434 1.42276 69.5677 1.29843 69.5927 1.29843C69.5927 1.29843 69.3432 1.2487 68.9441 1.27356C68.5699 1.29843 68.0461 1.39789 67.5223 1.69628C67.3975 1.77088 67.173 1.92007 66.9735 2.16873C66.7739 2.44225 66.5993 2.81524 66.6242 3.28769C66.6492 3.83474 66.4746 4.20772 66.275 4.43151C66.1004 4.70504 65.8759 4.82937 65.7761 4.85423Z" fill="#0B3E6A"/>
<path d="M63.2068 6.04779C63.2068 6.04779 63.4063 5.99805 63.6807 5.89859C63.9551 5.77426 64.3044 5.6002 64.6286 5.32668C64.7534 5.22722 64.928 5.00342 65.0527 4.7299C65.2024 4.45638 65.3021 4.10826 65.3021 3.76014C65.3021 3.18823 65.5516 2.74064 65.826 2.44225C66.1004 2.14386 66.3997 1.99467 66.4247 1.9698C66.4247 1.9698 66.1752 1.94494 65.801 2.0444C65.4269 2.119 64.928 2.29306 64.454 2.69091C64.3542 2.76551 64.1297 2.96443 63.9801 3.26282C63.8055 3.56121 63.7057 3.9342 63.8055 4.40665C63.9052 4.92883 63.8055 5.32668 63.6558 5.6002C63.5061 5.84886 63.3066 5.99805 63.2068 6.04779Z" fill="#0B3E6A"/>
<path d="M60.8372 7.63913C60.8372 7.63913 61.0118 7.56453 61.2862 7.41534C61.5356 7.26614 61.8599 7.04235 62.1343 6.69423C62.2341 6.5699 62.3837 6.34611 62.4835 6.04772C62.5833 5.74933 62.6581 5.40121 62.5833 5.05309C62.4586 4.50604 62.6581 4.03359 62.8826 3.68547C63.1071 3.33735 63.3815 3.13843 63.4065 3.13843C63.4065 3.13843 63.157 3.16329 62.7828 3.28762C62.4336 3.41195 61.9597 3.68547 61.5606 4.10819C61.4608 4.20766 61.2862 4.43145 61.1864 4.72984C61.0617 5.02823 61.0367 5.45094 61.1864 5.89853C61.3859 6.39584 61.3361 6.81856 61.2113 7.09208C61.1116 7.36561 60.9369 7.56453 60.8372 7.63913Z" fill="#0B3E6A"/>
<path d="M59.041 8.93214C58.9661 9.23053 58.8165 9.45432 58.7666 9.52892C58.7666 9.52892 58.9412 9.42945 59.1657 9.23053C59.3902 9.0316 59.6646 8.75808 59.914 8.40996C59.9889 8.28563 60.0886 8.0121 60.1635 7.71371C60.2134 7.41533 60.2383 7.04234 60.1136 6.71908C59.914 6.1969 60.0387 5.69959 60.2134 5.3266C60.388 4.95361 60.6374 4.72982 60.6374 4.70496C60.6374 4.70496 60.388 4.75469 60.0637 4.95361C59.7394 5.15254 59.2904 5.45093 58.9661 5.94824C58.8913 6.04771 58.7416 6.29637 58.6917 6.61962C58.6169 6.94288 58.6418 7.34073 58.8663 7.76345C59.0908 8.2359 59.0908 8.63375 59.041 8.93214Z" fill="#0B3E6A"/>
<path d="M57.1451 11.0956C57.1202 11.4188 57.0204 11.6426 56.9456 11.7421C56.9456 11.7421 57.0952 11.6178 57.2948 11.394C57.4944 11.1702 57.7189 10.8469 57.8935 10.4739C57.9434 10.3247 58.0182 10.0512 58.0182 9.75282C58.0182 9.42957 57.9933 9.08145 57.8186 8.75819C57.5443 8.26088 57.5941 7.76356 57.7189 7.36571C57.8436 6.96786 58.0431 6.69434 58.0431 6.69434C58.0431 6.69434 57.8186 6.7938 57.4944 7.01759C57.195 7.26625 56.8209 7.63923 56.5714 8.16142C56.5215 8.28574 56.3968 8.5344 56.3968 8.88252C56.3718 9.20578 56.4467 9.60363 56.746 10.0015C57.0952 10.3745 57.1701 10.7723 57.1451 11.0956Z" fill="#0B3E6A"/>
<path d="M55.6236 13.5075C55.6486 13.8059 55.5738 14.0545 55.5239 14.154C55.5239 14.154 55.6486 14.0048 55.8232 13.7561C55.9729 13.5075 56.1724 13.1593 56.2972 12.7366C56.347 12.5874 56.347 12.3139 56.3221 11.9907C56.2722 11.6674 56.1724 11.3193 55.9729 11.0458C55.6236 10.5982 55.5987 10.076 55.6486 9.67814C55.6985 9.28029 55.8731 8.9819 55.8731 8.95703C55.8731 8.95703 55.6486 9.08136 55.3991 9.35488C55.1248 9.62841 54.8254 10.076 54.6508 10.6479C54.6009 10.7722 54.551 11.0458 54.576 11.369C54.6009 11.6923 54.7506 12.0901 55.0998 12.4134C55.474 12.8112 55.5987 13.2091 55.6236 13.5075Z" fill="#0B3E6A"/>
<path d="M53.7777 15.1486C54.2267 15.4719 54.4014 15.82 54.4762 16.1184C54.551 16.4168 54.5011 16.6655 54.4762 16.7898C54.4762 16.7898 54.576 16.6157 54.7007 16.3422C54.8254 16.0687 54.9501 15.6957 55 15.273C55.025 15.1238 55 14.8503 54.9002 14.5519C54.8254 14.2535 54.6757 13.9302 54.4014 13.6816C54.0022 13.3086 53.8775 12.7864 53.8775 12.3886C53.8775 11.9658 53.9773 11.6674 54.0022 11.6426C54.0022 11.6426 53.8027 11.8166 53.5782 12.115C53.3537 12.4383 53.1042 12.9107 53.0294 13.5075C53.0044 13.6318 52.9795 13.9054 53.0793 14.2286C53.1791 14.527 53.3786 14.8751 53.7777 15.1486Z" fill="#0B3E6A"/>
<path d="M52.8798 18.033C53.3787 18.2817 53.6032 18.6049 53.7279 18.8784C53.8526 19.1768 53.8526 19.4255 53.8277 19.525C53.8277 19.525 53.9025 19.3509 53.9773 19.0525C54.0522 18.7541 54.127 18.3811 54.127 17.9584C54.127 17.8092 54.0522 17.5357 53.9275 17.2373C53.8027 16.9389 53.6032 16.6405 53.3038 16.4416C52.8548 16.1183 52.6553 15.6459 52.5804 15.248C52.5056 14.8502 52.5804 14.5021 52.5804 14.5021C52.5804 14.5021 52.4058 14.701 52.2312 15.0491C52.0566 15.3972 51.882 15.8946 51.9069 16.4913C51.9069 16.6157 51.9319 16.9141 52.0566 17.2124C52.2063 17.5108 52.4557 17.8341 52.8798 18.033Z" fill="#0B3E6A"/>
<path d="M51.5825 19.9726C51.7572 20.2461 52.0565 20.5445 52.5055 20.6688C53.0293 20.8429 53.3037 21.1164 53.4783 21.3899C53.653 21.6635 53.6779 21.9121 53.6779 22.0116C53.6779 22.0116 53.7278 21.8126 53.7777 21.5143C53.8026 21.2159 53.8276 20.818 53.7527 20.3953C53.7278 20.2461 53.628 19.9975 53.4534 19.7239C53.2788 19.4504 53.0293 19.2017 52.7051 19.0277C52.2062 18.779 51.9318 18.3314 51.8071 17.9336C51.6823 17.5357 51.6823 17.2125 51.6823 17.1876C51.6823 17.1876 51.5576 17.4114 51.4329 17.7595C51.3082 18.1325 51.2333 18.6547 51.3331 19.2266C51.3331 19.4255 51.4079 19.6991 51.5825 19.9726Z" fill="#0B3E6A"/>
<path d="M68.8432 50.3684L69.0047 50.3364L68.9401 51.4917L68.9078 51.5237C68.4235 51.5237 67.8746 51.5237 67.358 51.5237C66.8413 51.5237 66.3893 51.5237 65.9695 51.5237L65.9373 51.2349C66.1633 51.0745 66.3893 50.9461 66.5507 50.8177C66.7445 50.6894 66.9059 50.561 67.0351 50.4647C67.1642 50.3684 67.2934 50.2401 67.3902 50.1438C67.4871 50.0475 67.584 49.9513 67.6486 49.855C67.7131 49.7587 67.7777 49.6624 67.81 49.5662C67.8423 49.4699 67.8746 49.3736 67.8746 49.2452C67.8746 49.0206 67.7777 48.8601 67.6163 48.6997C67.4548 48.5713 67.2611 48.5071 67.0028 48.5071C66.7122 48.5071 66.4539 48.5713 66.1633 48.7318L66.0341 48.475C66.4862 48.1541 66.9382 48.0258 67.4225 48.0258C67.7777 48.0258 68.0683 48.122 68.2943 48.2825C68.5203 48.4429 68.6495 48.6676 68.6495 48.9885C68.6495 49.1811 68.6172 49.3415 68.5203 49.502C68.4235 49.6624 68.3266 49.8229 68.1652 49.9833C68.0037 50.1438 67.81 50.3043 67.584 50.4326C67.358 50.5931 67.0996 50.7535 66.809 50.914V50.9461H68.6172L68.8432 50.3684Z" fill="#0B3E6A"/>
<path d="M73.1053 49.7587C73.1053 50.3364 72.9439 50.7857 72.621 51.1066C72.2981 51.4275 71.8461 51.62 71.3295 51.62C70.8128 51.62 70.3931 51.4596 70.1025 51.1708C69.7796 50.8498 69.6182 50.4327 69.6182 49.8871C69.6182 49.3415 69.7796 48.8923 70.1025 48.5713C70.4254 48.2504 70.8774 48.09 71.394 48.09C71.9107 48.09 72.3304 48.2504 72.621 48.5393C72.9439 48.796 73.1053 49.2132 73.1053 49.7587ZM70.3608 49.7908C70.3608 50.2722 70.4577 50.6573 70.6191 50.914C70.7806 51.2029 71.0389 51.3312 71.3617 51.3312C71.6846 51.3312 71.9429 51.2029 72.0721 50.9782C72.2335 50.7215 72.2981 50.3685 72.2981 49.855C72.2981 49.3736 72.2013 48.9885 72.0398 48.7318C71.8784 48.4751 71.6201 48.3467 71.2972 48.3467C70.9743 48.3467 70.716 48.4751 70.5545 48.6997C70.4577 48.9244 70.3608 49.3094 70.3608 49.7908Z" fill="#0B3E6A"/>
<path d="M73.4927 48.4751L73.4604 48.3146C73.9448 48.2504 74.4291 48.1541 74.9457 48.09L74.978 48.1221C74.9457 48.5393 74.9457 48.9885 74.9457 49.4378V50.3364C74.9457 50.6573 74.9457 50.914 74.9457 51.1066C74.9457 51.1708 74.978 51.235 75.0426 51.235L75.6238 51.3954V51.5559C75.1717 51.5559 74.8166 51.5559 74.5905 51.5559C74.3645 51.5559 74.0094 51.5559 73.5573 51.5559V51.3954L74.1708 51.235C74.2354 51.2029 74.2677 51.1708 74.2677 51.1066C74.2677 50.914 74.2677 50.6894 74.2677 50.4648V49.855C74.2677 49.3736 74.2677 48.9243 74.2677 48.5713L73.4927 48.4751Z" fill="#0B3E6A"/>
<path d="M76.3021 52.9358C76.9156 52.8395 77.4322 52.5828 77.8197 52.2298C78.2394 51.8768 78.4978 51.3954 78.6915 50.7536C78.4009 51.0745 78.0457 51.2349 77.5614 51.2349C77.1093 51.2349 76.7219 51.0745 76.4313 50.7856C76.1407 50.4968 75.9792 50.1117 75.9792 49.6945C75.9792 49.2131 76.1407 48.828 76.4636 48.5071C76.7865 48.1862 77.2062 48.0258 77.6905 48.0258C78.2072 48.0258 78.6592 48.2183 78.9821 48.6034C79.305 48.9885 79.4987 49.4699 79.4987 50.0475C79.4987 50.8498 79.2081 51.5558 78.6592 52.1335C78.078 52.7111 77.3354 53.0321 76.399 53.1604L76.3021 52.9358ZM76.7542 49.4699C76.7542 49.8871 76.851 50.2401 77.0448 50.4968C77.2385 50.7536 77.4968 50.8819 77.7874 50.8819C78.078 50.8819 78.304 50.7856 78.4655 50.5931C78.6269 50.4005 78.6915 50.1117 78.6915 49.7908C78.6915 49.3736 78.5946 49.0206 78.3686 48.7318C78.1426 48.4429 77.9166 48.3146 77.626 48.3146C77.3677 48.3146 77.1416 48.4109 76.9802 48.6355C76.8187 48.8601 76.7542 49.1169 76.7542 49.4699Z" fill="#0B3E6A"/>
<path d="M7.56756 24.901V29.7169C7.56756 29.9874 7.56756 30.2039 7.56756 30.3662C7.56756 30.5826 7.56756 30.745 7.56756 30.9073C7.56756 31.0155 7.622 31.0696 7.73089 31.1237L8.49309 31.3402V31.6107C7.94866 31.6107 7.40423 31.6107 6.91425 31.6107C6.42426 31.6107 5.93427 31.6107 5.44429 31.6107V31.3402L6.15205 31.1237C6.26093 31.0696 6.31537 31.0155 6.31537 30.9073C6.31537 30.745 6.31537 30.5826 6.31537 30.3662C6.31537 30.1497 6.31537 29.9333 6.31537 29.7169V23.5482H4.24655C4.24655 24.1975 4.1921 24.8469 4.08322 25.4962C4.02877 26.1455 3.91989 26.7949 3.75656 27.3901C3.59323 28.0394 3.4299 28.6346 3.21213 29.284C2.99436 29.8792 2.72214 30.5285 2.39549 31.1237C2.34104 31.232 2.2866 31.3402 2.23216 31.3943C2.17772 31.4484 2.12327 31.5566 2.01439 31.6107C1.9055 31.6649 1.79662 31.719 1.68773 31.719C1.5244 31.719 1.36107 31.7731 1.1433 31.7731C0.816643 31.7731 0.435543 31.719 0 31.6649V31.3943L0.3811 31.3402C0.544428 31.3402 0.653314 31.2861 0.7622 31.232C0.871086 31.1778 0.979972 31.1779 1.03441 31.1237C1.1433 31.0696 1.19774 31.0155 1.30663 30.9614C1.36107 30.9073 1.46996 30.7991 1.57884 30.6909C1.85106 30.4203 2.06883 30.0956 2.23216 29.7169C2.44993 29.3381 2.61326 28.9593 2.77659 28.5805C2.93992 28.1476 3.0488 27.7689 3.15769 27.336C3.26657 26.9031 3.37546 26.4702 3.4299 26.0373C3.48435 25.6044 3.53879 25.2256 3.59323 24.8469C3.64767 24.4681 3.64767 24.0893 3.64767 23.7646C3.64767 23.6564 3.59323 23.6023 3.4299 23.5482L2.50437 23.2776V23.0071C3.0488 23.0071 3.48434 23.0071 3.811 23.0071H7.02313C7.51312 23.0071 8.05755 23.0071 8.54753 23.0071L8.60198 23.2776L7.83978 23.4941C7.73089 23.5482 7.67645 23.6023 7.67645 23.7105C7.67645 23.8729 7.67645 24.0352 7.67645 24.2516C7.56756 24.4681 7.56756 24.6845 7.56756 24.901Z" fill="#0B3E6A"/>
<path d="M13.8283 22.8987L16.6049 30.4742C16.7138 30.7448 16.8227 30.9612 16.8771 31.0694C16.986 31.1777 17.0949 31.2318 17.2582 31.2859L17.8571 31.4482V31.7188C17.3127 31.7188 16.8227 31.7188 16.3327 31.7188C15.8427 31.7188 15.2983 31.7188 14.645 31.7188V31.4482L15.2438 31.2859C15.3527 31.2318 15.4072 31.2318 15.4072 31.1777C15.4616 31.1235 15.4616 31.0694 15.4616 31.0153C15.4616 30.9071 15.4616 30.7989 15.4072 30.6906C15.3527 30.5824 15.2983 30.366 15.2438 30.1495L14.645 28.4721H11.6506L10.9973 30.0954C10.8884 30.3119 10.834 30.5283 10.7795 30.6365C10.7251 30.7989 10.7251 30.853 10.7251 30.9612C10.7251 31.0153 10.7251 31.0694 10.7795 31.1235C10.834 31.1776 10.8884 31.1776 10.9429 31.2318L11.5417 31.3941V31.6646C10.9429 31.6646 10.4529 31.6646 10.1262 31.6646C9.74511 31.6646 9.30957 31.6646 8.87402 31.6646L8.81958 31.3941L9.4729 31.1777C9.63622 31.1235 9.74511 31.0694 9.79955 30.9612C9.854 30.853 9.96288 30.6907 10.0718 30.4742L13.2295 22.9528L13.8283 22.8987ZM11.8139 27.8769H14.3728L13.175 24.4679L11.8139 27.8769Z" fill="#0B3E6A"/>
<path d="M20.4707 29.7709C20.4707 30.2579 20.4707 30.6367 20.4707 30.9614C20.4707 31.0696 20.5251 31.1237 20.634 31.1778L21.5051 31.4484V31.7189C20.9062 31.7189 20.3618 31.7189 19.8718 31.7189C19.3818 31.7189 18.8918 31.7189 18.3474 31.7189V31.4484L19.1096 31.2319C19.2185 31.1778 19.2729 31.1237 19.2729 31.0155C19.2729 30.6908 19.2729 30.2579 19.2729 29.7709V24.7386C19.2729 24.5222 19.2729 24.3599 19.2729 24.1434C19.2729 23.9811 19.2729 23.8187 19.2729 23.7105C19.2729 23.6023 19.2185 23.5482 19.1096 23.4941L18.3474 23.2776V23.0071C18.8918 23.0071 19.3818 23.0071 19.8718 23.0071H21.3418C22.3762 23.0071 23.3562 23.0071 24.2817 23.0071L24.3361 23.0612L23.9006 25.3339L23.6284 25.388L23.1384 23.6023H20.4707V29.7709Z" fill="#0B3E6A"/>
<path d="M30.2705 23.0071C30.706 23.0071 31.196 23.0071 31.6315 23.0071C32.0671 23.0071 32.5026 23.0071 32.9382 23.0071V23.2776L32.2849 23.4941C32.176 23.5482 32.1215 23.5482 32.0671 23.6023C32.0126 23.6564 31.9582 23.7105 31.9038 23.7646C31.8493 23.8187 31.7949 23.8729 31.7949 23.9811C31.7404 24.0893 31.7404 24.1434 31.686 24.3057C31.4682 24.901 31.2504 25.4962 31.0327 26.0373C30.8149 26.5784 30.5971 27.1736 30.3794 27.7147C30.1616 28.2558 29.8894 28.7969 29.6716 29.3922C29.3994 29.9333 29.1816 30.4744 28.855 31.0696C28.7461 31.286 28.6372 31.5025 28.5827 31.6107C28.4739 31.773 28.4194 31.8813 28.3105 31.9354C28.2016 32.0436 28.0928 32.0977 27.9294 32.0977C27.7661 32.1518 27.5483 32.1518 27.3306 32.1518C26.9495 32.1518 26.5683 32.0977 26.1872 32.0436V31.773L26.5683 31.7189C26.8406 31.6648 27.1128 31.6107 27.2761 31.4484C27.4939 31.3402 27.6572 31.1778 27.8205 31.0155C27.9839 30.8532 28.1472 30.6367 28.2561 30.4203C28.4194 30.2038 28.5283 29.9333 28.6916 29.6627L25.8606 24.1975C25.8061 24.0893 25.7517 23.9811 25.6973 23.927C25.6428 23.8187 25.5884 23.7646 25.5339 23.7105C25.4795 23.6564 25.425 23.6023 25.3706 23.5482C25.3162 23.4941 25.2073 23.44 25.0984 23.44L24.554 23.2776V23.0071C24.9351 23.0071 25.425 23.0071 26.0784 23.0071C26.5683 23.0071 27.1672 23.0071 27.8205 23.0071V23.2776L27.2217 23.44C27.0583 23.4941 26.9494 23.5482 26.9494 23.7105C26.9494 23.8187 27.0039 23.927 27.0583 24.0893C27.1128 24.2516 27.2217 24.414 27.3306 24.5763L29.3449 28.4723C29.6172 27.8229 29.8894 27.1736 30.1616 26.5243C30.3794 25.9291 30.5971 25.2797 30.8693 24.6845C30.9782 24.414 31.0327 24.1975 31.0871 24.0352C31.1416 23.8729 31.1416 23.7646 31.1416 23.7105C31.1416 23.6564 31.1416 23.6023 31.0871 23.5482C31.0327 23.4941 30.9782 23.4941 30.9238 23.44L30.3249 23.2776L30.2705 23.0071Z" fill="#0B3E6A"/>
<path d="M35.551 27.3901V29.7709C35.551 30.2579 35.551 30.6908 35.551 31.0155C35.551 31.1237 35.6054 31.1778 35.7143 31.2319L36.4221 31.4484V31.7189C35.9321 31.7189 35.4421 31.7189 34.9521 31.7189C34.4622 31.7189 33.9722 31.7189 33.4277 31.7189V31.4484L34.1899 31.2319C34.2988 31.1778 34.3533 31.1237 34.3533 31.0155C34.3533 30.6908 34.3533 30.2579 34.3533 29.7709V24.7386C34.3533 24.3057 34.3533 23.9811 34.3533 23.7105C34.3533 23.6023 34.2988 23.5482 34.1899 23.4941L33.4277 23.2776V23.0071C33.9722 23.0071 34.4622 23.0071 34.9521 23.0071C35.4421 23.0071 35.9321 23.0071 36.4221 23.0071L36.4765 23.2776L35.7688 23.4941C35.6599 23.4941 35.6054 23.6023 35.6054 23.7105C35.6054 23.9811 35.6054 24.3599 35.6054 24.7386V26.849H40.1242V24.7386C40.1242 24.3599 40.1242 23.9811 40.1242 23.7105C40.1242 23.6023 40.0698 23.5482 39.9609 23.4941L39.2531 23.2776V23.0071C39.7431 23.0071 40.2331 23.0071 40.7775 23.0071C41.2675 23.0071 41.7575 23.0071 42.3019 23.0071V23.2776L41.5397 23.4941C41.4308 23.5482 41.3764 23.6023 41.3764 23.7105C41.3764 23.9811 41.3764 24.3057 41.3764 24.7386V29.7709C41.3764 30.2579 41.3764 30.6908 41.3764 31.0155C41.3764 31.1237 41.4308 31.1778 41.5397 31.2319L42.3019 31.4484V31.7189C41.7575 31.7189 41.2131 31.7189 40.7231 31.7189C40.2331 31.7189 39.7431 31.7189 39.2531 31.7189V31.4484L39.9609 31.2319C40.0698 31.1778 40.1242 31.1237 40.1242 31.0155C40.1242 30.6908 40.1242 30.2579 40.1242 29.7709V27.3901H35.551Z" fill="#0B3E6A"/>
<path d="M103.039 29.7708C103.039 30.0413 103.039 30.2578 103.039 30.4201C103.039 30.6366 103.039 30.7989 103.039 30.9612C103.039 31.0695 103.093 31.1236 103.202 31.1777L104.073 31.4482V31.7188C103.474 31.7188 102.93 31.7188 102.44 31.7188C101.95 31.7188 101.406 31.7188 100.916 31.7188V31.4482L101.678 31.2318C101.787 31.1777 101.841 31.1236 101.841 31.0153C101.841 30.853 101.841 30.6907 101.841 30.4742C101.841 30.2578 101.841 30.0414 101.841 29.8249V24.7926C101.841 24.5761 101.841 24.4138 101.841 24.1974C101.841 24.035 101.841 23.8727 101.841 23.7645C101.841 23.6563 101.787 23.6021 101.678 23.548L100.916 23.3316V23.061C101.46 23.061 101.95 23.061 102.494 23.061C102.821 23.061 103.148 23.061 103.474 23.061C103.801 23.061 104.073 23.061 104.345 23.061C105.325 23.061 106.088 23.2775 106.578 23.6563C107.068 24.035 107.34 24.6303 107.34 25.3337C107.34 26.1995 107.068 26.9029 106.469 27.3899C105.87 27.8769 105.053 28.1475 104.019 28.1475C103.747 28.1475 103.42 28.1475 103.093 28.0934V29.7708H103.039ZM103.039 27.4981C103.311 27.5522 103.638 27.5522 103.91 27.5522C104.563 27.5522 105.053 27.3899 105.434 27.0652C105.761 26.7406 105.979 26.1995 105.979 25.496C105.979 24.8467 105.815 24.3056 105.489 23.9809C105.162 23.6563 104.618 23.4939 103.91 23.4939C103.638 23.4939 103.365 23.4939 103.093 23.548V27.4981H103.039Z" fill="#0B3E6A"/>
<path d="M111.423 22.8987L114.2 30.4742C114.309 30.7448 114.418 30.9612 114.472 31.0694C114.581 31.1777 114.69 31.2318 114.853 31.2859L115.452 31.4482V31.7188C114.908 31.7188 114.418 31.7188 113.928 31.7188C113.438 31.7188 112.893 31.7188 112.24 31.7188V31.4482L112.839 31.2859C112.948 31.2318 113.002 31.2318 113.002 31.1777C113.057 31.1235 113.057 31.0694 113.057 31.0153C113.057 30.9071 113.057 30.7989 113.002 30.6906C112.948 30.5824 112.893 30.366 112.839 30.1495L112.24 28.4721H109.246L108.592 30.0954C108.483 30.3119 108.429 30.5283 108.374 30.6365C108.32 30.7989 108.32 30.853 108.32 30.9612C108.32 31.0153 108.32 31.0694 108.374 31.1235C108.429 31.1776 108.483 31.1776 108.538 31.2318L109.137 31.3941V31.6646C108.538 31.6646 108.048 31.6646 107.721 31.6646C107.34 31.6646 106.905 31.6646 106.469 31.6646L106.415 31.3941L107.068 31.1777C107.231 31.1235 107.34 31.0694 107.395 30.9612C107.449 30.853 107.558 30.6907 107.667 30.4742L110.824 22.9528L111.423 22.8987ZM109.463 27.8769H112.022L110.824 24.4679L109.463 27.8769Z" fill="#0B3E6A"/>
<path d="M122.801 24.901V29.7169C122.801 29.9874 122.801 30.2038 122.801 30.3662C122.801 30.5826 122.801 30.745 122.801 30.9073C122.801 31.0155 122.856 31.0696 122.965 31.1237L123.727 31.3402V31.6107C123.183 31.6107 122.638 31.6107 122.148 31.6107C121.658 31.6107 121.168 31.6107 120.678 31.6107V31.3402L121.386 31.1237C121.495 31.0696 121.549 31.0155 121.549 30.9073C121.549 30.745 121.549 30.5826 121.549 30.3662C121.549 30.1497 121.549 29.9333 121.549 29.7169V23.5482H119.48C119.48 24.1975 119.426 24.8469 119.317 25.4962C119.263 26.1455 119.154 26.7949 118.99 27.3901C118.827 28.0394 118.664 28.6346 118.446 29.284C118.228 29.8792 117.956 30.5285 117.629 31.1237C117.575 31.232 117.52 31.3402 117.466 31.3943C117.412 31.4484 117.357 31.5566 117.248 31.6107C117.139 31.6648 117.03 31.719 116.922 31.719C116.758 31.719 116.595 31.7731 116.377 31.7731C116.051 31.7731 115.669 31.719 115.234 31.6648V31.3943L115.615 31.3402C115.778 31.3402 115.887 31.2861 115.996 31.232C116.105 31.1778 116.214 31.1778 116.268 31.1237C116.377 31.0696 116.432 31.0155 116.541 30.9614C116.595 30.9073 116.704 30.7991 116.813 30.6908C117.085 30.4203 117.303 30.0956 117.466 29.7169C117.684 29.3381 117.847 28.9593 118.01 28.5805C118.174 28.1476 118.283 27.7688 118.392 27.336C118.5 26.9031 118.609 26.4702 118.664 26.0373C118.718 25.6044 118.773 25.2256 118.827 24.8469C118.882 24.4681 118.882 24.0893 118.882 23.7646C118.882 23.6564 118.827 23.6023 118.664 23.5482L117.738 23.2776V23.0071C118.283 23.0071 118.718 23.0071 119.045 23.0071H122.257C122.747 23.0071 123.291 23.0071 123.781 23.0071L123.836 23.2776L123.074 23.4941C122.965 23.5482 122.91 23.6023 122.91 23.7105C122.91 23.8729 122.91 24.0352 122.91 24.2516C122.801 24.4681 122.801 24.6845 122.801 24.901Z" fill="#0B3E6A"/>
<path d="M131.785 24.901V29.7169C131.785 29.9874 131.785 30.2038 131.785 30.3662C131.785 30.5826 131.785 30.745 131.785 30.9073C131.785 31.0155 131.839 31.0696 131.948 31.1237L132.71 31.3402V31.6107C132.166 31.6107 131.621 31.6107 131.131 31.6107C130.641 31.6107 130.151 31.6107 129.661 31.6107V31.3402L130.369 31.1237C130.478 31.0696 130.532 31.0155 130.532 30.9073C130.532 30.745 130.532 30.5826 130.532 30.3662C130.532 30.1497 130.532 29.9333 130.532 29.7169V23.5482H128.464C128.464 24.1975 128.409 24.8469 128.3 25.4962C128.246 26.1455 128.137 26.7949 127.974 27.3901C127.81 28.0394 127.647 28.6346 127.429 29.284C127.211 29.8792 126.939 30.5285 126.613 31.1237C126.558 31.232 126.504 31.3402 126.449 31.3943C126.395 31.4484 126.34 31.5566 126.231 31.6107C126.123 31.6648 126.014 31.719 125.905 31.719C125.741 31.719 125.578 31.7731 125.36 31.7731C125.034 31.7731 124.653 31.719 124.217 31.6648V31.3943L124.598 31.3402C124.761 31.3402 124.87 31.2861 124.979 31.232C125.088 31.1778 125.197 31.1778 125.251 31.1237C125.36 31.0696 125.415 31.0155 125.524 30.9614C125.578 30.9073 125.687 30.7991 125.796 30.6908C126.068 30.4203 126.286 30.0956 126.449 29.7169C126.667 29.3381 126.83 28.9593 126.994 28.5805C127.157 28.1476 127.266 27.7688 127.375 27.336C127.484 26.9031 127.593 26.4702 127.647 26.0373C127.701 25.6044 127.756 25.2256 127.81 24.8469C127.865 24.4681 127.865 24.0893 127.865 23.7646C127.865 23.6564 127.81 23.6023 127.647 23.5482L126.721 23.2776V23.0071C127.266 23.0071 127.701 23.0071 128.028 23.0071H131.24C131.73 23.0071 132.275 23.0071 132.765 23.0071L132.819 23.2776L132.057 23.4941C131.948 23.5482 131.894 23.6023 131.894 23.7105C131.894 23.8729 131.894 24.0352 131.894 24.2516C131.785 24.4681 131.785 24.6845 131.785 24.901Z" fill="#0B3E6A"/>
<path d="M136.14 30.0413V30.9612C136.14 31.0694 136.195 31.1235 136.304 31.1776L137.011 31.394V31.6646C136.521 31.6646 136.031 31.6646 135.541 31.6646C135.051 31.6646 134.562 31.6646 134.017 31.6646V31.394L134.779 31.1776C134.888 31.1235 134.943 31.0694 134.943 30.9612C134.943 30.6365 134.943 30.2036 134.943 29.7166V24.6843C134.943 24.2514 134.943 23.9267 134.943 23.6562C134.943 23.548 134.888 23.4939 134.779 23.4398L134.017 23.2233V22.9528C134.562 22.9528 135.051 22.9528 135.541 22.9528C136.031 22.9528 136.521 22.9528 137.011 22.9528L137.066 23.2233L136.358 23.4398C136.249 23.4398 136.195 23.548 136.195 23.6562C136.195 23.9267 136.195 24.3055 136.195 24.6843V29.1214L140.822 24.2514V23.6562C140.822 23.548 140.768 23.4939 140.659 23.4398L139.951 23.2233V22.9528C140.441 22.9528 140.986 22.9528 141.476 22.9528C141.966 22.9528 142.456 22.9528 143 22.9528V23.2233L142.238 23.4398C142.129 23.4939 142.075 23.548 142.075 23.6562C142.075 23.9267 142.075 24.2514 142.075 24.6843V29.7166C142.075 30.2036 142.075 30.6365 142.075 30.9612C142.075 31.0694 142.129 31.1235 142.238 31.1776L143 31.394V31.6646C142.456 31.6646 141.911 31.6646 141.421 31.6646C140.931 31.6646 140.441 31.6646 139.951 31.6646L139.897 31.394L140.605 31.1776C140.714 31.1235 140.768 31.0694 140.768 30.9612V29.7166V25.1172L136.14 30.0413Z" fill="#0B3E6A"/>
</svg>
