<svg width="74" height="99" viewBox="0 0 74 99" fill="none" xmlns="http://www.w3.org/2000/svg">
<g clip-path="url(#clip0)">
<path fill-rule="evenodd" clip-rule="evenodd" d="M44.8376 44.3065L47.3854 50.2951H47.6445L45.0967 44.2197L44.8376 44.3065Z" fill="#0B3E6A"/>
<path fill-rule="evenodd" clip-rule="evenodd" d="M34.9922 44.6108L35.2513 47.6051C35.5967 47.6051 35.9422 47.6485 36.2876 47.6919L36.0286 44.5674L34.9922 44.6108Z" fill="#0B3E6A"/>
<path fill-rule="evenodd" clip-rule="evenodd" d="M31.9264 43.3956C31.9264 43.222 31.9695 43.005 31.9695 42.8314C32.0127 42.8748 32.0559 42.9182 32.0991 42.9182C32.0127 43.0918 31.9695 43.222 31.9264 43.3956ZM30.7173 44.2201C31.0196 34.2391 33.4809 22.0884 37.2809 13.4527C37.6263 12.7149 38.9218 10.0244 39.2672 9.33008V9.41687C39.2241 9.46027 39.2241 9.50366 39.1809 9.59045C39.3968 11.5433 39.5695 13.5828 39.7854 15.6224C40.0013 17.7054 40.3036 19.8318 40.6922 22.0016C40.7786 22.3921 40.865 22.7827 40.9513 23.2166C40.9945 23.1733 40.9945 23.1299 41.0377 23.0865C40.865 22.2619 40.7354 21.4808 40.6059 20.6563C40.3036 18.6601 40.0877 16.7073 39.8718 14.7545V14.5809C41.2104 25.343 43.1536 37.0164 46.7808 48.4728C41.9877 46.3899 36.6763 44.9144 30.7173 44.2201ZM38.7922 10.3716C38.8786 10.2414 38.9218 10.1112 39.0081 9.98101C39.2672 11.9772 39.44 14.0168 39.6991 16.0998C39.9581 18.2262 40.3036 20.3959 40.7354 22.6091C40.7786 22.8261 40.8218 23.0865 40.865 23.3034C40.8218 23.3468 40.8218 23.3902 40.7786 23.4336C40.7354 23.3468 40.7354 23.2166 40.6922 23.1299C40.2172 20.8733 39.8286 18.7035 39.5695 16.5337C39.3104 14.4507 39.0945 12.3678 38.7922 10.3716ZM38.4036 11.1961C38.49 11.0659 38.5332 10.9357 38.5763 10.7621C38.8786 12.7583 39.1377 14.8413 39.44 16.9677C39.7422 19.1375 40.1741 21.3506 40.649 23.6072C40.6059 23.6506 40.5627 23.694 40.5627 23.7374C40.0877 21.5242 39.6127 19.3544 39.3104 17.2281C39.0081 15.1451 38.7491 13.1489 38.4036 11.1961ZM38.0582 12.064C38.1013 11.9338 38.1877 11.7602 38.2309 11.63C38.5763 13.5394 38.8354 15.5356 39.1809 17.5318C39.5263 19.6148 39.9581 21.7412 40.4763 23.911C40.4331 23.9544 40.39 23.9978 40.39 24.0846C39.8718 21.9582 39.3968 19.8752 39.0513 17.879C38.7059 15.8394 38.3604 13.93 38.0582 12.064ZM37.6695 12.9319C37.7127 12.8017 37.7991 12.6281 37.8422 12.498C38.1877 14.3206 38.5331 16.1866 38.8786 18.1394C39.2672 20.1356 39.7422 22.1318 40.2604 24.2147C40.2172 24.2581 40.1741 24.3449 40.1309 24.3883C39.6127 22.3487 39.1377 20.3959 38.7059 18.4431C38.3604 16.5337 38.015 14.7111 37.6695 12.9319ZM37.2809 13.8866C37.3241 13.713 37.4104 13.5828 37.4536 13.4093C37.8422 15.1451 38.1877 16.9243 38.5763 18.7469C38.965 20.6129 39.4831 22.5657 40.0013 24.5619C39.9581 24.6053 39.915 24.6921 39.8718 24.7355C39.3104 22.7827 38.8354 20.9167 38.4036 19.0941C38.0582 17.3149 37.6695 15.5356 37.2809 13.8866ZM36.9354 14.7979C36.9786 14.6243 37.065 14.4941 37.1082 14.3206C37.4968 15.9696 37.8854 17.662 38.3172 19.3978C38.7491 21.1771 39.2672 23.0431 39.8286 24.9091C39.7854 24.9525 39.7422 25.0393 39.6991 25.1261C39.1377 23.3034 38.6195 21.4808 38.1877 19.745C37.7127 18.0526 37.3241 16.4035 36.9354 14.7979ZM36.5468 15.796C36.59 15.6224 36.6763 15.4488 36.7195 15.3187C37.1513 16.8809 37.54 18.4865 37.9718 20.0922C38.4468 21.7846 38.965 23.5204 39.5263 25.2996C39.4831 25.3864 39.44 25.4298 39.3968 25.5166C38.8354 23.7808 38.2741 22.0884 37.8422 20.4393C37.4104 18.8771 36.9786 17.3149 36.5468 15.796ZM36.2013 16.7941C36.2445 16.6205 36.3309 16.4469 36.3741 16.2734C36.8059 17.7488 37.2377 19.2677 37.6695 20.7865C38.1445 22.3921 38.6627 24.0412 39.2672 25.7336C39.2241 25.8204 39.1809 25.8638 39.1377 25.9506C38.5763 24.3015 38.015 22.6959 37.54 21.1771C37.065 19.7016 36.6332 18.2262 36.2013 16.7941ZM35.8991 17.8356C35.9423 17.662 36.0286 17.4884 36.0718 17.3149C36.5036 18.7035 36.9786 20.0922 37.4104 21.5676C37.8854 23.0431 38.4468 24.6053 39.0081 26.2109C38.965 26.2977 38.9218 26.3411 38.8786 26.4279C38.3172 24.9091 37.7559 23.3902 37.2377 21.9582C36.7627 20.5695 36.3309 19.1809 35.8991 17.8356ZM35.5536 18.9205C35.5968 18.7469 35.6832 18.5733 35.7263 18.3997C36.1582 19.7016 36.6332 21.0035 37.1082 22.3921C37.6263 23.7808 38.1445 25.2562 38.7491 26.7317C38.7059 26.8185 38.6627 26.9053 38.6195 26.9921C38.0582 25.56 37.4968 24.128 36.9786 22.7827C36.4604 21.4374 35.9854 20.1356 35.5536 18.9205ZM35.2514 19.962C35.2945 19.7884 35.3377 19.6148 35.4241 19.4412C35.8991 20.6563 36.3309 21.9148 36.8491 23.1733C37.3672 24.4751 37.9286 25.8204 38.49 27.209C38.4468 27.2958 38.4036 27.3826 38.3604 27.4694C37.7991 26.1241 37.2377 24.8223 36.7195 23.5638C36.1582 22.3487 35.6832 21.1337 35.2514 19.962ZM34.9491 21.0903C34.9923 20.9167 35.0354 20.7431 35.0786 20.5261C35.5536 21.6544 36.0286 22.8261 36.5036 23.9978C37.0218 25.2128 37.5832 26.4713 38.1445 27.7732C38.1013 27.86 38.0582 27.9468 38.015 28.0336C37.4536 26.7751 36.8923 25.6034 36.3741 24.4317C35.8559 23.3034 35.3809 22.1752 34.9491 21.0903ZM34.6468 22.2186C34.69 22.045 34.7332 21.828 34.7764 21.6544C35.2513 22.6959 35.7263 23.7808 36.2013 24.8657C36.7195 25.994 37.2809 27.1222 37.8422 28.3373C37.7991 28.4241 37.7559 28.5543 37.6695 28.6411C37.1082 27.5128 36.59 26.3845 36.0718 25.343C35.5968 24.2581 35.1218 23.2166 34.6468 22.2186ZM34.3877 23.3468C34.4309 23.1299 34.4741 22.9563 34.5173 22.7827C34.9923 23.7374 35.4673 24.7355 35.9423 25.7336C36.4604 26.7751 36.9786 27.8166 37.54 28.9015C37.4968 28.9883 37.4536 29.1184 37.3672 29.2052C36.8059 28.1637 36.2877 27.1656 35.7695 26.1675C35.3377 25.2128 34.8627 24.2581 34.3877 23.3468ZM34.1286 24.4751C34.1718 24.3015 34.215 24.0846 34.2582 23.911C34.7332 24.8223 35.165 25.7336 35.6832 26.6449C36.2013 27.5996 36.7195 28.5543 37.2377 29.5524C37.1945 29.6826 37.1513 29.7694 37.065 29.8996C36.5468 28.9449 36.0286 28.0336 35.5104 27.1222C35.0786 26.2109 34.6036 25.343 34.1286 24.4751ZM33.9127 25.6468C33.9559 25.4298 33.9991 25.2562 34.0423 25.0393C34.4741 25.8638 34.9491 26.6883 35.4241 27.5562C35.8991 28.4241 36.4173 29.292 36.9354 30.2033C36.8922 30.3335 36.8491 30.4203 36.7627 30.5505C36.2445 29.6826 35.7695 28.8581 35.2945 28.0336C34.8195 27.209 34.3445 26.4279 33.9127 25.6468ZM33.6968 26.7751C33.74 26.6015 33.7832 26.3845 33.7832 26.2109C34.215 26.9487 34.69 27.7298 35.1218 28.5109C35.5968 29.292 36.0718 30.0731 36.5468 30.8977C36.5036 31.0278 36.4173 31.1146 36.3741 31.2448C35.8991 30.4637 35.4241 29.726 34.9491 28.9883C34.5604 28.2505 34.1286 27.5128 33.6968 26.7751ZM33.4809 27.9468C33.5241 27.7298 33.5241 27.5562 33.5673 27.3392C33.9991 28.0336 34.4309 28.7279 34.8627 29.4222C35.2945 30.1165 35.7695 30.8543 36.2445 31.592C36.2013 31.7222 36.115 31.8524 36.0718 31.9825C35.64 31.2882 35.165 30.5939 34.7332 29.943C34.3445 29.292 33.9127 28.5977 33.4809 27.9468ZM33.3082 29.1184C33.3514 28.9449 33.3514 28.7279 33.3945 28.5543C33.7832 29.1618 34.215 29.8128 34.6468 30.4203C35.0786 31.0712 35.5104 31.7222 35.9423 32.3731C35.8991 32.5033 35.8127 32.6335 35.7695 32.7637C35.3377 32.1561 34.9059 31.5486 34.5173 30.9411C34.1286 30.2901 33.6968 29.726 33.3082 29.1184ZM33.1355 30.3335C33.1786 30.1165 33.1786 29.943 33.2218 29.726C33.6104 30.2901 33.9991 30.8543 34.3877 31.4184C34.7764 31.9825 35.2082 32.5467 35.5968 33.1542C35.5536 33.2844 35.4673 33.4146 35.4241 33.5448C35.0354 32.9806 34.6468 32.4599 34.2582 31.9391C33.9127 31.375 33.5241 30.8543 33.1355 30.3335ZM32.9627 31.5052C33.0059 31.2882 33.0059 31.1146 33.0491 30.8977C33.3945 31.375 33.7832 31.8958 34.1286 32.3731C34.5173 32.8939 34.8627 33.3712 35.2514 33.8919C35.2082 34.0221 35.1218 34.1523 35.0786 34.2825C34.7332 33.8052 34.3445 33.3278 33.9991 32.8505C33.6968 32.4165 33.3082 31.9825 32.9627 31.5052ZM32.8332 32.7203C32.8764 32.5033 32.8764 32.3297 32.9195 32.1127C33.265 32.5467 33.5673 32.9806 33.9127 33.4146C34.2582 33.8486 34.6036 34.2825 34.9491 34.7599C34.9059 34.89 34.8195 35.0202 34.7764 35.1938C34.1286 34.3259 33.4809 33.5014 32.8332 32.7203ZM32.7036 33.8919C32.7468 33.675 32.7468 33.5014 32.79 33.2844C33.3945 34.0221 33.9991 34.8033 34.6468 35.5844C34.6036 35.7146 34.5173 35.8881 34.4741 36.0183C33.8695 35.2806 33.265 34.5863 32.7036 33.8919ZM32.5741 35.107C32.5741 34.89 32.6173 34.7165 32.6605 34.4995C33.2218 35.1504 33.74 35.8014 34.3014 36.4523C34.2582 36.5825 34.1718 36.7561 34.1286 36.8862C33.6104 36.2787 33.0923 35.6712 32.5741 35.107ZM32.4445 36.2787C32.4445 36.0617 32.4877 35.8881 32.4877 35.6712C32.9627 36.2353 33.4377 36.7561 33.9559 37.3202C33.9127 37.4938 33.8264 37.624 33.7832 37.7542C33.3514 37.2768 32.8764 36.7561 32.4445 36.2787ZM32.315 37.4938C32.315 37.2768 32.3582 37.1032 32.3582 36.8862C32.79 37.3202 33.1786 37.7542 33.6105 38.2315C33.5673 38.4051 33.5241 38.5353 33.4377 38.7089C33.0923 38.2749 32.7036 37.8843 32.315 37.4938ZM32.2286 38.6655C32.2286 38.4485 32.2718 38.2749 32.2718 38.0579C32.6173 38.4051 32.9627 38.7522 33.3082 39.0994C33.265 39.273 33.2218 39.4032 33.1355 39.5768C32.8332 39.273 32.5309 38.9692 32.2286 38.6655ZM32.1423 39.8371C32.1423 39.6202 32.1855 39.4466 32.1855 39.2296C32.4445 39.49 32.7036 39.7503 33.0059 40.0107C32.9627 40.1843 32.9195 40.3145 32.8332 40.4881C32.5741 40.3145 32.3582 40.0975 32.1423 39.8371ZM32.0559 41.0522C32.0559 40.8352 32.0991 40.6617 32.0991 40.4881C32.315 40.6617 32.4877 40.8352 32.7036 41.0522C32.6605 41.2258 32.6173 41.356 32.5309 41.5296C32.3582 41.3126 32.1855 41.1824 32.0559 41.0522ZM31.9695 42.2239C31.9695 42.0503 32.0127 41.8333 32.0127 41.6164C32.1423 41.7465 32.2286 41.8333 32.3582 41.9201C32.315 42.0937 32.2718 42.2239 32.2286 42.3975C32.1423 42.3541 32.0559 42.3107 31.9695 42.2239Z" fill="#0B3E6A"/>
<path fill-rule="evenodd" clip-rule="evenodd" d="M24.3696 44.9578L30.631 45.1314C30.3719 45.088 30.1128 44.9578 29.8537 44.9144C30.2423 35.8014 31.581 27.5128 34.0855 19.745L34.0423 16.664L33.4378 7.59429C33.3946 7.63769 33.3082 7.72448 33.265 7.76787L33.9991 17.3149L33.9128 17.4885L33.0923 7.98485C33.0491 8.07164 32.9628 8.11504 32.9196 8.20183L33.8264 17.6187L33.74 17.7922L32.7469 8.41881C32.6605 8.5056 32.6173 8.59239 32.531 8.67918L33.6105 18.0092L33.481 18.2262L32.3151 8.98295C32.2287 9.06974 32.1855 9.15653 32.0991 9.24332L33.3946 18.4432L33.265 18.6602L31.8832 9.54709C31.7969 9.63388 31.7537 9.76407 31.6673 9.85086L33.1355 18.8771L33.0491 19.0941L31.4946 10.1546C25.1469 19.3111 24.2401 31.809 24.3696 44.9578ZM34.0423 14.7979V12.4546L33.7832 7.20373C33.74 7.24713 33.6969 7.33392 33.6105 7.37731L34.0423 14.7979ZM33.9991 9.06974V6.94336C33.956 6.98675 33.9559 6.98676 33.9128 7.03015L33.9991 9.06974ZM31.0196 10.9791C31.106 10.849 31.1491 10.6754 31.2355 10.5452L32.8764 19.3111L32.7469 19.5715L31.0196 10.9791ZM30.5878 11.9338C30.6742 11.7603 30.7173 11.5867 30.8037 11.4131C31.4082 14.2338 32.0128 17.0545 32.6173 19.8318L32.4878 20.1356C31.8401 17.4451 31.1923 14.6678 30.5878 11.9338ZM30.1128 12.9753C30.1992 12.8018 30.2423 12.6282 30.3287 12.4546C30.9764 15.1017 31.6241 17.7922 32.3151 20.4394L32.1423 20.7431C31.4946 18.1828 30.8037 15.5791 30.1128 12.9753ZM29.681 14.1036C29.7673 13.8866 29.8105 13.7131 29.8969 13.5395C30.5878 16.0564 31.3219 18.5734 32.0128 21.1337L31.8401 21.4809C31.106 19.0073 30.4151 16.5338 29.681 14.1036ZM29.2492 15.3187C29.3355 15.1017 29.3787 14.9281 29.4651 14.7112C30.1992 17.0545 30.9332 19.4413 31.6673 21.7846L31.4946 22.1318C30.7605 19.8752 29.9832 17.5753 29.2492 15.3187ZM28.8173 16.5772C28.9037 16.3602 28.9469 16.1432 29.0333 15.9262C29.8105 18.096 30.5878 20.3092 31.3651 22.5224L31.1923 22.9129C30.3719 20.7865 29.5946 18.7035 28.8173 16.5772ZM28.3855 17.9224C28.4719 17.7055 28.5151 17.4885 28.6014 17.2715C29.3787 19.2677 30.1992 21.3073 30.9764 23.3469L30.8037 23.7808C29.9832 21.7846 29.206 19.8752 28.3855 17.9224ZM27.9969 19.3545C28.0833 19.1375 28.1264 18.8771 28.2128 18.6602C29.0332 20.4828 29.8105 22.3488 30.631 24.1714L30.4582 24.6053C29.5946 22.8261 28.8173 21.0903 27.9969 19.3545ZM27.6083 20.7865C27.6514 20.5262 27.7378 20.2658 27.781 20.0488C28.6014 21.6978 29.4219 23.3469 30.1992 25.0393L30.0264 25.5166C29.2492 23.911 28.4287 22.3488 27.6083 20.7865ZM27.2628 22.3054C27.306 22.045 27.3923 21.828 27.4355 21.5677C28.256 23.0431 29.0333 24.5185 29.8537 25.994L29.681 26.4713C28.8605 25.0827 28.0833 23.694 27.2628 22.3054ZM26.9605 23.8242C27.0037 23.5638 27.0469 23.3035 27.0901 23.0431C27.8673 24.345 28.6446 25.6468 29.4651 26.9487L29.2923 27.4694C28.5151 26.2544 27.7378 25.0393 26.9605 23.8242ZM26.6583 25.3431C26.7014 25.0827 26.7446 24.8223 26.7878 24.5619C27.5651 25.6902 28.2992 26.8185 29.0764 27.9468L28.9037 28.4675C28.1696 27.426 27.4355 26.3846 26.6583 25.3431ZM26.4424 26.9053C26.4855 26.6449 26.5287 26.3846 26.5719 26.1242C27.306 27.0789 28.0401 28.0336 28.731 29.0317L28.5583 29.5958C27.8242 28.6845 27.1333 27.8166 26.4424 26.9053ZM26.1833 28.4675C26.2264 28.2072 26.2696 27.9468 26.2696 27.6864C26.9605 28.5109 27.6514 29.2921 28.3423 30.1166L28.1696 30.6807C27.5219 29.943 26.8742 29.2053 26.1833 28.4675ZM26.0105 30.0298C26.0537 29.7694 26.0537 29.509 26.0969 29.2487C26.7446 29.8996 27.3492 30.5939 27.9969 31.2449L27.8242 31.809C27.2196 31.2449 26.6151 30.6373 26.0105 30.0298ZM25.8378 31.5486C25.881 31.2882 25.881 31.0279 25.9242 30.7675C26.4855 31.3316 27.0901 31.8524 27.6514 32.4165L27.4787 33.0241C26.9605 32.5467 26.3992 32.026 25.8378 31.5486ZM25.7083 33.0675C25.7514 32.8071 25.7515 32.5467 25.7946 32.3297C26.3128 32.7637 26.831 33.1977 27.3492 33.6316C27.306 33.8486 27.2628 34.0222 27.1764 34.2391C26.7014 33.8486 26.1833 33.458 25.7083 33.0675ZM25.5787 34.5863C25.5787 34.3259 25.6219 34.109 25.6219 33.8486C26.0969 34.1958 26.5287 34.4995 27.0037 34.8467L26.8742 35.4542C26.4424 35.1505 26.0105 34.8467 25.5787 34.5863ZM25.4924 36.0618C25.4924 35.8014 25.5355 35.5844 25.5355 35.324C25.9242 35.5844 26.3128 35.8014 26.7014 36.0618C26.6583 36.2787 26.6151 36.4957 26.5719 36.6693C26.2264 36.4523 25.881 36.2787 25.4924 36.0618ZM25.4492 37.4938C25.4492 37.2768 25.4492 37.0165 25.4924 36.7561L26.4424 37.2768C26.3992 37.4938 26.356 37.7108 26.3128 37.8844L25.4492 37.4938ZM25.406 38.9259C25.406 38.7089 25.406 38.4485 25.406 38.2315L26.1401 38.5787L26.0537 39.1862L25.406 38.9259ZM25.406 40.3145C25.406 40.0975 25.406 39.8372 25.406 39.6202L25.9242 39.8372L25.7946 40.4881L25.406 40.3145ZM25.406 41.6598C25.406 41.4428 25.406 41.2258 25.406 41.0089L25.7083 41.0956L25.6219 41.7032L25.406 41.6598ZM25.4492 42.7447V42.3107H25.5355L25.4492 42.7447Z" fill="#0B3E6A"/>
<path fill-rule="evenodd" clip-rule="evenodd" d="M29.9832 60.19C30.0696 60.19 30.1991 60.2334 30.2855 60.2334C30.2855 60.2334 30.2855 60.2334 30.2855 60.2768C30.1559 60.2334 30.0696 60.19 29.9832 60.19ZM42.2468 51.6411C34.4309 51.7712 26.615 51.9882 18.8855 52.2052C23.1173 51.5109 38.1445 51.3373 42.2468 51.6411ZM19.6628 51.4675C27.3923 50.7297 34.9491 50.5128 42.29 51.0769C42.765 51.0335 42.765 51.4675 42.765 51.858C42.7218 52.8561 42.5059 56.5881 42.3331 59.1919C42.2468 59.2353 42.1172 59.3221 42.0309 59.3655C41.9877 59.8862 41.9445 60.407 41.9445 60.8843C41.9013 61.3183 41.9013 61.7088 41.8581 62.1428C41.7718 62.2296 41.6854 62.273 41.5559 62.273C41.5991 61.839 41.5991 61.4051 41.6422 60.9711C41.6854 60.4937 41.6854 60.0164 41.7286 59.4957C41.6422 59.539 41.5127 59.5824 41.4263 59.6692C41.3831 60.1032 41.3832 60.5805 41.34 61.0145C41.2968 61.4485 41.2968 61.8824 41.2536 62.3164L40.9513 62.273C40.9945 61.8824 40.9945 61.4918 41.0377 61.1013C41.0809 60.6673 41.0809 60.2768 41.1241 59.8428C41.0377 59.8862 40.9081 59.9296 40.8218 59.973C40.7786 60.3636 40.7786 60.7541 40.7354 61.1447C40.6922 61.4918 40.6922 61.8824 40.6491 62.2296L40.3468 62.1862C40.3468 61.839 40.39 61.5352 40.39 61.1881C40.4332 60.8409 40.4332 60.4504 40.4763 60.1032C40.39 60.1466 40.2604 60.19 40.1741 60.19C40.1309 60.5371 40.1309 60.8843 40.0877 61.1881C40.0877 61.4918 40.0445 61.7956 40.0445 62.0994L39.7422 62.056C39.7422 61.7522 39.7854 61.4918 39.7854 61.1881C39.7854 60.8843 39.8286 60.5371 39.8286 60.2334C39.7423 60.2768 39.6127 60.2768 39.5263 60.3202C39.5263 60.6239 39.4832 60.9277 39.4832 61.1881C39.4832 61.4485 39.44 61.7088 39.44 61.9692L39.1377 61.9258C39.1377 61.6654 39.1809 61.4485 39.1809 61.1881C39.1809 60.9277 39.2241 60.6239 39.2241 60.3636C39.1377 60.407 39.0082 60.407 38.9218 60.4504C38.9218 60.7107 38.8786 60.9711 38.8786 61.2315C38.8786 61.4485 38.8354 61.6654 38.8354 61.8824L38.5332 61.839L38.5763 61.2315C38.5763 60.9711 38.6195 60.7541 38.6195 60.4937C38.5332 60.4937 38.4036 60.5371 38.3173 60.5371C38.3173 60.7541 38.2741 60.9711 38.2741 61.1881C38.2741 61.3617 38.2309 61.5786 38.2309 61.7522L37.9286 61.7088C37.9286 61.5352 37.9718 61.3617 37.9718 61.1881C37.9718 60.9711 38.015 60.7541 38.015 60.5805C37.9286 60.5805 37.7991 60.5805 37.7127 60.6239C37.7127 60.8409 37.6695 61.0145 37.6695 61.2315C37.6695 61.4051 37.6695 61.5352 37.6264 61.7088L37.3241 61.6654C37.3241 61.5352 37.3241 61.3617 37.3673 61.2315C37.3673 61.0579 37.4104 60.8843 37.4104 60.6673C37.3241 60.6673 37.1945 60.6673 37.1082 60.6673C37.1082 60.8409 37.065 61.0145 37.065 61.1881C37.065 61.3183 37.065 61.4484 37.0218 61.5786L36.7195 61.5352C36.7195 61.4051 36.7195 61.2749 36.7627 61.1447C36.7627 60.9711 36.7627 60.8409 36.8059 60.6673C36.7195 60.6673 36.59 60.6673 36.5036 60.6673C36.5036 60.7975 36.5036 60.9711 36.4604 61.1013C36.4604 61.2315 36.4604 61.3183 36.4173 61.4485L36.115 61.4051C36.115 61.3183 36.115 61.1881 36.115 61.1013C36.115 60.9711 36.115 60.7975 36.1582 60.6673C36.0718 60.6673 35.9423 60.6673 35.8559 60.6673C35.8559 60.7975 35.8559 60.9277 35.8127 61.0579C35.8127 61.1447 35.8127 61.2315 35.8127 61.3617L35.5105 61.3183C35.5105 61.2315 35.5105 61.1447 35.5105 61.0579C35.5105 60.9277 35.5105 60.7975 35.5536 60.6673C35.4673 60.6673 35.3377 60.6673 35.2514 60.6673C35.2514 60.7975 35.2514 60.8843 35.2082 61.0145V61.2749L34.9059 61.2315C34.9059 61.1447 34.9059 61.0579 34.9059 61.0145C34.9059 60.8843 34.9059 60.7975 34.9059 60.6673C34.8195 60.6673 34.69 60.6673 34.6036 60.6673C34.6036 60.7541 34.6036 60.8843 34.6036 60.9711C34.6036 61.0579 34.6036 61.1013 34.6036 61.1881L34.3014 61.1447C34.3014 61.0579 34.3014 61.0145 34.3014 60.9277C34.3014 60.8409 34.3014 60.7541 34.3014 60.6239C34.215 60.6239 34.0855 60.6239 33.9991 60.6239C33.9991 60.7107 33.9991 60.7975 33.9991 60.8843V61.0579L33.6968 61.0145C33.6968 60.9711 33.6968 60.8843 33.6968 60.8409C33.6968 60.7541 33.6968 60.6673 33.6968 60.5805C33.6105 60.5805 33.4809 60.5805 33.3946 60.5371C33.3946 60.6239 33.3946 60.7107 33.3946 60.7541C33.3946 60.7975 33.3946 60.8843 33.3946 60.9277L33.0923 60.8843C33.0923 60.8409 33.0923 60.7541 33.0923 60.7107C33.0923 60.6239 33.0923 60.5805 33.0923 60.4937C33.0059 60.4937 32.8764 60.4504 32.79 60.4504C32.79 60.5371 32.79 60.5805 32.79 60.6673C32.79 60.7107 32.79 60.7975 32.79 60.8409L32.4877 60.7975C32.4877 60.7541 32.4877 60.7107 32.4877 60.6239C32.4877 60.5805 32.4877 60.4937 32.4877 60.4504C32.4014 60.4504 32.2718 60.407 32.1855 60.407C32.1855 60.4504 32.1855 60.4938 32.1855 60.5805C32.1855 60.6239 32.1855 60.6673 32.1855 60.7541C27.8673 59.9296 23.7219 58.8881 20.0514 57.3693C19.1014 56.9787 19.0151 56.6749 18.756 55.6334C18.4105 54.3316 18.3674 53.1165 18.5401 51.9448C18.756 51.5543 19.3174 51.5109 19.6628 51.4675ZM31.7537 60.4504C31.84 60.4504 31.9696 60.4937 32.0559 60.4937C32.0559 60.5371 32.0559 60.5805 32.0559 60.6239C32.0559 60.6673 32.0559 60.7107 32.0559 60.7541C31.9696 60.7107 31.84 60.7107 31.7537 60.6673C31.7537 60.6239 31.7537 60.5805 31.7537 60.5371C31.7537 60.5371 31.7537 60.4937 31.7537 60.4504ZM31.1491 60.3636C31.2355 60.3636 31.365 60.407 31.4514 60.407C31.4514 60.4504 31.4514 60.4937 31.4514 60.4937C31.4514 60.5371 31.4514 60.5805 31.4514 60.5805C31.365 60.5371 31.2355 60.5371 31.1491 60.4937C31.1491 60.4504 31.1491 60.4504 31.1491 60.407C31.1491 60.407 31.1491 60.407 31.1491 60.3636ZM30.5446 60.2768C30.6309 60.2768 30.7605 60.3202 30.8468 60.3202C30.8468 60.3202 30.8468 60.3636 30.8468 60.407V60.4504C30.7605 60.407 30.6309 60.407 30.5446 60.3636V60.3202V60.2768ZM19.4037 53.3335H19.4901C19.5333 53.3335 19.5764 53.2901 19.5764 53.2901V52.8995C19.5764 52.8561 19.5333 52.8127 19.4901 52.8127H19.4037C19.3605 52.8127 19.3174 52.8561 19.3174 52.8561V53.2467C19.3174 53.2901 19.3605 53.3335 19.4037 53.3335ZM30.1128 54.5486L30.5878 54.592C30.7605 54.592 30.8468 54.4618 30.8468 54.3316L30.8037 54.0278C30.8037 53.8542 30.6741 53.724 30.5014 53.724L30.0264 53.6806C29.8537 53.6806 29.7673 53.8108 29.7673 53.941L29.8105 54.2448C29.8105 54.4184 29.94 54.5486 30.1128 54.5486Z" fill="#0B3E6A"/>
<path fill-rule="evenodd" clip-rule="evenodd" d="M43.8876 58.2801C43.974 58.2801 44.0604 58.2801 44.1467 58.2801C44.0604 58.3235 43.974 58.3235 43.8876 58.2801ZM42.9808 58.2801L44.4058 58.3669V58.3235C44.4922 58.3235 44.5785 58.3235 44.6649 58.3235V58.3669H44.924C44.924 58.3235 44.924 58.3235 44.924 58.2801C45.0103 58.2801 45.0967 58.2801 45.1831 58.2801C45.1831 58.3235 45.1831 58.3669 45.1831 58.3669H45.4422C45.4422 58.3235 45.4422 58.2801 45.4422 58.2367C45.5285 58.2367 45.6149 58.2367 45.7013 58.2367C45.7013 58.2801 45.7013 58.3235 45.7013 58.3669V58.4103H45.9603V58.3669C45.9603 58.3235 45.9603 58.2801 45.9603 58.2367C46.0467 58.2367 46.1331 58.2367 46.2194 58.2367C46.2194 58.2801 46.2194 58.3669 46.2194 58.4103V58.4537H46.4785V58.4103C46.4785 58.3669 46.4785 58.2801 46.4785 58.2367C46.5649 58.2367 46.6513 58.2367 46.7376 58.2367C46.7376 58.3235 46.7376 58.3669 46.7376 58.4537V58.4971H46.9967V58.4103C46.9967 58.3235 46.9967 58.2801 46.9967 58.1933C47.0831 58.1933 47.1694 58.1933 47.2558 58.1933C47.2558 58.2801 47.2558 58.3669 47.2558 58.4103C47.2558 58.4537 47.2558 58.4537 47.2558 58.4971H47.5149V58.3669C47.5149 58.2801 47.5149 58.1933 47.5149 58.1065C47.6012 58.1065 47.6876 58.1065 47.774 58.0631C47.774 58.1499 47.774 58.2367 47.774 58.3235C47.774 58.3669 47.774 58.4103 47.774 58.4537H48.0331C48.0331 58.4103 48.0331 58.3669 48.0331 58.2801C48.0331 58.1933 48.0331 58.1065 48.0331 57.9763C48.1194 57.9763 48.2058 57.9763 48.2922 57.9329C48.2922 58.0197 48.2922 58.1499 48.2922 58.2367C48.2922 58.2801 48.2922 58.3669 48.2922 58.4103H48.5512V58.1933C48.5512 58.0631 48.5512 57.9763 48.5512 57.8462C48.6376 57.8462 48.724 57.8028 48.8103 57.8028C48.8103 57.9329 48.8103 58.0197 48.7672 58.1499C48.7672 58.2367 48.7672 58.3235 48.7672 58.4103H49.0262C49.0262 58.3235 49.0262 58.2367 49.0262 58.1499C49.0262 58.0197 49.0262 57.8895 49.0694 57.7594C49.1558 57.7594 49.2421 57.716 49.3285 57.716C49.3285 57.8462 49.3285 57.9763 49.2853 58.1065C49.2853 58.1933 49.2853 58.3235 49.2853 58.4103H49.5444C49.5444 58.2801 49.5444 58.1933 49.5444 58.0631C49.5444 57.9329 49.5444 57.7594 49.5876 57.6292C49.674 57.6292 49.7603 57.5858 49.8467 57.5858C49.8467 57.7594 49.8467 57.8895 49.8035 58.0197C49.8035 58.1499 49.8035 58.2801 49.7603 58.4103C49.8467 58.4103 49.9331 58.4103 50.0194 58.4103C50.0194 58.2801 50.0194 58.1065 50.0626 57.9763C50.0626 57.8028 50.0626 57.6726 50.1058 57.499C50.1921 57.499 50.2785 57.4556 50.3649 57.4556C50.3649 57.6292 50.3217 57.8028 50.3217 57.9763C50.3217 58.1499 50.3217 58.2801 50.2785 58.4537C50.3649 58.4537 50.4512 58.4537 50.5376 58.4537C50.5376 58.2801 50.5376 58.1065 50.5808 57.9329C50.5808 57.7594 50.624 57.5858 50.624 57.3688C50.7103 57.3254 50.7967 57.3254 50.9262 57.282C50.9262 57.499 50.883 57.6726 50.883 57.8895C50.883 58.0631 50.8399 58.2801 50.8399 58.4537C50.9262 58.4537 51.0126 58.4537 51.099 58.4537C51.099 58.2367 51.1421 58.0631 51.1421 57.8462C51.1421 57.6292 51.1853 57.4122 51.1853 57.2386C51.2717 57.1952 51.358 57.1952 51.4876 57.1518C51.4876 57.3688 51.4444 57.5858 51.4444 57.8462C51.4444 58.0631 51.4012 58.2801 51.4012 58.4971C52.1785 58.5405 52.9558 58.5405 53.733 58.5405C53.7762 58.5405 53.8626 58.5405 53.9058 58.5405C53.9489 58.1065 53.9489 57.6726 53.9921 57.282C54.0353 56.8481 54.0353 56.4141 54.0785 56.0235C54.1648 55.9801 54.2512 55.8934 54.3808 55.85C54.3376 56.2839 54.3376 56.7613 54.2944 57.1952C54.2512 57.6292 54.2512 58.0631 54.208 58.4971C54.2944 58.4537 54.4239 58.4103 54.5103 58.3669C54.5535 57.9329 54.5535 57.499 54.5967 57.065C54.6398 56.5877 54.6398 56.1103 54.683 55.633L54.9421 55.4594C54.9853 53.6802 54.9853 51.5538 54.9853 50.7727V50.7293C54.9853 50.7293 54.9853 50.7293 54.9853 50.6859C54.9853 50.3821 54.8126 50.2519 54.4239 50.2953C49.8467 50.2085 44.924 50.1217 40.3899 50.2519L35.0354 50.5123C35.7263 50.5557 41.7717 50.8595 42.4626 50.9029C42.9376 50.8595 42.9376 51.2934 42.9376 51.684C43.2399 52.7689 43.1104 55.8934 42.9808 58.2801ZM53.9489 56.6311C54.0353 56.5877 54.1217 56.5443 54.2512 56.4575C54.208 56.8481 54.208 57.2386 54.1649 57.6292C54.1217 58.0197 54.1217 58.4103 54.0785 58.8009C53.9921 58.8009 53.9058 58.8009 53.8194 58.8009C53.8626 58.4537 53.8626 58.0631 53.9058 57.716C53.9058 57.3688 53.9058 57.0216 53.9489 56.6311ZM53.3444 56.9348C53.4308 56.8914 53.5171 56.8481 53.6467 56.8047C53.6035 57.1518 53.6035 57.499 53.5603 57.8462C53.5603 58.1933 53.5171 58.5405 53.5171 58.8876C53.4308 58.8876 53.3444 58.8876 53.258 58.8876C53.258 58.5839 53.3012 58.2367 53.3012 57.9329C53.3444 57.5858 53.3444 57.282 53.3444 56.9348ZM52.783 57.1952C52.8694 57.1518 52.9558 57.1084 53.0853 57.065C53.0853 57.3688 53.0421 57.6726 53.0421 57.9329C53.0421 58.2367 52.9989 58.5405 52.9989 58.8009C52.9126 58.8009 52.8262 58.8009 52.7399 58.8009C52.7399 58.5405 52.783 58.2367 52.783 57.9763C52.7399 57.7594 52.783 57.4556 52.783 57.1952ZM52.2217 57.4122C52.308 57.3688 52.3944 57.3254 52.5239 57.3254C52.5239 57.5858 52.4808 57.8461 52.4808 58.1065C52.4808 58.3669 52.4376 58.6273 52.4376 58.8876C52.3512 58.8876 52.2649 58.8876 52.1785 58.8876C52.1785 58.6273 52.2217 58.4103 52.2217 58.1499C52.1785 57.8895 52.2217 57.6292 52.2217 57.4122ZM47.8603 52.5085L48.724 52.4651C48.8103 52.4651 48.8967 52.3783 48.8967 52.2481L48.8535 52.0312C48.8535 51.9444 48.724 51.8576 48.6376 51.8576L47.774 51.901C47.6876 51.901 47.6012 51.9878 47.6012 52.1179L47.6444 52.3349C47.6876 52.4217 47.774 52.5085 47.8603 52.5085Z" fill="#0B3E6A"/>
<path fill-rule="evenodd" clip-rule="evenodd" d="M22.1672 48.5601C22.0809 48.4733 22.0809 48.4299 22.1241 48.3431C22.5559 47.779 25.7513 47.6488 27.349 47.6488C32.099 47.6488 37.1081 47.6054 40.9944 48.5167C41.4694 48.6035 40.9081 48.8638 40.7353 48.9506C40.649 48.9506 40.6922 49.0374 40.649 49.0374C37.1513 49.0808 33.5672 49.0374 30.0263 49.0808C29.9399 49.0808 29.8968 49.1242 29.8104 49.1242C27.8672 49.1676 26.0104 49.2544 24.0672 49.2978C23.9809 49.2978 23.8945 49.1242 23.765 49.1242C23.5491 49.0374 22.34 48.6903 22.1672 48.5601Z" fill="#0B3E6A"/>
<path fill-rule="evenodd" clip-rule="evenodd" d="M23.7651 48.8205L23.7219 50.9469C24.1969 50.9035 24.6287 50.8601 25.1037 50.8601L25.2333 48.6035L23.7651 48.8205Z" fill="#0B3E6A"/>
<path fill-rule="evenodd" clip-rule="evenodd" d="M26.874 48.8203L27.0036 50.7297H27.349L27.3058 48.8203H26.874Z" fill="#0B3E6A"/>
<path fill-rule="evenodd" clip-rule="evenodd" d="M29.7241 48.7768L29.8105 50.5994H30.2423V48.7334L29.7241 48.7768Z" fill="#0B3E6A"/>
<path fill-rule="evenodd" clip-rule="evenodd" d="M34.5605 48.7334L34.6901 50.556H35.2083L35.1651 48.7334H34.5605Z" fill="#0B3E6A"/>
<path fill-rule="evenodd" clip-rule="evenodd" d="M36.374 48.7764V50.5122H36.9786L36.9354 48.7764H36.374Z" fill="#0B3E6A"/>
<path fill-rule="evenodd" clip-rule="evenodd" d="M40.5195 48.8637V48.9939L40.6923 50.3392H40.9513L40.7354 48.8203L40.5195 48.8637Z" fill="#0B3E6A"/>
<path fill-rule="evenodd" clip-rule="evenodd" d="M24.4561 44.2202L25.3197 47.6918L25.4924 47.6484L24.6288 44.1768L24.4561 44.2202Z" fill="#0B3E6A"/>
<path d="M22.4263 75.7257C22.5559 75.6389 22.6422 75.5521 22.7718 75.4653C22.815 75.4219 22.9013 75.3785 22.9445 75.3351C23.0309 75.2484 23.1172 75.2483 23.1604 75.205C23.1604 75.205 23.1172 75.205 23.0309 75.1616C22.9877 75.1616 22.9445 75.1182 22.8581 75.1182H22.7718H22.7286H22.599C21.9513 75.1182 21.2172 75.2917 20.6127 75.7257C20.3968 75.8993 20.1377 76.2898 19.965 76.8106C19.7922 77.3313 19.7491 77.9823 19.965 78.6766C20.2672 79.7615 20.2241 80.5426 20.0945 81.0634C20.0081 81.5841 19.8354 81.8879 19.7922 81.8879C19.7922 81.8879 20.0945 81.8879 20.44 81.8011C20.7854 81.6709 21.1741 81.4539 21.4763 80.9332C21.5627 80.803 21.6922 80.5426 21.7786 80.0653C21.865 79.5879 21.9081 78.8936 21.8218 77.9389C21.7786 77.3747 21.7786 76.9408 21.9081 76.5936C21.9945 76.2031 22.2104 75.9427 22.4263 75.7257Z" fill="#0B3E6A"/>
<path d="M25.406 75.4223C25.1901 75.2053 25.0174 74.9449 24.8446 74.6846C24.7151 74.7714 24.5424 74.8581 24.3697 75.0317C24.2401 75.1619 24.0674 75.4657 23.8947 75.943C23.7219 76.4204 23.5492 76.9845 23.506 77.7223C23.4628 78.2864 23.3333 78.7204 23.1606 79.1109C23.1174 79.1543 23.1174 79.1977 23.0742 79.2411L23.031 79.2845L22.9878 79.3279V79.3713L22.9015 79.5883C22.8583 79.7185 22.8151 79.8486 22.7719 79.9788C22.6856 80.1958 22.5992 80.3694 22.5128 80.4562C22.4265 80.543 22.3833 80.6298 22.3833 80.6298C22.3833 80.6298 22.5992 80.7166 22.8583 80.7599C22.9015 80.7599 22.9878 80.7599 23.031 80.7599C23.0742 80.7599 23.0742 80.7599 23.1174 80.7599H23.2038C23.2469 80.7599 23.2901 80.7599 23.3333 80.7166C23.6787 80.6298 24.0674 80.4996 24.4128 80.2826C24.5856 80.1958 24.8878 79.9354 25.1469 79.4581C25.406 78.9807 25.5356 78.243 25.406 77.2883C25.2765 76.4638 25.3196 75.8562 25.406 75.4223Z" fill="#0B3E6A"/>
<path d="M26.6582 79.197C26.3559 79.7177 25.9241 79.9781 25.9241 80.0215C25.9241 80.0215 26.2695 80.1083 26.7877 80.0215C27.3059 79.9347 27.9968 79.6743 28.515 79.0234C28.6013 78.8932 28.7741 78.6762 28.9036 78.2857C28.1695 77.9385 27.6082 77.4178 27.0036 76.9404C27.1763 77.8951 26.9604 78.6762 26.6582 79.197Z" fill="#0B3E6A"/>
<path d="M31.0628 71.7771C31.106 71.2997 31.2787 71.0394 31.3651 70.9092C31.3651 70.9092 31.106 70.9526 30.8037 71.1696C30.5878 71.2997 30.3719 71.4733 30.156 71.7337C30.4583 71.6903 30.7605 71.6903 31.0628 71.7771Z" fill="#0B3E6A"/>
<path d="M29.9832 78.1121C29.8969 78.2856 29.8105 78.3724 29.7673 78.3724C29.7673 78.3724 30.1128 78.3724 30.5878 78.1988C30.9764 78.0253 31.4514 77.7649 31.7969 77.2441C31.2787 77.6781 30.631 77.9819 29.9832 78.1121Z" fill="#0B3E6A"/>
<path d="M34.4309 71.5159C33.2218 69.6933 33.6968 68.8254 33.8695 68.6084C33.8695 68.6084 33.6104 68.6952 33.3081 68.9122C33.0059 69.1291 32.6604 69.4763 32.4445 69.9537C32.3581 70.1272 32.315 70.5178 32.4013 71.0385C32.4445 71.5159 32.5741 72.08 32.8763 72.6442C33.6968 72.4706 34.5172 72.8612 35.2081 73.4253C35.1649 72.9479 34.949 72.297 34.4309 71.5159Z" fill="#0B3E6A"/>
<path d="M36.849 73.382C37.2376 73.1216 37.6695 72.6877 37.8854 71.95C37.9285 71.8198 38.0149 71.4292 37.9285 70.9519C37.8422 70.4745 37.6263 69.8236 37.1081 68.9991C36.5035 68.0877 36.4172 67.35 36.5035 66.8293C36.5899 66.3085 36.8922 66.0048 37.0649 65.918C37.0649 65.918 36.7626 66.0048 36.3308 66.2217C35.899 66.4821 35.424 66.8727 35.1217 67.4802C35.0786 67.567 35.0354 67.7406 34.9922 67.9576C34.9922 68.0444 34.9922 68.1745 34.9922 68.3047C34.9922 68.4349 35.0354 68.5217 35.0354 68.6519C35.1217 69.1726 35.3376 69.7802 35.7263 70.3443C36.3308 71.2556 36.4604 72.0801 36.4172 72.6877C36.374 73.2952 36.2013 73.6424 36.1581 73.6858C36.1149 73.6858 36.4604 73.6424 36.849 73.382Z" fill="#0B3E6A"/>
<path d="M40.5195 64.7901C40.865 64.3561 41.34 64.1826 41.5127 64.1392C41.5127 64.1392 41.1241 64.0524 40.6059 64.1392C40.0445 64.1826 39.3536 64.4429 38.7923 64.9203C38.5763 65.0939 38.3604 65.5278 38.2309 66.0486C38.1013 66.5693 38.1445 67.2636 38.4036 67.9146C38.6195 68.4353 38.7491 68.8693 38.7923 69.2598C38.8786 69.6504 38.8786 69.9976 38.8786 70.2579C38.8786 70.7787 38.7491 71.0825 38.7059 71.1258C38.7059 71.1258 38.965 71.0825 39.3104 70.9523C39.4832 70.8655 39.6127 70.7787 39.7854 70.6051C39.9582 70.4315 40.0877 70.2579 40.1741 69.9542C40.2172 69.824 40.3036 69.5636 40.3468 69.0863C40.39 68.6089 40.39 67.9146 40.1741 66.9599C40.0445 66.4391 40.0445 65.9618 40.1309 65.6146C40.2172 65.3108 40.3468 65.0505 40.5195 64.7901Z" fill="#0B3E6A"/>
<path d="M41.9446 69.6934C42.0741 69.6066 42.2468 69.5198 42.4196 69.3462C42.5059 69.2594 42.6786 69.0859 42.8946 68.6953C43.0241 68.4783 43.1536 68.2614 43.3264 67.9576C43.4991 67.6538 43.6718 67.3067 43.8445 66.8293C44.0605 66.3086 44.3195 65.9614 44.5786 65.701C44.8809 65.4406 45.1832 65.3105 45.4423 65.2237C45.7445 65.1803 46.0036 65.1803 46.2195 65.2237C46.4354 65.2671 46.6082 65.3539 46.6945 65.3973C46.6945 65.3973 46.4354 65.0935 45.9173 64.7463C45.6582 64.5727 45.3127 64.4426 44.9673 64.3558C44.5786 64.269 44.19 64.2256 43.7582 64.269H43.715C43.4127 64.3124 42.9377 64.5293 42.5059 64.9199C42.0741 65.3539 41.815 65.918 41.7287 66.6557C41.6855 67.2199 41.5991 67.6538 41.5127 68.0444C41.4264 68.4349 41.34 68.7387 41.2537 68.9557C41.0809 69.433 40.9082 69.65 40.9082 69.65C40.9082 69.65 41.1241 69.7368 41.4264 69.7368C41.6855 69.7802 41.815 69.7368 41.9446 69.6934Z" fill="#0B3E6A"/>
<path d="M49.8035 69.1299C49.7171 68.8261 49.6308 68.4356 49.4149 68.0884C49.199 67.7413 48.9399 67.3941 48.5944 67.1337C48.3353 66.9601 47.8171 66.7432 47.2126 66.7432C46.9103 66.7432 46.6081 66.83 46.3058 66.9601C46.0035 67.0903 45.7444 67.2639 45.4853 67.5243C45.0967 67.9148 44.7513 68.2186 44.449 68.479C44.1467 68.7393 43.9308 68.9129 43.7149 69.0431C43.5422 69.1733 43.3694 69.3035 43.2831 69.3469C43.1967 69.3903 43.1535 69.4337 43.1104 69.4337C43.1104 69.4337 43.1967 69.6073 43.3694 69.7808C43.4558 69.8676 43.5422 69.911 43.6285 69.911C43.7581 69.9544 43.8876 69.911 44.1035 69.8676C44.1899 69.8676 44.449 69.7808 44.8808 69.6506L45.7012 69.3903C46.0467 69.3035 46.4353 69.1733 46.8671 68.9563C47.3853 68.7393 47.8171 68.6526 48.2058 68.696C48.5944 68.7393 48.8967 68.8695 49.1558 69.0431C49.4149 69.2167 49.5876 69.4337 49.7171 69.6506C49.8467 69.8676 49.8899 70.0412 49.8899 70.1714C49.8467 70.1714 49.933 69.7374 49.8035 69.1299Z" fill="#0B3E6A"/>
<path d="M48.2491 73.4685C48.465 73.7723 48.5945 74.1195 48.5945 74.4232C48.5945 74.4666 48.5945 74.51 48.5945 74.5534C48.724 74.5534 48.8536 74.5968 48.9831 74.5968C49.0263 74.5968 49.1127 74.6402 49.1559 74.6402C49.2854 74.4666 49.3718 74.2496 49.4581 73.9893C49.5877 73.5987 49.674 73.1648 49.674 72.7308V72.6874C49.674 72.3836 49.5013 71.7761 49.0695 71.3421C48.8536 71.1252 48.6377 70.9082 48.3354 70.778C48.0331 70.6478 47.7309 70.561 47.3422 70.5176C46.7809 70.4742 46.3059 70.4308 45.9604 70.3874C45.5718 70.3441 45.2695 70.3007 45.0536 70.3007C44.8377 70.3007 44.665 70.2573 44.5355 70.2573C44.4491 70.2573 44.3627 70.2139 44.3627 70.2139C44.3627 70.2139 44.2764 70.3875 44.2764 70.561C44.2764 70.6478 44.2764 70.7346 44.3196 70.778C44.3627 70.8648 44.4923 70.9516 44.665 71.0384C44.7514 71.0818 44.9241 71.212 45.3127 71.4289C45.4854 71.5591 45.7445 71.6893 46.0468 71.8629C46.3491 72.0365 46.6945 72.2535 47.1263 72.4704C47.6877 72.861 48.0331 73.1648 48.2491 73.4685Z" fill="#0B3E6A"/>
<path d="M41.34 76.6367C41.34 77.7216 41.0377 78.4159 40.7355 78.8065C40.39 79.1971 40.0014 79.2838 39.8718 79.3272C39.8718 79.3272 40.1741 79.414 40.6059 79.4574C41.0377 79.4574 41.6423 79.414 42.2468 79.0235C42.4627 78.8933 42.765 78.5461 43.0241 78.0688C43.0673 78.0254 43.0673 77.9386 43.1105 77.8952C42.5059 77.4178 41.9445 76.9405 41.34 76.6367Z" fill="#0B3E6A"/>
<path d="M39.1377 74.0762C39.1377 74.0762 39.0945 74.0762 39.0945 74.1196C38.965 74.2064 38.7059 74.4233 38.4468 74.8139C38.1877 75.2478 37.8855 75.8554 37.7127 76.8101C37.54 77.895 37.1082 78.5025 36.7196 78.8063C36.3309 79.11 35.9423 79.1534 35.8127 79.1534C35.8127 79.1534 36.0718 79.2836 36.5036 79.3704C36.9355 79.4572 37.4968 79.5006 38.1014 79.2402C38.3173 79.1534 38.6627 78.8931 39.0082 78.4591C39.3104 78.0252 39.6127 77.461 39.6991 76.7667C39.7854 76.2025 39.915 75.7252 40.0877 75.3346C39.6127 75.0309 39.3968 74.5969 39.1377 74.0762Z" fill="#0B3E6A"/>
<path d="M37.2377 74.5973C37.6264 74.2068 37.9718 74.0766 37.9718 74.0766C37.9718 74.0766 37.7559 73.903 37.3673 73.8162C36.9786 73.7294 36.5036 73.686 35.8559 73.9464C35.7264 73.9898 35.4241 74.1634 35.0786 74.5539C34.7332 74.9011 34.3446 75.5086 34.0423 76.42C33.6968 77.4614 33.1787 77.9822 32.7468 78.2426C32.315 78.5029 31.9264 78.4595 31.7537 78.4161C31.7537 78.4161 32.0128 78.5897 32.4014 78.7633C32.8332 78.9369 33.3946 79.0237 33.9991 78.8935C34.215 78.8501 34.6036 78.6331 34.9923 78.286C35.3809 77.8954 35.7264 77.3746 35.9423 76.6803C36.3309 75.6388 36.8491 74.9879 37.2377 74.5973Z" fill="#0B3E6A"/>
<path d="M28.3422 77.2444C28.7309 77.5481 29.3354 77.8085 30.0263 77.8085C30.2854 77.8085 30.7172 77.6783 31.149 77.4179C31.5809 77.1142 32.0559 76.6802 32.3581 76.0293C32.8763 75.0312 33.4377 74.467 33.8695 74.1633C34.3013 73.8595 34.6468 73.7727 34.6899 73.7727C34.6899 73.7727 34.474 73.5557 34.1286 73.4255C33.7831 73.252 33.3081 73.1652 32.6604 73.3388C32.5309 73.3822 32.2286 73.4689 31.84 73.7727C31.4513 74.0765 30.9763 74.5538 30.4581 75.3784C29.8968 76.2897 29.2491 76.7236 28.7309 76.8104C28.2127 76.9406 27.7809 76.767 27.6082 76.6802C27.7377 76.6368 27.9536 76.9406 28.3422 77.2444Z" fill="#0B3E6A"/>
<path d="M25.0173 74.0328C25.2332 74.4234 25.5786 74.814 26.0104 75.1177C26.0968 75.1611 26.1832 75.2045 26.2695 75.2479C26.3559 75.2913 26.4854 75.3347 26.5718 75.3347C26.8309 75.3781 27.09 75.4215 27.3923 75.3781C27.9536 75.3347 28.5582 75.0309 29.0763 74.5102C29.465 74.1196 29.8104 73.8159 30.1559 73.5989C30.5013 73.3819 30.7604 73.2083 31.0195 73.1215C31.4945 72.9045 31.7968 72.8611 31.84 72.9045C31.84 72.9045 31.7104 72.6876 31.4513 72.4706C31.3218 72.3838 31.1922 72.2536 30.9763 72.2102C30.8036 72.1668 30.5877 72.1234 30.3286 72.1668C30.1991 72.1668 29.9831 72.2102 29.5513 72.3838C29.465 72.4272 29.3354 72.4706 29.2059 72.514L28.7741 72.6876C28.4718 72.8177 28.0832 72.9913 27.6513 73.1649C27.1332 73.3819 26.7013 73.4687 26.3127 73.4253C25.9241 73.3819 25.5786 73.2083 25.3195 72.9913C25.0604 72.7743 24.8877 72.514 24.8014 72.2536C24.715 71.9932 24.6718 71.8196 24.6286 71.6895C24.6286 71.6895 24.5854 71.8196 24.5854 71.9932C24.5854 72.2102 24.5854 72.514 24.6286 72.8611C24.6286 73.2517 24.7582 73.6423 25.0173 74.0328Z" fill="#0B3E6A"/>
<path d="M25.1469 69.6069C25.1901 69.8673 25.2764 70.1711 25.4492 70.4314C25.6219 70.6918 25.8378 70.9522 26.0969 71.1257C26.356 71.2993 26.7014 71.4295 27.0469 71.4729C27.6082 71.5597 28.0401 71.6465 28.4287 71.6899C28.8173 71.7333 29.1196 71.7333 29.3355 71.7333C29.5514 71.7333 29.7241 71.6899 29.8105 71.6899C29.8969 71.6899 29.94 71.6465 29.94 71.6465C29.94 71.6465 30.0264 71.5163 30.1128 71.4295C30.1559 71.3861 30.1559 71.3427 30.1128 71.3427C30.0696 71.2993 29.9832 71.2993 29.8105 71.2125C29.7241 71.1692 29.5514 71.0824 29.206 70.822C29.1196 70.7786 29.0332 70.6918 28.9037 70.605C28.8173 70.5182 28.6878 70.388 28.5582 70.3012C28.2991 70.0843 27.9969 69.7805 27.6082 69.4767C27.1764 69.1296 26.8741 68.7824 26.7014 68.4786C26.5287 68.1315 26.4423 67.8277 26.4423 67.5673C26.4423 67.0032 26.6582 66.6126 26.7446 66.4824C26.7446 66.4824 26.4423 66.6126 26.0969 67.0032C25.9242 67.1768 25.7082 67.4371 25.5355 67.7409C25.3628 68.0447 25.2333 68.4352 25.1469 68.8692C25.1469 68.956 25.1469 69.0428 25.1469 69.1729C25.1037 69.3465 25.1037 69.4767 25.1469 69.6069Z" fill="#0B3E6A"/>
<path d="M30.5878 70.4314C30.6742 70.2578 30.7606 70.0408 30.8037 69.7371C30.8469 69.6069 30.8469 69.3031 30.7606 68.8258C30.6742 68.3484 30.4583 67.6975 30.0265 66.8296C29.7674 66.3522 29.6378 65.9183 29.5947 65.5711C29.5515 65.1805 29.5947 64.8768 29.7242 64.6164C29.9401 64.0522 30.4151 63.7919 30.631 63.7051C30.631 63.7051 30.1992 63.7485 29.6378 63.9654C29.0765 64.1824 28.4719 64.6164 28.1265 65.2673C27.9969 65.4843 27.8674 65.9616 27.9106 66.4824C27.9538 67.0031 28.1697 67.6541 28.5583 68.2182C28.9037 68.6522 29.1197 69.0861 29.2924 69.4333C29.4651 69.7805 29.5515 70.0842 29.6378 70.3446C29.8106 70.822 29.8537 71.0389 29.8537 71.0389C29.8537 71.0389 30.0697 70.9955 30.2424 70.8653C30.4151 70.6918 30.5015 70.605 30.5878 70.4314Z" fill="#0B3E6A"/>
<path d="M32.099 68.9997C32.2285 68.9563 32.3581 68.9129 32.4445 68.8261C32.5308 68.7393 32.574 68.6091 32.6172 68.4355C32.6604 68.3488 32.6604 68.1318 32.7899 67.7412C32.8331 67.5242 32.9626 67.2639 33.0922 66.9601C33.2217 66.6563 33.3945 66.2658 33.5672 65.8318C33.7831 65.3111 34.0422 64.9639 34.3013 64.7035C34.6035 64.4432 34.9058 64.313 35.2081 64.2262C35.5103 64.1828 35.7694 64.1828 35.9422 64.2262C36.1581 64.2696 36.2876 64.313 36.374 64.3564C36.374 64.3564 36.1581 64.096 35.6831 63.7922C35.424 63.6186 35.1217 63.4885 34.7331 63.4017C34.3444 63.3149 33.8694 63.2715 33.3945 63.3149H33.3513C33.1785 63.3583 32.9626 63.4017 32.7035 63.5319C32.4445 63.662 32.2285 63.879 32.0126 64.096C31.7967 64.313 31.6672 64.6167 31.5808 64.9205C31.4945 65.2243 31.4945 65.5714 31.5376 65.9186C31.624 66.4827 31.6672 66.9167 31.6672 67.3073C31.7104 67.6978 31.7104 68.0016 31.7104 68.262C31.7104 68.7393 31.5808 68.9997 31.5808 69.0431C31.5808 69.0865 31.8399 69.0865 32.099 68.9997Z" fill="#0B3E6A"/>
<path d="M33.049 68.7825C33.0922 68.7391 33.1353 68.6957 33.2217 68.6523C33.8694 68.3052 34.3876 67.958 34.8194 67.3505C35.1649 66.8731 35.5103 66.3957 36.0285 66.1354C36.6762 65.7882 37.4103 65.658 38.1012 65.6146C38.0581 65.6146 38.0149 65.5712 37.9717 65.5712C37.7558 65.4844 37.2808 65.4844 36.7626 65.6146C36.2444 65.7448 35.6399 66.0486 35.1649 66.5693C34.7762 67.0033 34.4308 67.2637 34.1285 67.524C33.8262 67.7844 33.5672 67.958 33.3944 68.0882C33.049 68.3919 32.9194 68.5221 32.9194 68.5221C32.9194 68.5221 32.9194 68.5655 32.9626 68.6089C32.9626 68.6523 33.0058 68.6957 33.049 68.7825Z" fill="#0B3E6A"/>
<path d="M41.9877 72.7318C43.6718 71.3432 44.6218 71.7771 44.8377 71.9507C44.8377 71.9507 44.7514 71.6904 44.4923 71.43C44.2764 71.1696 43.8877 70.8224 43.3695 70.6489C43.1968 70.6055 42.765 70.5621 42.29 70.6923C41.7718 70.779 41.2105 70.996 40.6059 71.43C39.6991 72.0809 38.8787 72.2545 38.3173 72.2545C38.2741 72.2545 38.2741 72.2545 38.2309 72.2545C38.1446 72.5149 38.0582 72.7752 37.8855 73.0356C38.1446 73.296 38.5332 73.5998 39.0946 73.7299C39.3537 73.7733 40.4764 73.9903 41.9877 72.7318Z" fill="#0B3E6A"/>
<path d="M41.858 76.2463C42.1603 76.3331 43.3262 76.4633 44.7512 75.118C46.3489 73.5992 47.2989 73.9464 47.5148 74.0765C47.5148 74.0765 47.3853 73.8596 47.1262 73.5992C46.8671 73.3388 46.4785 73.035 45.9603 72.9049C45.7876 72.8615 45.3557 72.8615 44.8807 72.9917C44.4057 73.1218 43.8012 73.3822 43.2398 73.8162C42.3762 74.5105 41.5558 74.7275 40.9944 74.7275C40.3899 74.7275 40.0444 74.5973 40.0012 74.5539C40.0012 74.5539 40.0876 74.8577 40.3899 75.2482C40.6489 75.6822 41.1239 76.0727 41.858 76.2463Z" fill="#0B3E6A"/>
<path d="M47.6445 77.2441C47.9899 76.8535 48.3354 76.5497 48.6377 76.3327C48.7672 76.246 48.9399 76.1592 49.0695 76.0724C49.1558 76.029 49.199 75.9856 49.2422 75.9856C49.2854 75.9422 49.3286 75.9422 49.3717 75.8988C49.7604 75.7252 49.9763 75.7252 50.0195 75.7686C50.0195 75.7686 49.9331 75.595 49.7604 75.4214C49.7172 75.3781 49.674 75.3347 49.6308 75.2913L49.5877 75.2479L49.5013 75.2045C49.4581 75.1611 49.4149 75.1611 49.3717 75.1177C49.1558 75.0309 48.9399 74.9441 48.6808 74.9007C48.5081 74.8573 48.0763 74.9441 47.6013 75.1177C47.1263 75.2913 46.5649 75.595 46.0468 76.0724C45.2263 76.8535 44.449 77.1139 43.8445 77.1573C43.24 77.2007 42.8513 77.0705 42.8513 77.0705C42.8513 77.0705 42.9809 77.3742 43.2831 77.7214C43.5854 78.0686 44.1036 78.4591 44.8809 78.5459C45.0536 78.5893 45.399 78.5893 45.9172 78.4157C46.4354 78.3289 47.0399 77.9818 47.6445 77.2441Z" fill="#0B3E6A"/>
<path d="M51.9627 76.6807C52.265 76.3769 52.5673 76.2901 52.6968 76.2901C52.6968 76.2901 52.4809 76.1599 52.1786 76.0731C52.0059 76.0297 51.8332 75.9863 51.6605 75.9863C51.4877 75.9863 51.2718 76.0297 51.0559 76.0731C50.9264 76.1165 50.6241 76.3335 50.2786 76.6373C49.9332 76.9844 49.5014 77.4184 49.1127 77.9825C48.8105 78.4599 48.465 78.7636 48.0764 78.9806C47.9037 79.0674 47.7309 79.1542 47.515 79.241C47.3423 79.2844 47.1696 79.3278 46.9968 79.3278C46.3923 79.4146 46.0037 79.3278 46.0037 79.3278C46.0037 79.3278 46.1332 79.6316 46.4787 79.9353L46.565 79.9787L46.6082 80.0221L46.6514 80.0655C46.6946 80.1089 46.7809 80.1523 46.8673 80.1957C46.9968 80.2825 47.1696 80.3693 47.3855 80.4561C47.7309 80.5863 48.2059 80.7164 48.6377 80.6731C48.8536 80.6731 49.2855 80.6297 49.7605 80.2825C50.2355 79.9787 50.6673 79.4146 50.9695 78.5033C51.2718 77.5486 51.6173 76.9844 51.9627 76.6807Z" fill="#0B3E6A"/>
<path d="M55.5467 76.8974C55.9353 76.5936 56.3239 76.5502 56.4967 76.5502C56.4967 76.5502 56.2376 76.3767 55.8057 76.2899C55.3739 76.2031 54.8126 76.1597 54.2512 76.3767C54.0353 76.4634 53.733 76.7238 53.3876 77.1144C53.0853 77.5049 52.783 78.0691 52.5671 78.7634C52.308 79.8483 51.7467 80.4992 51.2285 80.8464C50.7103 81.1936 50.1921 81.237 50.1921 81.237C50.1921 81.237 50.4944 81.4973 51.0126 81.6275C51.5308 81.7577 52.2217 81.8011 52.9126 81.4973C53.0421 81.4106 53.3876 81.237 53.6898 80.8464C53.9921 80.4559 54.3376 79.8483 54.5535 78.8936C54.7262 77.8087 55.158 77.2446 55.5467 76.8974Z" fill="#0B3E6A"/>
<path d="M60.124 76.8972C60.124 76.8972 59.8217 76.7671 59.3899 76.7237C58.9581 76.6803 58.3967 76.6803 57.8354 76.984C57.6626 77.0708 57.3604 77.3746 57.0581 77.8086C56.799 78.2425 56.5399 78.8066 56.4535 79.5444C56.2808 80.6293 55.849 81.367 55.3308 81.7575C54.8558 82.1481 54.3808 82.2349 54.3376 82.2783C54.3376 82.2783 54.6831 82.4953 55.2013 82.582C55.7195 82.6688 56.4104 82.6688 57.0581 82.2349C57.1876 82.1481 57.4899 81.9311 57.749 81.4972C58.0081 81.0632 58.2672 80.4123 58.3967 79.4576C58.4831 78.3727 58.8285 77.7218 59.2172 77.3746C59.5626 76.9406 59.9513 76.8972 60.124 76.8972Z" fill="#0B3E6A"/>
<path d="M2.90833 43.1792C3.85833 43.266 4.41969 43.6132 4.80832 44.0037C5.19696 44.3943 5.3265 44.8282 5.41287 45.0018C5.41287 45.0018 5.41286 44.6547 5.36968 44.1339C5.3265 43.6132 5.19696 42.9622 4.89469 42.2679C4.76514 42.0075 4.50605 41.617 4.11742 41.2264C3.72878 40.8358 3.2106 40.4887 2.60606 40.3585C1.65607 40.1415 1.05152 39.4906 0.662891 38.883C0.317438 38.2755 0.187893 37.668 0.187893 37.668C0.187893 37.668 0.0583482 38.1019 -0.028015 38.7529C-0.0711966 39.4038 -0.0280151 40.3585 0.360619 41.3132C0.446982 41.5302 0.66289 41.9641 1.05152 42.3981C1.44016 42.7452 2.0447 43.1358 2.90833 43.1792Z" fill="#0B3E6A"/>
<path d="M0.921865 37.755C1.3105 38.1889 1.87186 38.5795 2.69231 38.7097C3.64231 38.8398 4.20367 39.2738 4.54912 39.6644C4.89457 40.0983 5.02412 40.4889 5.0673 40.7059C5.0673 40.7059 5.11048 40.3587 5.0673 39.8379C5.02412 39.3172 4.98093 38.6229 4.72185 37.9285C4.63548 37.6682 4.37639 37.2776 3.98776 36.8437C3.59912 36.4531 3.12413 36.0625 2.51958 35.8456C1.61277 35.5418 1.00823 34.8475 0.705957 34.2399C0.403686 33.589 0.317323 33.0248 0.317323 32.9814C0.317323 32.9814 0.144597 33.372 0.0582334 34.0663C-0.0281298 34.7173 -0.0281296 35.672 0.317323 36.6267C0.360505 36.8437 0.533231 37.321 0.921865 37.755Z" fill="#0B3E6A"/>
<path d="M4.29004 48.343C5.24003 48.2562 5.88776 48.56 6.31957 48.9072C6.75139 49.2543 6.9673 49.6449 7.05366 49.8185C7.05366 49.8185 7.01048 49.4713 6.88093 48.9506C6.75139 48.4298 6.53548 47.8223 6.10367 47.1713C5.97412 46.9544 5.62867 46.6072 5.19685 46.3034C4.76504 45.9997 4.20368 45.6959 3.55595 45.6525C2.60596 45.5657 1.87187 45.0016 1.44006 44.4808C0.965059 43.9167 0.792333 43.3959 0.792333 43.3525C0.792333 43.3525 0.70597 43.7865 0.749151 44.4374C0.792333 45.0884 1.00824 45.9997 1.52642 46.911C1.65596 47.0846 1.91505 47.5185 2.39005 47.8657C2.82187 48.1261 3.46959 48.3864 4.29004 48.343Z" fill="#0B3E6A"/>
<path d="M6.10386 52.8129C7.01068 52.596 7.70158 52.7696 8.17658 53.0299C8.65158 53.2903 8.91067 53.6375 9.04021 53.8111C9.04021 53.8111 8.95385 53.4639 8.73794 52.9865C8.52203 52.5092 8.21976 51.9016 7.70158 51.3375C7.52886 51.1205 7.14022 50.8601 6.66523 50.5998C6.19023 50.3394 5.58569 50.1658 4.98114 50.2092C4.03115 50.296 3.2107 49.862 2.69252 49.3413C2.17434 48.8639 1.87207 48.3432 1.87207 48.2998C1.87207 48.2998 1.87207 48.7338 2.00161 49.3847C2.13116 50.0356 2.47661 50.9035 3.16752 51.6847C3.29706 51.8582 3.64251 52.2054 4.16069 52.5092C4.59251 52.813 5.28341 52.9865 6.10386 52.8129Z" fill="#0B3E6A"/>
<path d="M8.7811 57.3263C9.64473 56.9791 10.3356 57.0659 10.8538 57.2395C11.372 57.4131 11.6743 57.7169 11.8038 57.8904C11.8038 57.8904 11.6743 57.5867 11.372 57.1527C11.1129 56.7188 10.6811 56.1546 10.1197 55.6773C9.90382 55.5037 9.47201 55.2867 8.95383 55.1131C8.43565 54.9396 7.8311 54.8528 7.22656 54.983C6.27657 55.1999 5.45612 54.8962 4.85157 54.5056C4.24703 54.115 3.90158 53.6377 3.8584 53.6377C3.8584 53.6377 3.90158 54.0716 4.16067 54.7226C4.41976 55.3301 4.85158 56.1546 5.62884 56.849C5.80157 57.0225 6.1902 57.3263 6.70838 57.4999C7.31293 57.5433 8.00383 57.6301 8.7811 57.3263Z" fill="#0B3E6A"/>
<path d="M12.106 61.3615C12.9264 60.8841 13.6173 60.8407 14.1355 60.9709C14.6537 61.1011 15.0423 61.3181 15.1719 61.4483C15.1719 61.4483 14.9992 61.1445 14.6537 60.7539C14.3082 60.3634 13.8332 59.886 13.1855 59.4955C12.9696 59.3653 12.4946 59.1917 11.9764 59.1049C11.4583 59.0181 10.8105 59.0181 10.2492 59.2351C9.34236 59.5823 8.47873 59.4087 7.831 59.1049C7.18328 58.8011 6.75146 58.4106 6.75146 58.3672C6.75146 58.3672 6.88101 58.8011 7.22646 59.3653C7.57192 59.9294 8.13328 60.6672 8.99691 61.2313C9.16963 61.3615 9.60145 61.5785 10.1628 61.7086C10.681 61.8388 11.3719 61.7954 12.106 61.3615Z" fill="#0B3E6A"/>
<path d="M15.9924 64.8767C16.7265 64.2691 17.4174 64.1389 17.9788 64.1823C18.5402 64.2257 18.9288 64.3993 19.1015 64.4861C19.1015 64.4861 18.8856 64.2257 18.497 63.8786C18.1083 63.5314 17.547 63.1409 16.8561 62.8371C16.597 62.7503 16.122 62.6201 15.6038 62.6201C15.0425 62.6201 14.4379 62.7069 13.9197 63.0107C13.0993 63.488 12.1925 63.4446 11.5016 63.271C10.8107 63.0541 10.3357 62.7503 10.2925 62.7069C10.2925 62.7069 10.4652 63.0975 10.897 63.6182C11.3288 64.139 11.9766 64.7899 12.9266 65.1804C13.1425 65.2672 13.5743 65.4408 14.1788 65.4842C14.6538 65.5276 15.3447 65.3974 15.9924 64.8767Z" fill="#0B3E6A"/>
<path d="M15.6038 66.8725C14.8697 66.7857 14.3947 66.5253 14.3516 66.4819C14.3516 66.4819 14.5675 66.8725 15.0856 67.3064C15.5606 67.7404 16.3379 68.3045 17.3311 68.5649C17.547 68.6083 18.022 68.7385 18.5834 68.6517C19.1447 68.5649 19.7924 68.3479 20.3538 67.697C21.0015 67.0027 21.6493 66.7857 22.2106 66.6989C22.7288 66.6555 23.1606 66.7857 23.3333 66.8291C23.3333 66.8291 23.0742 66.6121 22.6424 66.3517C22.2106 66.0914 21.6061 65.7876 20.872 65.5706C20.6129 65.5272 20.1379 65.4838 19.5765 65.5706C19.0152 65.6574 18.4538 65.831 17.9356 66.2215C17.2015 66.8725 16.2947 66.9593 15.6038 66.8725Z" fill="#0B3E6A"/>
<path d="M19.8355 70.3017C20.3969 70.6922 21.2173 71.0828 22.2537 71.213C22.4696 71.2564 22.9878 71.2563 23.506 71.1262C23.6355 71.0828 23.8082 71.0394 23.9378 70.9526C23.9378 70.4318 23.9378 69.8677 23.981 69.347C24.0673 68.7828 24.2832 68.3055 24.5423 67.8281C24.3696 67.8715 24.1969 67.9149 23.981 67.9583C23.4628 68.1319 22.9014 68.3923 22.4696 68.8696C21.8219 69.5639 20.9582 69.8243 20.2242 69.8243C19.4901 69.8243 18.9719 69.6507 18.9287 69.6507C18.9719 69.6073 19.2742 69.9545 19.8355 70.3017Z" fill="#0B3E6A"/>
<path d="M51.833 66.3086C51.833 66.3086 51.4875 66.3954 51.0125 66.569C50.6671 66.6992 50.1921 66.9161 49.7603 67.1765C50.408 67.8708 50.5807 69.0859 50.6671 69.9972C50.6671 70.0406 50.6671 70.1274 50.6671 70.1708C50.7103 69.867 50.7103 69.5633 50.6671 69.2161C50.5375 68.2614 50.7534 67.6105 51.0125 67.1331C51.3148 66.6992 51.6603 66.4388 51.833 66.3086Z" fill="#0B3E6A"/>
<path d="M56.0217 63.749C56.0217 63.749 55.6763 63.8792 55.2444 64.1396C54.8126 64.4 54.2081 64.7905 53.6899 65.3113C53.5172 65.4848 53.2581 65.9188 53.0422 66.4395C52.8263 66.9603 52.6967 67.5678 52.8263 68.1754C52.999 69.1301 52.6535 69.9546 52.2217 70.5187C51.7899 71.0829 51.3149 71.43 51.2717 71.43C51.2717 71.43 51.7035 71.3866 52.3513 71.213C52.999 70.9961 53.8195 70.6055 54.5535 69.8678C54.7263 69.6942 55.0285 69.347 55.2444 68.7829C55.4604 68.2622 55.5467 67.5678 55.2876 66.7433C54.9854 65.832 55.1149 65.1377 55.3308 64.6603C55.5467 64.183 55.849 63.8792 56.0217 63.749Z" fill="#0B3E6A"/>
<path d="M56.2375 68.9124C56.2375 68.9124 56.6694 68.8256 57.2739 68.5219C57.8784 68.2181 58.6125 67.6974 59.2171 66.8295C59.3466 66.6559 59.6057 66.2219 59.7352 65.6578C59.8648 65.0936 59.8648 64.3993 59.4762 63.6616C59.0443 62.8371 59.0443 62.0993 59.2171 61.5786C59.3466 61.0579 59.6057 60.7107 59.7352 60.5371C59.7352 60.5371 59.433 60.7107 59.0443 61.0145C58.6125 61.3182 58.1375 61.7956 57.7057 62.4031C57.5762 62.6201 57.3603 63.054 57.2307 63.6182C57.1012 64.1389 57.058 64.7899 57.2739 65.354C57.5762 66.2653 57.3603 67.1332 57.0148 67.7842C56.6694 68.4785 56.2807 68.869 56.2375 68.9124Z" fill="#0B3E6A"/>
<path d="M63.7513 61.8825C63.7944 61.3184 63.7081 60.6241 63.2331 59.9297C62.6717 59.1486 62.5854 58.4543 62.6285 57.9335C62.6717 57.4128 62.8876 56.9788 63.0172 56.8486C63.0172 56.8486 62.7581 57.0656 62.3694 57.4562C62.024 57.8467 61.5922 58.3675 61.2467 59.0618C61.1172 59.3222 60.9876 59.7561 60.9876 60.3203C60.9445 60.8844 60.9876 61.492 61.2899 62.0561C61.7217 62.924 61.6354 63.8353 61.3763 64.4863C61.1604 65.1806 60.7717 65.6145 60.7717 65.6579C60.7717 65.6579 61.2035 65.4844 61.7217 65.0938C62.2831 64.7032 62.9308 64.0523 63.4058 63.141C63.4922 62.924 63.7081 62.4901 63.7513 61.8825Z" fill="#0B3E6A"/>
<path d="M66.2988 55.7203C65.6511 55.026 65.4352 54.375 65.4352 53.8109C65.392 53.2468 65.5648 52.8562 65.6511 52.6826C65.6511 52.6826 65.392 52.943 65.1329 53.3769C64.8307 53.8109 64.4852 54.4184 64.2693 55.1128C64.183 55.3731 64.1398 55.8505 64.183 56.4146C64.2261 56.9788 64.3989 57.5863 64.7443 58.0637C65.3057 58.8448 65.3489 59.7561 65.2193 60.4504C65.0898 61.1447 64.7875 61.6655 64.7875 61.7089C64.7875 61.7089 65.1761 61.4919 65.6511 61.0146C66.1261 60.5372 66.6875 59.7995 67.0329 58.8448C67.1193 58.6278 67.2488 58.1504 67.2057 57.5863C67.1193 56.9788 66.9034 56.3278 66.2988 55.7203Z" fill="#0B3E6A"/>
<path d="M68.7603 51.0764C68.0262 50.5123 67.7239 49.8614 67.5943 49.3406C67.508 48.8199 67.5943 48.3859 67.6375 48.1689C67.6375 48.1689 67.4216 48.4727 67.2057 48.9067C66.9898 49.384 66.7307 49.9916 66.6012 50.7727C66.558 51.033 66.6012 51.5104 66.7307 52.0745C66.8602 52.5953 67.1193 53.2028 67.5512 53.6368C68.2421 54.3311 68.4148 55.199 68.3716 55.9367C68.3284 56.6311 68.1557 57.1952 68.1125 57.2386C68.1125 57.2386 68.458 56.9782 68.8466 56.4141C69.2353 55.8933 69.7103 55.0688 69.883 54.0273C69.9262 53.8104 69.9694 53.333 69.8398 52.7689C69.7103 52.2047 69.408 51.5972 68.7603 51.0764Z" fill="#0B3E6A"/>
<path d="M70.4442 46.086C69.6238 45.6521 69.2352 45.0445 69.0192 44.5238C68.8465 44.003 68.8465 43.5691 68.8897 43.3955C68.8897 43.3955 68.717 43.6993 68.5874 44.22C68.4147 44.6974 68.2852 45.3917 68.2852 46.1294C68.2852 46.3898 68.3715 46.8672 68.5874 47.3879C68.8033 47.9086 69.1056 48.4294 69.6238 48.82C70.4011 49.3841 70.7033 50.252 70.7897 50.9897C70.8761 51.7275 70.7465 52.2916 70.7465 52.2916C70.7465 52.2916 71.0488 51.9878 71.3511 51.3803C71.6533 50.7728 71.9988 49.9048 71.9988 48.8633C71.9988 48.6464 71.9988 48.1256 71.7829 47.6049C71.567 47.0841 71.1783 46.52 70.4442 46.086Z" fill="#0B3E6A"/>
<path d="M73.3376 43.4393C73.2944 43.2223 73.2081 42.745 72.949 42.2242C72.6467 41.7035 72.1717 41.2261 71.3944 40.9223C70.4876 40.6186 70.0558 40.0978 69.7535 39.6205C69.4944 39.1431 69.4513 38.7092 69.4513 38.4922C69.4513 38.4922 69.3649 38.8394 69.2785 39.3167C69.1922 39.8374 69.149 40.5318 69.2785 41.2695C69.3217 41.5299 69.4944 42.0072 69.7535 42.4412C70.0558 42.9185 70.4444 43.3959 70.9626 43.6997C71.8262 44.177 72.2581 44.9581 72.4308 45.6524C72.6035 46.3468 72.6035 46.9109 72.5603 46.9543C72.5603 46.9543 72.8194 46.6072 73.0353 45.9562C73.2944 45.3921 73.4671 44.4808 73.3376 43.4393Z" fill="#0B3E6A"/>
<path d="M73.8558 37.8846C73.8126 37.6676 73.6399 37.1903 73.2944 36.7563C72.949 36.3224 72.3876 35.8884 71.5672 35.7148C70.6603 35.5412 70.099 35.1073 69.7535 34.6733C69.4081 34.2394 69.3217 33.8054 69.2785 33.6318C69.2785 33.6318 69.2354 33.979 69.2354 34.4997C69.2354 35.0205 69.2785 35.7148 69.4944 36.4092C69.5808 36.6695 69.7967 37.1035 70.1422 37.494C70.4876 37.928 70.9626 38.3186 71.524 38.5355C72.4308 38.8393 72.9922 39.577 73.2512 40.228C73.5535 40.8789 73.5967 41.4864 73.5967 41.4864C73.5967 41.4864 73.7694 41.0959 73.899 40.4449C74.0717 39.794 74.1149 38.8827 73.8558 37.8846Z" fill="#0B3E6A"/>
<path d="M70.9193 30.4643C69.9693 30.4209 69.3647 30.0738 68.9761 29.6832C68.5875 29.2927 68.4147 28.9021 68.3284 28.7285C68.3284 28.7285 68.3284 29.0757 68.4147 29.5964C68.5011 30.1172 68.6306 30.7681 68.9761 31.4624C69.1056 31.7228 69.3647 32.07 69.7965 32.4605C70.1852 32.8077 70.7465 33.1549 71.3511 33.285C72.3011 33.4586 72.9488 34.1096 73.3374 34.7171C73.7261 35.3246 73.8556 35.8888 73.8556 35.9322C73.8556 35.9322 73.9852 35.4982 74.0283 34.8473C74.0715 34.1964 73.9852 33.2417 73.5102 32.3303C73.4238 32.1134 73.2079 31.6794 72.7761 31.2889C72.3443 30.8549 71.7397 30.5077 70.9193 30.4643Z" fill="#0B3E6A"/>
<path d="M69.4943 25.4302C68.5443 25.517 67.8966 25.2566 67.4648 24.9529C67.0329 24.6491 66.7739 24.2585 66.6875 24.085C66.6875 24.085 66.7307 24.4321 66.9034 24.9095C67.0761 25.3868 67.292 26.0378 67.7239 26.6453V26.6887C67.8966 26.9057 68.242 27.2528 68.6738 27.5566C69.1488 27.8604 69.7102 28.1207 70.3147 28.1207C71.2647 28.1641 71.9988 28.6849 72.4738 29.2056C72.9488 29.7264 73.1647 30.2905 73.1647 30.3339C73.1647 30.3339 73.2511 29.9 73.1647 29.2056C73.0784 28.5547 72.8625 27.6434 72.3011 26.7755C72.1716 26.6019 71.8693 26.1679 71.3943 25.8642C70.9625 25.5604 70.3147 25.3434 69.4943 25.4302Z" fill="#0B3E6A"/>
<path d="M67.3352 20.6135C66.4284 20.8738 65.7375 20.7002 65.2625 20.4399C64.7875 20.1795 64.4853 19.8757 64.3557 19.7021C64.3557 19.7021 64.4421 20.0493 64.7012 20.4833C64.9171 20.9606 65.2625 21.5248 65.7807 22.0889C65.9534 22.2625 66.3421 22.5663 66.8602 22.7832C67.3784 23.0002 67.983 23.1738 68.5875 23.087C69.5375 23.0002 70.358 23.3908 70.9193 23.8681C71.4807 24.3455 71.7829 24.8228 71.7829 24.8662C71.7829 24.8662 71.7829 24.4323 71.6102 23.7813C71.4375 23.1304 71.092 22.2625 70.4011 21.5248C70.2716 21.3512 69.883 21.004 69.3648 20.7436C68.8466 20.5701 68.1557 20.3965 67.3352 20.6135Z" fill="#0B3E6A"/>
<path d="M64.4853 16.2299C63.6217 16.6204 62.9308 16.577 62.4126 16.4034C61.8944 16.2299 61.549 15.9261 61.4194 15.7959C61.4194 15.7959 61.549 16.0997 61.8512 16.5336C62.1535 16.9676 62.5853 17.4883 63.1467 17.9657C63.3626 18.1393 63.7944 18.3562 64.3126 18.4864C64.8308 18.6166 65.4785 18.7034 66.083 18.5298C67.033 18.2694 67.8535 18.5732 68.5012 18.9204C69.1058 19.3109 69.4944 19.7449 69.4944 19.7449C69.4944 19.7449 69.4512 19.3109 69.1489 18.7034C68.8899 18.0959 68.4149 17.3147 67.5944 16.6638C67.4217 16.5336 67.033 16.2299 66.4717 16.0563C65.9535 15.9261 65.2626 15.8827 64.4853 16.2299Z" fill="#0B3E6A"/>
<path d="M61.0307 12.2812C60.2534 12.8019 59.5194 12.8453 59.0012 12.7585C58.483 12.6718 58.0944 12.4548 57.9216 12.3246C57.9216 12.3246 58.1375 12.6284 58.483 12.9755C58.8284 13.3661 59.3466 13.8 59.9944 14.1906C60.2103 14.3208 60.6853 14.451 61.2466 14.5378C61.7648 14.5812 62.4125 14.5812 62.9739 14.3208C63.8807 13.9302 64.7443 14.0604 65.3921 14.3642C66.0398 14.6246 66.4716 15.0151 66.5148 15.0585C66.5148 15.0585 66.3852 14.6246 66.0398 14.0604C65.6943 13.4963 65.0898 12.8019 64.183 12.2812C64.0102 12.151 63.5352 11.934 62.9739 11.8472C62.4125 11.8038 61.7216 11.8472 61.0307 12.2812Z" fill="#0B3E6A"/>
<path d="M55.0717 9.72099C54.5103 9.72099 54.1217 9.54741 53.949 9.46062C53.949 9.46062 54.2081 9.72099 54.5967 10.0248C54.9853 10.3285 55.5899 10.7191 56.2808 10.9795C56.5399 11.0663 57.0149 11.153 57.533 11.153C58.0944 11.153 58.699 11.0229 59.2171 10.6757C60.0376 10.1549 60.9444 10.1549 61.6353 10.3285C62.3262 10.5021 62.8012 10.8059 62.8444 10.8493C62.8444 10.8493 62.6285 10.4587 62.1967 9.93797C61.7648 9.41722 61.0739 8.80969 60.1239 8.46252C59.908 8.37573 59.433 8.20215 58.8717 8.20215C58.3103 8.20215 57.6194 8.37573 56.9717 8.93987C56.2808 9.54741 55.5899 9.72099 55.0717 9.72099Z" fill="#0B3E6A"/>
<path d="M50.7103 7.29059C50.1922 7.37738 49.7603 7.2472 49.5444 7.2038C49.5444 7.2038 49.8035 7.42078 50.2785 7.68115C50.7103 7.94153 51.3581 8.24529 52.0922 8.37548C52.3512 8.41888 52.8262 8.41888 53.3876 8.33209C53.9058 8.24529 54.5103 8.02832 54.9853 7.63776C55.7194 6.98682 56.6262 6.85664 57.3171 6.94343C58.0512 6.98682 58.5694 7.2472 58.5694 7.2472C58.5694 7.2472 58.3103 6.90003 57.7921 6.46608C57.2739 6.03212 56.4967 5.55477 55.5035 5.2944C55.2876 5.251 54.8126 5.16421 54.2512 5.251C53.6899 5.33779 53.0421 5.59817 52.4808 6.2491C51.8762 6.94343 51.2285 7.2038 50.7103 7.29059Z" fill="#0B3E6A"/>
<path d="M47.6877 4.25359C47.1695 5.0781 46.5649 5.42526 46.0468 5.55545C45.5286 5.72903 45.0968 5.68564 44.8809 5.64224C44.8809 5.64224 45.1831 5.81582 45.6581 5.98941C46.1331 6.16299 46.7809 6.37997 47.5581 6.42336C47.8172 6.42336 48.2922 6.37997 48.8104 6.20638C49.3286 6.0328 49.8899 5.72903 50.2786 5.25168C50.8831 4.51396 51.7467 4.25359 52.4808 4.21019C53.2149 4.16679 53.7331 4.34038 53.7763 4.34038C53.7763 4.34038 53.474 4.03661 52.9126 3.68944C52.3513 3.34228 51.4876 2.95172 50.4513 2.86493C50.2354 2.82153 49.7172 2.82153 49.199 2.99512C48.724 3.1687 48.1195 3.51586 47.6877 4.25359Z" fill="#0B3E6A"/>
<path d="M42.5922 2.99491C42.2035 3.86282 41.6854 4.29678 41.2104 4.55715C40.7354 4.77413 40.2604 4.81752 40.0876 4.81752C40.0876 4.81752 40.3899 4.94771 40.9081 5.0345C41.4263 5.12129 42.074 5.25148 42.8513 5.16469C43.1104 5.12129 43.5854 4.9911 44.0604 4.73073C44.5354 4.47036 45.0535 4.0798 45.3558 3.55905C45.874 2.73454 46.6944 2.34398 47.3853 2.21379C48.0762 2.04021 48.6808 2.127 48.6808 2.127C48.6808 2.127 48.3353 1.86663 47.7308 1.60625C47.1263 1.34588 46.2194 1.08551 45.1831 1.1723C44.9672 1.1723 44.449 1.25909 43.974 1.51946C43.4558 1.77984 42.9376 2.25719 42.5922 2.99491Z" fill="#0B3E6A"/>
<path d="M36.2446 4.29645C35.8128 4.60022 35.3378 4.68701 35.165 4.73041C35.165 4.73041 35.5105 4.8172 36.0287 4.8172C36.5469 4.8606 37.2378 4.8172 37.9718 4.64362C38.2309 4.55683 38.6628 4.38325 39.0946 4.03608C39.5264 3.68892 39.9582 3.25496 40.2173 2.69082C40.6059 1.77951 41.34 1.30216 41.9877 1.04179C42.6786 0.781418 43.24 0.781418 43.2832 0.781418C43.2832 0.781418 42.8946 0.56444 42.2468 0.390858C41.5991 0.217276 40.6923 0.130485 39.6559 0.347463C39.4832 0.434254 39.0082 0.56444 38.5332 0.868209C38.0582 1.21537 37.5832 1.73612 37.4105 2.56063C37.1514 3.47194 36.6764 3.99269 36.2446 4.29645Z" fill="#0B3E6A"/>
<path d="M32.1854 2.90793C32.0991 3.86263 31.7104 4.42677 31.3218 4.81733C30.9332 5.20789 30.5013 5.33808 30.3286 5.38148C30.3286 5.38148 30.6741 5.42487 31.1922 5.33808C31.7104 5.29468 32.4013 5.1645 33.0491 4.90413C33.3081 4.81733 33.6968 4.51357 34.0854 4.12301C34.474 3.73245 34.8627 3.2117 34.9922 2.60416C35.2513 1.64946 35.899 1.04192 36.5036 0.694759C37.1081 0.347595 37.7127 0.217408 37.7127 0.217408C37.7127 0.217408 37.2809 0.0438264 36.6331 0.000430852C35.9854 -0.0429647 35.0354 -0.0429647 34.0854 0.347595C33.8695 0.434386 33.4377 0.651364 33.0059 1.04192C32.6172 1.47588 32.2718 2.08342 32.1854 2.90793Z" fill="#0B3E6A"/>
<path d="M25.5786 6.72693C25.5786 6.72693 25.9241 6.68353 26.4422 6.55334C26.9604 6.42316 27.6081 6.20618 28.2127 5.81562C28.4286 5.68543 28.774 5.33827 29.1195 4.90431C29.4218 4.47036 29.724 3.90622 29.8104 3.29868C29.8968 2.34398 30.4581 1.60625 31.0195 1.1723C31.5808 0.738344 32.1422 0.521367 32.1854 0.521367C32.1854 0.521367 31.7536 0.434576 31.0627 0.477971C30.4149 0.521367 29.5081 0.694949 28.6013 1.21569C28.3854 1.34588 27.9968 1.60625 27.6513 2.04021C27.3059 2.51756 27.0036 3.16849 27.0468 3.99301C27.09 4.94771 26.7877 5.59864 26.4422 5.9892C26.14 6.46655 25.7513 6.68353 25.5786 6.72693Z" fill="#0B3E6A"/>
<path d="M21.1309 8.80919C21.1309 8.80919 21.4763 8.7224 21.9513 8.54881C22.4263 8.33184 23.0309 8.02807 23.5922 7.55072C23.8081 7.37713 24.1104 6.98658 24.3263 6.50922C24.5854 6.03187 24.7581 5.42434 24.7581 4.8168C24.7581 3.8187 25.1899 3.03758 25.6649 2.51684C26.1399 1.99609 26.6581 1.73572 26.7013 1.69232C26.7013 1.69232 26.2695 1.64893 25.6217 1.82251C24.974 1.95269 24.1104 2.25646 23.2899 2.95079C23.1172 3.08098 22.7286 3.42814 22.4695 3.94889C22.1672 4.46964 21.9945 5.12057 22.1672 5.94508C22.3399 6.85639 22.1672 7.55072 21.9081 8.02807C21.649 8.46202 21.3036 8.7224 21.1309 8.80919Z" fill="#0B3E6A"/>
<path d="M17.0288 11.587C17.0288 11.587 17.3311 11.4568 17.8061 11.1965C18.2379 10.9361 18.7993 10.5455 19.2743 9.93798C19.447 9.721 19.7061 9.33044 19.8788 8.8097C20.0515 8.28895 20.1811 7.68141 20.0515 7.07388C19.8356 6.11918 20.1811 5.29466 20.5697 4.68712C20.9583 4.07959 21.4333 3.73242 21.4765 3.73242C21.4765 3.73242 21.0447 3.77582 20.397 3.99279C19.7924 4.20977 18.972 4.68712 18.2811 5.42485C18.1083 5.59843 17.8061 5.98899 17.6334 6.50974C17.4174 7.03048 17.3743 7.76821 17.6334 8.54933C17.9788 9.41724 17.8924 10.155 17.6765 10.6323C17.5038 11.1097 17.2015 11.4568 17.0288 11.587Z" fill="#0B3E6A"/>
<path d="M13.9197 13.8431C13.7902 14.3638 13.5311 14.7544 13.4447 14.8846C13.4447 14.8846 13.747 14.711 14.1356 14.3638C14.5242 14.0166 14.9992 13.5393 15.4311 12.9318C15.5606 12.7148 15.7333 12.2374 15.8629 11.7167C15.9492 11.1959 15.9924 10.545 15.7765 9.98086C15.4311 9.06955 15.647 8.20164 15.9492 7.55071C16.2515 6.89978 16.6833 6.50922 16.6833 6.46582C16.6833 6.46582 16.2515 6.55261 15.6901 6.89978C15.1288 7.24694 14.3515 7.76769 13.7902 8.6356C13.6606 8.80918 13.4015 9.24313 13.3152 9.80728C13.1856 10.3714 13.2288 11.0657 13.6174 11.8035C14.0061 12.628 14.0061 13.3223 13.9197 13.8431Z" fill="#0B3E6A"/>
<path d="M10.6379 17.6195C10.5947 18.1836 10.422 18.5742 10.2924 18.7478C10.2924 18.7478 10.5515 18.5308 10.897 18.1402C11.2424 17.7497 11.6311 17.1855 11.9333 16.5346C12.0197 16.2742 12.1492 15.7969 12.1492 15.2761C12.1492 14.712 12.1061 14.1044 11.8038 13.5403C11.3288 12.6724 11.4152 11.8045 11.6311 11.1102C11.847 10.4158 12.1924 9.93848 12.1924 9.93848C12.1924 9.93848 11.8038 10.1121 11.2424 10.5026C10.7242 10.9366 10.0765 11.5875 9.64471 12.4988C9.55834 12.7158 9.34243 13.1497 9.34243 13.7573C9.29925 14.3214 9.4288 15.0158 9.94698 15.7101C10.5515 16.361 10.6811 17.0553 10.6379 17.6195Z" fill="#0B3E6A"/>
<path d="M8.00382 21.8281C8.04701 22.3488 7.91746 22.7828 7.8311 22.9564C7.8311 22.9564 8.047 22.696 8.34928 22.2621C8.60837 21.8281 8.95382 21.2206 9.16973 20.4828C9.25609 20.2225 9.25609 19.7451 9.21291 19.181C9.12654 18.6168 8.95382 18.0093 8.60837 17.5319C8.00382 16.7508 7.96064 15.8395 8.047 15.1452C8.13337 14.4509 8.43564 13.9301 8.43564 13.8867C8.43564 13.8867 8.047 14.1037 7.61519 14.581C7.14019 15.0584 6.62201 15.8395 6.31974 16.8376C6.23338 17.0546 6.14702 17.5319 6.1902 18.0961C6.23338 18.6602 6.49247 19.3546 7.09701 19.9187C7.74473 20.613 7.96064 21.3074 8.00382 21.8281Z" fill="#0B3E6A"/>
<path d="M4.80843 24.692C5.5857 25.2562 5.88797 25.8637 6.01752 26.3844C6.14706 26.9052 6.0607 27.3391 6.01752 27.5561C6.01752 27.5561 6.19024 27.2523 6.40615 26.775C6.62206 26.2976 6.83797 25.6467 6.92433 24.909C6.96751 24.6486 6.92433 24.1713 6.7516 23.6505C6.62206 23.1298 6.36297 22.5656 5.88797 22.1317C5.19707 21.4807 4.98116 20.5694 4.98116 19.8751C4.98116 19.1374 5.15389 18.6166 5.19707 18.5732C5.19707 18.5732 4.85162 18.877 4.46298 19.3978C4.07435 19.9619 3.64253 20.7864 3.51299 21.8279C3.46981 22.0449 3.42663 22.5222 3.59935 23.0864C3.77208 23.6071 4.11753 24.2147 4.80843 24.692Z" fill="#0B3E6A"/>
<path d="M3.25389 29.7266C4.11752 30.1606 4.50616 30.7247 4.72207 31.2021C4.93797 31.7228 4.93797 32.1568 4.89479 32.3303C4.89479 32.3303 5.02434 32.0266 5.15388 31.5058C5.28343 30.9851 5.41297 30.3342 5.41297 29.5964C5.41297 29.3361 5.28343 28.8587 5.06752 28.338C4.85161 27.8172 4.50616 27.2965 3.98798 26.9493C3.21071 26.3852 2.86526 25.5606 2.73571 24.8663C2.60617 24.172 2.73571 23.5645 2.73571 23.5645C2.73571 23.5645 2.43344 23.9116 2.13117 24.5192C1.8289 25.1267 1.52663 25.9946 1.56981 27.0361C1.56981 27.2531 1.61299 27.7738 1.8289 28.2946C2.08799 28.8153 2.51981 29.3795 3.25389 29.7266Z" fill="#0B3E6A"/>
<path d="M1.00844 33.1113C1.31071 33.5886 1.82889 34.1094 2.60616 34.3263C3.51297 34.6301 3.98797 35.1075 4.29024 35.5848C4.59251 36.0622 4.63569 36.4961 4.63569 36.6697C4.63569 36.6697 4.72205 36.3225 4.80842 35.8018C4.8516 35.2811 4.89478 34.5867 4.76524 33.849C4.72205 33.5886 4.54933 33.1547 4.24706 32.6773C3.94479 32.2 3.51297 31.766 2.95161 31.4622C2.08798 31.0283 1.61298 30.2472 1.39707 29.5528C1.18116 28.8585 1.18116 28.2944 1.18116 28.251C1.18116 28.251 0.965257 28.6415 0.749349 29.2491C0.533441 29.9 0.403896 30.8113 0.576623 31.8094C0.576623 32.1566 0.706167 32.6339 1.00844 33.1113Z" fill="#0B3E6A"/>
<path d="M7.21537 93.6038V97.466C7.21537 97.683 7.21537 97.8566 7.21537 97.9868C7.21537 98.1604 7.21537 98.2905 7.21537 98.4207C7.21537 98.5075 7.25856 98.5509 7.34492 98.5943L7.94946 98.7679V98.9849C7.51765 98.9849 7.08583 98.9849 6.6972 98.9849C6.30856 98.9849 5.91993 98.9849 5.53129 98.9849V98.7679L6.09265 98.5943C6.17902 98.5509 6.2222 98.5075 6.2222 98.4207C6.2222 98.2905 6.2222 98.1604 6.2222 97.9868C6.2222 97.8132 6.2222 97.6396 6.2222 97.466V92.5189H4.5813C4.5813 93.0397 4.53812 93.5604 4.45175 94.0812C4.40857 94.6019 4.32221 95.1227 4.19266 95.6C4.06312 96.1208 3.93357 96.5981 3.76085 97.1189C3.58812 97.5962 3.37221 98.117 3.11312 98.5943C3.06994 98.6811 3.02676 98.7679 2.98358 98.8113C2.9404 98.8547 2.89722 98.9415 2.81085 98.9849C2.72449 99.0283 2.63813 99.0717 2.55176 99.0717C2.42222 99.0717 2.29267 99.1151 2.11995 99.1151C1.86086 99.1151 1.55859 99.0717 1.21313 99.0283V98.8113L1.51541 98.7679C1.64495 98.7679 1.73131 98.7245 1.81768 98.6811C1.90404 98.6377 1.9904 98.6377 2.03358 98.5943C2.11995 98.5509 2.16313 98.5075 2.24949 98.4641C2.29267 98.4207 2.37904 98.3339 2.4654 98.2471C2.68131 98.0302 2.85404 97.7698 2.98358 97.466C3.15631 97.1623 3.28585 96.8585 3.4154 96.5547C3.54494 96.2075 3.6313 95.9038 3.71767 95.5566C3.80403 95.2094 3.89039 94.8623 3.93358 94.5151C3.97676 94.168 4.01994 93.8642 4.06312 93.5604C4.1063 93.2566 4.1063 92.9529 4.1063 92.6925C4.1063 92.6057 4.06312 92.5623 3.93358 92.5189L3.19949 92.3019V92.085C3.6313 92.085 3.97676 92.085 4.23585 92.085H6.78356C7.17219 92.085 7.60401 92.085 7.99264 92.085L8.03583 92.3019L7.43128 92.4755C7.34492 92.5189 7.30174 92.5623 7.30174 92.6491C7.30174 92.7793 7.30174 92.9095 7.30174 93.0831C7.21538 93.2566 7.21537 93.4302 7.21537 93.6038Z" fill="#0B3E6A"/>
<path d="M12.1812 91.998L14.3835 98.0734C14.4698 98.2904 14.5562 98.464 14.5994 98.5508C14.6857 98.6376 14.7721 98.681 14.9016 98.7244L15.3766 98.8545V99.0715C14.9448 99.0715 14.5562 99.0715 14.1676 99.0715C13.7789 99.0715 13.3471 99.0715 12.8289 99.0715V98.8545L13.3039 98.7244C13.3903 98.681 13.4335 98.681 13.4335 98.6376C13.4767 98.5942 13.4767 98.5508 13.4767 98.5074C13.4767 98.4206 13.4767 98.3338 13.4335 98.247C13.3903 98.1602 13.3471 97.9866 13.3039 97.813L12.8289 96.4678H10.4539L9.93576 97.7697C9.8494 97.9432 9.80622 98.1168 9.76303 98.2036C9.71985 98.3338 9.71985 98.3772 9.71985 98.464C9.71985 98.5074 9.71985 98.5508 9.76303 98.5942C9.80622 98.6376 9.8494 98.6376 9.89258 98.681L10.3676 98.8111V99.0281C9.89258 99.0281 9.50394 99.0281 9.24485 99.0281C8.94258 99.0281 8.59713 99.0281 8.25168 99.0281L8.2085 98.8111L8.72668 98.6376C8.85622 98.5942 8.94258 98.5508 8.98576 98.464C9.02895 98.3772 9.11531 98.247 9.20167 98.0734L11.7062 92.0414L12.1812 91.998ZM10.5835 95.9904H12.613L11.663 93.2565L10.5835 95.9904Z" fill="#0B3E6A"/>
<path d="M17.4495 97.5094C17.4495 97.9 17.4495 98.2037 17.4495 98.4641C17.4495 98.5509 17.4926 98.5943 17.579 98.6377L18.2699 98.8547V99.0716C17.7949 99.0716 17.3631 99.0716 16.9745 99.0716C16.5858 99.0716 16.1972 99.0716 15.7654 99.0716V98.8547L16.3699 98.6811C16.4563 98.6377 16.4995 98.5943 16.4995 98.5075C16.4995 98.2471 16.4995 97.9 16.4995 97.5094V93.4736C16.4995 93.3 16.4995 93.1699 16.4995 92.9963C16.4995 92.8661 16.4995 92.7359 16.4995 92.6491C16.4995 92.5623 16.4563 92.5189 16.3699 92.4755L15.7654 92.3019V92.085C16.1972 92.085 16.5858 92.085 16.9745 92.085H18.1404C18.9608 92.085 19.7381 92.085 20.4722 92.085L20.5154 92.1284L20.1699 93.951L19.954 93.9944L19.5654 92.5623H17.4495V97.5094Z" fill="#0B3E6A"/>
<path d="M25.2221 92.085C25.5675 92.085 25.9561 92.085 26.3016 92.085C26.647 92.085 26.9925 92.085 27.338 92.085V92.3019L26.8198 92.4755C26.7334 92.5189 26.6902 92.5189 26.647 92.5623C26.6039 92.6057 26.5607 92.6491 26.5175 92.6925C26.4743 92.7359 26.4311 92.7793 26.4311 92.8661C26.388 92.9529 26.388 92.9963 26.3448 93.1265C26.1721 93.6038 25.9993 94.0812 25.8266 94.5151C25.6539 94.9491 25.4811 95.4264 25.3084 95.8604C25.1357 96.2943 24.9198 96.7283 24.7471 97.2056C24.5311 97.6396 24.3584 98.0735 24.0993 98.5509C24.013 98.7245 23.9266 98.898 23.8834 98.9848C23.7971 99.115 23.7539 99.2018 23.6675 99.2452C23.5812 99.332 23.4948 99.3754 23.3652 99.3754C23.2357 99.4188 23.063 99.4188 22.8903 99.4188C22.588 99.4188 22.2857 99.3754 21.9834 99.332V99.115L22.2857 99.0716C22.5016 99.0282 22.7175 98.9848 22.8471 98.8547C23.0198 98.7679 23.1493 98.6377 23.2789 98.5075C23.4084 98.3773 23.538 98.2037 23.6243 98.0301C23.7539 97.8566 23.8402 97.6396 23.9698 97.4226L21.7243 93.0397C21.6812 92.9529 21.638 92.8661 21.5948 92.8227C21.5516 92.7359 21.5084 92.6925 21.4653 92.6491C21.4221 92.6057 21.3789 92.5623 21.3357 92.5189C21.2925 92.4755 21.2062 92.4321 21.1198 92.4321L20.688 92.3019V92.085C20.9903 92.085 21.3789 92.085 21.8971 92.085C22.2857 92.085 22.7607 92.085 23.2789 92.085V92.3019L22.8039 92.4321C22.6743 92.4755 22.588 92.5189 22.588 92.6491C22.588 92.7359 22.6312 92.8227 22.6743 92.9529C22.7175 93.0831 22.8039 93.2132 22.8903 93.3434L24.488 96.4679C24.7039 95.9472 24.9198 95.4264 25.1357 94.9057C25.3084 94.4283 25.4811 93.9076 25.6971 93.4302C25.7834 93.2132 25.8266 93.0397 25.8698 92.9095C25.913 92.7793 25.913 92.6925 25.913 92.6491C25.913 92.6057 25.913 92.5623 25.8698 92.5189C25.8266 92.4755 25.7834 92.4755 25.7402 92.4321L25.2652 92.3019L25.2221 92.085Z" fill="#0B3E6A"/>
<path d="M29.4106 95.6V97.5094C29.4106 97.9 29.4106 98.2471 29.4106 98.5075C29.4106 98.5943 29.4538 98.6377 29.5402 98.6811L30.1016 98.8547V99.0716C29.7129 99.0716 29.3243 99.0716 28.9356 99.0716C28.547 99.0716 28.1584 99.0716 27.7266 99.0716V98.8547L28.3311 98.6811C28.4175 98.6377 28.4606 98.5943 28.4606 98.5075C28.4606 98.2471 28.4606 97.9 28.4606 97.5094V93.4736C28.4606 93.1265 28.4606 92.8661 28.4606 92.6491C28.4606 92.5623 28.4175 92.5189 28.3311 92.4755L27.7266 92.3019V92.085C28.1584 92.085 28.547 92.085 28.9356 92.085C29.3243 92.085 29.7129 92.085 30.1016 92.085L30.1447 92.3019L29.5834 92.4755C29.497 92.4755 29.4538 92.5623 29.4538 92.6491C29.4538 92.8661 29.4538 93.1698 29.4538 93.4736V95.166H33.0379V93.4736C33.0379 93.1698 33.0379 92.8661 33.0379 92.6491C33.0379 92.5623 32.9947 92.5189 32.9084 92.4755L32.347 92.3019V92.085C32.7356 92.085 33.1243 92.085 33.5561 92.085C33.9447 92.085 34.3333 92.085 34.7652 92.085V92.3019L34.1606 92.4755C34.0743 92.5189 34.0311 92.5623 34.0311 92.6491C34.0311 92.8661 34.0311 93.1265 34.0311 93.4736V97.5094C34.0311 97.9 34.0311 98.2471 34.0311 98.5075C34.0311 98.5943 34.0743 98.6377 34.1606 98.6811L34.7652 98.8547V99.0716C34.3333 99.0716 33.9015 99.0716 33.5129 99.0716C33.1243 99.0716 32.7356 99.0716 32.347 99.0716V98.8547L32.9084 98.6811C32.9947 98.6377 33.0379 98.5943 33.0379 98.5075C33.0379 98.2471 33.0379 97.9 33.0379 97.5094V95.6H29.4106Z" fill="#0B3E6A"/>
<path d="M39.9038 97.509C39.9038 97.726 39.9038 97.8995 39.9038 98.0297C39.9038 98.2033 39.9038 98.3335 39.9038 98.4637C39.9038 98.5505 39.947 98.5939 40.0334 98.6373L40.7243 98.8542V99.0712C40.2493 99.0712 39.8174 99.0712 39.4288 99.0712C39.0402 99.0712 38.6084 99.0712 38.2197 99.0712V98.8542L38.8243 98.6807C38.9106 98.6373 38.9538 98.5939 38.9538 98.5071C38.9538 98.3769 38.9538 98.2467 38.9538 98.0731C38.9538 97.8995 38.9538 97.726 38.9538 97.5524V93.5166C38.9538 93.343 38.9538 93.2128 38.9538 93.0392C38.9538 92.909 38.9538 92.7789 38.9538 92.6921C38.9538 92.6053 38.9106 92.5619 38.8243 92.5185L38.2197 92.3449V92.1279C38.6515 92.1279 39.0402 92.1279 39.472 92.1279C39.7311 92.1279 39.9902 92.1279 40.2493 92.1279C40.5083 92.1279 40.7243 92.1279 40.9402 92.1279C41.7174 92.1279 42.322 92.3015 42.7106 92.6053C43.0992 92.909 43.3151 93.3864 43.3151 93.9505C43.3151 94.6449 43.0992 95.209 42.6242 95.5996C42.1492 95.9901 41.5015 96.2071 40.6811 96.2071C40.4652 96.2071 40.2061 96.2071 39.947 96.1637V97.509H39.9038ZM39.9038 95.6864C40.1197 95.7298 40.3788 95.7298 40.5947 95.7298C41.1129 95.7298 41.5015 95.5996 41.8038 95.3392C42.0629 95.0788 42.2356 94.6449 42.2356 94.0807C42.2356 93.56 42.1061 93.126 41.847 92.8657C41.5879 92.6053 41.1561 92.4751 40.5947 92.4751C40.3788 92.4751 40.1629 92.4751 39.947 92.5185V95.6864H39.9038Z" fill="#0B3E6A"/>
<path d="M46.5538 91.998L48.756 98.0734C48.8424 98.2904 48.9288 98.464 48.9719 98.5508C49.0583 98.6376 49.1447 98.681 49.2742 98.7244L49.7492 98.8545V99.0715C49.3174 99.0715 48.9288 99.0715 48.5401 99.0715C48.1515 99.0715 47.7197 99.0715 47.2015 99.0715V98.8545L47.6765 98.7244C47.7628 98.681 47.806 98.681 47.806 98.6376C47.8492 98.5942 47.8492 98.5508 47.8492 98.5074C47.8492 98.4206 47.8492 98.3338 47.806 98.247C47.7628 98.1602 47.7197 97.9866 47.6765 97.813L47.2015 96.4678H44.8265L44.3083 97.7697C44.222 97.9432 44.1788 98.1168 44.1356 98.2036C44.0924 98.3338 44.0924 98.3772 44.0924 98.464C44.0924 98.5074 44.0924 98.5508 44.1356 98.5942C44.1788 98.6376 44.222 98.6376 44.2651 98.681L44.7401 98.8111V99.0281C44.2651 99.0281 43.8765 99.0281 43.6174 99.0281C43.3151 99.0281 42.9697 99.0281 42.6242 99.0281L42.5811 98.8111L43.0992 98.6376C43.2288 98.5942 43.3151 98.5508 43.3583 98.464C43.4015 98.3772 43.4879 98.247 43.5742 98.0734L46.0788 92.0414L46.5538 91.998ZM44.9992 95.9904H47.0288L46.0788 93.2565L44.9992 95.9904Z" fill="#0B3E6A"/>
<path d="M55.5787 93.6038V97.466C55.5787 97.683 55.5787 97.8566 55.5787 97.9868C55.5787 98.1603 55.5787 98.2905 55.5787 98.4207C55.5787 98.5075 55.6218 98.5509 55.7082 98.5943L56.3127 98.7679V98.9849C55.8809 98.9849 55.4491 98.9849 55.0605 98.9849C54.6718 98.9849 54.2832 98.9849 53.8946 98.9849V98.7679L54.4559 98.5943C54.5423 98.5509 54.5855 98.5075 54.5855 98.4207C54.5855 98.2905 54.5855 98.1603 54.5855 97.9868C54.5855 97.8132 54.5855 97.6396 54.5855 97.466V92.5189H52.9446C52.9446 93.0397 52.9014 93.5604 52.815 94.0812C52.7719 94.6019 52.6855 95.1227 52.5559 95.6C52.4264 96.1208 52.2969 96.5981 52.1241 97.1189C51.9514 97.5962 51.7355 98.1169 51.4764 98.5943C51.4332 98.6811 51.39 98.7679 51.3469 98.8113C51.3037 98.8547 51.2605 98.9415 51.1741 98.9849C51.0878 99.0283 51.0014 99.0717 50.915 99.0717C50.7855 99.0717 50.656 99.115 50.4832 99.115C50.2241 99.115 49.9219 99.0716 49.5764 99.0283V98.8113L49.8787 98.7679C50.0082 98.7679 50.0946 98.7245 50.181 98.6811C50.2673 98.6377 50.3537 98.6377 50.3969 98.5943C50.4832 98.5509 50.5264 98.5075 50.6128 98.4641C50.656 98.4207 50.7423 98.3339 50.8287 98.2471C51.0446 98.0302 51.2173 97.7698 51.3469 97.466C51.5196 97.1622 51.6491 96.8585 51.7787 96.5547C51.9082 96.2075 51.9946 95.9038 52.0809 95.5566C52.1673 95.2094 52.2537 94.8623 52.2969 94.5151C52.34 94.168 52.3832 93.8642 52.4264 93.5604C52.4696 93.2566 52.4696 92.9529 52.4696 92.6925C52.4696 92.6057 52.4264 92.5623 52.2969 92.5189L51.5628 92.3019V92.085C51.9946 92.085 52.34 92.085 52.5991 92.085H55.1468C55.5355 92.085 55.9673 92.085 56.3559 92.085L56.3991 92.3019L55.7946 92.4755C55.7082 92.5189 55.665 92.5623 55.665 92.6491C55.665 92.7793 55.665 92.9095 55.665 93.0831C55.5787 93.2566 55.5787 93.4302 55.5787 93.6038Z" fill="#0B3E6A"/>
<path d="M62.7037 93.6038V97.466C62.7037 97.683 62.7037 97.8566 62.7037 97.9868C62.7037 98.1603 62.7037 98.2905 62.7037 98.4207C62.7037 98.5075 62.7468 98.5509 62.8332 98.5943L63.4377 98.7679V98.9849C63.0059 98.9849 62.5741 98.9849 62.1855 98.9849C61.7968 98.9849 61.4082 98.9849 61.0196 98.9849V98.7679L61.5809 98.5943C61.6673 98.5509 61.7105 98.5075 61.7105 98.4207C61.7105 98.2905 61.7105 98.1603 61.7105 97.9868C61.7105 97.8132 61.7105 97.6396 61.7105 97.466V92.5189H60.0696C60.0696 93.0397 60.0264 93.5604 59.94 94.0812C59.8969 94.6019 59.8105 95.1227 59.6809 95.6C59.5514 96.1208 59.4219 96.5981 59.2491 97.1189C59.0764 97.5962 58.8605 98.1169 58.6014 98.5943C58.5582 98.6811 58.515 98.7679 58.4719 98.8113C58.4287 98.8547 58.3855 98.9415 58.2991 98.9849C58.2128 99.0283 58.1264 99.0717 58.04 99.0717C57.9105 99.0717 57.781 99.115 57.6082 99.115C57.3491 99.115 57.0469 99.0716 56.7014 99.0283V98.8113L57.0037 98.7679C57.1332 98.7679 57.2196 98.7245 57.306 98.6811C57.3923 98.6377 57.4787 98.6377 57.5219 98.5943C57.6082 98.5509 57.6514 98.5075 57.7378 98.4641C57.781 98.4207 57.8673 98.3339 57.9537 98.2471C58.1696 98.0302 58.3423 97.7698 58.4719 97.466C58.6446 97.1622 58.7741 96.8585 58.9037 96.5547C59.0332 96.2075 59.1196 95.9038 59.2059 95.5566C59.2923 95.2094 59.3787 94.8623 59.4219 94.5151C59.465 94.168 59.5082 93.8642 59.5514 93.5604C59.5946 93.2566 59.5946 92.9529 59.5946 92.6925C59.5946 92.6057 59.5514 92.5623 59.4219 92.5189L58.6878 92.3019V92.085C59.1196 92.085 59.465 92.085 59.7241 92.085H62.2718C62.6605 92.085 63.0923 92.085 63.4809 92.085L63.5241 92.3019L62.9196 92.4755C62.8332 92.5189 62.79 92.5623 62.79 92.6491C62.79 92.7793 62.79 92.9095 62.79 93.0831C62.7037 93.2566 62.7037 93.4302 62.7037 93.6038Z" fill="#0B3E6A"/>
<path d="M66.1582 97.7258V98.4635C66.1582 98.5503 66.2014 98.5937 66.2877 98.6371L66.8491 98.8107V99.0277C66.4605 99.0277 66.0718 99.0277 65.6832 99.0277C65.2946 99.0277 64.9059 99.0277 64.4741 99.0277V98.8107L65.0787 98.6371C65.165 98.5937 65.2082 98.5503 65.2082 98.4635C65.2082 98.2032 65.2082 97.856 65.2082 97.4655V93.4297C65.2082 93.0825 65.2082 92.8221 65.2082 92.6052C65.2082 92.5184 65.165 92.475 65.0787 92.4316L64.4741 92.258V92.041C64.9059 92.041 65.2946 92.041 65.6832 92.041C66.0718 92.041 66.4605 92.041 66.8491 92.041L66.8923 92.258L66.3309 92.4316C66.2446 92.4316 66.2014 92.5184 66.2014 92.6052C66.2014 92.8221 66.2014 93.1259 66.2014 93.4297V96.9881L69.8718 93.0825V92.6052C69.8718 92.5184 69.8286 92.475 69.7423 92.4316L69.1809 92.258V92.041C69.5695 92.041 70.0013 92.041 70.39 92.041C70.7786 92.041 71.1672 92.041 71.5991 92.041V92.258L70.9945 92.4316C70.9081 92.475 70.865 92.5184 70.865 92.6052C70.865 92.8221 70.865 93.0825 70.865 93.4297V97.4655C70.865 97.856 70.865 98.2032 70.865 98.4635C70.865 98.5503 70.9081 98.5937 70.9945 98.6371L71.5991 98.8107V99.0277C71.1672 99.0277 70.7354 99.0277 70.3468 99.0277C69.9582 99.0277 69.5695 99.0277 69.1809 99.0277L69.1377 98.8107L69.6991 98.6371C69.7854 98.5937 69.8286 98.5503 69.8286 98.4635V97.4655V93.7768L66.1582 97.7258Z" fill="#0B3E6A"/>
<path d="M31.0194 84.7519L31.2353 84.7085L31.1489 86.2707L31.1058 86.3141C30.458 86.3141 29.724 86.3141 29.033 86.3141C28.3421 86.3141 27.7376 86.3141 27.1762 86.3141L27.1331 85.9235C27.4353 85.7066 27.7376 85.533 27.9535 85.3594C28.2126 85.1858 28.4285 85.0122 28.6012 84.8821C28.774 84.7519 28.9467 84.5783 29.0762 84.4481C29.2058 84.3179 29.3353 84.1877 29.4217 84.0575C29.508 83.9273 29.5944 83.7972 29.6376 83.667C29.6808 83.5368 29.724 83.4066 29.724 83.233C29.724 82.9292 29.5944 82.7123 29.3785 82.4953C29.1626 82.3217 28.9035 82.2349 28.5581 82.2349C28.1694 82.2349 27.824 82.3217 27.4353 82.5387L27.2626 82.1915C27.8671 81.7576 28.4717 81.584 29.1194 81.584C29.5944 81.584 29.983 81.7142 30.2853 81.9312C30.5876 82.1481 30.7603 82.4519 30.7603 82.8859C30.7603 83.1462 30.7171 83.3632 30.5876 83.5802C30.458 83.7972 30.3285 84.0141 30.1126 84.2311C29.8967 84.4481 29.6376 84.6651 29.3353 84.8387C29.033 85.0556 28.6876 85.2726 28.299 85.4896V85.533H30.7171L31.0194 84.7519Z" fill="#0B3E6A"/>
<path d="M36.7193 83.9275C36.7193 84.7086 36.5034 85.3161 36.0715 85.7501C35.6397 86.184 35.0352 86.4444 34.3443 86.4444C33.6534 86.4444 33.092 86.2274 32.7034 85.8369C32.2716 85.4029 32.0557 84.8388 32.0557 84.101C32.0557 83.3633 32.2716 82.7558 32.7034 82.3218C33.1352 81.8879 33.7397 81.6709 34.4306 81.6709C35.1216 81.6709 35.6829 81.8879 36.0715 82.2784C36.5034 82.6256 36.7193 83.1897 36.7193 83.9275ZM33.0488 83.9709C33.0488 84.6218 33.1784 85.1425 33.3943 85.4897C33.6102 85.8803 33.9557 86.0538 34.3875 86.0538C34.8193 86.0538 35.1647 85.8803 35.3375 85.5765C35.5534 85.2293 35.6397 84.752 35.6397 84.0576C35.6397 83.4067 35.5102 82.886 35.2943 82.5388C35.0784 82.1916 34.7329 82.0181 34.3011 82.0181C33.8693 82.0181 33.5238 82.1916 33.3079 82.4954C33.1784 82.7992 33.0488 83.3199 33.0488 83.9709Z" fill="#0B3E6A"/>
<path d="M37.2375 82.1916L37.1943 81.9747C37.8421 81.8879 38.4898 81.7577 39.1807 81.6709L39.2239 81.7143C39.1807 82.2784 39.1807 82.886 39.1807 83.4935V84.7086C39.1807 85.1425 39.1807 85.4897 39.1807 85.7501C39.1807 85.8369 39.2239 85.9237 39.3102 85.9237L40.0875 86.1406V86.3576C39.483 86.3576 39.008 86.3576 38.7057 86.3576C38.4034 86.3576 37.9284 86.3576 37.3239 86.3576V86.1406L38.1443 85.9237C38.2307 85.8803 38.2739 85.8369 38.2739 85.7501C38.2739 85.4897 38.2739 85.1859 38.2739 84.8822V84.0577C38.2739 83.4067 38.2739 82.7992 38.2739 82.3218L37.2375 82.1916Z" fill="#0B3E6A"/>
<path d="M40.9943 88.2235C41.8148 88.0933 42.5057 87.7462 43.0239 87.2688C43.5852 86.7915 43.9307 86.1405 44.1898 85.2726C43.8011 85.7066 43.3261 85.9235 42.6784 85.9235C42.0739 85.9235 41.5557 85.7066 41.167 85.316C40.7784 84.9254 40.5625 84.4047 40.5625 83.8406C40.5625 83.1896 40.7784 82.6689 41.2102 82.2349C41.642 81.801 42.2034 81.584 42.8511 81.584C43.542 81.584 44.1466 81.8444 44.5784 82.3651C45.0102 82.8859 45.2693 83.5368 45.2693 84.3179C45.2693 85.4028 44.8807 86.3575 44.1466 87.1386C43.3693 87.9197 42.3761 88.3537 41.1239 88.5273L40.9943 88.2235ZM41.5989 83.5368C41.5989 84.1009 41.7284 84.5783 41.9875 84.9254C42.2466 85.2726 42.592 85.4462 42.9807 85.4462C43.3693 85.4462 43.6716 85.316 43.8875 85.0556C44.1034 84.7953 44.1898 84.4047 44.1898 83.9707C44.1898 83.4066 44.0602 82.9292 43.7579 82.5387C43.4557 82.1481 43.1534 81.9745 42.7648 81.9745C42.4193 81.9745 42.117 82.1047 41.9011 82.4085C41.6852 82.7123 41.5989 83.0594 41.5989 83.5368Z" fill="#0B3E6A"/>
</g>
<defs>
<clipPath id="clip0">
<rect width="74" height="99" fill="#0B3E6A"/>
</clipPath>
</defs>
</svg>
