<svg width="151" height="24" viewBox="0 0 151 24" fill="none" xmlns="http://www.w3.org/2000/svg">
<g clip-path="url(#clip0)">
<path fill-rule="evenodd" clip-rule="evenodd" d="M58.9817 3.13086L60.6422 4.79178H71.3218L72.9824 3.13086H58.9817ZM77.3424 11.1475V22.3397H71.4826V24.0003H79.003V9.48692L77.3424 11.1475ZM58.1343 24.0003H67.4737L65.8132 22.3397H59.7951V16.3213L58.1343 14.6607V24.0003Z" fill="#F6F6F6"/>
<path fill-rule="evenodd" clip-rule="evenodd" d="M79.003 0L69.822 8.97863V16.4891L79.003 7.51015V0ZM58.1343 12.5702L69.822 23.9999V16.4894L58.1343 5.06V12.5702Z" fill="#F6F6F6"/>
<path fill-rule="evenodd" clip-rule="evenodd" d="M85.351 10.0988L85.434 11.1207C85.769 10.7067 86.132 10.4114 86.523 10.2346C86.914 10.0578 87.36 9.96942 87.863 9.96942C88.347 9.96942 88.751 10.0363 89.077 10.1699C89.403 10.3036 89.714 10.5472 90.012 10.9008L89.133 11.6381C88.937 11.4139 88.719 11.2479 88.477 11.1401C88.235 11.0323 87.984 10.9784 87.723 10.9784C87.202 10.9784 86.779 11.0733 86.453 11.263C86.128 11.4527 85.816 11.7416 85.518 12.1297V16.5666H84.2202V10.0988H85.351ZM92.371 10.0988V16.5666H91.073V10.0988H92.371ZM91.729 7.30469C92.017 7.30469 92.24 7.38446 92.398 7.544C92.557 7.70354 92.636 7.89541 92.636 8.11963C92.636 8.33522 92.557 8.52494 92.398 8.6888C92.24 8.85265 92.017 8.93457 91.729 8.93457C91.44 8.93457 91.217 8.85265 91.059 8.6888C90.901 8.52494 90.821 8.33522 90.821 8.11963C90.821 7.89541 90.901 7.70354 91.059 7.544C91.217 7.38446 91.44 7.30469 91.729 7.30469ZM95.036 10.0988L97.465 15.5447H97.52L100.032 10.0988H101.372L98.19 16.5666H96.683L93.627 10.0988H95.036ZM103.619 13.6302C103.647 13.9838 103.735 14.2921 103.884 14.5551C104.033 14.8181 104.229 15.0337 104.47 15.2019C104.712 15.37 104.989 15.4951 105.301 15.577C105.613 15.6589 105.936 15.6999 106.271 15.6999C106.764 15.6999 107.199 15.6632 107.576 15.5899C107.953 15.5166 108.322 15.3851 108.685 15.1954L109.062 16.1785C108.829 16.282 108.608 16.3661 108.399 16.4308C108.19 16.4954 107.973 16.5472 107.75 16.586C107.527 16.6248 107.287 16.6528 107.031 16.6701C106.776 16.6873 106.494 16.6959 106.187 16.6959C105.554 16.6959 104.996 16.6183 104.512 16.4631C104.029 16.3079 103.621 16.0837 103.291 15.7904C102.961 15.4972 102.71 15.1437 102.538 14.7297C102.365 14.3158 102.279 13.8544 102.279 13.3456C102.279 12.8454 102.375 12.3862 102.565 11.968C102.756 11.5497 103.024 11.194 103.368 10.9008C103.712 10.6076 104.115 10.3791 104.575 10.2152C105.036 10.0513 105.54 9.96942 106.089 9.96942C106.648 9.96942 107.131 10.0363 107.541 10.1699C107.95 10.3036 108.29 10.489 108.56 10.7262C108.829 10.9633 109.029 11.2457 109.16 11.5734C109.29 11.9011 109.355 12.259 109.355 12.6471C109.355 12.8282 109.346 12.9942 109.327 13.1451C109.309 13.296 109.276 13.4577 109.229 13.6302H103.619ZM108.099 12.6988C108.09 12.0607 107.918 11.6079 107.583 11.3406C107.248 11.0733 106.703 10.9396 105.95 10.9396C105.671 10.9396 105.394 10.9762 105.119 11.0495C104.845 11.1228 104.601 11.2328 104.387 11.3794C104.173 11.526 103.994 11.7093 103.849 11.9292C103.705 12.1491 103.619 12.4056 103.591 12.6988H108.099ZM111.951 10.0988L112.035 11.1207C112.37 10.7067 112.732 10.4114 113.123 10.2346C113.514 10.0578 113.961 9.96942 114.463 9.96942C114.947 9.96942 115.352 10.0363 115.677 10.1699C116.003 10.3036 116.315 10.5472 116.612 10.9008L115.733 11.6381C115.538 11.4139 115.319 11.2479 115.077 11.1401C114.835 11.0323 114.584 10.9784 114.323 10.9784C113.802 10.9784 113.379 11.0733 113.053 11.263C112.728 11.4527 112.416 11.7416 112.118 12.1297V16.5666H110.82V10.0988H111.951ZM122.432 11.3018C122.069 11.1466 121.723 11.0409 121.392 10.9849C121.062 10.9288 120.706 10.9008 120.325 10.9008C119.711 10.9008 119.266 10.9806 118.992 11.1401C118.717 11.2996 118.58 11.5044 118.58 11.7545C118.58 12.0736 118.736 12.2914 119.048 12.4078C119.359 12.5242 119.822 12.6126 120.436 12.673C121.311 12.7592 121.988 12.9554 122.467 13.2615C122.946 13.5677 123.186 14.0528 123.186 14.7168C123.186 15.3894 122.888 15.8875 122.292 16.2108C121.697 16.5342 120.887 16.6959 119.864 16.6959C119.352 16.6959 118.903 16.6636 118.517 16.5989C118.131 16.5342 117.733 16.42 117.324 16.2561L117.645 15.273C118.334 15.5749 119.055 15.7258 119.808 15.7258C121.25 15.7258 121.971 15.3851 121.971 14.7039C121.971 14.54 121.939 14.402 121.874 14.2899C121.809 14.1778 121.702 14.0851 121.553 14.0118C121.404 13.9385 121.208 13.8781 120.967 13.8307C120.725 13.7833 120.422 13.7423 120.059 13.7078C119.148 13.6216 118.468 13.4362 118.022 13.1516C117.575 12.867 117.352 12.4315 117.352 11.8451C117.352 11.5864 117.412 11.3428 117.533 11.1142C117.654 10.8857 117.838 10.6873 118.085 10.5192C118.331 10.351 118.643 10.2174 119.02 10.1182C119.397 10.019 119.836 9.96942 120.339 9.96942C120.59 9.96942 120.82 9.97589 121.029 9.98882C121.239 10.0018 121.441 10.0233 121.636 10.0535C121.832 10.0837 122.027 10.1246 122.223 10.1764C122.418 10.2281 122.623 10.2928 122.837 10.3704L122.432 11.3018ZM123.981 10.4998L124.93 9.94355L125.949 8.48183L126.382 8.5465V10.0988H129.159L129.117 11.0948L126.382 10.9784V14.3805C126.382 14.872 126.502 15.2213 126.744 15.4282C126.986 15.6352 127.298 15.7387 127.679 15.7387C127.986 15.7387 128.263 15.6999 128.51 15.6223C128.756 15.5447 129.01 15.4326 129.27 15.286L129.689 16.1526C129.401 16.3424 129.087 16.4803 128.747 16.5666C128.407 16.6528 128.005 16.6959 127.54 16.6959C126.74 16.6959 126.128 16.5019 125.705 16.1138C125.281 15.7258 125.07 15.1523 125.07 14.3934V11.0948L123.981 10.9525V10.4998ZM130.931 10.5386C131.452 10.3402 131.934 10.1958 132.376 10.1052C132.818 10.0147 133.327 9.96942 133.904 9.96942C134.937 9.96942 135.697 10.1462 136.186 10.4998C136.674 10.8534 136.918 11.4268 136.918 12.2202V14.9238C136.918 15.2342 136.974 15.4433 137.086 15.5511C137.197 15.6589 137.43 15.7128 137.784 15.7128V16.5666C137.625 16.6097 137.479 16.642 137.344 16.6636C137.209 16.6852 137.049 16.6959 136.863 16.6959C136.574 16.6959 136.346 16.6011 136.179 16.4114C136.011 16.2216 135.914 15.9629 135.886 15.6352C135.244 16.3424 134.285 16.6959 133.011 16.6959C132.192 16.6959 131.571 16.5191 131.148 16.1656C130.724 15.812 130.513 15.3291 130.513 14.7168C130.513 14.4236 130.561 14.1562 130.659 13.9148C130.757 13.6733 130.927 13.4275 131.168 13.1775C131.485 13.0912 131.803 13.0136 132.124 12.9446C132.445 12.8756 132.787 12.8196 133.15 12.7764C133.513 12.7333 133.899 12.6988 134.309 12.673C134.718 12.6471 135.169 12.6298 135.662 12.6212V12.259C135.662 11.8106 135.53 11.4829 135.265 11.2759C134.999 11.0689 134.527 10.9655 133.848 10.9655C132.973 10.9655 132.094 11.1422 131.21 11.4958L130.931 10.5386ZM135.662 13.4879C134.853 13.5052 134.171 13.5461 133.618 13.6108C133.064 13.6755 132.559 13.7639 132.104 13.876C131.917 14.0829 131.824 14.3417 131.824 14.6521C131.824 15.0057 131.943 15.2709 132.18 15.4476C132.418 15.6244 132.755 15.7128 133.192 15.7128C133.657 15.7128 134.088 15.6482 134.483 15.5188C134.878 15.3894 135.272 15.1695 135.662 14.8591V13.4879ZM140.268 10.0988L140.352 11.1207C140.686 10.7067 141.049 10.4114 141.44 10.2346C141.831 10.0578 142.277 9.96942 142.78 9.96942C143.264 9.96942 143.668 10.0363 143.994 10.1699C144.32 10.3036 144.631 10.5472 144.929 10.9008L144.05 11.6381C143.855 11.4139 143.636 11.2479 143.394 11.1401C143.152 11.0323 142.901 10.9784 142.64 10.9784C142.119 10.9784 141.696 11.0733 141.37 11.263C141.045 11.4527 140.733 11.7416 140.435 12.1297V16.5666H139.137V10.0988H140.268ZM145.292 10.4998L146.241 9.94355L147.26 8.48183L147.692 8.5465V10.0988H150.47L150.428 11.0948L147.692 10.9784V14.3805C147.692 14.872 147.813 15.2213 148.055 15.4282C148.297 15.6352 148.609 15.7387 148.99 15.7387C149.297 15.7387 149.574 15.6999 149.821 15.6223C150.067 15.5447 150.321 15.4326 150.581 15.286L151 16.1526C150.712 16.3424 150.398 16.4803 150.058 16.5666C149.718 16.6528 149.316 16.6959 148.851 16.6959C148.051 16.6959 147.439 16.5019 147.016 16.1138C146.592 15.7258 146.381 15.1523 146.381 14.3934V11.0948L145.292 10.9525V10.4998Z" fill="#F6F6F6"/>
<path fill-rule="evenodd" clip-rule="evenodd" d="M0.711187 10.7175L0.795565 11.8045C1.13308 11.3398 1.50474 11.0228 1.91056 10.8534C2.31638 10.684 2.72822 10.5994 3.1461 10.5994C3.6604 10.5994 4.08229 10.6939 4.41177 10.8829C4.74125 11.072 5.01045 11.3674 5.21939 11.7691C5.56494 11.3516 5.94262 11.0523 6.35246 10.8711C6.7623 10.6899 7.20829 10.5994 7.69046 10.5994C8.50212 10.5994 9.09879 10.8121 9.48051 11.2374C9.86215 11.6627 10.053 12.3086 10.053 13.1751V16.6252H9.18519V13.1987C9.18519 12.5844 9.06859 12.1196 8.83557 11.8045C8.60254 11.4894 8.22084 11.3319 7.69046 11.3319C7.20829 11.3319 6.7844 11.4343 6.41876 11.6391C6.05312 11.8439 5.72967 12.1353 5.44841 12.5134C5.46448 12.6237 5.47854 12.7281 5.4906 12.8265C5.50265 12.925 5.50868 13.0412 5.50868 13.1751V16.6252H4.64079V13.1869C4.64079 12.5962 4.52427 12.1393 4.29123 11.8163C4.05818 11.4934 3.67648 11.3319 3.1461 11.3319C2.62375 11.3319 2.17575 11.4441 1.80208 11.6687C1.4284 11.8932 1.117 12.2063 0.867887 12.608V16.6252H0V10.7175H0.711187ZM11.9455 11.0838C12.3554 10.9105 12.7511 10.7864 13.1328 10.7116C13.5146 10.6368 13.9425 10.5994 14.4166 10.5994C15.2925 10.5994 15.9354 10.7569 16.3453 11.072C16.755 11.387 16.96 11.903 16.96 12.6198V15.1837C16.96 15.4988 17.0162 15.7134 17.1288 15.8276C17.2412 15.9418 17.4542 16.0068 17.7676 16.0226V16.6252C17.6711 16.6645 17.5707 16.6941 17.4662 16.7138C17.3618 16.7334 17.2412 16.7433 17.1047 16.7433C16.8636 16.7433 16.6747 16.6685 16.5381 16.5188C16.4015 16.3692 16.3171 16.1053 16.2849 15.7272C15.9314 16.0974 15.5236 16.3593 15.0615 16.5129C14.5994 16.6665 14.1153 16.7433 13.609 16.7433C12.8857 16.7433 12.3574 16.5838 12.0239 16.2648C11.6904 15.9458 11.5236 15.5185 11.5236 14.9828C11.5236 14.715 11.5618 14.4747 11.6381 14.2621C11.7145 14.0494 11.8491 13.8328 12.042 13.6123C12.3152 13.5335 12.5964 13.4626 12.8857 13.3996C13.175 13.3365 13.4824 13.2853 13.8079 13.246C14.1333 13.2066 14.4849 13.1751 14.8626 13.1515C15.2403 13.1279 15.6541 13.1081 16.1042 13.0924V12.6552C16.1042 12.4268 16.076 12.2299 16.0197 12.0645C15.9635 11.8991 15.8671 11.7632 15.7304 11.6568C15.5939 11.5505 15.4131 11.4717 15.1881 11.4205C14.963 11.3693 14.6858 11.3438 14.3563 11.3438C13.9786 11.3438 13.619 11.3792 13.2775 11.45C12.936 11.521 12.5683 11.6352 12.1746 11.7927L11.9455 11.0838ZM16.1042 13.7186C15.3166 13.7344 14.6597 13.7757 14.1333 13.8427C13.607 13.9096 13.1389 13.9943 12.729 14.0967C12.6165 14.2306 12.5362 14.3626 12.488 14.4925C12.4397 14.6224 12.4156 14.7623 12.4156 14.912C12.4156 15.6367 12.8416 15.9989 13.6934 15.9989C14.1514 15.9989 14.5773 15.934 14.971 15.804C15.3648 15.674 15.7426 15.4357 16.1042 15.0892V13.7186ZM24.6263 8V16.377C24.3853 16.4479 24.1543 16.505 23.9333 16.5483C23.7122 16.5917 23.4852 16.6291 23.2522 16.6606C23.0192 16.6921 22.772 16.7138 22.5109 16.7256C22.2497 16.7374 21.9624 16.7433 21.649 16.7433C21.1748 16.7433 20.7449 16.6803 20.3593 16.5542C19.9735 16.4282 19.644 16.2373 19.3708 15.9812C19.0976 15.7252 18.8866 15.4062 18.738 15.0242C18.5893 14.6422 18.5149 14.1951 18.5149 13.6832C18.5149 13.2263 18.5953 12.8069 18.7561 12.4248C18.9168 12.0428 19.1417 11.7179 19.431 11.45C19.7203 11.1822 20.0619 10.9735 20.4556 10.8239C20.8494 10.6742 21.2754 10.5994 21.7334 10.5994C22.1593 10.5994 22.5249 10.6466 22.8303 10.7411C23.1357 10.8357 23.445 10.9853 23.7584 11.1901V8H24.6263ZM23.7584 12.0527C23.4772 11.8242 23.1819 11.647 22.8724 11.521C22.5631 11.395 22.2155 11.3319 21.8298 11.3319C21.5004 11.3319 21.189 11.3811 20.8956 11.4796C20.6023 11.5781 20.3451 11.7258 20.1242 11.9227C19.9032 12.1196 19.7284 12.3638 19.5998 12.6552C19.4712 12.9467 19.4069 13.2853 19.4069 13.6713C19.4069 14.073 19.4692 14.4197 19.5938 14.7111C19.7184 15.0026 19.8931 15.2428 20.1181 15.4318C20.3432 15.6209 20.6063 15.7606 20.9077 15.8512C21.209 15.9418 21.5405 15.9871 21.9021 15.9871C22.2637 15.9871 22.5852 15.9714 22.8664 15.9399C23.1477 15.9083 23.445 15.8493 23.7584 15.7627V12.0527ZM26.7117 13.8604C26.7358 14.2306 26.8181 14.5516 26.9588 14.8233C27.0994 15.0951 27.2842 15.3176 27.5133 15.4909C27.7423 15.6641 28.0035 15.7922 28.2968 15.8749C28.5901 15.9576 28.9015 15.9989 29.231 15.9989C29.6488 15.9989 30.0265 15.9655 30.3641 15.8985C30.7016 15.8316 31.023 15.7193 31.3284 15.5618L31.5815 16.3062C31.2118 16.4716 30.8462 16.5858 30.4846 16.6488C30.123 16.7118 29.689 16.7433 29.1828 16.7433C28.6444 16.7433 28.1662 16.6724 27.7483 16.5306C27.3305 16.3888 26.9809 16.184 26.6996 15.9162C26.4183 15.6485 26.2034 15.3255 26.0548 14.9474C25.9061 14.5693 25.8317 14.1479 25.8317 13.6832C25.8317 13.2263 25.9141 12.8069 26.0789 12.4248C26.2436 12.0428 26.4726 11.7179 26.766 11.45C27.0592 11.1822 27.4048 10.9735 27.8025 10.8239C28.2003 10.6742 28.6323 10.5994 29.0984 10.5994C29.5725 10.5994 29.9824 10.6604 30.3279 10.7825C30.6734 10.9046 30.9608 11.072 31.1897 11.2846C31.4188 11.4973 31.5895 11.7513 31.7021 12.0468C31.8145 12.3421 31.8708 12.667 31.8708 13.0215C31.8708 13.1791 31.8648 13.3228 31.8527 13.4528C31.8406 13.5827 31.8145 13.7186 31.7744 13.8604H26.7117ZM31.0391 13.1397C31.0391 12.4859 30.8763 12.0211 30.5509 11.7454C30.2255 11.4698 29.7091 11.3319 29.0019 11.3319C28.7287 11.3319 28.4636 11.3713 28.2064 11.45C27.9492 11.5288 27.7162 11.643 27.5072 11.7927C27.2983 11.9423 27.1235 12.1314 26.9829 12.3598C26.8423 12.5882 26.7559 12.8482 26.7237 13.1397H31.0391ZM37.5001 8V11.202C37.8616 10.9814 38.2193 10.8258 38.5729 10.7352C38.9264 10.6446 39.3282 10.5994 39.7782 10.5994C40.7265 10.5994 41.4598 10.8455 41.9781 11.3378C42.4964 11.8301 42.7556 12.5725 42.7556 13.565C42.7556 14.0534 42.6671 14.4925 42.4904 14.8824C42.3136 15.2723 42.0665 15.6051 41.7491 15.8808C41.4316 16.1565 41.0559 16.3692 40.622 16.5188C40.188 16.6685 39.714 16.7433 39.1996 16.7433C38.9264 16.7433 38.6773 16.7334 38.4523 16.7138C38.2273 16.6941 38.0123 16.6606 37.8074 16.6133C37.6025 16.5661 37.4056 16.505 37.2168 16.4302C37.0279 16.3553 36.833 16.2668 36.6322 16.1644V8H37.5001ZM37.5001 15.6327C37.6446 15.7035 37.7833 15.7606 37.9159 15.804C38.0485 15.8473 38.1811 15.8828 38.3137 15.9103C38.4463 15.9379 38.5849 15.9576 38.7295 15.9694C38.8742 15.9812 39.0349 15.9871 39.2117 15.9871C39.6055 15.9871 39.967 15.932 40.2965 15.8217C40.626 15.7115 40.9073 15.5539 41.1403 15.3491C41.3734 15.1443 41.5542 14.8903 41.6828 14.587C41.8114 14.2838 41.8756 13.9392 41.8756 13.5532C41.8756 12.8128 41.6888 12.2555 41.3151 11.8813C40.9415 11.5071 40.393 11.3201 39.6697 11.3201C39.2358 11.3201 38.8461 11.3752 38.5005 11.4855C38.155 11.5958 37.8215 11.7612 37.5001 11.9817V15.6327ZM44.5155 10.7175L46.9745 15.7272H47.0468L49.0357 10.7175H50L47.0347 17.7949C46.8741 18.1809 46.6249 18.4782 46.2874 18.6869C45.9499 18.8957 45.5883 19 45.2025 19C44.9775 19 44.7485 18.9567 44.5155 18.87L44.6601 18.1729C44.8047 18.2123 44.9695 18.2321 45.1543 18.2321C45.4597 18.2321 45.7128 18.1611 45.9137 18.0193C46.1147 17.8776 46.2714 17.6412 46.3838 17.3104L46.5887 16.7315L43.5391 10.7175H44.5155Z" fill="#F6F6F6"/>
</g>
<defs>
<clipPath id="clip0">
<rect width="151" height="24" fill="white"/>
</clipPath>
</defs>
</svg>
